<svg width="206" height="26" viewBox="0 0 206 26" fill="none" xmlns="http://www.w3.org/2000/svg">
<path d="M10.3034 14.2951L1.14489 20.2427H5.90287L13.1487 15.5373V22.2287L16.2067 20.2428V14.2951H25.3653L29.3557 11.7037H19.0518L28.2101 5.75625L23.4521 5.75625L16.2067 10.4615V3.77032L13.1487 5.75626V11.7037H3.99043L0 14.2951H10.3034Z" fill="#F8F8F7"/>
<path d="M111.691 14.0489L115.747 9.49298H118.625L114.628 13.8291L119.084 20.2434H116.247L113.01 15.5676L111.691 16.9863V20.2434H109.313V5.75632H111.691V14.0489Z" fill="#F8F8F7"/>
<path d="M108.096 9.43301C106.637 9.47297 105.618 10.1923 105.099 11.4312V9.49296H102.781V20.2434H105.159V14.7083C105.159 12.5902 105.998 11.7909 107.636 11.7909C107.936 11.7909 108.216 11.8109 108.616 11.8708V9.45299C108.436 9.43301 108.256 9.43301 108.096 9.43301Z" fill="#F8F8F7"/>
<path fill-rule="evenodd" clip-rule="evenodd" d="M98.9336 11.0915C98.2742 9.95253 97.0154 9.29312 95.5167 9.29312C92.939 9.29312 90.8808 11.3713 90.8808 14.8881C90.8808 18.425 92.939 20.5031 95.5167 20.5031C97.0154 20.5031 98.2742 19.8437 98.9336 18.6847V20.2433H101.332V9.49295H98.9336V11.0915ZM99.0535 14.8881C99.0535 17.4858 97.6947 18.5648 96.1961 18.5648C94.5576 18.5648 93.4186 17.246 93.4186 14.8881C93.4186 12.5502 94.5576 11.2314 96.1961 11.2314C97.6947 11.2314 99.0535 12.2904 99.0535 14.8881Z" fill="#F8F8F7"/>
<path fill-rule="evenodd" clip-rule="evenodd" d="M82.2685 23.3636L79.8907 23.7402V9.49295H82.2685V11.0915C82.9479 9.95254 84.1868 9.29312 85.7055 9.29312C88.2832 9.29312 90.3613 11.3713 90.3613 14.8881C90.3613 18.425 88.2832 20.5031 85.7055 20.5031C84.1868 20.5031 82.9479 19.8437 82.2685 18.6847V23.3636ZM85.0061 18.5648C86.6646 18.5648 87.8236 17.246 87.8236 14.8881C87.8236 12.5502 86.6646 11.2314 85.0061 11.2314C83.5074 11.2314 82.1686 12.2904 82.1686 14.8881C82.1686 17.4858 83.5074 18.5648 85.0061 18.5648Z" fill="#F8F8F7"/>
<path d="M75.2706 13.8691L73.5721 13.5493C72.573 13.3695 72.0535 13.0298 72.0535 12.3704C72.0535 11.5112 73.0526 11.1315 74.1116 11.1315C75.2906 11.1315 76.2298 11.5311 76.4895 12.6302H78.8274C78.4677 10.4521 76.6294 9.25318 74.2715 9.25318C71.7937 9.25318 69.7355 10.4121 69.7355 12.4703C69.7355 14.3686 71.2742 15.1679 72.9527 15.4876L74.6711 15.8073C75.8701 16.0271 76.6694 16.4268 76.6694 17.286C76.6694 18.1452 75.6503 18.6448 74.3514 18.6448C72.9327 18.6448 72.0934 18.0054 71.8137 16.7665H69.4558C69.7156 18.8846 71.494 20.5031 74.3115 20.5031C76.9691 20.5031 79.0073 19.2842 79.0073 17.0462C79.0073 15.048 77.4886 14.2887 75.2706 13.8691Z" fill="#F8F8F7"/>
<path d="M58.17 11.2314C56.5515 11.2314 55.6523 12.3504 55.6523 14.5285V20.2434H53.2744V6.1329L55.6523 5.75632V11.0316C56.2118 10.0924 57.3108 9.29316 59.0692 9.29316C61.7269 9.29316 62.6461 10.9517 62.6461 13.5693V20.2434H60.2682V14.2287C60.2682 12.6102 60.0684 11.2314 58.17 11.2314Z" fill="#F8F8F7"/>
<path fill-rule="evenodd" clip-rule="evenodd" d="M49.3359 11.0915C48.6565 9.95255 47.4576 9.29314 45.9589 9.29314C43.4212 9.29314 41.3231 11.2114 41.3231 14.6284C41.3231 18.0853 43.4212 19.9836 45.9589 19.9836C47.4576 19.9836 48.6565 19.3442 49.3359 18.1852V19.4241C49.3359 21.3624 48.2968 22.1217 46.6783 22.1217C45.2596 22.1217 44.6001 21.5622 44.3004 20.643H41.9225C42.3222 22.7611 44.0207 24 46.6783 24C49.6956 24 51.6938 22.5213 51.6938 19.0444V9.49296H49.3359V11.0915ZM49.4358 14.6284C49.4358 17.1261 48.137 18.0653 46.6383 18.0653C45.0397 18.0653 43.8608 16.8864 43.8608 14.6284C43.8608 12.4104 45.0397 11.2314 46.6383 11.2314C48.137 11.2314 49.4358 12.1506 49.4358 14.6284Z" fill="#F8F8F7"/>
<path d="M64.6473 17.4259C64.6473 19.7638 65.2868 20.2434 67.5647 20.2434H69.7074L68.889 18.405H68.2641C67.2051 18.405 67.0252 18.1452 67.0252 17.0662V11.2913H69.1833V9.49295H67.0252V6.69545H64.6473V9.49295H62.6874L63.4881 11.2914L64.6473 11.2913V17.4259Z" fill="#F8F8F7"/>
<path d="M37.9935 20.2434V9.49297H40.3713V20.2434H37.9935Z" fill="#F8F8F7"/>
<path d="M37.9935 5.75631V8.11421H40.3713V5.75631H37.9935Z" fill="#F8F8F7"/>
<path d="M33.9432 5.75632V20.2434H36.3211V5.75632H33.9432Z" fill="#F8F8F7"/>
<path opacity="0.24" d="M137.77 1L127.084 25" stroke="#F8F8F7"/>
<path d="M155.679 5.83374V10.0454H158.193V5.83374H164.102V11.7432H159.89V14.2568H164.102V20.1662H158.193V15.9546H155.679V20.1662H149.77V14.2568H153.981V11.7432H149.77V5.83374H155.679ZM159.89 18.4685H162.404V15.9546H159.89V18.4685ZM151.467 18.4685H153.981V15.9546H151.467V18.4685ZM155.679 14.2568H158.193V11.7432H155.679V14.2568ZM159.89 10.0454H162.404V7.53153H159.89V10.0454ZM151.467 10.0454H153.981V7.53153H151.467V10.0454Z" fill="#F8F8F7"/>
<path d="M176.735 5.58234C179.698 5.58234 182.069 7.24167 182.662 10.0072H180.706C180.239 8.43216 178.969 7.31655 176.743 7.28206L176.636 7.28116C174.108 7.28116 172.132 9.25661 172.132 12.9704C172.132 16.5854 173.989 18.7188 176.636 18.7188C178.553 18.7188 180.864 17.9286 180.864 14.9655V14.5902H177.071V12.8519H182.76V20.1608H181.18L181.081 18.3633C180.153 19.825 178.474 20.4176 176.558 20.4176C172.429 20.4176 170.078 17.336 170.078 12.9704C170.078 8.52572 172.705 5.58236 176.735 5.58234Z" fill="#F8F8F7"/>
<path fill-rule="evenodd" clip-rule="evenodd" d="M205.143 5.83915V20.1608H203.345V18.5607C202.693 19.6867 201.568 20.4176 199.869 20.4176C197.439 20.4176 195.325 18.4027 195.325 14.8865C195.325 11.3901 197.439 9.35541 199.869 9.35541L200.026 9.35752C201.637 9.40144 202.714 10.1215 203.345 11.2123V5.83915H205.143ZM200.323 10.8961C198.486 10.8961 197.281 12.358 197.281 14.8865C197.281 17.415 198.486 18.8768 200.323 18.8768C201.923 18.8768 203.424 17.6916 203.424 14.8865C203.424 12.0814 201.923 10.8961 200.323 10.8961Z" fill="#F8F8F7"/>
<path d="M189.79 9.47387C189.968 9.47387 190.126 9.47386 190.323 9.49361V11.4098C189.908 11.3505 189.612 11.3308 189.316 11.3308C187.657 11.3308 186.827 12.2592 186.827 14.5902V20.1608H185.029V9.53309H186.787V11.39C187.321 10.185 188.407 9.51339 189.79 9.47387Z" fill="#F8F8F7"/>
<path d="M193.526 20.1608H191.729V9.53309H193.526V20.1608Z" fill="#F8F8F7"/>
<path d="M193.526 8.01211H191.729V5.83915H193.526V8.01211Z" fill="#F8F8F7"/>
</svg>
