<svg width="90" height="25" viewBox="0 0 90 25" fill="none" xmlns="http://www.w3.org/2000/svg">
<path d="M9.60476 0.408203V7.25349H13.6903V0.408203H23.2951V10.013H16.4498V14.0985H23.2951V23.7033H13.6903V16.858H9.60476V23.7033H0V14.0985H6.84529V10.013H0V0.408203H9.60476ZM16.4498 20.9438H20.5356V16.858H16.4498V20.9438ZM2.75947 20.9438H6.84529V16.858H2.75947V20.9438ZM9.60476 14.0985H13.6903V10.013H9.60476V14.0985ZM16.4498 7.25349H20.5356V3.16768H16.4498V7.25349ZM2.75947 7.25349H6.84529V3.16768H2.75947V7.25349Z" fill="#1A1A1A"/>
<path d="M43.8278 0C48.6438 0 52.4968 2.69697 53.46 7.19193H50.2814C49.5229 4.63192 47.4576 2.81868 43.8408 2.76262L43.6674 2.76115C39.5577 2.76115 36.3468 5.97191 36.3468 12.008C36.3468 17.8836 39.365 21.3512 43.6674 21.3512C46.7817 21.3512 50.5381 20.0668 50.5381 15.2508V14.6408H44.3736V11.8155H53.6204V23.6949H51.0518L50.8914 20.7733C49.3823 23.1491 46.6533 24.1123 43.539 24.1123C36.8286 24.1123 33.0078 19.1037 33.0078 12.008C33.0078 4.78398 37.278 3.16866e-05 43.8278 0Z" fill="#1A1A1A"/>
<path fill-rule="evenodd" clip-rule="evenodd" d="M89.9999 0.417406V23.6949H87.0781V21.0942C86.0186 22.9243 84.1886 24.1123 81.4274 24.1123C77.4783 24.1123 74.0427 20.8374 74.0427 15.1224C74.0427 9.43947 77.4783 6.13249 81.4274 6.13249L81.6834 6.13592C84.3021 6.20732 86.0517 7.37769 87.0781 9.15061V0.417406H89.9999ZM82.1657 8.63669C79.1798 8.63671 77.2213 11.0127 77.2213 15.1224C77.2213 19.2321 79.1798 21.6079 82.1657 21.6079C84.7664 21.6079 87.2067 19.6816 87.2067 15.1224C87.2067 10.5632 84.7664 8.63669 82.1657 8.63669Z" fill="#1A1A1A"/>
<path d="M65.046 6.32503C65.3349 6.32503 65.5918 6.32502 65.9129 6.35712V9.4715C65.2387 9.37519 64.7571 9.34315 64.2756 9.34314C61.5786 9.34314 60.2301 10.8522 60.2301 14.6408V23.6949H57.3083V6.4213H60.1657V9.43941C61.0326 7.48091 62.7985 6.38927 65.046 6.32503Z" fill="#1A1A1A"/>
<path d="M71.1189 23.6949H68.1971V6.4213H71.1189V23.6949Z" fill="#1A1A1A"/>
<path d="M71.1189 3.94919H68.1971V0.417406H71.1189V3.94919Z" fill="#1A1A1A"/>
</svg>
