<svg width="62" height="20" viewBox="0 0 61.8557 20" fill="none" xmlns="http://www.w3.org/2000/svg" aria-hidden="true">
  <path d="M40.3017 0C35.9154 0 31.9772 2.28235 31.9772 6.47059C31.9772 11.2941 38.9339 11.6235 38.9339 14.0235C38.9339 15.0353 37.7548 15.9529 35.7739 15.9529C32.9441 15.9529 30.8217 14.6824 30.8217 14.6824L29.9256 18.9176C29.9256 18.9176 32.3545 20 35.6089 20C40.4196 20 44.1927 17.6235 44.1927 13.3412C44.1927 8.25882 37.2124 7.92941 37.2124 5.69412C37.2124 4.89412 38.1793 4.02353 40.1602 4.02353C42.4005 4.02353 44.2399 4.94118 44.2399 4.94118L45.136 0.847059C45.1124 0.847059 43.108 0 40.3017 0ZM0.11791 0.305882L0 0.917647C0 0.917647 1.8394 1.24706 3.51372 1.92941C5.65969 2.70588 5.80118 3.15294 6.17849 4.54118L10.1167 19.6706H15.3991L23.4877 0.305882H18.2289L13.0173 13.4824L10.8949 2.30588C10.7062 1.03529 9.7158 0.305882 8.48953 0.305882H0.11791ZM25.6101 0.305882L21.4832 19.6706H26.5062L30.6095 0.305882H25.6101ZM53.5784 0.305882C52.3757 0.305882 51.739 0.941176 51.2673 2.07059L43.9097 19.6706H49.1685L50.1826 16.7294H56.5969L57.21 19.6706H61.8557L57.8231 0.305882H53.5784ZM54.2623 5.55294L55.8187 12.8235H51.6447L54.2623 5.55294Z" fill="#ffffff"/>
</svg>
