<svg width="222" height="222" viewBox="0 0 222 222" fill="none" xmlns="http://www.w3.org/2000/svg">
<g opacity="0.2">
<path d="M190.25 111C190.25 67.2314 154.769 31.75 111 31.75C67.2315 31.75 31.75 67.2315 31.75 111C31.75 124.106 34.929 136.459 40.5537 147.34C40.9737 148.152 41.1018 149.084 40.918 149.98L32.8643 189.224L73.2646 181.665L73.5859 181.618C74.3379 181.54 75.0993 181.676 75.7803 182.015C86.3854 187.285 98.341 190.25 111 190.25C154.769 190.25 190.25 154.769 190.25 111ZM198.25 111C198.25 159.187 159.187 198.25 111 198.25C97.5594 198.25 84.8185 195.207 73.4375 189.771L28.4854 198.182C27.1761 198.427 25.8311 198.004 24.8975 197.054C23.9638 196.104 23.5644 194.751 23.832 193.446L32.8018 149.737C27.0073 138.062 23.75 124.906 23.75 111C23.75 62.8132 62.8132 23.75 111 23.75C159.187 23.75 198.25 62.8132 198.25 111Z" fill="white"/>
<path d="M61.2812 111C61.2812 115.47 64.9049 119.094 69.375 119.094C73.8451 119.094 77.4688 115.47 77.4688 111C77.4688 106.53 73.8451 102.906 69.375 102.906C64.9049 102.906 61.2812 106.53 61.2812 111ZM102.906 111C102.906 115.47 106.53 119.094 111 119.094C115.47 119.094 119.094 115.47 119.094 111C119.094 106.53 115.47 102.906 111 102.906C106.53 102.906 102.906 106.53 102.906 111ZM144.531 111C144.531 115.47 148.155 119.094 152.625 119.094C157.095 119.094 160.719 115.47 160.719 111C160.719 106.53 157.095 102.906 152.625 102.906C148.155 102.906 144.531 106.53 144.531 111Z" fill="white"/>
<path d="M75.4688 111C75.4688 107.635 72.7404 104.906 69.375 104.906C66.0096 104.906 63.2812 107.635 63.2812 111C63.2812 114.365 66.0096 117.094 69.375 117.094C72.7404 117.094 75.4688 114.365 75.4688 111ZM117.094 111C117.094 107.635 114.365 104.906 111 104.906C107.635 104.906 104.906 107.635 104.906 111C104.906 114.365 107.635 117.094 111 117.094C114.365 117.094 117.094 114.365 117.094 111ZM158.719 111C158.719 107.635 155.99 104.906 152.625 104.906C149.26 104.906 146.531 107.635 146.531 111C146.531 114.365 149.26 117.094 152.625 117.094C155.99 117.094 158.719 114.365 158.719 111ZM79.4688 111C79.4688 116.574 74.9497 121.094 69.375 121.094C63.8003 121.094 59.2812 116.574 59.2812 111C59.2812 105.426 63.8003 100.906 69.375 100.906C74.9497 100.906 79.4688 105.426 79.4688 111ZM121.094 111C121.094 116.574 116.574 121.094 111 121.094C105.426 121.094 100.906 116.574 100.906 111C100.906 105.426 105.426 100.906 111 100.906C116.574 100.906 121.094 105.426 121.094 111ZM162.719 111C162.719 116.574 158.199 121.094 152.625 121.094C147.051 121.094 142.531 116.574 142.531 111C142.531 105.426 147.051 100.906 152.625 100.906C158.199 100.906 162.719 105.426 162.719 111Z" fill="white"/>
</g>
</svg>
