<svg width="24" height="24" viewBox="0 0 24 24" fill="none" xmlns="http://www.w3.org/2000/svg">
<g clip-path="url(#clip0_2109_13159)">
<path fill-rule="evenodd" clip-rule="evenodd" d="M13.7458 6.87306H9.6437V0H0V9.64367H6.87306H9.6437H13.7458V6.87306ZM6.87306 6.87306H2.77063V2.77062H6.87306V6.87306Z" fill="#11A967"/>
<path fill-rule="evenodd" clip-rule="evenodd" d="M13.7458 0V6.87306V9.64367H16.5165H23.3899V0H13.7458ZM20.6189 6.87306H16.5165V2.77062H20.6189V6.87306Z" fill="#00B3E0"/>
<path fill-rule="evenodd" clip-rule="evenodd" d="M9.6437 23.3901V16.5167V13.7461H6.87306H0V23.3901H9.6437ZM6.87306 20.6192H2.77063V16.5167H6.87306V20.6192Z" fill="#0072DB"/>
<path fill-rule="evenodd" clip-rule="evenodd" d="M16.5166 13.7458V9.64355H13.7459V13.7458H9.6438V16.5164H13.7459V23.3897H23.39V13.7458H16.5166ZM20.619 20.6188H16.5166V16.5164H20.619V20.6188Z" fill="#0091FF"/>
<path d="M6.87341 9.64355V13.7458H9.64402V9.64355H6.87341Z" fill="#0072DB"/>
</g>
<defs>
<clipPath id="clip0_2109_13159">
<rect width="23.39" height="23.39" fill="white"/>
</clipPath>
</defs>
</svg>
