<svg width="1440" height="488" viewBox="0 0 1440 488" fill="none" xmlns="http://www.w3.org/2000/svg">
<path d="M473.679 70.1013C75.0129 328.998 153.415 231.529 -245.252 490.426M473.679 70.1013C75.0129 328.998 110.838 165.967 -287.828 424.864M473.679 70.1013C75.0129 328.998 68.2611 100.404 -330.405 359.301M473.679 70.1013C75.0129 328.998 25.6843 34.8415 -372.982 293.739M473.679 70.1013C75.0129 328.998 -102.046 -161.846 -500.713 97.0509M473.679 70.1013C75.0129 328.998 -16.8925 -30.7211 -415.559 228.176M473.679 70.1013C75.0129 328.998 -59.4693 -96.2836 -458.136 162.613M473.679 70.1013C75.0129 328.998 -144.623 -227.409 -543.289 31.4884M473.679 70.1013C75.0129 328.998 -187.2 -292.971 -585.866 -34.0742M473.679 70.1013C75.0129 328.998 -229.777 -358.533 -628.443 -99.6367M473.679 70.1013L-223.987 523.171" stroke="#00B3E0" stroke-width="0.847986"/>
<path d="M473.679 70.1013C872.346 -188.796 751.414 -156.816 1150.08 -415.713M473.679 70.1013C872.346 -188.796 708.837 -222.379 1107.5 -481.276M473.679 70.1013C872.346 -188.796 666.261 -287.941 1064.93 -546.838M473.679 70.1013C872.346 -188.796 623.684 -353.504 1022.35 -612.401M473.679 70.1013C872.346 -188.796 495.953 -550.192 894.62 -809.089M473.679 70.1013C872.346 -188.796 581.107 -419.067 979.773 -677.964M473.679 70.1013C872.346 -188.796 538.53 -484.629 937.197 -743.526M473.679 70.1013C872.346 -188.796 453.377 -615.754 852.043 -874.651M473.679 70.1013C872.346 -188.796 410.8 -681.317 809.466 -940.214M473.679 70.1013C872.346 -188.796 368.223 -746.879 766.889 -1005.78M473.679 70.1013L1171.35 -382.968" stroke="#00B3E0" stroke-width="0.847986"/>
<path d="M966.325 417.897C567.658 676.794 688.59 644.815 289.923 903.712M966.325 417.897C567.658 676.794 731.166 710.377 332.5 969.274M966.325 417.897C567.658 676.794 773.743 775.94 375.077 1034.84M966.325 417.897C567.658 676.794 816.32 841.502 417.654 1100.4M966.325 417.897C567.658 676.794 944.051 1038.19 545.384 1297.09M966.325 417.897C567.658 676.794 858.897 907.065 460.231 1165.96M966.325 417.897C567.658 676.794 901.474 972.627 502.807 1231.52M966.325 417.897C567.658 676.794 986.627 1103.75 587.961 1362.65M966.325 417.897C567.658 676.794 1029.2 1169.32 630.538 1428.21M966.325 417.897C567.658 676.794 1071.78 1234.88 673.115 1493.77M966.325 417.897L268.658 870.967" stroke="#00B3E0" stroke-width="0.847986"/>
<path d="M966.325 417.897C1364.99 159 1286.59 256.469 1685.26 -2.42773M966.325 417.897C1364.99 159 1329.17 322.032 1727.83 63.1348M966.325 417.897C1364.99 159 1371.74 387.594 1770.41 128.697M966.325 417.897C1364.99 159 1414.32 453.157 1812.99 194.26M966.325 417.897C1364.99 159 1542.05 649.845 1940.72 390.947M966.325 417.897C1364.99 159 1456.9 518.719 1855.56 259.822M966.325 417.897C1364.99 159 1499.47 584.282 1898.14 325.385M966.325 417.897C1364.99 159 1584.63 715.407 1983.29 456.51M966.325 417.897C1364.99 159 1627.2 780.97 2025.87 522.073M966.325 417.897C1364.99 159 1669.78 846.532 2068.45 587.635M966.325 417.897L1663.99 -35.1726" stroke="#00B3E0" stroke-width="0.847986"/>
</svg>
