<svg preserveAspectRatio="none" width="100%" height="100%" overflow="visible" style="display: block;" viewBox="0 0 56.4236 18.2436" fill="none" xmlns="http://www.w3.org/2000/svg">
<g id="visa_inc_logo.svg" clip-path="url(#clip0_0_6)">
<path id="path3789" d="M36.7625 0C32.7614 0 29.169 2.08192 29.169 5.90235C29.169 10.3023 35.5148 10.6028 35.5148 12.792C35.5148 13.7149 34.4393 14.552 32.6323 14.552C30.051 14.552 28.115 13.393 28.115 13.393L27.2976 17.2563C27.2976 17.2563 29.5132 18.2436 32.4817 18.2436C36.87 18.2436 40.3118 16.0759 40.3118 12.1696C40.3118 7.53355 33.9445 7.23306 33.9445 5.19407C33.9445 4.46432 34.8265 3.67019 36.6334 3.67019C38.6769 3.67019 40.3548 4.50725 40.3548 4.50725L41.1722 0.772671C41.1507 0.772671 39.3223 0 36.7625 0ZM0.107555 0.27902L0 0.837061C0 0.837061 1.67787 1.13754 3.20515 1.75997C5.16266 2.46826 5.29173 2.87605 5.63591 4.14238L9.22826 17.9431H14.0467L21.425 0.27902H16.6281L11.8741 12.2984L9.93812 2.10338C9.76604 0.944376 8.86257 0.27902 7.74399 0.27902H0.107555ZM23.361 0.27902L19.5966 17.9431H24.1785L27.9214 0.27902H23.361ZM48.8732 0.27902C47.7761 0.27902 47.1953 0.858524 46.7651 1.88875L40.0537 17.9431H44.8506L45.7756 15.2603H51.6266L52.1859 17.9431H56.4236L52.7452 0.27902H48.8732ZM49.497 5.06529L50.9168 11.6974H47.1093L49.497 5.06529Z" fill="var(--fill-0, white)"/>
</g>
<defs>
<clipPath id="clip0_0_6">
<rect width="56.4236" height="18.2436" fill="white"/>
</clipPath>
</defs>
</svg>
