<svg width="928" height="400" viewBox="0 0 928 400" fill="none" xmlns="http://www.w3.org/2000/svg" xmlns:xlink="http://www.w3.org/1999/xlink">
<rect width="928" height="400" fill="#F0F0EE"/>
<rect width="928" height="400" fill="url(#pattern0_1161_8149)" fill-opacity="0.6"/>
<rect width="49.2803" height="21.4262" transform="translate(162.461 152.862)" fill="#DEDED9"/>
<rect x="164.75" y="154.434" width="18.2837" height="18.2837" fill="#F8F8F7"/>
<rect width="49.2803" height="21.4262" transform="translate(214.602 152.862)" fill="#DEDED9"/>
<rect x="216.891" y="154.434" width="18.2837" height="18.2837" fill="#F8F8F7"/>
<rect width="49.2803" height="21.4262" transform="translate(162.461 177.146)" fill="#FF21CC"/>
<rect x="191.172" y="178.717" width="18.2837" height="18.2837" fill="#F8F8F7"/>
<rect width="49.2803" height="21.4262" transform="translate(214.602 177.146)" fill="#DEDED9"/>
<rect x="216.891" y="178.717" width="18.2837" height="18.2837" fill="#F8F8F7"/>
<rect width="49.2803" height="21.4262" transform="translate(162.461 201.429)" fill="#DEDED9"/>
<rect x="164.75" y="203" width="18.2837" height="18.2837" fill="#F8F8F7"/>
<rect width="49.2803" height="21.4262" transform="translate(214.602 201.429)" fill="#20D2FA"/>
<rect x="243.312" y="203" width="18.2837" height="18.2837" fill="#F8F8F7"/>
<rect width="49.2803" height="21.4262" transform="translate(162.461 225.712)" fill="#44DDB5"/>
<rect x="191.172" y="227.283" width="18.2837" height="18.2837" fill="#F8F8F7"/>
<rect width="49.2803" height="21.4262" transform="translate(214.602 225.712)" fill="#11A967"/>
<rect x="243.312" y="227.283" width="18.2837" height="18.2837" fill="#F8F8F7"/>
<rect width="49.2803" height="21.4262" transform="translate(287.875 152.862)" fill="#DEDED9"/>
<rect x="290.164" y="154.434" width="18.2837" height="18.2837" fill="#F8F8F7"/>
<rect width="49.2803" height="21.4262" transform="translate(340.016 152.862)" fill="#DEDED9"/>
<rect x="342.305" y="154.434" width="18.2837" height="18.2837" fill="#F8F8F7"/>
<rect width="49.2804" height="21.4262" transform="translate(287.875 177.146)" fill="#DEDED9"/>
<rect x="290.164" y="178.717" width="18.2837" height="18.2837" fill="#F8F8F7"/>
<rect width="49.2804" height="21.4262" transform="translate(340.016 177.146)" fill="#F77D26"/>
<rect x="368.727" y="178.717" width="18.2837" height="18.2837" fill="#F8F8F7"/>
<rect width="49.2804" height="21.4262" transform="translate(287.875 201.429)" fill="#0091FF"/>
<rect x="316.586" y="203" width="18.2837" height="18.2837" fill="#F8F8F7"/>
<rect width="49.2804" height="21.4262" transform="translate(340.016 201.429)" fill="#DEDED9"/>
<rect x="342.305" y="203" width="18.2837" height="18.2837" fill="#F8F8F7"/>
<rect width="49.2804" height="21.4262" transform="translate(287.875 225.712)" fill="#DEDED9"/>
<rect x="290.164" y="227.283" width="18.2837" height="18.2837" fill="#F8F8F7"/>
<rect width="49.2804" height="21.4262" transform="translate(340.016 225.712)" fill="#DEDED9"/>
<rect x="342.305" y="227.283" width="18.2837" height="18.2837" fill="#F8F8F7"/>
<rect width="49.2803" height="21.4262" transform="translate(413.297 152.862)" fill="#11A967"/>
<rect x="442.008" y="154.434" width="18.2837" height="18.2837" fill="#F8F8F7"/>
<rect width="49.2803" height="21.4262" transform="translate(465.438 152.862)" fill="#DEDED9"/>
<rect x="467.727" y="154.434" width="18.2837" height="18.2837" fill="#F8F8F7"/>
<rect width="49.2804" height="21.4262" transform="translate(413.297 177.146)" fill="#DEDED9"/>
<rect x="415.586" y="178.717" width="18.2837" height="18.2837" fill="#F8F8F7"/>
<rect width="49.2804" height="21.4262" transform="translate(465.438 177.146)" fill="#F77D26"/>
<rect x="494.148" y="178.717" width="18.2837" height="18.2837" fill="#F8F8F7"/>
<rect width="49.2804" height="21.4262" transform="translate(413.297 201.429)" fill="#0091FF"/>
<rect x="442.008" y="203" width="18.2837" height="18.2837" fill="#F8F8F7"/>
<rect width="49.2804" height="21.4262" transform="translate(465.438 201.429)" fill="#DEDED9"/>
<rect x="467.727" y="203" width="18.2837" height="18.2837" fill="#F8F8F7"/>
<rect width="49.2804" height="21.4262" transform="translate(413.297 225.712)" fill="#DEDED9"/>
<rect x="415.586" y="227.283" width="18.2837" height="18.2837" fill="#F8F8F7"/>
<rect width="49.2804" height="21.4262" transform="translate(465.438 225.712)" fill="#11A967"/>
<rect x="494.148" y="227.283" width="18.2837" height="18.2837" fill="#F8F8F7"/>
<rect width="49.2803" height="21.4262" transform="translate(538.711 152.862)" fill="#11A967"/>
<rect x="567.422" y="154.434" width="18.2837" height="18.2837" fill="#F8F8F7"/>
<rect width="49.2803" height="21.4262" transform="translate(590.852 152.862)" fill="#CF00A7"/>
<rect x="619.562" y="154.434" width="18.2837" height="18.2837" fill="#F8F8F7"/>
<rect width="49.2804" height="21.4262" transform="translate(538.711 177.146)" fill="#FF21CC"/>
<rect x="567.422" y="178.717" width="18.2837" height="18.2837" fill="#F8F8F7"/>
<rect width="49.2804" height="21.4262" transform="translate(590.852 177.146)" fill="#DEDED9"/>
<rect x="593.141" y="178.717" width="18.2837" height="18.2837" fill="#F8F8F7"/>
<rect width="49.2804" height="21.4262" transform="translate(538.711 201.429)" fill="#DEDED9"/>
<rect x="541" y="203" width="18.2837" height="18.2837" fill="#F8F8F7"/>
<rect width="49.2804" height="21.4262" transform="translate(590.852 201.429)" fill="#20D2FA"/>
<rect x="619.562" y="203" width="18.2837" height="18.2837" fill="#F8F8F7"/>
<rect width="49.2804" height="21.4262" transform="translate(538.711 225.712)" fill="#44DDB5"/>
<rect x="567.422" y="227.283" width="18.2837" height="18.2837" fill="#F8F8F7"/>
<rect width="49.2804" height="21.4262" transform="translate(590.852 225.712)" fill="#DEDED9"/>
<rect x="593.141" y="227.283" width="18.2837" height="18.2837" fill="#F8F8F7"/>
<rect width="49.2803" height="21.4262" transform="translate(664.133 152.862)" fill="#11A967"/>
<rect x="692.844" y="154.434" width="18.2837" height="18.2837" fill="#F8F8F7"/>
<rect width="49.2803" height="21.4262" transform="translate(716.273 152.862)" fill="#CF00A7"/>
<rect x="744.984" y="154.434" width="18.2837" height="18.2837" fill="#F8F8F7"/>
<rect width="49.2803" height="21.4262" transform="translate(664.133 177.146)" fill="#FF21CC"/>
<rect x="692.844" y="178.717" width="18.2837" height="18.2837" fill="#F8F8F7"/>
<rect width="49.2803" height="21.4262" transform="translate(716.273 177.146)" fill="#F77D26"/>
<rect x="744.984" y="178.717" width="18.2837" height="18.2837" fill="#F8F8F7"/>
<rect width="49.2803" height="21.4262" transform="translate(664.133 201.429)" fill="#0091FF"/>
<rect x="692.844" y="203" width="18.2837" height="18.2837" fill="#F8F8F7"/>
<rect width="49.2803" height="21.4262" transform="translate(716.273 201.429)" fill="#20D2FA"/>
<rect x="744.984" y="203" width="18.2837" height="18.2837" fill="#F8F8F7"/>
<rect width="49.2803" height="21.4262" transform="translate(664.133 225.712)" fill="#44DDB5"/>
<rect x="692.844" y="227.283" width="18.2837" height="18.2837" fill="#F8F8F7"/>
<rect width="49.2803" height="21.4262" transform="translate(716.273 225.712)" fill="#11A967"/>
<rect x="744.984" y="227.283" width="18.2837" height="18.2837" fill="#F8F8F7"/>
<defs>
<pattern id="pattern0_1161_8149" patternUnits="userSpaceOnUse" patternTransform="matrix(23.4998 0 0 20.3282 462.936 198.936)" preserveAspectRatio="none" viewBox="0 0 88.32 76.4" width="1" height="1">
<g id="pattern0_1161_8149_inner">
<rect width="8" height="8" fill="#C1C0B8"/>
</g>
</pattern></defs>
</svg>
