<svg width="1230" height="530" viewBox="0 0 1230 530" fill="none" xmlns="http://www.w3.org/2000/svg" xmlns:xlink="http://www.w3.org/1999/xlink">
<g clip-path="url(#clip0_1154_7852)">
<rect y="-36.6475" width="1230.01" height="603.473" rx="7.88466" fill="#F0F0EE"/>
<rect y="-36.6475" width="1230.01" height="603.473" rx="7.88466" fill="url(#pattern0_1154_7852)" fill-opacity="0.6"/>
<path d="M496.217 265.271C367.644 265.271 399.573 441.27 271 441.27M496.217 265.271C367.644 265.271 399.573 397.27 271 397.27M496.217 265.271C367.644 265.271 399.573 353.271 271 353.27M496.217 265.271C367.644 265.271 399.573 309.271 271 309.27M496.217 265.271C367.644 265.271 399.573 265.271 271 265.27M496.217 265.271C367.644 265.271 399.573 221.27 271 221.27M496.217 265.271C367.644 265.271 399.573 177.271 271 177.271M496.217 265.271C367.644 265.271 399.573 133.271 271 133.271M496.217 265.271C367.644 265.271 399.573 89.2705 271 89.2705M496.217 265.271L567 265.271" stroke="#C1C0B8" stroke-linecap="square"/>
<path d="M271 177.27C399.573 177.271 367.644 265.27 496.217 265.271L567 265.27" stroke="#1A1A1A" stroke-width="2" stroke-linecap="square"/>
<path d="M198.069 95.0889V83.4889H201.701C204.533 83.4889 206.517 84.1289 206.517 86.9929C206.517 89.8729 204.533 90.4969 201.701 90.4969H199.701V95.0889H198.069ZM199.701 89.0729H201.829C203.525 89.0729 204.853 88.8969 204.853 86.9929C204.853 85.1049 203.525 84.8649 201.829 84.8649H199.701V89.0729ZM213.474 95.0889V93.7929C212.946 94.7049 212.034 95.2969 210.658 95.2969C208.69 95.2969 207.01 93.6649 207.01 90.8169C207.01 87.9849 208.69 86.3369 210.658 86.3369C212.034 86.3369 212.946 86.9289 213.474 87.8409V86.4809H214.93V95.0889H213.474ZM211.026 94.0489C212.322 94.0489 213.538 93.0889 213.538 90.8169C213.538 88.5449 212.322 87.5849 211.026 87.5849C209.554 87.5849 208.594 88.7689 208.594 90.8169C208.594 92.8649 209.554 94.0489 211.026 94.0489ZM216.533 97.8889V96.6729H217.125C218.085 96.6729 218.517 96.6409 218.933 95.2969L218.997 95.0889L215.893 86.4809H217.509L219.701 93.1209L221.829 86.4809H223.349L220.277 95.4569C219.637 97.3289 219.205 97.8889 217.285 97.8889H216.533ZM227.803 95.2969C225.787 95.2969 223.643 93.9369 223.643 90.8169C223.643 87.6969 225.787 86.3369 227.803 86.3369C229.819 86.3369 231.963 87.6969 231.963 90.8169C231.963 93.9369 229.819 95.2969 227.803 95.2969ZM227.803 94.0169C229.115 94.0169 230.379 93.1049 230.379 90.8169C230.379 88.5289 229.115 87.6169 227.803 87.6169C226.491 87.6169 225.227 88.5289 225.227 90.8169C225.227 93.1049 226.491 94.0169 227.803 94.0169ZM238.756 95.0889V93.8569C238.26 94.6729 237.476 95.2969 236.052 95.2969C234.052 95.2969 233.3 93.9529 233.3 91.9849V86.4809H234.756V91.5529C234.756 92.8809 234.98 94.0329 236.564 94.0329C237.94 94.0329 238.756 93.0569 238.756 91.2169V86.4809H240.212V95.0889H238.756ZM245.748 95.0889H244.692C243.044 95.0889 242.66 94.7209 242.66 92.9289V87.6489H241.3V86.4809H242.66V84.3209H244.116V86.4809H245.748V87.6489H244.116V92.7529C244.116 93.6489 244.18 93.8729 245.012 93.8729H245.748V95.0889ZM249.412 89.8249L250.628 90.0649C252.196 90.3689 253.572 90.9609 253.572 92.6249C253.572 94.3209 252.036 95.2969 250.068 95.2969C247.812 95.2969 246.532 93.8089 246.372 92.3049H247.908C248.132 93.4089 248.82 94.0649 250.1 94.0649C251.204 94.0649 252.1 93.5849 252.1 92.7849C252.1 91.9209 251.284 91.5529 250.356 91.3609L249.076 91.1049C247.908 90.8649 246.628 90.3369 246.628 88.7849C246.628 87.2169 248.164 86.3209 250.068 86.3209C251.924 86.3209 253.188 87.3609 253.46 88.9929H251.94C251.716 87.9689 250.916 87.5689 249.908 87.5689C249.06 87.5689 248.1 87.8889 248.1 88.7209C248.1 89.3609 248.58 89.6649 249.412 89.8249Z" fill="#7C7C7C"/>
<circle cx="268" cy="89.0889" r="3" fill="#C1C0B8"/>
<path d="M192.881 139.089V127.489H196.561C199.393 127.489 201.393 128.049 201.393 130.833C201.393 132.513 200.657 133.393 199.089 133.921L201.777 139.089H199.953L197.441 134.209H194.513V139.089H192.881ZM194.513 132.833H196.689C198.385 132.833 199.713 132.657 199.713 130.865C199.713 129.073 198.385 128.865 196.689 128.865H194.513V132.833ZM206.451 131.585C205.267 131.585 204.099 132.145 203.859 134.017H208.931C208.835 132.609 207.843 131.585 206.451 131.585ZM208.851 136.593H210.355C209.955 138.081 208.595 139.297 206.499 139.297C203.779 139.297 202.275 137.345 202.275 134.801C202.275 132.081 204.099 130.337 206.451 130.337C208.931 130.337 210.483 132.321 210.483 134.801C210.483 134.945 210.483 135.089 210.467 135.233H203.827C204.003 137.233 205.299 138.017 206.499 138.017C207.779 138.017 208.483 137.441 208.851 136.593ZM213.329 139.089L210.849 130.481H212.417L214.065 136.849L215.777 130.481H217.281L218.993 136.849L220.641 130.481H222.209L219.729 139.089H218.401L216.497 132.161L214.657 139.089H213.329ZM229.076 139.089V137.793C228.548 138.705 227.636 139.297 226.26 139.297C224.292 139.297 222.612 137.665 222.612 134.817C222.612 131.985 224.292 130.337 226.26 130.337C227.636 130.337 228.548 130.929 229.076 131.841V130.481H230.532V139.089H229.076ZM226.628 138.049C227.924 138.049 229.14 137.089 229.14 134.817C229.14 132.545 227.924 131.585 226.628 131.585C225.156 131.585 224.196 132.769 224.196 134.817C224.196 136.865 225.156 138.049 226.628 138.049ZM232.552 139.089V130.481H233.976V131.985C234.408 131.009 235.288 130.465 236.408 130.433C236.552 130.433 236.68 130.433 236.84 130.449V132.001C236.504 131.953 236.264 131.937 236.024 131.937C234.68 131.937 234.008 132.689 234.008 134.577V139.089H232.552ZM243.602 139.089V137.793C243.073 138.705 242.161 139.297 240.785 139.297C238.817 139.297 237.105 137.665 237.105 134.817C237.105 131.985 238.817 130.337 240.785 130.337C242.161 130.337 243.073 130.929 243.602 131.841V127.489H245.057V139.089H243.602ZM241.153 138.049C242.449 138.049 243.665 137.089 243.665 134.817C243.665 132.545 242.449 131.585 241.153 131.585C239.665 131.585 238.689 132.769 238.689 134.817C238.689 136.865 239.665 138.049 241.153 138.049ZM249.412 133.825L250.628 134.065C252.196 134.369 253.572 134.961 253.572 136.625C253.572 138.321 252.036 139.297 250.068 139.297C247.812 139.297 246.532 137.809 246.372 136.305H247.908C248.132 137.409 248.82 138.065 250.1 138.065C251.204 138.065 252.1 137.585 252.1 136.785C252.1 135.921 251.284 135.553 250.356 135.361L249.076 135.105C247.908 134.865 246.628 134.337 246.628 132.785C246.628 131.217 248.164 130.321 250.068 130.321C251.924 130.321 253.188 131.361 253.46 132.993H251.94C251.716 131.969 250.916 131.569 249.908 131.569C249.06 131.569 248.1 131.889 248.1 132.721C248.1 133.361 248.58 133.665 249.412 133.825Z" fill="#7C7C7C"/>
<circle cx="268" cy="133.089" r="3" fill="#C1C0B8"/>
<path d="M167.908 179.393H169.492C168.98 181.953 166.98 183.297 164.468 183.297C161.14 183.297 159.204 180.801 159.204 177.265C159.204 173.665 161.316 171.281 164.596 171.281C166.996 171.281 168.932 172.705 169.428 175.185H167.844C167.492 173.745 166.372 172.657 164.516 172.657C162.468 172.657 160.868 174.257 160.868 177.265C160.868 180.193 162.404 181.921 164.564 181.921C166.404 181.921 167.54 180.881 167.908 179.393ZM170.86 183.089V174.481H172.284V175.985C172.716 175.009 173.596 174.465 174.716 174.433C174.86 174.433 174.988 174.433 175.148 174.449V176.001C174.812 175.953 174.572 175.937 174.332 175.937C172.988 175.937 172.316 176.689 172.316 178.577V183.089H170.86ZM179.558 183.297C177.542 183.297 175.398 181.937 175.398 178.817C175.398 175.697 177.542 174.337 179.558 174.337C181.574 174.337 183.718 175.697 183.718 178.817C183.718 181.937 181.574 183.297 179.558 183.297ZM179.558 182.017C180.87 182.017 182.134 181.105 182.134 178.817C182.134 176.529 180.87 175.617 179.558 175.617C178.246 175.617 176.982 176.529 176.982 178.817C176.982 181.105 178.246 182.017 179.558 182.017ZM187.486 177.825L188.702 178.065C190.27 178.369 191.646 178.961 191.646 180.625C191.646 182.321 190.11 183.297 188.142 183.297C185.886 183.297 184.606 181.809 184.446 180.305H185.982C186.206 181.409 186.894 182.065 188.174 182.065C189.278 182.065 190.174 181.585 190.174 180.785C190.174 179.921 189.358 179.553 188.43 179.361L187.15 179.105C185.982 178.865 184.702 178.337 184.702 176.785C184.702 175.217 186.238 174.321 188.142 174.321C189.998 174.321 191.262 175.361 191.534 176.993H190.014C189.79 175.969 188.99 175.569 187.982 175.569C187.134 175.569 186.174 175.889 186.174 176.721C186.174 177.361 186.654 177.665 187.486 177.825ZM195.397 177.825L196.613 178.065C198.181 178.369 199.557 178.961 199.557 180.625C199.557 182.321 198.021 183.297 196.053 183.297C193.797 183.297 192.517 181.809 192.357 180.305H193.893C194.117 181.409 194.805 182.065 196.085 182.065C197.189 182.065 198.085 181.585 198.085 180.785C198.085 179.921 197.269 179.553 196.341 179.361L195.061 179.105C193.893 178.865 192.613 178.337 192.613 176.785C192.613 175.217 194.149 174.321 196.053 174.321C197.909 174.321 199.173 175.361 199.445 176.993H197.925C197.701 175.969 196.901 175.569 195.893 175.569C195.045 175.569 194.085 175.889 194.085 176.721C194.085 177.361 194.565 177.665 195.397 177.825ZM200.556 178.001V176.561H205.804V178.001H200.556ZM207.398 183.089V171.489H208.854V175.841C209.382 174.929 210.294 174.337 211.67 174.337C213.638 174.337 215.35 175.985 215.35 178.817C215.35 181.665 213.638 183.297 211.67 183.297C210.294 183.297 209.382 182.705 208.854 181.793V183.089H207.398ZM211.302 182.049C212.79 182.049 213.766 180.865 213.766 178.817C213.766 176.769 212.79 175.585 211.302 175.585C210.006 175.585 208.79 176.545 208.79 178.817C208.79 181.089 210.006 182.049 211.302 182.049ZM220.393 183.297C218.377 183.297 216.233 181.937 216.233 178.817C216.233 175.697 218.377 174.337 220.393 174.337C222.409 174.337 224.553 175.697 224.553 178.817C224.553 181.937 222.409 183.297 220.393 183.297ZM220.393 182.017C221.705 182.017 222.969 181.105 222.969 178.817C222.969 176.529 221.705 175.617 220.393 175.617C219.081 175.617 217.817 176.529 217.817 178.817C217.817 181.105 219.081 182.017 220.393 182.017ZM225.985 183.089V174.481H227.409V175.985C227.841 175.009 228.721 174.465 229.841 174.433C229.985 174.433 230.113 174.433 230.273 174.449V176.001C229.937 175.953 229.697 175.937 229.457 175.937C228.113 175.937 227.441 176.689 227.441 178.577V183.089H225.985ZM237.035 183.089V181.793C236.507 182.705 235.595 183.297 234.219 183.297C232.251 183.297 230.539 181.665 230.539 178.817C230.539 175.985 232.251 174.337 234.219 174.337C235.595 174.337 236.507 174.929 237.035 175.841V171.489H238.491V183.089H237.035ZM234.587 182.049C235.883 182.049 237.099 181.089 237.099 178.817C237.099 176.545 235.883 175.585 234.587 175.585C233.099 175.585 232.123 176.769 232.123 178.817C232.123 180.865 233.099 182.049 234.587 182.049ZM244.109 175.585C242.925 175.585 241.757 176.145 241.517 178.017H246.589C246.493 176.609 245.501 175.585 244.109 175.585ZM246.509 180.593H248.013C247.613 182.081 246.253 183.297 244.157 183.297C241.437 183.297 239.933 181.345 239.933 178.801C239.933 176.081 241.757 174.337 244.109 174.337C246.589 174.337 248.141 176.321 248.141 178.801C248.141 178.945 248.141 179.089 248.125 179.233H241.485C241.661 181.233 242.957 182.017 244.157 182.017C245.437 182.017 246.141 181.441 246.509 180.593ZM249.561 183.089V174.481H250.985V175.985C251.417 175.009 252.297 174.465 253.417 174.433C253.561 174.433 253.689 174.433 253.849 174.449V176.001C253.513 175.953 253.273 175.937 253.033 175.937C251.689 175.937 251.017 176.689 251.017 178.577V183.089H249.561Z" fill="#7C7C7C"/>
<path d="M167.908 179.393H169.492C168.98 181.953 166.98 183.297 164.468 183.297C161.14 183.297 159.204 180.801 159.204 177.265C159.204 173.665 161.316 171.281 164.596 171.281C166.996 171.281 168.932 172.705 169.428 175.185H167.844C167.492 173.745 166.372 172.657 164.516 172.657C162.468 172.657 160.868 174.257 160.868 177.265C160.868 180.193 162.404 181.921 164.564 181.921C166.404 181.921 167.54 180.881 167.908 179.393ZM170.86 183.089V174.481H172.284V175.985C172.716 175.009 173.596 174.465 174.716 174.433C174.86 174.433 174.988 174.433 175.148 174.449V176.001C174.812 175.953 174.572 175.937 174.332 175.937C172.988 175.937 172.316 176.689 172.316 178.577V183.089H170.86ZM179.558 183.297C177.542 183.297 175.398 181.937 175.398 178.817C175.398 175.697 177.542 174.337 179.558 174.337C181.574 174.337 183.718 175.697 183.718 178.817C183.718 181.937 181.574 183.297 179.558 183.297ZM179.558 182.017C180.87 182.017 182.134 181.105 182.134 178.817C182.134 176.529 180.87 175.617 179.558 175.617C178.246 175.617 176.982 176.529 176.982 178.817C176.982 181.105 178.246 182.017 179.558 182.017ZM187.486 177.825L188.702 178.065C190.27 178.369 191.646 178.961 191.646 180.625C191.646 182.321 190.11 183.297 188.142 183.297C185.886 183.297 184.606 181.809 184.446 180.305H185.982C186.206 181.409 186.894 182.065 188.174 182.065C189.278 182.065 190.174 181.585 190.174 180.785C190.174 179.921 189.358 179.553 188.43 179.361L187.15 179.105C185.982 178.865 184.702 178.337 184.702 176.785C184.702 175.217 186.238 174.321 188.142 174.321C189.998 174.321 191.262 175.361 191.534 176.993H190.014C189.79 175.969 188.99 175.569 187.982 175.569C187.134 175.569 186.174 175.889 186.174 176.721C186.174 177.361 186.654 177.665 187.486 177.825ZM195.397 177.825L196.613 178.065C198.181 178.369 199.557 178.961 199.557 180.625C199.557 182.321 198.021 183.297 196.053 183.297C193.797 183.297 192.517 181.809 192.357 180.305H193.893C194.117 181.409 194.805 182.065 196.085 182.065C197.189 182.065 198.085 181.585 198.085 180.785C198.085 179.921 197.269 179.553 196.341 179.361L195.061 179.105C193.893 178.865 192.613 178.337 192.613 176.785C192.613 175.217 194.149 174.321 196.053 174.321C197.909 174.321 199.173 175.361 199.445 176.993H197.925C197.701 175.969 196.901 175.569 195.893 175.569C195.045 175.569 194.085 175.889 194.085 176.721C194.085 177.361 194.565 177.665 195.397 177.825ZM200.556 178.001V176.561H205.804V178.001H200.556ZM207.398 183.089V171.489H208.854V175.841C209.382 174.929 210.294 174.337 211.67 174.337C213.638 174.337 215.35 175.985 215.35 178.817C215.35 181.665 213.638 183.297 211.67 183.297C210.294 183.297 209.382 182.705 208.854 181.793V183.089H207.398ZM211.302 182.049C212.79 182.049 213.766 180.865 213.766 178.817C213.766 176.769 212.79 175.585 211.302 175.585C210.006 175.585 208.79 176.545 208.79 178.817C208.79 181.089 210.006 182.049 211.302 182.049ZM220.393 183.297C218.377 183.297 216.233 181.937 216.233 178.817C216.233 175.697 218.377 174.337 220.393 174.337C222.409 174.337 224.553 175.697 224.553 178.817C224.553 181.937 222.409 183.297 220.393 183.297ZM220.393 182.017C221.705 182.017 222.969 181.105 222.969 178.817C222.969 176.529 221.705 175.617 220.393 175.617C219.081 175.617 217.817 176.529 217.817 178.817C217.817 181.105 219.081 182.017 220.393 182.017ZM225.985 183.089V174.481H227.409V175.985C227.841 175.009 228.721 174.465 229.841 174.433C229.985 174.433 230.113 174.433 230.273 174.449V176.001C229.937 175.953 229.697 175.937 229.457 175.937C228.113 175.937 227.441 176.689 227.441 178.577V183.089H225.985ZM237.035 183.089V181.793C236.507 182.705 235.595 183.297 234.219 183.297C232.251 183.297 230.539 181.665 230.539 178.817C230.539 175.985 232.251 174.337 234.219 174.337C235.595 174.337 236.507 174.929 237.035 175.841V171.489H238.491V183.089H237.035ZM234.587 182.049C235.883 182.049 237.099 181.089 237.099 178.817C237.099 176.545 235.883 175.585 234.587 175.585C233.099 175.585 232.123 176.769 232.123 178.817C232.123 180.865 233.099 182.049 234.587 182.049ZM244.109 175.585C242.925 175.585 241.757 176.145 241.517 178.017H246.589C246.493 176.609 245.501 175.585 244.109 175.585ZM246.509 180.593H248.013C247.613 182.081 246.253 183.297 244.157 183.297C241.437 183.297 239.933 181.345 239.933 178.801C239.933 176.081 241.757 174.337 244.109 174.337C246.589 174.337 248.141 176.321 248.141 178.801C248.141 178.945 248.141 179.089 248.125 179.233H241.485C241.661 181.233 242.957 182.017 244.157 182.017C245.437 182.017 246.141 181.441 246.509 180.593ZM249.561 183.089V174.481H250.985V175.985C251.417 175.009 252.297 174.465 253.417 174.433C253.561 174.433 253.689 174.433 253.849 174.449V176.001C253.513 175.953 253.273 175.937 253.033 175.937C251.689 175.937 251.017 176.689 251.017 178.577V183.089H249.561Z" fill="#1A1A1A"/>
<circle cx="268" cy="177.089" r="3" fill="#C1C0B8"/>
<circle cx="268" cy="177.089" r="3" fill="#1A1A1A"/>
<path d="M204.155 227.089V215.489H207.835C210.667 215.489 212.667 216.049 212.667 218.833C212.667 220.513 211.931 221.393 210.363 221.921L213.051 227.089H211.227L208.715 222.209H205.787V227.089H204.155ZM205.787 220.833H207.963C209.659 220.833 210.987 220.657 210.987 218.865C210.987 217.073 209.659 216.865 207.963 216.865H205.787V220.833ZM220.061 227.089V225.793C219.533 226.705 218.621 227.297 217.245 227.297C215.277 227.297 213.597 225.665 213.597 222.817C213.597 219.985 215.277 218.337 217.245 218.337C218.621 218.337 219.533 218.929 220.061 219.841V218.481H221.517V227.089H220.061ZM217.613 226.049C218.909 226.049 220.125 225.089 220.125 222.817C220.125 220.545 218.909 219.585 217.613 219.585C216.141 219.585 215.181 220.769 215.181 222.817C215.181 224.865 216.141 226.049 217.613 226.049ZM223.536 227.089V218.481H224.992V219.777C225.488 218.961 226.288 218.337 227.584 218.337C228.896 218.337 229.68 218.913 230.064 219.857C230.752 218.801 231.76 218.337 232.96 218.337C234.96 218.337 235.744 219.681 235.744 221.649V227.089H234.288V222.081C234.288 220.753 234.032 219.601 232.448 219.601C231.2 219.601 230.368 220.577 230.368 222.417V227.089H228.912V222.081C228.912 220.753 228.656 219.601 227.072 219.601C225.824 219.601 224.992 220.577 224.992 222.417V227.089H223.536ZM237.665 229.889V218.481H239.121V219.841C239.649 218.929 240.561 218.337 241.938 218.337C243.905 218.337 245.618 219.985 245.618 222.817C245.618 225.665 243.905 227.297 241.938 227.297C240.561 227.297 239.649 226.705 239.121 225.793V229.889H237.665ZM241.569 226.049C243.057 226.049 244.033 224.865 244.033 222.817C244.033 220.769 243.057 219.585 241.569 219.585C240.273 219.585 239.057 220.545 239.057 222.817C239.057 225.089 240.273 226.049 241.569 226.049ZM249.412 221.825L250.628 222.065C252.196 222.369 253.572 222.961 253.572 224.625C253.572 226.321 252.036 227.297 250.068 227.297C247.812 227.297 246.532 225.809 246.372 224.305H247.908C248.132 225.409 248.82 226.065 250.1 226.065C251.204 226.065 252.1 225.585 252.1 224.785C252.1 223.921 251.284 223.553 250.356 223.361L249.076 223.105C247.908 222.865 246.628 222.337 246.628 220.785C246.628 219.217 248.164 218.321 250.068 218.321C251.924 218.321 253.188 219.361 253.46 220.993H251.94C251.716 219.969 250.916 219.569 249.908 219.569C249.06 219.569 248.1 219.889 248.1 220.721C248.1 221.361 248.58 221.665 249.412 221.825Z" fill="#7C7C7C"/>
<circle cx="268" cy="221.089" r="3" fill="#C1C0B8"/>
<path d="M207.428 271.089V259.489H211.06C213.892 259.489 215.876 260.129 215.876 262.993C215.876 265.873 213.892 266.497 211.06 266.497H209.06V271.089H207.428ZM209.06 265.073H211.188C212.884 265.073 214.212 264.897 214.212 262.993C214.212 261.105 212.884 260.865 211.188 260.865H209.06V265.073ZM222.833 271.089V269.793C222.305 270.705 221.393 271.297 220.017 271.297C218.049 271.297 216.369 269.665 216.369 266.817C216.369 263.985 218.049 262.337 220.017 262.337C221.393 262.337 222.305 262.929 222.833 263.841V262.481H224.289V271.089H222.833ZM220.385 270.049C221.681 270.049 222.897 269.089 222.897 266.817C222.897 264.545 221.681 263.585 220.385 263.585C218.913 263.585 217.953 264.769 217.953 266.817C217.953 268.865 218.913 270.049 220.385 270.049ZM225.893 273.889V272.673H226.485C227.445 272.673 227.877 272.641 228.293 271.297L228.357 271.089L225.253 262.481H226.869L229.061 269.121L231.189 262.481H232.709L229.637 271.457C228.997 273.329 228.565 273.889 226.645 273.889H225.893ZM233.751 271.089V262.481H235.175V263.985C235.607 263.009 236.487 262.465 237.607 262.433C237.751 262.433 237.879 262.433 238.039 262.449V264.001C237.703 263.953 237.463 263.937 237.223 263.937C235.879 263.937 235.207 264.689 235.207 266.577V271.089H233.751ZM242.448 271.297C240.432 271.297 238.288 269.937 238.288 266.817C238.288 263.697 240.432 262.337 242.448 262.337C244.464 262.337 246.608 263.697 246.608 266.817C246.608 269.937 244.464 271.297 242.448 271.297ZM242.448 270.017C243.76 270.017 245.024 269.105 245.024 266.817C245.024 264.529 243.76 263.617 242.448 263.617C241.136 263.617 239.872 264.529 239.872 266.817C239.872 269.105 241.136 270.017 242.448 270.017ZM248.04 271.089V259.489H249.496V271.089H248.04ZM251.514 271.089V259.489H252.97V271.089H251.514Z" fill="#7C7C7C"/>
<circle cx="268" cy="265.089" r="3" fill="#C1C0B8"/>
<path d="M212.584 315.089V303.489H216.76C218.92 303.489 220.84 304.049 220.84 306.353C220.84 307.457 220.36 308.449 219.56 308.913C220.664 309.377 221.32 310.241 221.32 311.665C221.32 314.129 219.48 315.089 217.16 315.089H212.584ZM214.216 313.713H217.176C218.824 313.713 219.64 312.993 219.64 311.681C219.64 310.321 218.824 309.745 217.08 309.745H214.216V313.713ZM214.216 308.449H217.016C218.344 308.449 219.192 307.937 219.192 306.577C219.192 305.393 218.312 304.865 217.016 304.865H214.216V308.449ZM222.804 315.089V306.481H224.26V315.089H222.804ZM222.804 305.249V303.489H224.26V305.249H222.804ZM226.277 315.089V303.489H227.733V315.089H226.277ZM229.751 315.089V303.489H231.207V315.089H229.751ZM233.224 315.089V306.481H234.68V315.089H233.224ZM233.224 305.249V303.489H234.68V305.249H233.224ZM236.697 315.089V306.481H238.153V307.777C238.649 306.961 239.481 306.337 240.937 306.337C243.017 306.337 243.769 307.681 243.769 309.649V315.089H242.313V310.081C242.313 308.753 242.089 307.601 240.425 307.601C239.017 307.601 238.153 308.577 238.153 310.417V315.089H236.697ZM252.982 306.481V314.241C252.982 316.785 251.638 318.097 249.19 318.097C247.238 318.097 245.926 317.201 245.654 315.457H247.206C247.398 316.225 247.878 316.817 249.206 316.817C250.502 316.817 251.526 316.241 251.526 314.433V313.457C250.998 314.369 250.166 314.945 248.79 314.945C246.886 314.945 245.142 313.409 245.142 310.641C245.142 307.889 246.886 306.337 248.79 306.337C250.166 306.337 250.998 306.929 251.526 307.841V306.481H252.982ZM249.158 313.713C250.454 313.713 251.59 312.833 251.59 310.641C251.59 308.465 250.454 307.585 249.158 307.585C247.734 307.585 246.726 308.689 246.726 310.641C246.726 312.609 247.734 313.713 249.158 313.713Z" fill="#7C7C7C"/>
<circle cx="268" cy="309.089" r="3" fill="#C1C0B8"/>
<path d="M170.926 359.089V347.489H174.094C177.774 347.489 180.414 348.865 180.414 353.281C180.414 357.713 177.774 359.089 174.094 359.089H170.926ZM172.558 357.713H174.046C176.446 357.713 178.75 357.233 178.75 353.281C178.75 349.345 176.446 348.865 174.046 348.865H172.558V357.713ZM185.543 351.585C184.359 351.585 183.191 352.145 182.951 354.017H188.023C187.927 352.609 186.935 351.585 185.543 351.585ZM187.943 356.593H189.447C189.047 358.081 187.687 359.297 185.591 359.297C182.871 359.297 181.367 357.345 181.367 354.801C181.367 352.081 183.191 350.337 185.543 350.337C188.023 350.337 189.575 352.321 189.575 354.801C189.575 354.945 189.575 355.089 189.559 355.233H182.919C183.095 357.233 184.391 358.017 185.591 358.017C186.871 358.017 187.575 357.441 187.943 356.593ZM190.994 359.089V347.489H192.45V351.841C192.978 350.929 193.89 350.337 195.266 350.337C197.234 350.337 198.946 351.985 198.946 354.817C198.946 357.665 197.234 359.297 195.266 359.297C193.89 359.297 192.978 358.705 192.45 357.793V359.089H190.994ZM194.898 358.049C196.386 358.049 197.362 356.865 197.362 354.817C197.362 352.769 196.386 351.585 194.898 351.585C193.602 351.585 192.386 352.545 192.386 354.817C192.386 357.089 193.602 358.049 194.898 358.049ZM200.405 359.089V350.481H201.861V359.089H200.405ZM200.405 349.249V347.489H201.861V349.249H200.405ZM207.398 359.089H206.342C204.694 359.089 204.31 358.721 204.31 356.929V351.649H202.95V350.481H204.31V348.321H205.766V350.481H207.398V351.649H205.766V356.753C205.766 357.649 205.83 357.873 206.662 357.873H207.398V359.089ZM220.22 355.393H221.804C221.292 357.953 219.292 359.297 216.78 359.297C213.452 359.297 211.516 356.801 211.516 353.265C211.516 349.665 213.628 347.281 216.908 347.281C219.308 347.281 221.244 348.705 221.74 351.185H220.156C219.804 349.745 218.684 348.657 216.828 348.657C214.78 348.657 213.18 350.257 213.18 353.265C213.18 356.193 214.716 357.921 216.876 357.921C218.716 357.921 219.852 356.881 220.22 355.393ZM229.076 359.089V357.793C228.548 358.705 227.636 359.297 226.26 359.297C224.292 359.297 222.612 357.665 222.612 354.817C222.612 351.985 224.292 350.337 226.26 350.337C227.636 350.337 228.548 350.929 229.076 351.841V350.481H230.532V359.089H229.076ZM226.628 358.049C227.924 358.049 229.14 357.089 229.14 354.817C229.14 352.545 227.924 351.585 226.628 351.585C225.156 351.585 224.196 352.769 224.196 354.817C224.196 356.865 225.156 358.049 226.628 358.049ZM232.552 359.089V350.481H233.976V351.985C234.408 351.009 235.288 350.465 236.408 350.433C236.552 350.433 236.68 350.433 236.84 350.449V352.001C236.504 351.953 236.264 351.937 236.024 351.937C234.68 351.937 234.008 352.689 234.008 354.577V359.089H232.552ZM243.602 359.089V357.793C243.074 358.705 242.162 359.297 240.786 359.297C238.818 359.297 237.106 357.665 237.106 354.817C237.106 351.985 238.818 350.337 240.786 350.337C242.162 350.337 243.074 350.929 243.602 351.841V347.489H245.058V359.089H243.602ZM241.154 358.049C242.45 358.049 243.666 357.089 243.666 354.817C243.666 352.545 242.45 351.585 241.154 351.585C239.666 351.585 238.69 352.769 238.69 354.817C238.69 356.865 239.666 358.049 241.154 358.049ZM249.412 353.825L250.628 354.065C252.196 354.369 253.572 354.961 253.572 356.625C253.572 358.321 252.036 359.297 250.068 359.297C247.812 359.297 246.532 357.809 246.372 356.305H247.908C248.132 357.409 248.82 358.065 250.1 358.065C251.204 358.065 252.1 357.585 252.1 356.785C252.1 355.921 251.284 355.553 250.356 355.361L249.076 355.105C247.908 354.865 246.628 354.337 246.628 352.785C246.628 351.217 248.164 350.321 250.068 350.321C251.924 350.321 253.188 351.361 253.46 352.993H251.94C251.716 351.969 250.916 351.569 249.908 351.569C249.06 351.569 248.1 351.889 248.1 352.721C248.1 353.361 248.58 353.665 249.412 353.825Z" fill="#7C7C7C"/>
<circle cx="268" cy="353.089" r="3" fill="#C1C0B8"/>
<path d="M196.938 403.089V392.897H193.162V391.489H202.346V392.897H198.57V403.089H196.938ZM201.831 403.089V394.481H203.255V395.985C203.687 395.009 204.567 394.465 205.687 394.433C205.831 394.433 205.959 394.433 206.119 394.449V396.001C205.783 395.953 205.543 395.937 205.303 395.937C203.959 395.937 203.287 396.689 203.287 398.577V403.089H201.831ZM210.545 395.585C209.361 395.585 208.193 396.145 207.953 398.017H213.025C212.929 396.609 211.937 395.585 210.545 395.585ZM212.945 400.593H214.449C214.049 402.081 212.689 403.297 210.593 403.297C207.873 403.297 206.369 401.345 206.369 398.801C206.369 396.081 208.193 394.337 210.545 394.337C213.025 394.337 214.577 396.321 214.577 398.801C214.577 398.945 214.577 399.089 214.561 399.233H207.921C208.097 401.233 209.393 402.017 210.593 402.017C211.873 402.017 212.577 401.441 212.945 400.593ZM221.9 403.089V401.793C221.372 402.705 220.46 403.297 219.084 403.297C217.116 403.297 215.436 401.665 215.436 398.817C215.436 395.985 217.116 394.337 219.084 394.337C220.46 394.337 221.372 394.929 221.9 395.841V394.481H223.356V403.089H221.9ZM219.452 402.049C220.748 402.049 221.964 401.089 221.964 398.817C221.964 396.545 220.748 395.585 219.452 395.585C217.98 395.585 217.02 396.769 217.02 398.817C217.02 400.865 217.98 402.049 219.452 402.049ZM227.712 397.825L228.928 398.065C230.496 398.369 231.872 398.961 231.872 400.625C231.872 402.321 230.336 403.297 228.368 403.297C226.112 403.297 224.832 401.809 224.672 400.305H226.208C226.432 401.409 227.12 402.065 228.4 402.065C229.504 402.065 230.4 401.585 230.4 400.785C230.4 399.921 229.584 399.553 228.656 399.361L227.376 399.105C226.208 398.865 224.928 398.337 224.928 396.785C224.928 395.217 226.464 394.321 228.368 394.321C230.224 394.321 231.488 395.361 231.76 396.993H230.24C230.016 395.969 229.216 395.569 228.208 395.569C227.36 395.569 226.4 395.889 226.4 396.721C226.4 397.361 226.88 397.665 227.712 397.825ZM238.646 403.089V401.857C238.15 402.673 237.366 403.297 235.942 403.297C233.942 403.297 233.19 401.953 233.19 399.985V394.481H234.646V399.553C234.646 400.881 234.87 402.033 236.454 402.033C237.83 402.033 238.646 401.057 238.646 399.217V394.481H240.102V403.089H238.646ZM242.119 403.089V394.481H243.543V395.985C243.975 395.009 244.855 394.465 245.975 394.433C246.119 394.433 246.247 394.433 246.407 394.449V396.001C246.071 395.953 245.831 395.937 245.591 395.937C244.247 395.937 243.575 396.689 243.575 398.577V403.089H242.119ZM247.129 405.889V404.673H247.721C248.681 404.673 249.113 404.641 249.529 403.297L249.593 403.089L246.489 394.481H248.105L250.297 401.121L252.425 394.481H253.945L250.873 403.457C250.233 405.329 249.801 405.889 247.881 405.889H247.129Z" fill="#7C7C7C"/>
<circle cx="268" cy="397.089" r="3" fill="#C1C0B8"/>
<path d="M236.2 447.089V435.489H243.736V436.897H237.832V440.417H243.4V441.825H237.832V447.089H236.2ZM243.688 447.089L247.992 441.121L243.976 435.489H245.912L248.968 439.777L252.056 435.489H253.896L249.88 441.057L254.184 447.089H252.264L248.904 442.401L245.528 447.089H243.688Z" fill="#7C7C7C"/>
<circle cx="268" cy="441.089" r="3" fill="#C1C0B8"/>
<path d="M733.783 265.089C862.356 265.089 830.427 419.089 959 419.089M733.783 265.089C862.356 265.089 830.427 375.089 959 375.089M733.783 265.089C862.356 265.089 830.427 331.089 959 331.089M733.783 265.089C862.356 265.089 830.427 287.089 959 287.089M733.783 265.089C862.356 265.089 830.427 243.089 959 243.089M733.783 265.089C862.356 265.089 830.427 199.089 959 199.089M733.783 265.089C862.356 265.089 830.427 155.089 959 155.089M733.783 265.089C862.356 265.089 830.427 111.089 959 111.089M733.783 265.089L663 265.089" stroke="#C1C0B8"/>
<path d="M959 111.089C830.427 111.089 862.356 265.089 733.783 265.089L663 265.089" stroke="#00B3E0" stroke-width="2"/>
<path d="M959 155.089C830.427 155.089 862.356 265.089 733.783 265.089L663 265.089" stroke="#11A967" stroke-width="2"/>
<path d="M959 199.089C830.427 199.089 862.356 265.089 733.783 265.089L663 265.089" stroke="#FF21CC" stroke-width="2"/>
<path d="M959 287.089C830.427 287.089 862.356 265.089 733.783 265.089L663 265.089" stroke="#A90087" stroke-width="2"/>
<path d="M959 419.089C830.427 419.089 862.356 265.089 733.783 265.089L663 265.089" stroke="#0072DB" stroke-width="2"/>
<path d="M733.783 265.089L663 265.089" stroke="url(#paint0_linear_1154_7852)" stroke-width="2"/>
<rect width="40" height="20" transform="translate(959 101.089)" fill="#C1C0B8"/>
<rect width="40" height="20" transform="translate(959 101.089)" fill="#00B3E0"/>
<rect x="981" y="103.089" width="16" height="16" fill="#F8F8F7"/>
<path d="M1014.26 110.129L1015.61 110.433C1017.41 110.849 1019.51 111.489 1019.51 113.825C1019.51 116.097 1017.4 117.297 1015.09 117.297C1012.36 117.297 1010.63 115.809 1010.33 113.489H1011.93C1012.23 115.089 1013.35 115.921 1015.13 115.921C1016.84 115.921 1017.83 115.105 1017.83 113.969C1017.83 112.753 1016.79 112.225 1015.33 111.921L1013.89 111.617C1012.31 111.281 1010.71 110.433 1010.71 108.545C1010.71 106.273 1013.03 105.281 1014.9 105.281C1016.98 105.281 1018.85 106.209 1019.3 108.449H1017.72C1017.32 107.105 1016.01 106.657 1014.84 106.657C1013.94 106.657 1012.37 107.073 1012.37 108.417C1012.37 109.409 1013.19 109.889 1014.26 110.129ZM1024.54 109.585C1023.36 109.585 1022.19 110.145 1021.95 112.017H1027.02C1026.92 110.609 1025.93 109.585 1024.54 109.585ZM1026.94 114.593H1028.44C1028.04 116.081 1026.68 117.297 1024.59 117.297C1021.87 117.297 1020.36 115.345 1020.36 112.801C1020.36 110.081 1022.19 108.337 1024.54 108.337C1027.02 108.337 1028.57 110.321 1028.57 112.801C1028.57 112.945 1028.57 113.089 1028.56 113.233H1021.92C1022.09 115.233 1023.39 116.017 1024.59 116.017C1025.87 116.017 1026.57 115.441 1026.94 114.593ZM1029.99 117.089V108.481H1031.45V109.777C1031.94 108.961 1032.78 108.337 1034.23 108.337C1036.31 108.337 1037.06 109.681 1037.06 111.649V117.089H1035.61V112.081C1035.61 110.753 1035.38 109.601 1033.72 109.601C1032.31 109.601 1031.45 110.577 1031.45 112.417V117.089H1029.99ZM1044.92 117.089V115.793C1044.39 116.705 1043.48 117.297 1042.1 117.297C1040.13 117.297 1038.42 115.665 1038.42 112.817C1038.42 109.985 1040.13 108.337 1042.1 108.337C1043.48 108.337 1044.39 108.929 1044.92 109.841V105.489H1046.37V117.089H1044.92ZM1042.47 116.049C1043.76 116.049 1044.98 115.089 1044.98 112.817C1044.98 110.545 1043.76 109.585 1042.47 109.585C1040.98 109.585 1040 110.769 1040 112.817C1040 114.865 1040.98 116.049 1042.47 116.049Z" fill="#7C7C7C"/>
<path d="M1014.26 110.129L1015.61 110.433C1017.41 110.849 1019.51 111.489 1019.51 113.825C1019.51 116.097 1017.4 117.297 1015.09 117.297C1012.36 117.297 1010.63 115.809 1010.33 113.489H1011.93C1012.23 115.089 1013.35 115.921 1015.13 115.921C1016.84 115.921 1017.83 115.105 1017.83 113.969C1017.83 112.753 1016.79 112.225 1015.33 111.921L1013.89 111.617C1012.31 111.281 1010.71 110.433 1010.71 108.545C1010.71 106.273 1013.03 105.281 1014.9 105.281C1016.98 105.281 1018.85 106.209 1019.3 108.449H1017.72C1017.32 107.105 1016.01 106.657 1014.84 106.657C1013.94 106.657 1012.37 107.073 1012.37 108.417C1012.37 109.409 1013.19 109.889 1014.26 110.129ZM1024.54 109.585C1023.36 109.585 1022.19 110.145 1021.95 112.017H1027.02C1026.92 110.609 1025.93 109.585 1024.54 109.585ZM1026.94 114.593H1028.44C1028.04 116.081 1026.68 117.297 1024.59 117.297C1021.87 117.297 1020.36 115.345 1020.36 112.801C1020.36 110.081 1022.19 108.337 1024.54 108.337C1027.02 108.337 1028.57 110.321 1028.57 112.801C1028.57 112.945 1028.57 113.089 1028.56 113.233H1021.92C1022.09 115.233 1023.39 116.017 1024.59 116.017C1025.87 116.017 1026.57 115.441 1026.94 114.593ZM1029.99 117.089V108.481H1031.45V109.777C1031.94 108.961 1032.78 108.337 1034.23 108.337C1036.31 108.337 1037.06 109.681 1037.06 111.649V117.089H1035.61V112.081C1035.61 110.753 1035.38 109.601 1033.72 109.601C1032.31 109.601 1031.45 110.577 1031.45 112.417V117.089H1029.99ZM1044.92 117.089V115.793C1044.39 116.705 1043.48 117.297 1042.1 117.297C1040.13 117.297 1038.42 115.665 1038.42 112.817C1038.42 109.985 1040.13 108.337 1042.1 108.337C1043.48 108.337 1044.39 108.929 1044.92 109.841V105.489H1046.37V117.089H1044.92ZM1042.47 116.049C1043.76 116.049 1044.98 115.089 1044.98 112.817C1044.98 110.545 1043.76 109.585 1042.47 109.585C1040.98 109.585 1040 110.769 1040 112.817C1040 114.865 1040.98 116.049 1042.47 116.049Z" fill="#1A1A1A"/>
<rect width="40" height="20" transform="translate(959 145.089)" fill="#C1C0B8"/>
<rect width="40" height="20" transform="translate(959 145.089)" fill="#11A967"/>
<rect x="981" y="147.089" width="16" height="16" fill="#F8F8F7"/>
<path d="M1011.16 161.089V149.489H1014.84C1017.67 149.489 1019.67 150.049 1019.67 152.833C1019.67 154.513 1018.93 155.393 1017.37 155.921L1020.05 161.089H1018.23L1015.72 156.209H1012.79V161.089H1011.16ZM1012.79 154.833H1014.97C1016.66 154.833 1017.99 154.657 1017.99 152.865C1017.99 151.073 1016.66 150.865 1014.97 150.865H1012.79V154.833ZM1024.73 153.585C1023.54 153.585 1022.38 154.145 1022.14 156.017H1027.21C1027.11 154.609 1026.12 153.585 1024.73 153.585ZM1027.13 158.593H1028.63C1028.23 160.081 1026.87 161.297 1024.78 161.297C1022.06 161.297 1020.55 159.345 1020.55 156.801C1020.55 154.081 1022.38 152.337 1024.73 152.337C1027.21 152.337 1028.76 154.321 1028.76 156.801C1028.76 156.945 1028.76 157.089 1028.74 157.233H1022.1C1022.28 159.233 1023.58 160.017 1024.78 160.017C1026.06 160.017 1026.76 159.441 1027.13 158.593ZM1035.95 158.289H1037.46C1037.17 159.905 1035.62 161.297 1033.62 161.297C1031.15 161.297 1029.6 159.425 1029.6 156.801C1029.6 154.241 1031.22 152.337 1033.76 152.337C1035.84 152.337 1037.17 153.905 1037.36 155.361H1035.89C1035.68 154.337 1034.79 153.617 1033.67 153.617C1032.37 153.617 1031.19 154.625 1031.19 156.785C1031.19 158.977 1032.39 160.017 1033.67 160.017C1034.88 160.017 1035.75 159.201 1035.95 158.289ZM1042.39 153.585C1041.21 153.585 1040.04 154.145 1039.8 156.017H1044.87C1044.78 154.609 1043.78 153.585 1042.39 153.585ZM1044.79 158.593H1046.3C1045.9 160.081 1044.54 161.297 1042.44 161.297C1039.72 161.297 1038.22 159.345 1038.22 156.801C1038.22 154.081 1040.04 152.337 1042.39 152.337C1044.87 152.337 1046.42 154.321 1046.42 156.801C1046.42 156.945 1046.42 157.089 1046.41 157.233H1039.77C1039.94 159.233 1041.24 160.017 1042.44 160.017C1043.72 160.017 1044.42 159.441 1044.79 158.593ZM1047.84 161.089V152.481H1049.3V161.089H1047.84ZM1047.84 151.249V149.489H1049.3V151.249H1047.84ZM1053.52 161.089L1050.28 152.481H1051.89L1054.23 159.073L1056.56 152.481H1058.07L1054.82 161.089H1053.52ZM1062.45 153.585C1061.27 153.585 1060.1 154.145 1059.86 156.017H1064.93C1064.84 154.609 1063.84 153.585 1062.45 153.585ZM1064.85 158.593H1066.36C1065.96 160.081 1064.6 161.297 1062.5 161.297C1059.78 161.297 1058.28 159.345 1058.28 156.801C1058.28 154.081 1060.1 152.337 1062.45 152.337C1064.93 152.337 1066.48 154.321 1066.48 156.801C1066.48 156.945 1066.48 157.089 1066.47 157.233H1059.83C1060 159.233 1061.3 160.017 1062.5 160.017C1063.78 160.017 1064.48 159.441 1064.85 158.593Z" fill="#7C7C7C"/>
<path d="M1011.16 161.089V149.489H1014.84C1017.67 149.489 1019.67 150.049 1019.67 152.833C1019.67 154.513 1018.93 155.393 1017.37 155.921L1020.05 161.089H1018.23L1015.72 156.209H1012.79V161.089H1011.16ZM1012.79 154.833H1014.97C1016.66 154.833 1017.99 154.657 1017.99 152.865C1017.99 151.073 1016.66 150.865 1014.97 150.865H1012.79V154.833ZM1024.73 153.585C1023.54 153.585 1022.38 154.145 1022.14 156.017H1027.21C1027.11 154.609 1026.12 153.585 1024.73 153.585ZM1027.13 158.593H1028.63C1028.23 160.081 1026.87 161.297 1024.78 161.297C1022.06 161.297 1020.55 159.345 1020.55 156.801C1020.55 154.081 1022.38 152.337 1024.73 152.337C1027.21 152.337 1028.76 154.321 1028.76 156.801C1028.76 156.945 1028.76 157.089 1028.74 157.233H1022.1C1022.28 159.233 1023.58 160.017 1024.78 160.017C1026.06 160.017 1026.76 159.441 1027.13 158.593ZM1035.95 158.289H1037.46C1037.17 159.905 1035.62 161.297 1033.62 161.297C1031.15 161.297 1029.6 159.425 1029.6 156.801C1029.6 154.241 1031.22 152.337 1033.76 152.337C1035.84 152.337 1037.17 153.905 1037.36 155.361H1035.89C1035.68 154.337 1034.79 153.617 1033.67 153.617C1032.37 153.617 1031.19 154.625 1031.19 156.785C1031.19 158.977 1032.39 160.017 1033.67 160.017C1034.88 160.017 1035.75 159.201 1035.95 158.289ZM1042.39 153.585C1041.21 153.585 1040.04 154.145 1039.8 156.017H1044.87C1044.78 154.609 1043.78 153.585 1042.39 153.585ZM1044.79 158.593H1046.3C1045.9 160.081 1044.54 161.297 1042.44 161.297C1039.72 161.297 1038.22 159.345 1038.22 156.801C1038.22 154.081 1040.04 152.337 1042.39 152.337C1044.87 152.337 1046.42 154.321 1046.42 156.801C1046.42 156.945 1046.42 157.089 1046.41 157.233H1039.77C1039.94 159.233 1041.24 160.017 1042.44 160.017C1043.72 160.017 1044.42 159.441 1044.79 158.593ZM1047.84 161.089V152.481H1049.3V161.089H1047.84ZM1047.84 151.249V149.489H1049.3V151.249H1047.84ZM1053.52 161.089L1050.28 152.481H1051.89L1054.23 159.073L1056.56 152.481H1058.07L1054.82 161.089H1053.52ZM1062.45 153.585C1061.27 153.585 1060.1 154.145 1059.86 156.017H1064.93C1064.84 154.609 1063.84 153.585 1062.45 153.585ZM1064.85 158.593H1066.36C1065.96 160.081 1064.6 161.297 1062.5 161.297C1059.78 161.297 1058.28 159.345 1058.28 156.801C1058.28 154.081 1060.1 152.337 1062.45 152.337C1064.93 152.337 1066.48 154.321 1066.48 156.801C1066.48 156.945 1066.48 157.089 1066.47 157.233H1059.83C1060 159.233 1061.3 160.017 1062.5 160.017C1063.78 160.017 1064.48 159.441 1064.85 158.593Z" fill="#1A1A1A"/>
<rect width="40" height="20" transform="translate(959 189.089)" fill="#C1C0B8"/>
<rect width="40" height="20" transform="translate(959 189.089)" fill="#FF21CC"/>
<rect x="981" y="191.089" width="16" height="16" fill="#F8F8F7"/>
<path d="M1019.24 201.393H1020.82C1020.31 203.953 1018.31 205.297 1015.8 205.297C1012.47 205.297 1010.53 202.801 1010.53 199.265C1010.53 195.665 1012.65 193.281 1015.93 193.281C1018.33 193.281 1020.26 194.705 1020.76 197.185H1019.17C1018.82 195.745 1017.7 194.657 1015.85 194.657C1013.8 194.657 1012.2 196.257 1012.2 199.265C1012.2 202.193 1013.73 203.921 1015.89 203.921C1017.73 203.921 1018.87 202.881 1019.24 201.393ZM1025.77 205.297C1023.76 205.297 1021.61 203.937 1021.61 200.817C1021.61 197.697 1023.76 196.337 1025.77 196.337C1027.79 196.337 1029.93 197.697 1029.93 200.817C1029.93 203.937 1027.79 205.297 1025.77 205.297ZM1025.77 204.017C1027.09 204.017 1028.35 203.105 1028.35 200.817C1028.35 198.529 1027.09 197.617 1025.77 197.617C1024.46 197.617 1023.2 198.529 1023.2 200.817C1023.2 203.105 1024.46 204.017 1025.77 204.017ZM1031.37 205.089V196.481H1032.82V197.777C1033.32 196.961 1034.15 196.337 1035.61 196.337C1037.69 196.337 1038.44 197.681 1038.44 199.649V205.089H1036.98V200.081C1036.98 198.753 1036.76 197.601 1035.09 197.601C1033.69 197.601 1032.82 198.577 1032.82 200.417V205.089H1031.37ZM1042.42 205.089L1039.17 196.481H1040.79L1043.13 203.073L1045.46 196.481H1046.97L1043.72 205.089H1042.42ZM1051.35 197.585C1050.17 197.585 1049 198.145 1048.76 200.017H1053.83C1053.73 198.609 1052.74 197.585 1051.35 197.585ZM1053.75 202.593H1055.25C1054.85 204.081 1053.49 205.297 1051.4 205.297C1048.68 205.297 1047.17 203.345 1047.17 200.801C1047.17 198.081 1049 196.337 1051.35 196.337C1053.83 196.337 1055.38 198.321 1055.38 200.801C1055.38 200.945 1055.38 201.089 1055.37 201.233H1048.73C1048.9 203.233 1050.2 204.017 1051.4 204.017C1052.68 204.017 1053.38 203.441 1053.75 202.593ZM1056.8 205.089V196.481H1058.23V197.985C1058.66 197.009 1059.54 196.465 1060.66 196.433C1060.8 196.433 1060.93 196.433 1061.09 196.449V198.001C1060.75 197.953 1060.51 197.937 1060.27 197.937C1058.93 197.937 1058.26 198.689 1058.26 200.577V205.089H1056.8ZM1065.75 205.089H1064.69C1063.04 205.089 1062.66 204.721 1062.66 202.929V197.649H1061.3V196.481H1062.66V194.321H1064.12V196.481H1065.75V197.649H1064.12V202.753C1064.12 203.649 1064.18 203.873 1065.01 203.873H1065.75V205.089Z" fill="#7C7C7C"/>
<path d="M1019.24 201.393H1020.82C1020.31 203.953 1018.31 205.297 1015.8 205.297C1012.47 205.297 1010.53 202.801 1010.53 199.265C1010.53 195.665 1012.65 193.281 1015.93 193.281C1018.33 193.281 1020.26 194.705 1020.76 197.185H1019.17C1018.82 195.745 1017.7 194.657 1015.85 194.657C1013.8 194.657 1012.2 196.257 1012.2 199.265C1012.2 202.193 1013.73 203.921 1015.89 203.921C1017.73 203.921 1018.87 202.881 1019.24 201.393ZM1025.77 205.297C1023.76 205.297 1021.61 203.937 1021.61 200.817C1021.61 197.697 1023.76 196.337 1025.77 196.337C1027.79 196.337 1029.93 197.697 1029.93 200.817C1029.93 203.937 1027.79 205.297 1025.77 205.297ZM1025.77 204.017C1027.09 204.017 1028.35 203.105 1028.35 200.817C1028.35 198.529 1027.09 197.617 1025.77 197.617C1024.46 197.617 1023.2 198.529 1023.2 200.817C1023.2 203.105 1024.46 204.017 1025.77 204.017ZM1031.37 205.089V196.481H1032.82V197.777C1033.32 196.961 1034.15 196.337 1035.61 196.337C1037.69 196.337 1038.44 197.681 1038.44 199.649V205.089H1036.98V200.081C1036.98 198.753 1036.76 197.601 1035.09 197.601C1033.69 197.601 1032.82 198.577 1032.82 200.417V205.089H1031.37ZM1042.42 205.089L1039.17 196.481H1040.79L1043.13 203.073L1045.46 196.481H1046.97L1043.72 205.089H1042.42ZM1051.35 197.585C1050.17 197.585 1049 198.145 1048.76 200.017H1053.83C1053.73 198.609 1052.74 197.585 1051.35 197.585ZM1053.75 202.593H1055.25C1054.85 204.081 1053.49 205.297 1051.4 205.297C1048.68 205.297 1047.17 203.345 1047.17 200.801C1047.17 198.081 1049 196.337 1051.35 196.337C1053.83 196.337 1055.38 198.321 1055.38 200.801C1055.38 200.945 1055.38 201.089 1055.37 201.233H1048.73C1048.9 203.233 1050.2 204.017 1051.4 204.017C1052.68 204.017 1053.38 203.441 1053.75 202.593ZM1056.8 205.089V196.481H1058.23V197.985C1058.66 197.009 1059.54 196.465 1060.66 196.433C1060.8 196.433 1060.93 196.433 1061.09 196.449V198.001C1060.75 197.953 1060.51 197.937 1060.27 197.937C1058.93 197.937 1058.26 198.689 1058.26 200.577V205.089H1056.8ZM1065.75 205.089H1064.69C1063.04 205.089 1062.66 204.721 1062.66 202.929V197.649H1061.3V196.481H1062.66V194.321H1064.12V196.481H1065.75V197.649H1064.12V202.753C1064.12 203.649 1064.18 203.873 1065.01 203.873H1065.75V205.089Z" fill="#1A1A1A"/>
<rect width="40" height="20" transform="translate(959 233.089)" fill="#C1C0B8"/>
<rect x="961" y="235.089" width="16" height="16" fill="#F8F8F7"/>
<path d="M1011.16 249.089V237.489H1012.79V242.417H1018.87V237.489H1020.5V249.089H1018.87V243.825H1012.79V249.089H1011.16ZM1026.13 249.297C1024.12 249.297 1021.97 247.937 1021.97 244.817C1021.97 241.697 1024.12 240.337 1026.13 240.337C1028.15 240.337 1030.29 241.697 1030.29 244.817C1030.29 247.937 1028.15 249.297 1026.13 249.297ZM1026.13 248.017C1027.45 248.017 1028.71 247.105 1028.71 244.817C1028.71 242.529 1027.45 241.617 1026.13 241.617C1024.82 241.617 1023.56 242.529 1023.56 244.817C1023.56 247.105 1024.82 248.017 1026.13 248.017ZM1031.73 249.089V237.489H1033.18V249.089H1031.73ZM1041.13 249.089V247.793C1040.61 248.705 1039.69 249.297 1038.32 249.297C1036.35 249.297 1034.64 247.665 1034.64 244.817C1034.64 241.985 1036.35 240.337 1038.32 240.337C1039.69 240.337 1040.61 240.929 1041.13 241.841V237.489H1042.59V249.089H1041.13ZM1038.69 248.049C1039.98 248.049 1041.2 247.089 1041.2 244.817C1041.2 242.545 1039.98 241.585 1038.69 241.585C1037.2 241.585 1036.22 242.769 1036.22 244.817C1036.22 246.865 1037.2 248.049 1038.69 248.049Z" fill="#7C7C7C"/>
<rect width="40" height="20" transform="translate(959 277.089)" fill="#C1C0B8"/>
<rect width="40" height="20" transform="translate(959 277.089)" fill="#CF00A7"/>
<rect x="981" y="279.089" width="16" height="16" fill="#F8F8F7"/>
<path d="M1011.16 293.089V281.489H1014.84C1017.67 281.489 1019.67 282.049 1019.67 284.833C1019.67 286.513 1018.93 287.393 1017.37 287.921L1020.05 293.089H1018.23L1015.72 288.209H1012.79V293.089H1011.16ZM1012.79 286.833H1014.97C1016.66 286.833 1017.99 286.657 1017.99 284.865C1017.99 283.073 1016.66 282.865 1014.97 282.865H1012.79V286.833ZM1027.06 293.089V291.793C1026.53 292.705 1025.62 293.297 1024.25 293.297C1022.28 293.297 1020.6 291.665 1020.6 288.817C1020.6 285.985 1022.28 284.337 1024.25 284.337C1025.62 284.337 1026.53 284.929 1027.06 285.841V284.481H1028.52V293.089H1027.06ZM1024.61 292.049C1025.91 292.049 1027.13 291.089 1027.13 288.817C1027.13 286.545 1025.91 285.585 1024.61 285.585C1023.14 285.585 1022.18 286.769 1022.18 288.817C1022.18 290.865 1023.14 292.049 1024.61 292.049ZM1030.54 293.089V284.481H1031.99V285.777C1032.49 284.961 1033.29 284.337 1034.59 284.337C1035.9 284.337 1036.68 284.913 1037.07 285.857C1037.75 284.801 1038.76 284.337 1039.96 284.337C1041.96 284.337 1042.75 285.681 1042.75 287.649V293.089H1041.29V288.081C1041.29 286.753 1041.03 285.601 1039.45 285.601C1038.2 285.601 1037.37 286.577 1037.37 288.417V293.089H1035.91V288.081C1035.91 286.753 1035.66 285.601 1034.07 285.601C1032.83 285.601 1031.99 286.577 1031.99 288.417V293.089H1030.54ZM1044.67 295.889V284.481H1046.12V285.841C1046.65 284.929 1047.56 284.337 1048.94 284.337C1050.91 284.337 1052.62 285.985 1052.62 288.817C1052.62 291.665 1050.91 293.297 1048.94 293.297C1047.56 293.297 1046.65 292.705 1046.12 291.793V295.889H1044.67ZM1048.57 292.049C1050.06 292.049 1051.04 290.865 1051.04 288.817C1051.04 286.769 1050.06 285.585 1048.57 285.585C1047.28 285.585 1046.06 286.545 1046.06 288.817C1046.06 291.089 1047.28 292.049 1048.57 292.049Z" fill="#7C7C7C"/>
<path d="M1011.16 293.089V281.489H1014.84C1017.67 281.489 1019.67 282.049 1019.67 284.833C1019.67 286.513 1018.93 287.393 1017.37 287.921L1020.05 293.089H1018.23L1015.72 288.209H1012.79V293.089H1011.16ZM1012.79 286.833H1014.97C1016.66 286.833 1017.99 286.657 1017.99 284.865C1017.99 283.073 1016.66 282.865 1014.97 282.865H1012.79V286.833ZM1027.06 293.089V291.793C1026.53 292.705 1025.62 293.297 1024.25 293.297C1022.28 293.297 1020.6 291.665 1020.6 288.817C1020.6 285.985 1022.28 284.337 1024.25 284.337C1025.62 284.337 1026.53 284.929 1027.06 285.841V284.481H1028.52V293.089H1027.06ZM1024.61 292.049C1025.91 292.049 1027.13 291.089 1027.13 288.817C1027.13 286.545 1025.91 285.585 1024.61 285.585C1023.14 285.585 1022.18 286.769 1022.18 288.817C1022.18 290.865 1023.14 292.049 1024.61 292.049ZM1030.54 293.089V284.481H1031.99V285.777C1032.49 284.961 1033.29 284.337 1034.59 284.337C1035.9 284.337 1036.68 284.913 1037.07 285.857C1037.75 284.801 1038.76 284.337 1039.96 284.337C1041.96 284.337 1042.75 285.681 1042.75 287.649V293.089H1041.29V288.081C1041.29 286.753 1041.03 285.601 1039.45 285.601C1038.2 285.601 1037.37 286.577 1037.37 288.417V293.089H1035.91V288.081C1035.91 286.753 1035.66 285.601 1034.07 285.601C1032.83 285.601 1031.99 286.577 1031.99 288.417V293.089H1030.54ZM1044.67 295.889V284.481H1046.12V285.841C1046.65 284.929 1047.56 284.337 1048.94 284.337C1050.91 284.337 1052.62 285.985 1052.62 288.817C1052.62 291.665 1050.91 293.297 1048.94 293.297C1047.56 293.297 1046.65 292.705 1046.12 291.793V295.889H1044.67ZM1048.57 292.049C1050.06 292.049 1051.04 290.865 1051.04 288.817C1051.04 286.769 1050.06 285.585 1048.57 285.585C1047.28 285.585 1046.06 286.545 1046.06 288.817C1046.06 291.089 1047.28 292.049 1048.57 292.049Z" fill="#1A1A1A"/>
<rect width="40" height="20" transform="translate(959 321.089)" fill="#C1C0B8"/>
<rect x="961" y="323.089" width="16" height="16" fill="#F8F8F7"/>
<path d="M1011.16 337.089V325.489H1015.33C1017.49 325.489 1019.41 326.049 1019.41 328.353C1019.41 329.457 1018.93 330.449 1018.13 330.913C1019.24 331.377 1019.89 332.241 1019.89 333.665C1019.89 336.129 1018.05 337.089 1015.73 337.089H1011.16ZM1012.79 335.713H1015.75C1017.4 335.713 1018.21 334.993 1018.21 333.681C1018.21 332.321 1017.4 331.745 1015.65 331.745H1012.79V335.713ZM1012.79 330.449H1015.59C1016.92 330.449 1017.77 329.937 1017.77 328.577C1017.77 327.393 1016.89 326.865 1015.59 326.865H1012.79V330.449ZM1021.38 337.089V328.481H1022.83V337.089H1021.38ZM1021.38 327.249V325.489H1022.83V327.249H1021.38ZM1024.85 337.089V325.489H1026.31V337.089H1024.85ZM1028.32 337.089V325.489H1029.78V337.089H1028.32Z" fill="#7C7C7C"/>
<rect width="40" height="20" transform="translate(959 365.089)" fill="#C1C0B8"/>
<rect x="961" y="367.089" width="16" height="16" fill="#F8F8F7"/>
<path d="M1011.16 381.089V369.489H1014.79C1017.62 369.489 1019.61 370.129 1019.61 372.993C1019.61 375.873 1017.62 376.497 1014.79 376.497H1012.79V381.089H1011.16ZM1012.79 375.073H1014.92C1016.61 375.073 1017.94 374.897 1017.94 372.993C1017.94 371.105 1016.61 370.865 1014.92 370.865H1012.79V375.073ZM1020.81 381.089V372.481H1022.24V373.985C1022.67 373.009 1023.55 372.465 1024.67 372.433C1024.81 372.433 1024.94 372.433 1025.1 372.449V374.001C1024.77 373.953 1024.53 373.937 1024.29 373.937C1022.94 373.937 1022.27 374.689 1022.27 376.577V381.089H1020.81ZM1029.51 381.297C1027.5 381.297 1025.35 379.937 1025.35 376.817C1025.35 373.697 1027.5 372.337 1029.51 372.337C1031.53 372.337 1033.67 373.697 1033.67 376.817C1033.67 379.937 1031.53 381.297 1029.51 381.297ZM1029.51 380.017C1030.82 380.017 1032.09 379.105 1032.09 376.817C1032.09 374.529 1030.82 373.617 1029.51 373.617C1028.2 373.617 1026.94 374.529 1026.94 376.817C1026.94 379.105 1028.2 380.017 1029.51 380.017ZM1042.4 372.481V380.241C1042.4 382.785 1041.06 384.097 1038.61 384.097C1036.66 384.097 1035.34 383.201 1035.07 381.457H1036.62C1036.82 382.225 1037.3 382.817 1038.62 382.817C1039.92 382.817 1040.94 382.241 1040.94 380.433V379.457C1040.42 380.369 1039.58 380.945 1038.21 380.945C1036.3 380.945 1034.56 379.409 1034.56 376.641C1034.56 373.889 1036.3 372.337 1038.21 372.337C1039.58 372.337 1040.42 372.929 1040.94 373.841V372.481H1042.4ZM1038.58 379.713C1039.87 379.713 1041.01 378.833 1041.01 376.641C1041.01 374.465 1039.87 373.585 1038.58 373.585C1037.15 373.585 1036.14 374.689 1036.14 376.641C1036.14 378.609 1037.15 379.713 1038.58 379.713ZM1044.41 381.089V372.481H1045.83V373.985C1046.26 373.009 1047.14 372.465 1048.26 372.433C1048.41 372.433 1048.53 372.433 1048.69 372.449V374.001C1048.36 373.953 1048.12 373.937 1047.88 373.937C1046.53 373.937 1045.86 374.689 1045.86 376.577V381.089H1044.41ZM1055.42 381.089V379.793C1054.9 380.705 1053.98 381.297 1052.61 381.297C1050.64 381.297 1048.96 379.665 1048.96 376.817C1048.96 373.985 1050.64 372.337 1052.61 372.337C1053.98 372.337 1054.9 372.929 1055.42 373.841V372.481H1056.88V381.089H1055.42ZM1052.98 380.049C1054.27 380.049 1055.49 379.089 1055.49 376.817C1055.49 374.545 1054.27 373.585 1052.98 373.585C1051.5 373.585 1050.54 374.769 1050.54 376.817C1050.54 378.865 1051.5 380.049 1052.98 380.049ZM1058.9 381.089V372.481H1060.36V373.777C1060.85 372.961 1061.65 372.337 1062.95 372.337C1064.26 372.337 1065.04 372.913 1065.43 373.857C1066.12 372.801 1067.12 372.337 1068.32 372.337C1070.32 372.337 1071.11 373.681 1071.11 375.649V381.089H1069.65V376.081C1069.65 374.753 1069.4 373.601 1067.81 373.601C1066.56 373.601 1065.73 374.577 1065.73 376.417V381.089H1064.28V376.081C1064.28 374.753 1064.02 373.601 1062.44 373.601C1061.19 373.601 1060.36 374.577 1060.36 376.417V381.089H1058.9Z" fill="#7C7C7C"/>
<rect width="40" height="20" transform="translate(959 409.089)" fill="#C1C0B8"/>
<rect width="40" height="20" transform="translate(959 409.089)" fill="#0072DB"/>
<rect x="981" y="411.089" width="16" height="16" fill="#F8F8F7"/>
<path d="M1011.16 425.089V413.489H1012.79V425.089H1011.16ZM1020.8 425.089V423.793C1020.27 424.705 1019.36 425.297 1017.98 425.297C1016.01 425.297 1014.3 423.665 1014.3 420.817C1014.3 417.985 1016.01 416.337 1017.98 416.337C1019.36 416.337 1020.27 416.929 1020.8 417.841V413.489H1022.25V425.089H1020.8ZM1018.35 424.049C1019.65 424.049 1020.86 423.089 1020.86 420.817C1020.86 418.545 1019.65 417.585 1018.35 417.585C1016.86 417.585 1015.89 418.769 1015.89 420.817C1015.89 422.865 1016.86 424.049 1018.35 424.049ZM1027.87 417.585C1026.69 417.585 1025.52 418.145 1025.28 420.017H1030.35C1030.26 418.609 1029.26 417.585 1027.87 417.585ZM1030.27 422.593H1031.78C1031.38 424.081 1030.02 425.297 1027.92 425.297C1025.2 425.297 1023.7 423.345 1023.7 420.801C1023.7 418.081 1025.52 416.337 1027.87 416.337C1030.35 416.337 1031.9 418.321 1031.9 420.801C1031.9 420.945 1031.9 421.089 1031.89 421.233H1025.25C1025.42 423.233 1026.72 424.017 1027.92 424.017C1029.2 424.017 1029.9 423.441 1030.27 422.593ZM1033.32 425.089V416.481H1034.78V417.777C1035.28 416.961 1036.11 416.337 1037.56 416.337C1039.64 416.337 1040.4 417.681 1040.4 419.649V425.089H1038.94V420.081C1038.94 418.753 1038.72 417.601 1037.05 417.601C1035.64 417.601 1034.78 418.577 1034.78 420.417V425.089H1033.32ZM1045.77 425.089H1044.71C1043.07 425.089 1042.68 424.721 1042.68 422.929V417.649H1041.32V416.481H1042.68V414.321H1044.14V416.481H1045.77V417.649H1044.14V422.753C1044.14 423.649 1044.2 423.873 1045.03 423.873H1045.77V425.089ZM1047.1 425.089V416.481H1048.55V425.089H1047.1ZM1047.1 415.249V413.489H1048.55V415.249H1047.1ZM1051.02 425.089V417.649H1049.82V416.481H1051.02V415.857C1051.02 414.065 1051.39 413.489 1053.34 413.489H1054.09V414.705H1053.37C1052.6 414.705 1052.48 414.881 1052.48 415.777V416.481H1054.09V417.649H1052.48V425.089H1051.02ZM1054.69 427.889V426.673H1055.28C1056.24 426.673 1056.67 426.641 1057.09 425.297L1057.15 425.089L1054.05 416.481H1055.67L1057.86 423.121L1059.99 416.481H1061.51L1058.43 425.457C1057.79 427.329 1057.36 427.889 1055.44 427.889H1054.69Z" fill="#7C7C7C"/>
<path d="M1011.16 425.089V413.489H1012.79V425.089H1011.16ZM1020.8 425.089V423.793C1020.27 424.705 1019.36 425.297 1017.98 425.297C1016.01 425.297 1014.3 423.665 1014.3 420.817C1014.3 417.985 1016.01 416.337 1017.98 416.337C1019.36 416.337 1020.27 416.929 1020.8 417.841V413.489H1022.25V425.089H1020.8ZM1018.35 424.049C1019.65 424.049 1020.86 423.089 1020.86 420.817C1020.86 418.545 1019.65 417.585 1018.35 417.585C1016.86 417.585 1015.89 418.769 1015.89 420.817C1015.89 422.865 1016.86 424.049 1018.35 424.049ZM1027.87 417.585C1026.69 417.585 1025.52 418.145 1025.28 420.017H1030.35C1030.26 418.609 1029.26 417.585 1027.87 417.585ZM1030.27 422.593H1031.78C1031.38 424.081 1030.02 425.297 1027.92 425.297C1025.2 425.297 1023.7 423.345 1023.7 420.801C1023.7 418.081 1025.52 416.337 1027.87 416.337C1030.35 416.337 1031.9 418.321 1031.9 420.801C1031.9 420.945 1031.9 421.089 1031.89 421.233H1025.25C1025.42 423.233 1026.72 424.017 1027.92 424.017C1029.2 424.017 1029.9 423.441 1030.27 422.593ZM1033.32 425.089V416.481H1034.78V417.777C1035.28 416.961 1036.11 416.337 1037.56 416.337C1039.64 416.337 1040.4 417.681 1040.4 419.649V425.089H1038.94V420.081C1038.94 418.753 1038.72 417.601 1037.05 417.601C1035.64 417.601 1034.78 418.577 1034.78 420.417V425.089H1033.32ZM1045.77 425.089H1044.71C1043.07 425.089 1042.68 424.721 1042.68 422.929V417.649H1041.32V416.481H1042.68V414.321H1044.14V416.481H1045.77V417.649H1044.14V422.753C1044.14 423.649 1044.2 423.873 1045.03 423.873H1045.77V425.089ZM1047.1 425.089V416.481H1048.55V425.089H1047.1ZM1047.1 415.249V413.489H1048.55V415.249H1047.1ZM1051.02 425.089V417.649H1049.82V416.481H1051.02V415.857C1051.02 414.065 1051.39 413.489 1053.34 413.489H1054.09V414.705H1053.37C1052.6 414.705 1052.48 414.881 1052.48 415.777V416.481H1054.09V417.649H1052.48V425.089H1051.02ZM1054.69 427.889V426.673H1055.28C1056.24 426.673 1056.67 426.641 1057.09 425.297L1057.15 425.089L1054.05 416.481H1055.67L1057.86 423.121L1059.99 416.481H1061.51L1058.43 425.457C1057.79 427.329 1057.36 427.889 1055.44 427.889H1054.69Z" fill="#1A1A1A"/>
<rect width="96" height="96" transform="translate(567 217.089)" fill="#F0F0EE"/>
<rect width="64" height="64" transform="translate(583.062 233.149)" fill="#F0F0EE"/>
<path d="M609.45 233.149V251.956H620.675V233.149H647.063V259.537H628.256V270.762H647.063V297.149H620.675V278.343H609.45V297.149H583.062V270.762H601.869V259.537H583.062V233.149H609.45ZM628.256 289.568H639.481V278.343H628.256V289.568ZM590.644 289.568H601.869V278.343H590.644V289.568ZM609.45 270.762H620.675V259.537H609.45V270.762ZM628.256 251.956H639.481V240.731H628.256V251.956ZM590.644 251.956H601.869V240.731H590.644V251.956Z" fill="#1A1A1A"/>
<circle cx="567" cy="265.089" r="3" fill="#1A1A1A"/>
<circle cx="663.125" cy="265.089" r="3" fill="#1A1A1A"/>
</g>
<defs>
<linearGradient id="paint0_linear_1154_7852" x1="733.783" y1="264.589" x2="663" y2="264.589" gradientUnits="userSpaceOnUse">
<stop stop-color="#1A1A1A" stop-opacity="0"/>
<stop offset="1" stop-color="#1A1A1A"/>
</linearGradient>
<clipPath id="clip0_1154_7852">
<rect width="1230" height="530" fill="white"/>
</clipPath>
<pattern id="pattern0_1154_7852" patternUnits="userSpaceOnUse" patternTransform="matrix(45.1639 0 0 39.5184 612.958 263.043)" preserveAspectRatio="none" viewBox="0 0 88.32 77.28" width="1" height="1">
<g id="pattern0_1154_7852_inner">
<rect width="8" height="8" fill="#C1C0B8"/>
</g>
</pattern></defs>
</svg>
