<svg width="928" height="400" viewBox="0 0 928 400" fill="none" xmlns="http://www.w3.org/2000/svg" xmlns:xlink="http://www.w3.org/1999/xlink">
<rect width="928" height="400" fill="#F0F0EE"/>
<rect width="928" height="400" fill="url(#pattern0_1320_26692)" fill-opacity="0.6"/>
<path d="M312.556 189.027V195.476H316.404V189.027H325.452V198.075H319.004V201.924H325.452V210.972H316.404V204.523H312.556V210.972H303.508V201.924H309.956V198.075H303.508V189.027H312.556ZM319.004 208.372H322.853V204.523H319.004V208.372ZM306.107 208.372H309.956V204.523H306.107V208.372ZM312.556 201.924H316.404V198.075H312.556V201.924ZM319.004 195.476H322.853V191.627H319.004V195.476ZM306.107 195.476H309.956V191.627H306.107V195.476Z" fill="#282828"/>
<path d="M354.839 203.822H357.701C356.776 208.447 353.162 210.876 348.623 210.876C342.61 210.876 339.112 206.366 339.112 199.977C339.112 193.472 342.928 189.165 348.855 189.165C353.191 189.165 356.689 191.738 357.585 196.219H354.723C354.087 193.617 352.063 191.651 348.71 191.651C345.01 191.651 342.119 194.542 342.119 199.977C342.119 205.267 344.894 208.39 348.797 208.39C352.121 208.39 354.174 206.51 354.839 203.822ZM366.65 210.876C363.007 210.876 359.133 208.418 359.133 202.781C359.133 197.144 363.007 194.686 366.65 194.686C370.292 194.686 374.166 197.144 374.166 202.781C374.166 208.418 370.292 210.876 366.65 210.876ZM366.65 208.563C369.02 208.563 371.304 206.915 371.304 202.781C371.304 198.647 369.02 196.999 366.65 196.999C364.279 196.999 361.995 198.647 361.995 202.781C361.995 206.915 364.279 208.563 366.65 208.563ZM376.754 210.5V194.947H379.385V197.288C380.281 195.814 381.727 194.686 384.068 194.686C386.439 194.686 387.855 195.727 388.549 197.433C389.792 195.525 391.614 194.686 393.782 194.686C397.396 194.686 398.812 197.115 398.812 200.671V210.5H396.181V201.451C396.181 199.052 395.719 196.97 392.857 196.97C390.602 196.97 389.099 198.734 389.099 202.058V210.5H386.468V201.451C386.468 199.052 386.005 196.97 383.143 196.97C380.888 196.97 379.385 198.734 379.385 202.058V210.5H376.754ZM402.284 210.5V194.947H404.915V197.288C405.811 195.814 407.256 194.686 409.598 194.686C411.969 194.686 413.385 195.727 414.079 197.433C415.322 195.525 417.143 194.686 419.312 194.686C422.925 194.686 424.342 197.115 424.342 200.671V210.5H421.711V201.451C421.711 199.052 421.249 196.97 418.387 196.97C416.132 196.97 414.628 198.734 414.628 202.058V210.5H411.998V201.451C411.998 199.052 411.535 196.97 408.673 196.97C406.418 196.97 404.915 198.734 404.915 202.058V210.5H402.284ZM438.481 210.5V208.158C437.527 209.806 435.88 210.876 433.393 210.876C429.837 210.876 426.802 207.927 426.802 202.781C426.802 197.664 429.837 194.686 433.393 194.686C435.88 194.686 437.527 195.756 438.481 197.404V194.947H441.112V210.5H438.481ZM434.058 208.621C436.4 208.621 438.597 206.886 438.597 202.781C438.597 198.676 436.4 196.941 434.058 196.941C431.398 196.941 429.664 199.081 429.664 202.781C429.664 206.482 431.398 208.621 434.058 208.621ZM444.761 210.5V194.947H447.392V197.288C448.288 195.814 449.791 194.686 452.422 194.686C456.18 194.686 457.539 197.115 457.539 200.671V210.5H454.908V201.451C454.908 199.052 454.504 196.97 451.497 196.97C448.953 196.97 447.392 198.734 447.392 202.058V210.5H444.761ZM471.728 210.5V208.158C470.774 209.806 469.126 210.876 466.64 210.876C463.084 210.876 459.99 207.927 459.99 202.781C459.99 197.664 463.084 194.686 466.64 194.686C469.126 194.686 470.774 195.756 471.728 197.404V189.54H474.359V210.5H471.728ZM467.305 208.621C469.646 208.621 471.844 206.886 471.844 202.781C471.844 198.676 469.646 196.941 467.305 196.941C464.616 196.941 462.853 199.081 462.853 202.781C462.853 206.482 464.616 208.621 467.305 208.621ZM482.227 200.989L484.424 201.422C487.257 201.972 489.743 203.041 489.743 206.048C489.743 209.112 486.968 210.876 483.412 210.876C479.336 210.876 477.023 208.187 476.734 205.47H479.509C479.914 207.464 481.157 208.65 483.47 208.65C485.465 208.65 487.084 207.782 487.084 206.337C487.084 204.776 485.609 204.111 483.933 203.764L481.62 203.301C479.509 202.868 477.197 201.914 477.197 199.11C477.197 196.276 479.972 194.657 483.412 194.657C486.766 194.657 489.05 196.537 489.541 199.485H486.795C486.39 197.635 484.944 196.912 483.123 196.912C481.591 196.912 479.856 197.491 479.856 198.994C479.856 200.15 480.724 200.7 482.227 200.989ZM499.046 210.5V197.057H496.877V194.947H499.046V193.819C499.046 190.581 499.711 189.54 503.237 189.54H504.596V191.738H503.295C501.908 191.738 501.676 192.056 501.676 193.675V194.947H504.596V197.057H501.676V210.5H499.046ZM512.681 210.876C509.039 210.876 505.165 208.418 505.165 202.781C505.165 197.144 509.039 194.686 512.681 194.686C516.324 194.686 520.198 197.144 520.198 202.781C520.198 208.418 516.324 210.876 512.681 210.876ZM512.681 208.563C515.052 208.563 517.336 206.915 517.336 202.781C517.336 198.647 515.052 196.999 512.681 196.999C510.311 196.999 508.027 198.647 508.027 202.781C508.027 206.915 510.311 208.563 512.681 208.563ZM522.786 210.5V194.947H525.359V197.664C526.139 195.901 527.729 194.918 529.753 194.86C530.013 194.86 530.244 194.86 530.534 194.889V197.693C529.926 197.606 529.493 197.577 529.059 197.577C526.631 197.577 525.417 198.936 525.417 202.347V210.5H522.786ZM537.793 210.5V194.947H540.424V197.288C541.32 195.814 542.765 194.686 545.107 194.686C547.478 194.686 548.894 195.727 549.588 197.433C550.831 195.525 552.652 194.686 554.821 194.686C558.434 194.686 559.851 197.115 559.851 200.671V210.5H557.22V201.451C557.22 199.052 556.758 196.97 553.896 196.97C551.641 196.97 550.137 198.734 550.137 202.058V210.5H547.507V201.451C547.507 199.052 547.044 196.97 544.182 196.97C541.927 196.97 540.424 198.734 540.424 202.058V210.5H537.793ZM569.798 210.876C566.156 210.876 562.282 208.418 562.282 202.781C562.282 197.144 566.156 194.686 569.798 194.686C573.441 194.686 577.315 197.144 577.315 202.781C577.315 208.418 573.441 210.876 569.798 210.876ZM569.798 208.563C572.169 208.563 574.453 206.915 574.453 202.781C574.453 198.647 572.169 196.999 569.798 196.999C567.428 196.999 565.144 198.647 565.144 202.781C565.144 206.915 567.428 208.563 569.798 208.563ZM579.903 210.5V194.947H582.534V197.288C583.43 195.814 584.933 194.686 587.564 194.686C591.322 194.686 592.681 197.115 592.681 200.671V210.5H590.05V201.451C590.05 199.052 589.645 196.97 586.639 196.97C584.095 196.97 582.534 198.734 582.534 202.058V210.5H579.903ZM602.649 196.941C600.51 196.941 598.399 197.953 597.966 201.336H607.13C606.957 198.792 605.164 196.941 602.649 196.941ZM606.985 205.99H609.703C608.98 208.679 606.523 210.876 602.736 210.876C597.821 210.876 595.104 207.349 595.104 202.752C595.104 197.838 598.399 194.686 602.649 194.686C607.13 194.686 609.934 198.271 609.934 202.752C609.934 203.012 609.934 203.273 609.905 203.533H597.908C598.226 207.146 600.568 208.563 602.736 208.563C605.049 208.563 606.321 207.522 606.985 205.99ZM611.436 215.559V213.362H612.506C614.241 213.362 615.021 213.304 615.773 210.876L615.889 210.5L610.28 194.947H613.2L617.161 206.944L621.006 194.947H623.752L618.201 211.165C617.045 214.547 616.264 215.559 612.795 215.559H611.436Z" fill="#282828"/>
<defs>
<pattern id="pattern0_1320_26692" patternUnits="userSpaceOnUse" patternTransform="matrix(23.4998 0 0 20.3282 462.936 198.936)" preserveAspectRatio="none" viewBox="0 0 88.32 76.4" width="1" height="1">
<g id="pattern0_1320_26692_inner">
<rect width="8" height="8" fill="#C1C0B8"/>
</g>
</pattern></defs>
</svg>
