<svg width="928" height="400" viewBox="0 0 928 400" fill="none" xmlns="http://www.w3.org/2000/svg" xmlns:xlink="http://www.w3.org/1999/xlink">
<g clip-path="url(#clip0_1171_11515)">
<rect width="928" height="400" fill="#212121"/>
<rect width="928" height="400" fill="url(#pattern0_1171_11515)" fill-opacity="0.1"/>
<g filter="url(#filter0_dddd_1171_11515)">
<rect x="324" y="102" width="280" height="196" rx="28" fill="black" fill-opacity="0.4"/>
<mask id="path-3-inside-1_1171_11515" fill="white">
<path d="M324 102H604V154H324V102Z"/>
</mask>
<path d="M604 154V153.527H324V154V154.473H604V154Z" fill="#013D5F" fill-opacity="0.1" mask="url(#path-3-inside-1_1171_11515)"/>
<path d="M349.538 133V123.399H356.372V124.882H351.233V127.319H356.08V128.802H351.233V131.517H356.372V133H349.538ZM362.803 133V131.967C362.366 132.735 361.532 133.172 360.539 133.172C358.83 133.172 357.466 131.795 357.466 129.451C357.466 127.12 358.83 125.743 360.539 125.743C361.532 125.743 362.366 126.18 362.803 126.935V125.875H364.393V133H362.803ZM360.989 131.888C361.982 131.888 362.883 131.172 362.883 129.451C362.883 127.729 361.982 127.027 360.989 127.027C359.903 127.027 359.148 127.901 359.148 129.451C359.148 131.014 359.903 131.888 360.989 131.888ZM366.284 133V125.875H367.82V127.16C368.164 126.339 368.84 125.862 369.807 125.835C369.913 125.835 370.032 125.835 370.151 125.849V127.451C369.886 127.411 369.701 127.398 369.502 127.398C368.416 127.398 367.86 127.928 367.86 129.332V133H366.284ZM371.392 133V125.875H372.968V126.895C373.339 126.272 374.067 125.743 375.233 125.743C376.994 125.743 377.603 126.842 377.603 128.577V133H376.027V129.014C376.027 127.941 375.895 127.027 374.637 127.027C373.564 127.027 372.968 127.769 372.968 129.212V133H371.392ZM379.437 133V125.875H381.013V133H379.437ZM379.437 124.961V123.399H381.013V124.961H379.437ZM382.916 133V125.875H384.491V126.895C384.862 126.272 385.591 125.743 386.756 125.743C388.517 125.743 389.127 126.842 389.127 128.577V133H387.551V129.014C387.551 127.941 387.418 127.027 386.16 127.027C385.087 127.027 384.491 127.769 384.491 129.212V133H382.916ZM397.409 125.875V132.205C397.409 134.51 396.085 135.49 394.085 135.49C392.324 135.49 391.198 134.669 390.933 133.265H392.509C392.708 133.874 393.145 134.245 394.085 134.245C395.158 134.245 395.847 133.742 395.847 132.457V131.636C395.396 132.404 394.602 132.828 393.608 132.828C391.927 132.828 390.536 131.57 390.536 129.279C390.536 127.014 391.927 125.743 393.608 125.743C394.602 125.743 395.396 126.18 395.847 126.935V125.875H397.409ZM394.059 131.556C395.052 131.556 395.913 130.934 395.913 129.279C395.913 127.636 395.052 127.027 394.059 127.027C392.999 127.027 392.218 127.809 392.218 129.279C392.218 130.775 392.999 131.556 394.059 131.556ZM403.586 126.14H401.997C402.169 124.286 403.599 123.226 405.586 123.226C407.267 123.226 408.843 123.928 408.843 125.69C408.843 126.683 408.247 127.504 407.373 127.901C408.618 128.325 409.069 129.305 409.069 130.259C409.069 132.219 407.36 133.172 405.466 133.172C403.347 133.172 402.036 131.941 401.864 130.1H403.453C403.599 131.265 404.341 131.941 405.493 131.941C406.645 131.941 407.426 131.345 407.426 130.272C407.426 129.106 406.34 128.669 404.923 128.669H404.553V127.305H404.87C406.38 127.305 407.228 126.868 407.228 125.849C407.228 124.935 406.433 124.471 405.533 124.471C404.42 124.471 403.705 125.081 403.586 126.14ZM410.485 133V131.159H412.365V133H410.485ZM417.491 133.172C414.882 133.172 413.611 131.252 413.611 128.193C413.611 125.147 414.882 123.226 417.491 123.226C420.1 123.226 421.371 125.147 421.371 128.193C421.371 131.252 420.1 133.172 417.491 133.172ZM417.491 131.941C418.855 131.941 419.729 130.735 419.729 128.193C419.729 125.663 418.855 124.471 417.491 124.471C416.127 124.471 415.253 125.663 415.253 128.193C415.253 130.735 416.127 131.941 417.491 131.941ZM424.638 128.895C423.141 128.895 422.36 127.809 422.36 126.1C422.36 124.392 423.141 123.306 424.638 123.306C426.147 123.306 426.929 124.392 426.929 126.1C426.929 127.809 426.147 128.895 424.638 128.895ZM424.638 127.888C425.247 127.888 425.551 127.319 425.551 126.1C425.551 124.869 425.247 124.312 424.638 124.312C424.042 124.312 423.737 124.869 423.737 126.1C423.737 127.319 424.042 127.888 424.638 127.888ZM424.081 133L430.835 123.399H432.464L425.697 133H424.081ZM431.882 133.093C430.385 133.093 429.604 132.007 429.604 130.298C429.604 128.59 430.385 127.504 431.882 127.504C433.391 127.504 434.173 128.59 434.173 130.298C434.173 132.007 433.391 133.093 431.882 133.093ZM431.882 132.086C432.491 132.086 432.795 131.517 432.795 130.298C432.795 129.067 432.491 128.511 431.882 128.511C431.286 128.511 430.981 129.067 430.981 130.298C430.981 131.517 431.286 132.086 431.882 132.086Z" fill="#F77D26"/>
<path d="M443.785 133.172C442.116 133.172 440.341 132.046 440.341 129.464C440.341 126.882 442.116 125.756 443.785 125.756C445.453 125.756 447.228 126.882 447.228 129.464C447.228 132.046 445.453 133.172 443.785 133.172ZM443.785 132.113C444.87 132.113 445.917 131.358 445.917 129.464C445.917 127.57 444.87 126.815 443.785 126.815C442.699 126.815 441.652 127.57 441.652 129.464C441.652 131.358 442.699 132.113 443.785 132.113ZM448.811 133V125.875H450.016V126.948C450.426 126.272 451.115 125.756 452.32 125.756C454.042 125.756 454.664 126.868 454.664 128.497V133H453.459V128.855C453.459 127.756 453.273 126.802 451.896 126.802C450.731 126.802 450.016 127.61 450.016 129.133V133H448.811ZM462.744 126.789C461.764 126.789 460.798 127.252 460.599 128.802H464.797C464.718 127.636 463.897 126.789 462.744 126.789ZM464.731 130.934H465.976C465.645 132.166 464.519 133.172 462.784 133.172C460.533 133.172 459.288 131.556 459.288 129.451C459.288 127.199 460.798 125.756 462.744 125.756C464.797 125.756 466.082 127.398 466.082 129.451C466.082 129.57 466.082 129.689 466.068 129.808H460.572C460.718 131.464 461.791 132.113 462.784 132.113C463.844 132.113 464.426 131.636 464.731 130.934ZM469.326 133L466.638 125.875H467.975L469.909 131.331L471.842 125.875H473.087L470.399 133H469.326ZM477.113 126.789C476.133 126.789 475.166 127.252 474.967 128.802H479.165C479.086 127.636 478.265 126.789 477.113 126.789ZM479.099 130.934H480.344C480.013 132.166 478.887 133.172 477.153 133.172C474.901 133.172 473.656 131.556 473.656 129.451C473.656 127.199 475.166 125.756 477.113 125.756C479.165 125.756 480.45 127.398 480.45 129.451C480.45 129.57 480.45 129.689 480.437 129.808H474.941C475.087 131.464 476.159 132.113 477.153 132.113C478.212 132.113 478.795 131.636 479.099 130.934ZM482.022 133V125.875H483.201V127.12C483.558 126.312 484.287 125.862 485.214 125.835C485.333 125.835 485.439 125.835 485.571 125.849V127.133C485.293 127.094 485.095 127.08 484.896 127.08C483.783 127.08 483.227 127.703 483.227 129.265V133H482.022ZM486.566 135.318V134.311H487.056C487.851 134.311 488.209 134.285 488.553 133.172L488.606 133L486.037 125.875H487.374L489.189 131.371L490.95 125.875H492.208L489.665 133.305C489.136 134.854 488.778 135.318 487.189 135.318H486.566ZM496.365 135.318V125.875H497.57V127.001C498.007 126.246 498.762 125.756 499.901 125.756C501.529 125.756 502.947 127.12 502.947 129.464C502.947 131.821 501.529 133.172 499.901 133.172C498.762 133.172 498.007 132.682 497.57 131.927V135.318H496.365ZM499.596 132.139C500.828 132.139 501.635 131.159 501.635 129.464C501.635 127.769 500.828 126.789 499.596 126.789C498.523 126.789 497.517 127.584 497.517 129.464C497.517 131.345 498.523 132.139 499.596 132.139ZM508.988 133V131.98C508.577 132.656 507.928 133.172 506.75 133.172C505.094 133.172 504.472 132.06 504.472 130.431V125.875H505.677V130.073C505.677 131.172 505.862 132.126 507.173 132.126C508.312 132.126 508.988 131.318 508.988 129.795V125.875H510.193V133H508.988ZM512.259 133V125.875H513.438V127.12C513.795 126.312 514.524 125.862 515.451 125.835C515.57 125.835 515.676 125.835 515.808 125.849V127.133C515.53 127.094 515.332 127.08 515.133 127.08C514.02 127.08 513.464 127.703 513.464 129.265V133H512.259ZM521.67 130.682H522.915C522.676 132.02 521.392 133.172 519.736 133.172C517.697 133.172 516.412 131.623 516.412 129.451C516.412 127.332 517.75 125.756 519.856 125.756C521.577 125.756 522.676 127.054 522.835 128.259H521.617C521.445 127.411 520.703 126.815 519.776 126.815C518.703 126.815 517.723 127.65 517.723 129.438C517.723 131.252 518.717 132.113 519.776 132.113C520.783 132.113 521.498 131.437 521.67 130.682ZM524.416 133V123.399H525.621V126.948C526.032 126.272 526.72 125.756 527.925 125.756C529.647 125.756 530.27 126.868 530.27 128.497V133H529.064V128.855C529.064 127.756 528.879 126.802 527.502 126.802C526.336 126.802 525.621 127.61 525.621 129.133V133H524.416ZM537.14 133V131.927C536.703 132.682 535.948 133.172 534.809 133.172C533.18 133.172 531.79 131.821 531.79 129.464C531.79 127.12 533.18 125.756 534.809 125.756C535.948 125.756 536.703 126.246 537.14 127.001V125.875H538.345V133H537.14ZM535.114 132.139C536.187 132.139 537.193 131.345 537.193 129.464C537.193 127.584 536.187 126.789 535.114 126.789C533.895 126.789 533.101 127.769 533.101 129.464C533.101 131.159 533.895 132.139 535.114 132.139ZM542.347 128.643L543.354 128.842C544.652 129.093 545.791 129.583 545.791 130.961C545.791 132.364 544.519 133.172 542.89 133.172C541.023 133.172 539.964 131.941 539.831 130.696H541.103C541.288 131.609 541.857 132.152 542.917 132.152C543.831 132.152 544.572 131.755 544.572 131.093C544.572 130.378 543.897 130.073 543.129 129.914L542.069 129.702C541.103 129.504 540.043 129.067 540.043 127.782C540.043 126.484 541.314 125.743 542.89 125.743C544.427 125.743 545.473 126.604 545.698 127.954H544.44C544.254 127.107 543.592 126.776 542.758 126.776C542.056 126.776 541.262 127.041 541.262 127.729C541.262 128.259 541.659 128.511 542.347 128.643ZM550.339 126.789C549.359 126.789 548.392 127.252 548.193 128.802H552.391C552.312 127.636 551.491 126.789 550.339 126.789ZM552.325 130.934H553.57C553.239 132.166 552.113 133.172 550.378 133.172C548.127 133.172 546.882 131.556 546.882 129.451C546.882 127.199 548.392 125.756 550.339 125.756C552.391 125.756 553.676 127.398 553.676 129.451C553.676 129.57 553.676 129.689 553.663 129.808H548.167C548.312 131.464 549.385 132.113 550.378 132.113C551.438 132.113 552.02 131.636 552.325 130.934Z" fill="#989898"/>
<rect x="344" y="170" width="40" height="40" rx="20" fill="#3D3D3D"/>
<g clip-path="url(#clip1_1171_11515)">
<path d="M380.151 194.042C377.928 202.981 368.874 208.399 359.959 206.176C351.044 203.953 345.602 194.899 347.825 185.984C350.048 177.046 359.102 171.627 368.017 173.85C376.956 176.05 382.374 185.104 380.151 194.042Z" fill="#F7931A"/>
<path d="M371.331 187.627C371.655 185.404 369.965 184.223 367.672 183.413L368.413 180.402L366.584 179.939L365.866 182.857C365.38 182.741 364.893 182.625 364.407 182.509L365.148 179.569L363.319 179.105L362.578 182.116C362.184 182.023 361.79 181.931 361.42 181.838L358.896 181.213L358.41 183.158C358.41 183.158 359.776 183.459 359.729 183.482C360.47 183.667 360.609 184.154 360.586 184.547L359.729 187.974C359.776 187.997 359.845 187.997 359.915 188.044C359.845 188.021 359.799 188.021 359.729 187.997L358.525 192.791C358.433 193.022 358.201 193.347 357.692 193.231C357.715 193.254 356.372 192.907 356.372 192.907L355.469 194.991L357.854 195.593C358.294 195.708 358.734 195.824 359.151 195.94L358.386 198.973L360.216 199.437L360.957 196.426C361.466 196.565 361.929 196.681 362.416 196.797L361.675 199.784L363.504 200.247L364.268 197.214C367.394 197.792 369.733 197.561 370.729 194.736C371.516 192.467 370.682 191.147 369.038 190.29C370.196 190.035 371.099 189.248 371.331 187.627ZM367.163 193.485C366.607 195.755 362.763 194.527 361.536 194.226L362.531 190.197C363.782 190.498 367.742 191.124 367.163 193.485ZM367.718 187.604C367.209 189.665 364.013 188.623 362.995 188.368L363.898 184.709C364.94 184.964 368.274 185.45 367.718 187.604Z" fill="white"/>
</g>
<path d="M393.778 185V174.85H397.432C399.322 174.85 401.002 175.34 401.002 177.356C401.002 178.322 400.582 179.19 399.882 179.596C400.848 180.002 401.422 180.758 401.422 182.004C401.422 184.16 399.812 185 397.782 185H393.778ZM395.206 183.796H397.796C399.238 183.796 399.952 183.166 399.952 182.018C399.952 180.828 399.238 180.324 397.712 180.324H395.206V183.796ZM395.206 179.19H397.656C398.818 179.19 399.56 178.742 399.56 177.552C399.56 176.516 398.79 176.054 397.656 176.054H395.206V179.19ZM405.166 185V176.082H401.862V174.85H409.898V176.082H406.594V185H405.166ZM417.842 181.766H419.228C418.78 184.006 417.03 185.182 414.832 185.182C411.92 185.182 410.226 182.998 410.226 179.904C410.226 176.754 412.074 174.668 414.944 174.668C417.044 174.668 418.738 175.914 419.172 178.084H417.786C417.478 176.824 416.498 175.872 414.874 175.872C413.082 175.872 411.682 177.272 411.682 179.904C411.682 182.466 413.026 183.978 414.916 183.978C416.526 183.978 417.52 183.068 417.842 181.766ZM431.323 181.766H432.709C432.261 184.006 430.511 185.182 428.313 185.182C425.401 185.182 423.707 182.998 423.707 179.904C423.707 176.754 425.555 174.668 428.425 174.668C430.525 174.668 432.219 175.914 432.653 178.084H431.267C430.959 176.824 429.979 175.872 428.355 175.872C426.563 175.872 425.163 177.272 425.163 179.904C425.163 182.466 426.507 183.978 428.397 183.978C430.007 183.978 431.001 183.068 431.323 181.766ZM439.492 185V183.866C439.03 184.664 438.232 185.182 437.028 185.182C435.306 185.182 433.836 183.754 433.836 181.262C433.836 178.784 435.306 177.342 437.028 177.342C438.232 177.342 439.03 177.86 439.492 178.658V177.468H440.766V185H439.492ZM437.35 184.09C438.484 184.09 439.548 183.25 439.548 181.262C439.548 179.274 438.484 178.434 437.35 178.434C436.062 178.434 435.222 179.47 435.222 181.262C435.222 183.054 436.062 184.09 437.35 184.09ZM444.997 180.394L446.061 180.604C447.433 180.87 448.637 181.388 448.637 182.844C448.637 184.328 447.293 185.182 445.571 185.182C443.597 185.182 442.477 183.88 442.337 182.564H443.681C443.877 183.53 444.479 184.104 445.599 184.104C446.565 184.104 447.349 183.684 447.349 182.984C447.349 182.228 446.635 181.906 445.823 181.738L444.703 181.514C443.681 181.304 442.561 180.842 442.561 179.484C442.561 178.112 443.905 177.328 445.571 177.328C447.195 177.328 448.301 178.238 448.539 179.666H447.209C447.013 178.77 446.313 178.42 445.431 178.42C444.689 178.42 443.849 178.7 443.849 179.428C443.849 179.988 444.269 180.254 444.997 180.394ZM450.295 185V174.85H451.569V178.602C452.003 177.888 452.731 177.342 454.005 177.342C455.825 177.342 456.483 178.518 456.483 180.24V185H455.209V180.618C455.209 179.456 455.013 178.448 453.557 178.448C452.325 178.448 451.569 179.302 451.569 180.912V185H450.295ZM458.58 185V174.85H459.854V178.658C460.316 177.86 461.114 177.342 462.318 177.342C464.04 177.342 465.538 178.784 465.538 181.262C465.538 183.754 464.04 185.182 462.318 185.182C461.114 185.182 460.316 184.664 459.854 183.866V185H458.58ZM461.996 184.09C463.298 184.09 464.152 183.054 464.152 181.262C464.152 179.47 463.298 178.434 461.996 178.434C460.862 178.434 459.798 179.274 459.798 181.262C459.798 183.25 460.862 184.09 461.996 184.09ZM472.401 185V183.866C471.939 184.664 471.141 185.182 469.937 185.182C468.215 185.182 466.745 183.754 466.745 181.262C466.745 178.784 468.215 177.342 469.937 177.342C471.141 177.342 471.939 177.86 472.401 178.658V177.468H473.675V185H472.401ZM470.259 184.09C471.393 184.09 472.457 183.25 472.457 181.262C472.457 179.274 471.393 178.434 470.259 178.434C468.971 178.434 468.131 179.47 468.131 181.262C468.131 183.054 468.971 184.09 470.259 184.09ZM480.916 182.55H482.232C481.98 183.964 480.622 185.182 478.872 185.182C476.716 185.182 475.358 183.544 475.358 181.248C475.358 179.008 476.772 177.342 478.998 177.342C480.818 177.342 481.98 178.714 482.148 179.988H480.86C480.678 179.092 479.894 178.462 478.914 178.462C477.78 178.462 476.744 179.344 476.744 181.234C476.744 183.152 477.794 184.062 478.914 184.062C479.978 184.062 480.734 183.348 480.916 182.55ZM483.819 185V174.85H485.093V180.856L488.131 177.468H489.699L486.829 180.59L490.091 185H488.537L485.975 181.528L485.093 182.48V185H483.819Z" fill="#F0F0EE"/>
<path d="M399.435 194.85V201.78C399.435 203.992 398.231 205.182 396.243 205.182C394.269 205.182 393.065 204.062 393.065 201.864H394.395C394.395 203.278 395.235 204.02 396.243 204.02C397.069 204.02 398.007 203.6 398.007 201.766V194.85H399.435ZM406.237 205V203.922C405.803 204.636 405.117 205.182 403.871 205.182C402.121 205.182 401.463 204.006 401.463 202.284V197.468H402.737V201.906C402.737 203.068 402.933 204.076 404.319 204.076C405.523 204.076 406.237 203.222 406.237 201.612V197.468H407.511V205H406.237ZM411.74 200.394L412.804 200.604C414.176 200.87 415.38 201.388 415.38 202.844C415.38 204.328 414.036 205.182 412.314 205.182C410.34 205.182 409.22 203.88 409.08 202.564H410.424C410.62 203.53 411.222 204.104 412.342 204.104C413.308 204.104 414.092 203.684 414.092 202.984C414.092 202.228 413.378 201.906 412.566 201.738L411.446 201.514C410.424 201.304 409.304 200.842 409.304 199.484C409.304 198.112 410.648 197.328 412.314 197.328C413.938 197.328 415.044 198.238 415.282 199.666H413.952C413.756 198.77 413.056 198.42 412.174 198.42C411.432 198.42 410.592 198.7 410.592 199.428C410.592 199.988 411.012 200.254 411.74 200.394ZM420.117 205H419.193C417.751 205 417.415 204.678 417.415 203.11V198.49H416.225V197.468H417.415V195.578H418.689V197.468H420.117V198.49H418.689V202.956C418.689 203.74 418.745 203.936 419.473 203.936H420.117V205ZM424.994 205V197.468H426.268V198.602C426.702 197.888 427.43 197.342 428.704 197.342C430.524 197.342 431.182 198.518 431.182 200.24V205H429.908V200.618C429.908 199.456 429.712 198.448 428.256 198.448C427.024 198.448 426.268 199.302 426.268 200.912V205H424.994ZM436.416 205.182C434.652 205.182 432.776 203.992 432.776 201.262C432.776 198.532 434.652 197.342 436.416 197.342C438.18 197.342 440.056 198.532 440.056 201.262C440.056 203.992 438.18 205.182 436.416 205.182ZM436.416 204.062C437.564 204.062 438.67 203.264 438.67 201.262C438.67 199.26 437.564 198.462 436.416 198.462C435.268 198.462 434.162 199.26 434.162 201.262C434.162 203.264 435.268 204.062 436.416 204.062ZM442.977 205L440.807 197.468H442.179L443.621 203.04L445.119 197.468H446.435L447.933 203.04L449.375 197.468H450.747L448.577 205H447.415L445.749 198.938L444.139 205H442.977Z" fill="#989898"/>
<path d="M509.303 183.698V180.534H506.14V179.33H509.303V176.166H510.564V179.33H513.728V180.534H510.564V183.698H509.303ZM522.647 185.182C519.945 185.182 518.699 183.138 518.699 179.918C518.699 176.712 519.945 174.668 522.647 174.668C525.349 174.668 526.595 176.712 526.595 179.918C526.595 183.138 525.349 185.182 522.647 185.182ZM522.647 184.118C524.243 184.118 525.237 182.746 525.237 179.918C525.237 177.104 524.243 175.732 522.647 175.732C521.051 175.732 520.057 177.104 520.057 179.918C520.057 182.746 521.051 184.118 522.647 184.118ZM527.904 185V183.39H529.514V185H527.904ZM534.774 185.182C532.072 185.182 530.826 183.138 530.826 179.918C530.826 176.712 532.072 174.668 534.774 174.668C537.476 174.668 538.722 176.712 538.722 179.918C538.722 183.138 537.476 185.182 534.774 185.182ZM534.774 184.118C536.37 184.118 537.364 182.746 537.364 179.918C537.364 177.104 536.37 175.732 534.774 175.732C533.178 175.732 532.184 177.104 532.184 179.918C532.184 182.746 533.178 184.118 534.774 184.118ZM544.125 185.182C541.423 185.182 540.177 183.138 540.177 179.918C540.177 176.712 541.423 174.668 544.125 174.668C546.827 174.668 548.073 176.712 548.073 179.918C548.073 183.138 546.827 185.182 544.125 185.182ZM544.125 184.118C545.721 184.118 546.715 182.746 546.715 179.918C546.715 177.104 545.721 175.732 544.125 175.732C542.529 175.732 541.535 177.104 541.535 179.918C541.535 182.746 542.529 184.118 544.125 184.118ZM554.359 185V182.494H549.319V181.29L554.345 174.85H555.647V181.29H557.509V182.494H555.647V185H554.359ZM550.733 181.29H554.359V176.6L550.733 181.29ZM560.455 176.04L560.105 178.924C560.637 178.406 561.449 178.154 562.289 178.154C564.067 178.154 565.621 179.414 565.621 181.654C565.621 183.978 563.899 185.182 562.009 185.182C559.657 185.182 558.593 183.698 558.397 182.06H559.713C559.909 183.334 560.595 184.118 562.009 184.118C563.227 184.118 564.277 183.236 564.277 181.668C564.277 179.988 563.101 179.26 561.995 179.26C560.945 179.26 560.259 179.876 560.035 180.38L558.761 180.31L559.419 174.85H565.243V176.04H560.455ZM570.488 180.492C571.818 180.492 572.7 179.484 572.7 178.098C572.7 176.698 571.846 175.732 570.502 175.732C569.186 175.732 568.276 176.712 568.276 178.098C568.276 179.484 569.172 180.492 570.488 180.492ZM567.086 182.648H568.472C568.64 183.558 569.326 184.118 570.362 184.118C571.93 184.118 572.812 182.536 572.882 180.17C572.42 180.982 571.524 181.612 570.18 181.612C568.304 181.612 566.918 180.198 566.918 178.154C566.918 176.278 568.318 174.668 570.488 174.668C573.022 174.668 574.184 176.432 574.184 179.568C574.184 182.438 573.148 185.182 570.222 185.182C568.234 185.182 567.296 183.936 567.086 182.648ZM577.49 185V177.062H575.138V176.194C576.594 176.138 577.336 175.956 577.896 174.85H578.764V185H577.49Z" fill="#11A967"/>
<path d="M523.094 200.968H521.904C521.988 199.75 522.814 198.896 524.088 198.896C524.69 198.896 525.278 199.12 525.824 199.4C526.328 199.652 526.804 199.848 527.252 199.848C527.784 199.848 528.204 199.512 528.246 198.896H529.436C529.352 200.114 528.526 200.968 527.252 200.968C526.65 200.968 526.076 200.744 525.516 200.464C525.04 200.226 524.536 200.016 524.088 200.016C523.556 200.016 523.136 200.352 523.094 200.968ZM537.474 206.302V205.154C535.332 205 534.226 203.53 534.226 201.85H535.542C535.542 203.082 536.312 203.95 537.474 204.104V200.324L537.138 200.226C535.626 199.82 534.492 198.896 534.492 197.328C534.492 195.844 535.808 194.794 537.502 194.682V193.548H538.272V194.682C540.19 194.836 541.198 196.012 541.282 197.566H539.966C539.854 196.488 539.224 195.872 538.272 195.732V199.218L538.412 199.26C539.966 199.652 541.534 200.296 541.534 202.214C541.534 203.964 540.176 205.028 538.244 205.154V206.302H537.474ZM540.218 202.41C540.218 201.304 539.602 200.912 538.244 200.534V204.118C539.476 204.006 540.218 203.376 540.218 202.41ZM535.808 197.314C535.808 198.098 536.242 198.644 537.502 199.022V195.718C536.466 195.816 535.808 196.39 535.808 197.314ZM544.582 196.04L544.232 198.924C544.764 198.406 545.576 198.154 546.416 198.154C548.194 198.154 549.748 199.414 549.748 201.654C549.748 203.978 548.026 205.182 546.136 205.182C543.784 205.182 542.72 203.698 542.524 202.06H543.84C544.036 203.334 544.722 204.118 546.136 204.118C547.354 204.118 548.404 203.236 548.404 201.668C548.404 199.988 547.228 199.26 546.122 199.26C545.072 199.26 544.386 199.876 544.162 200.38L542.888 200.31L543.546 194.85H549.37V196.04H544.582ZM552.963 196.04L552.613 198.924C553.145 198.406 553.957 198.154 554.797 198.154C556.575 198.154 558.129 199.414 558.129 201.654C558.129 203.978 556.407 205.182 554.517 205.182C552.165 205.182 551.101 203.698 550.905 202.06H552.221C552.417 203.334 553.103 204.118 554.517 204.118C555.735 204.118 556.785 203.236 556.785 201.668C556.785 199.988 555.609 199.26 554.503 199.26C553.453 199.26 552.767 199.876 552.543 200.38L551.269 200.31L551.927 194.85H557.751V196.04H552.963ZM559.65 205V203.39H561.26V205H559.65ZM566.52 205.182C563.818 205.182 562.572 203.138 562.572 199.918C562.572 196.712 563.818 194.668 566.52 194.668C569.222 194.668 570.468 196.712 570.468 199.918C570.468 203.138 569.222 205.182 566.52 205.182ZM566.52 204.118C568.116 204.118 569.11 202.746 569.11 199.918C569.11 197.104 568.116 195.732 566.52 195.732C564.924 195.732 563.93 197.104 563.93 199.918C563.93 202.746 564.924 204.118 566.52 204.118ZM575.605 205.182C573.505 205.182 571.895 204.076 571.895 202.144C571.895 201.22 572.287 200.128 573.617 199.596C572.609 199.05 572.217 198.084 572.217 197.258C572.217 195.76 573.519 194.668 575.605 194.668C577.677 194.668 578.993 195.76 578.993 197.258C578.993 198.084 578.601 199.05 577.593 199.596C578.909 200.128 579.301 201.22 579.301 202.144C579.301 204.076 577.691 205.182 575.605 205.182ZM575.605 204.118C577.033 204.118 577.957 203.334 577.957 202.144C577.957 200.954 577.033 200.128 575.605 200.128C574.163 200.128 573.253 200.954 573.253 202.144C573.253 203.334 574.163 204.118 575.605 204.118ZM575.605 199.19C576.865 199.19 577.705 198.434 577.705 197.412C577.705 196.404 576.865 195.732 575.605 195.732C574.331 195.732 573.491 196.404 573.491 197.412C573.491 198.434 574.331 199.19 575.605 199.19Z" fill="#989898"/>
<rect x="344" y="242" width="40" height="40" rx="20" fill="#3D3D3D"/>
<g clip-path="url(#clip2_1171_11515)">
<path d="M380.151 266.042C377.928 274.981 368.874 280.399 359.959 278.176C351.044 275.953 345.602 266.899 347.825 257.984C350.048 249.046 359.102 243.627 368.017 245.85C376.956 248.05 382.374 257.104 380.151 266.042Z" fill="#F7931A"/>
<path d="M371.331 259.627C371.655 257.404 369.965 256.223 367.672 255.413L368.413 252.402L366.584 251.939L365.866 254.857C365.38 254.741 364.893 254.625 364.407 254.509L365.148 251.569L363.319 251.105L362.578 254.116C362.184 254.023 361.79 253.931 361.42 253.838L358.896 253.213L358.41 255.158C358.41 255.158 359.776 255.459 359.729 255.482C360.47 255.667 360.609 256.154 360.586 256.547L359.729 259.974C359.776 259.997 359.845 259.997 359.915 260.044C359.845 260.021 359.799 260.021 359.729 259.997L358.525 264.791C358.433 265.022 358.201 265.347 357.692 265.231C357.715 265.254 356.372 264.907 356.372 264.907L355.469 266.991L357.854 267.593C358.294 267.708 358.734 267.824 359.151 267.94L358.386 270.973L360.216 271.437L360.957 268.426C361.466 268.565 361.929 268.681 362.416 268.797L361.675 271.784L363.504 272.247L364.268 269.214C367.394 269.792 369.733 269.561 370.729 266.736C371.516 264.467 370.682 263.147 369.038 262.29C370.196 262.035 371.099 261.248 371.331 259.627ZM367.163 265.485C366.607 267.755 362.763 266.527 361.536 266.226L362.531 262.197C363.782 262.498 367.742 263.124 367.163 265.485ZM367.718 259.604C367.209 261.665 364.013 260.623 362.995 260.368L363.898 256.709C364.94 256.964 368.274 257.45 367.718 259.604Z" fill="white"/>
</g>
<path d="M393.778 257V246.85H397.432C399.322 246.85 401.002 247.34 401.002 249.356C401.002 250.322 400.582 251.19 399.882 251.596C400.848 252.002 401.422 252.758 401.422 254.004C401.422 256.16 399.812 257 397.782 257H393.778ZM395.206 255.796H397.796C399.238 255.796 399.952 255.166 399.952 254.018C399.952 252.828 399.238 252.324 397.712 252.324H395.206V255.796ZM395.206 251.19H397.656C398.818 251.19 399.56 250.742 399.56 249.552C399.56 248.516 398.79 248.054 397.656 248.054H395.206V251.19ZM405.166 257V248.082H401.862V246.85H409.898V248.082H406.594V257H405.166ZM417.842 253.766H419.228C418.78 256.006 417.03 257.182 414.832 257.182C411.92 257.182 410.226 254.998 410.226 251.904C410.226 248.754 412.074 246.668 414.944 246.668C417.044 246.668 418.738 247.914 419.172 250.084H417.786C417.478 248.824 416.498 247.872 414.874 247.872C413.082 247.872 411.682 249.272 411.682 251.904C411.682 254.466 413.026 255.978 414.916 255.978C416.526 255.978 417.52 255.068 417.842 253.766ZM431.323 253.766H432.709C432.261 256.006 430.511 257.182 428.313 257.182C425.401 257.182 423.707 254.998 423.707 251.904C423.707 248.754 425.555 246.668 428.425 246.668C430.525 246.668 432.219 247.914 432.653 250.084H431.267C430.959 248.824 429.979 247.872 428.355 247.872C426.563 247.872 425.163 249.272 425.163 251.904C425.163 254.466 426.507 255.978 428.397 255.978C430.007 255.978 431.001 255.068 431.323 253.766ZM439.492 257V255.866C439.03 256.664 438.232 257.182 437.028 257.182C435.306 257.182 433.836 255.754 433.836 253.262C433.836 250.784 435.306 249.342 437.028 249.342C438.232 249.342 439.03 249.86 439.492 250.658V249.468H440.766V257H439.492ZM437.35 256.09C438.484 256.09 439.548 255.25 439.548 253.262C439.548 251.274 438.484 250.434 437.35 250.434C436.062 250.434 435.222 251.47 435.222 253.262C435.222 255.054 436.062 256.09 437.35 256.09ZM444.997 252.394L446.061 252.604C447.433 252.87 448.637 253.388 448.637 254.844C448.637 256.328 447.293 257.182 445.571 257.182C443.597 257.182 442.477 255.88 442.337 254.564H443.681C443.877 255.53 444.479 256.104 445.599 256.104C446.565 256.104 447.349 255.684 447.349 254.984C447.349 254.228 446.635 253.906 445.823 253.738L444.703 253.514C443.681 253.304 442.561 252.842 442.561 251.484C442.561 250.112 443.905 249.328 445.571 249.328C447.195 249.328 448.301 250.238 448.539 251.666H447.209C447.013 250.77 446.313 250.42 445.431 250.42C444.689 250.42 443.849 250.7 443.849 251.428C443.849 251.988 444.269 252.254 444.997 252.394ZM450.295 257V246.85H451.569V250.602C452.003 249.888 452.731 249.342 454.005 249.342C455.825 249.342 456.483 250.518 456.483 252.24V257H455.209V252.618C455.209 251.456 455.013 250.448 453.557 250.448C452.325 250.448 451.569 251.302 451.569 252.912V257H450.295ZM458.58 257V246.85H459.854V250.658C460.316 249.86 461.114 249.342 462.318 249.342C464.04 249.342 465.538 250.784 465.538 253.262C465.538 255.754 464.04 257.182 462.318 257.182C461.114 257.182 460.316 256.664 459.854 255.866V257H458.58ZM461.996 256.09C463.298 256.09 464.152 255.054 464.152 253.262C464.152 251.47 463.298 250.434 461.996 250.434C460.862 250.434 459.798 251.274 459.798 253.262C459.798 255.25 460.862 256.09 461.996 256.09ZM472.401 257V255.866C471.939 256.664 471.141 257.182 469.937 257.182C468.215 257.182 466.745 255.754 466.745 253.262C466.745 250.784 468.215 249.342 469.937 249.342C471.141 249.342 471.939 249.86 472.401 250.658V249.468H473.675V257H472.401ZM470.259 256.09C471.393 256.09 472.457 255.25 472.457 253.262C472.457 251.274 471.393 250.434 470.259 250.434C468.971 250.434 468.131 251.47 468.131 253.262C468.131 255.054 468.971 256.09 470.259 256.09ZM480.916 254.55H482.232C481.98 255.964 480.622 257.182 478.872 257.182C476.716 257.182 475.358 255.544 475.358 253.248C475.358 251.008 476.772 249.342 478.998 249.342C480.818 249.342 481.98 250.714 482.148 251.988H480.86C480.678 251.092 479.894 250.462 478.914 250.462C477.78 250.462 476.744 251.344 476.744 253.234C476.744 255.152 477.794 256.062 478.914 256.062C479.978 256.062 480.734 255.348 480.916 254.55ZM483.819 257V246.85H485.093V252.856L488.131 249.468H489.699L486.829 252.59L490.091 257H488.537L485.975 253.528L485.093 254.48V257H483.819Z" fill="#F0F0EE"/>
<path d="M393.325 277V275.852C396.909 273.206 399.009 271.288 399.009 269.496C399.009 268.446 398.309 267.732 397.105 267.732C396.013 267.732 394.949 268.334 394.921 270.014H393.591C393.591 267.998 394.977 266.668 397.133 266.668C399.009 266.668 400.353 267.62 400.353 269.328C400.353 271.68 397.903 273.766 395.061 275.81H400.633V277H393.325ZM403.777 277V269.062H401.425V268.194C402.881 268.138 403.623 267.956 404.183 266.85H405.051V277H403.777ZM407.379 277V269.468H408.653V270.602C409.087 269.888 409.787 269.342 410.921 269.342C412.069 269.342 412.755 269.846 413.091 270.672C413.693 269.748 414.575 269.342 415.625 269.342C417.375 269.342 418.061 270.518 418.061 272.24V277H416.787V272.618C416.787 271.456 416.563 270.448 415.177 270.448C414.085 270.448 413.357 271.302 413.357 272.912V277H412.083V272.618C412.083 271.456 411.859 270.448 410.473 270.448C409.381 270.448 408.653 271.302 408.653 272.912V277H407.379ZM428.623 277V275.866C428.161 276.664 427.363 277.182 426.159 277.182C424.437 277.182 422.967 275.754 422.967 273.262C422.967 270.784 424.437 269.342 426.159 269.342C427.363 269.342 428.161 269.86 428.623 270.658V269.468H429.897V277H428.623ZM426.481 276.09C427.615 276.09 428.679 275.25 428.679 273.262C428.679 271.274 427.615 270.434 426.481 270.434C425.193 270.434 424.353 271.47 424.353 273.262C424.353 275.054 425.193 276.09 426.481 276.09ZM438.468 269.468V276.258C438.468 278.484 437.292 279.632 435.15 279.632C433.442 279.632 432.294 278.848 432.056 277.322H433.414C433.582 277.994 434.002 278.512 435.164 278.512C436.298 278.512 437.194 278.008 437.194 276.426V275.572C436.732 276.37 436.004 276.874 434.8 276.874C433.134 276.874 431.608 275.53 431.608 273.108C431.608 270.7 433.134 269.342 434.8 269.342C436.004 269.342 436.732 269.86 437.194 270.658V269.468H438.468ZM435.122 275.796C436.256 275.796 437.25 275.026 437.25 273.108C437.25 271.204 436.256 270.434 435.122 270.434C433.876 270.434 432.994 271.4 432.994 273.108C432.994 274.83 433.876 275.796 435.122 275.796ZM443.779 277.182C442.015 277.182 440.139 275.992 440.139 273.262C440.139 270.532 442.015 269.342 443.779 269.342C445.543 269.342 447.419 270.532 447.419 273.262C447.419 275.992 445.543 277.182 443.779 277.182ZM443.779 276.062C444.927 276.062 446.033 275.264 446.033 273.262C446.033 271.26 444.927 270.462 443.779 270.462C442.631 270.462 441.525 271.26 441.525 273.262C441.525 275.264 442.631 276.062 443.779 276.062Z" fill="#989898"/>
<path d="M509.303 255.698V252.534H506.14V251.33H509.303V248.166H510.564V251.33H513.728V252.534H510.564V255.698H509.303ZM522.647 257.182C519.945 257.182 518.699 255.138 518.699 251.918C518.699 248.712 519.945 246.668 522.647 246.668C525.349 246.668 526.595 248.712 526.595 251.918C526.595 255.138 525.349 257.182 522.647 257.182ZM522.647 256.118C524.243 256.118 525.237 254.746 525.237 251.918C525.237 249.104 524.243 247.732 522.647 247.732C521.051 247.732 520.057 249.104 520.057 251.918C520.057 254.746 521.051 256.118 522.647 256.118ZM527.904 257V255.39H529.514V257H527.904ZM534.774 257.182C532.072 257.182 530.826 255.138 530.826 251.918C530.826 248.712 532.072 246.668 534.774 246.668C537.476 246.668 538.722 248.712 538.722 251.918C538.722 255.138 537.476 257.182 534.774 257.182ZM534.774 256.118C536.37 256.118 537.364 254.746 537.364 251.918C537.364 249.104 536.37 247.732 534.774 247.732C533.178 247.732 532.184 249.104 532.184 251.918C532.184 254.746 533.178 256.118 534.774 256.118ZM544.125 257.182C541.423 257.182 540.177 255.138 540.177 251.918C540.177 248.712 541.423 246.668 544.125 246.668C546.827 246.668 548.073 248.712 548.073 251.918C548.073 255.138 546.827 257.182 544.125 257.182ZM544.125 256.118C545.721 256.118 546.715 254.746 546.715 251.918C546.715 249.104 545.721 247.732 544.125 247.732C542.529 247.732 541.535 249.104 541.535 251.918C541.535 254.746 542.529 256.118 544.125 256.118ZM554.359 257V254.494H549.319V253.29L554.345 246.85H555.647V253.29H557.509V254.494H555.647V257H554.359ZM550.733 253.29H554.359V248.6L550.733 253.29ZM560.455 248.04L560.105 250.924C560.637 250.406 561.449 250.154 562.289 250.154C564.067 250.154 565.621 251.414 565.621 253.654C565.621 255.978 563.899 257.182 562.009 257.182C559.657 257.182 558.593 255.698 558.397 254.06H559.713C559.909 255.334 560.595 256.118 562.009 256.118C563.227 256.118 564.277 255.236 564.277 253.668C564.277 251.988 563.101 251.26 561.995 251.26C560.945 251.26 560.259 251.876 560.035 252.38L558.761 252.31L559.419 246.85H565.243V248.04H560.455ZM570.488 252.492C571.818 252.492 572.7 251.484 572.7 250.098C572.7 248.698 571.846 247.732 570.502 247.732C569.186 247.732 568.276 248.712 568.276 250.098C568.276 251.484 569.172 252.492 570.488 252.492ZM567.086 254.648H568.472C568.64 255.558 569.326 256.118 570.362 256.118C571.93 256.118 572.812 254.536 572.882 252.17C572.42 252.982 571.524 253.612 570.18 253.612C568.304 253.612 566.918 252.198 566.918 250.154C566.918 248.278 568.318 246.668 570.488 246.668C573.022 246.668 574.184 248.432 574.184 251.568C574.184 254.438 573.148 257.182 570.222 257.182C568.234 257.182 567.296 255.936 567.086 254.648ZM577.49 257V249.062H575.138V248.194C576.594 248.138 577.336 247.956 577.896 246.85H578.764V257H577.49Z" fill="#11A967"/>
<path d="M526.17 273.186H525.045C525.124 272.034 525.906 271.226 527.111 271.226C527.68 271.226 528.236 271.438 528.753 271.703C529.23 271.941 529.68 272.126 530.104 272.126C530.607 272.126 531.004 271.809 531.044 271.226H532.17C532.09 272.378 531.309 273.186 530.104 273.186C529.534 273.186 528.991 272.974 528.462 272.709C528.011 272.484 527.535 272.285 527.111 272.285C526.607 272.285 526.21 272.603 526.17 273.186ZM539.772 278.232V277.146C537.746 277 536.7 275.609 536.7 274.02H537.945C537.945 275.186 538.673 276.007 539.772 276.152V272.577L539.455 272.484C538.024 272.1 536.952 271.226 536.952 269.743C536.952 268.339 538.196 267.346 539.799 267.24V266.167H540.527V267.24C542.342 267.385 543.295 268.498 543.375 269.968H542.13C542.024 268.948 541.428 268.365 540.527 268.233V271.531L540.66 271.57C542.13 271.941 543.613 272.55 543.613 274.365C543.613 276.02 542.328 277.026 540.501 277.146V278.232H539.772ZM542.368 274.55C542.368 273.504 541.785 273.133 540.501 272.775V276.166C541.666 276.06 542.368 275.464 542.368 274.55ZM538.196 269.729C538.196 270.471 538.607 270.988 539.799 271.345V268.22C538.819 268.312 538.196 268.855 538.196 269.729ZM546.497 268.524L546.166 271.252C546.669 270.762 547.437 270.524 548.232 270.524C549.913 270.524 551.383 271.716 551.383 273.835C551.383 276.033 549.755 277.172 547.967 277.172C545.742 277.172 544.735 275.768 544.55 274.219H545.795C545.98 275.424 546.629 276.166 547.967 276.166C549.119 276.166 550.112 275.331 550.112 273.848C550.112 272.259 549 271.57 547.953 271.57C546.96 271.57 546.311 272.153 546.099 272.63L544.894 272.564L545.517 267.399H551.026V268.524H546.497ZM554.425 268.524L554.093 271.252C554.597 270.762 555.365 270.524 556.159 270.524C557.841 270.524 559.311 271.716 559.311 273.835C559.311 276.033 557.682 277.172 555.895 277.172C553.67 277.172 552.663 275.768 552.478 274.219H553.723C553.908 275.424 554.557 276.166 555.895 276.166C557.047 276.166 558.04 275.331 558.04 273.848C558.04 272.259 556.927 271.57 555.881 271.57C554.888 271.57 554.239 272.153 554.027 272.63L552.822 272.564L553.445 267.399H558.954V268.524H554.425ZM560.75 277V275.477H562.273V277H560.75ZM567.248 277.172C564.692 277.172 563.514 275.239 563.514 272.193C563.514 269.16 564.692 267.226 567.248 267.226C569.804 267.226 570.983 269.16 570.983 272.193C570.983 275.239 569.804 277.172 567.248 277.172ZM567.248 276.166C568.758 276.166 569.698 274.868 569.698 272.193C569.698 269.531 568.758 268.233 567.248 268.233C565.739 268.233 564.798 269.531 564.798 272.193C564.798 274.868 565.739 276.166 567.248 276.166ZM575.843 277.172C573.856 277.172 572.333 276.126 572.333 274.298C572.333 273.424 572.704 272.391 573.962 271.888C573.009 271.372 572.638 270.458 572.638 269.676C572.638 268.259 573.87 267.226 575.843 267.226C577.803 267.226 579.048 268.259 579.048 269.676C579.048 270.458 578.677 271.372 577.723 271.888C578.968 272.391 579.339 273.424 579.339 274.298C579.339 276.126 577.816 277.172 575.843 277.172ZM575.843 276.166C577.194 276.166 578.068 275.424 578.068 274.298C578.068 273.173 577.194 272.391 575.843 272.391C574.479 272.391 573.618 273.173 573.618 274.298C573.618 275.424 574.479 276.166 575.843 276.166ZM575.843 271.504C577.035 271.504 577.829 270.789 577.829 269.822C577.829 268.869 577.035 268.233 575.843 268.233C574.638 268.233 573.843 268.869 573.843 269.822C573.843 270.789 574.638 271.504 575.843 271.504Z" fill="#989898"/>
</g>
</g>
<defs>
<filter id="filter0_dddd_1171_11515" x="276.5" y="93" width="375" height="371.5" filterUnits="userSpaceOnUse" color-interpolation-filters="sRGB">
<feFlood flood-opacity="0" result="BackgroundImageFix"/>
<feColorMatrix in="SourceAlpha" type="matrix" values="0 0 0 0 0 0 0 0 0 0 0 0 0 0 0 0 0 0 127 0" result="hardAlpha"/>
<feOffset dy="7.5"/>
<feGaussianBlur stdDeviation="8.25"/>
<feColorMatrix type="matrix" values="0 0 0 0 0 0 0 0 0 0 0 0 0 0 0 0 0 0 0.04 0"/>
<feBlend mode="normal" in2="BackgroundImageFix" result="effect1_dropShadow_1171_11515"/>
<feColorMatrix in="SourceAlpha" type="matrix" values="0 0 0 0 0 0 0 0 0 0 0 0 0 0 0 0 0 0 127 0" result="hardAlpha"/>
<feOffset dy="29.5"/>
<feGaussianBlur stdDeviation="14.75"/>
<feColorMatrix type="matrix" values="0 0 0 0 0 0 0 0 0 0 0 0 0 0 0 0 0 0 0.03 0"/>
<feBlend mode="normal" in2="effect1_dropShadow_1171_11515" result="effect2_dropShadow_1171_11515"/>
<feColorMatrix in="SourceAlpha" type="matrix" values="0 0 0 0 0 0 0 0 0 0 0 0 0 0 0 0 0 0 127 0" result="hardAlpha"/>
<feOffset dy="67"/>
<feGaussianBlur stdDeviation="20"/>
<feColorMatrix type="matrix" values="0 0 0 0 0 0 0 0 0 0 0 0 0 0 0 0 0 0 0.02 0"/>
<feBlend mode="normal" in2="effect2_dropShadow_1171_11515" result="effect3_dropShadow_1171_11515"/>
<feColorMatrix in="SourceAlpha" type="matrix" values="0 0 0 0 0 0 0 0 0 0 0 0 0 0 0 0 0 0 127 0" result="hardAlpha"/>
<feOffset dy="119"/>
<feGaussianBlur stdDeviation="23.75"/>
<feColorMatrix type="matrix" values="0 0 0 0 0 0 0 0 0 0 0 0 0 0 0 0 0 0 0.01 0"/>
<feBlend mode="normal" in2="effect3_dropShadow_1171_11515" result="effect4_dropShadow_1171_11515"/>
<feBlend mode="normal" in="BackgroundImageFix" in2="effect4_dropShadow_1171_11515" result="BackgroundImageFix"/>
<feBlend mode="normal" in="SourceGraphic" in2="BackgroundImageFix" result="shape"/>
</filter>
<clipPath id="clip0_1171_11515">
<rect width="928" height="400" fill="white"/>
</clipPath>
<clipPath id="clip1_1171_11515">
<rect width="33.335" height="33.335" fill="white" transform="translate(347.328 173.332)"/>
</clipPath>
<clipPath id="clip2_1171_11515">
<rect width="33.335" height="33.335" fill="white" transform="translate(347.328 245.332)"/>
</clipPath>
<pattern id="pattern0_1171_11515" patternUnits="userSpaceOnUse" patternTransform="matrix(23.4998 0 0 20.3282 462.936 198.936)" preserveAspectRatio="none" viewBox="0 0 88.32 76.4" width="1" height="1">
<g id="pattern0_1171_11515_inner">
<rect width="8" height="8" fill="#C1C0B8"/>
</g>
</pattern></defs>
</svg>
