<svg width="928" height="400" viewBox="0 0 928 400" fill="none" xmlns="http://www.w3.org/2000/svg" xmlns:xlink="http://www.w3.org/1999/xlink">
<g clip-path="url(#clip0_1171_11497)">
<rect width="928" height="400" fill="#212121"/>
<rect width="928" height="400" fill="url(#pattern0_1171_11497)" fill-opacity="0.1"/>
<g filter="url(#filter0_dddd_1171_11497)">
<rect x="324" y="106.092" width="280" height="188" rx="28" fill="black" fill-opacity="0.4"/>
<mask id="path-3-inside-1_1171_11497" fill="white">
<path d="M324 106.092H604V158.092H324V106.092Z"/>
</mask>
<path d="M604 158.092V157.619H324V158.092V158.565H604V158.092Z" fill="white" fill-opacity="0.1" mask="url(#path-3-inside-1_1171_11497)"/>
<path d="M349.219 137.092V126.942H353.167C355.183 126.942 356.849 127.446 356.849 129.49C356.849 130.442 356.429 131.254 355.701 131.688C356.653 132.066 357.269 132.808 357.269 134.054C357.269 136.252 355.645 137.092 353.447 137.092H349.219ZM351.011 135.58H353.475C354.749 135.58 355.393 135.02 355.393 134.04C355.393 133.032 354.749 132.556 353.419 132.556H351.011V135.58ZM351.011 131.17H353.335C354.371 131.17 355.015 130.75 355.015 129.77C355.015 128.888 354.357 128.454 353.335 128.454H351.011V131.17ZM363.559 137.092V136.028C363.125 136.756 362.467 137.274 361.263 137.274C359.415 137.274 358.771 136.112 358.771 134.264V129.56H360.437V133.816C360.437 134.95 360.577 135.902 361.865 135.902C362.985 135.902 363.559 135.16 363.559 133.634V129.56H365.239V137.092H363.559ZM367.04 139.542V138.254H367.544C368.426 138.254 368.734 138.212 369.042 137.26L369.098 137.078L366.354 129.56H368.188L369.924 134.95L371.618 129.56H373.382L370.596 137.288C369.966 139.038 369.518 139.542 367.726 139.542H367.04ZM381.242 137.274C378.484 137.274 377.14 135.244 377.14 132.01C377.14 128.79 378.484 126.76 381.242 126.76C384 126.76 385.344 128.79 385.344 132.01C385.344 135.244 384 137.274 381.242 137.274ZM381.242 135.972C382.684 135.972 383.608 134.698 383.608 132.01C383.608 129.336 382.684 128.076 381.242 128.076C379.8 128.076 378.876 129.336 378.876 132.01C378.876 134.698 379.8 135.972 381.242 135.972ZM386.659 137.092V135.146H388.647V137.092H386.659ZM394.066 137.274C391.308 137.274 389.964 135.244 389.964 132.01C389.964 128.79 391.308 126.76 394.066 126.76C396.824 126.76 398.168 128.79 398.168 132.01C398.168 135.244 396.824 137.274 394.066 137.274ZM394.066 135.972C395.508 135.972 396.432 134.698 396.432 132.01C396.432 129.336 395.508 128.076 394.066 128.076C392.624 128.076 391.7 129.336 391.7 132.01C391.7 134.698 392.624 135.972 394.066 135.972ZM403.609 137.274C400.851 137.274 399.507 135.244 399.507 132.01C399.507 128.79 400.851 126.76 403.609 126.76C406.367 126.76 407.711 128.79 407.711 132.01C407.711 135.244 406.367 137.274 403.609 137.274ZM403.609 135.972C405.051 135.972 405.975 134.698 405.975 132.01C405.975 129.336 405.051 128.076 403.609 128.076C402.167 128.076 401.243 129.336 401.243 132.01C401.243 134.698 402.167 135.972 403.609 135.972ZM413.852 137.092V134.726H408.854V133.298L413.908 126.942H415.532V133.2H417.226V134.726H415.532V137.092H413.852ZM410.688 133.2H413.852V129.168L410.688 133.2ZM421.939 137.092V126.942H425.887C427.903 126.942 429.569 127.446 429.569 129.49C429.569 130.442 429.149 131.254 428.421 131.688C429.373 132.066 429.989 132.808 429.989 134.054C429.989 136.252 428.365 137.092 426.167 137.092H421.939ZM423.731 135.58H426.195C427.469 135.58 428.113 135.02 428.113 134.04C428.113 133.032 427.469 132.556 426.139 132.556H423.731V135.58ZM423.731 131.17H426.055C427.091 131.17 427.735 130.75 427.735 129.77C427.735 128.888 427.077 128.454 426.055 128.454H423.731V131.17ZM433.698 137.092V128.51H430.408V126.942H438.78V128.51H435.49V137.092H433.698ZM446.687 133.648H448.437C448.017 135.93 446.211 137.274 443.873 137.274C440.863 137.274 439.085 135.16 439.085 131.996C439.085 128.832 440.989 126.76 443.971 126.76C446.239 126.76 447.975 128.16 448.381 130.386H446.617C446.323 129.084 445.329 128.258 443.901 128.258C442.235 128.258 440.947 129.588 440.947 131.996C440.947 134.404 442.207 135.776 443.929 135.776C445.329 135.776 446.379 135.048 446.687 133.648Z" fill="#D85E08"/>
<path d="M504.746 137.092V134.586H499.706V133.382L504.732 126.942H506.034V133.382H507.896V134.586H506.034V137.092H504.746ZM501.12 133.382H504.746V128.692L501.12 133.382ZM512.663 137.274C510.563 137.274 508.953 136.168 508.953 134.236C508.953 133.312 509.345 132.22 510.675 131.688C509.667 131.142 509.275 130.176 509.275 129.35C509.275 127.852 510.577 126.76 512.663 126.76C514.735 126.76 516.051 127.852 516.051 129.35C516.051 130.176 515.659 131.142 514.651 131.688C515.967 132.22 516.359 133.312 516.359 134.236C516.359 136.168 514.749 137.274 512.663 137.274ZM512.663 136.21C514.091 136.21 515.015 135.426 515.015 134.236C515.015 133.046 514.091 132.22 512.663 132.22C511.221 132.22 510.311 133.046 510.311 134.236C510.311 135.426 511.221 136.21 512.663 136.21ZM512.663 131.282C513.923 131.282 514.763 130.526 514.763 129.504C514.763 128.496 513.923 127.824 512.663 127.824C511.389 127.824 510.549 128.496 510.549 129.504C510.549 130.526 511.389 131.282 512.663 131.282ZM519.102 129.798H517.786C517.94 128.006 519.214 126.76 521.342 126.76C523.106 126.76 524.632 127.46 524.632 129.336C524.632 130.372 524.044 131.254 522.98 131.688C524.492 132.164 524.912 133.172 524.912 134.236C524.912 136.28 523.176 137.274 521.244 137.274C518.864 137.274 517.772 135.79 517.632 134.096H518.948C519.088 135.342 519.83 136.21 521.258 136.21C522.602 136.21 523.554 135.51 523.554 134.25C523.554 132.794 522.252 132.318 520.628 132.318H520.418V131.156H520.586C522.35 131.156 523.288 130.666 523.288 129.476C523.288 128.384 522.392 127.824 521.314 127.824C519.956 127.824 519.214 128.65 519.102 129.798ZM526.526 137.092V135.482H528.136V137.092H526.526ZM533.444 137.274C531.344 137.274 529.734 136.168 529.734 134.236C529.734 133.312 530.126 132.22 531.456 131.688C530.448 131.142 530.056 130.176 530.056 129.35C530.056 127.852 531.358 126.76 533.444 126.76C535.516 126.76 536.832 127.852 536.832 129.35C536.832 130.176 536.44 131.142 535.432 131.688C536.748 132.22 537.14 133.312 537.14 134.236C537.14 136.168 535.53 137.274 533.444 137.274ZM533.444 136.21C534.872 136.21 535.796 135.426 535.796 134.236C535.796 133.046 534.872 132.22 533.444 132.22C532.002 132.22 531.092 133.046 531.092 134.236C531.092 135.426 532.002 136.21 533.444 136.21ZM533.444 131.282C534.704 131.282 535.544 130.526 535.544 129.504C535.544 128.496 534.704 127.824 533.444 127.824C532.17 127.824 531.33 128.496 531.33 129.504C531.33 130.526 532.17 131.282 533.444 131.282ZM543.397 137.092V134.586H538.357V133.382L543.383 126.942H544.685V133.382H546.547V134.586H544.685V137.092H543.397ZM539.771 133.382H543.397V128.692L539.771 133.382ZM559.438 126.942V132.85C559.438 135.818 558.304 137.274 555.35 137.274C552.536 137.274 551.304 136.126 551.304 132.962V126.942H552.732V133.116C552.732 135.104 553.446 136.042 555.35 136.042C557.296 136.042 558.01 134.964 558.01 132.962V126.942H559.438ZM564.468 131.002L565.644 131.268C567.226 131.632 569.06 132.192 569.06 134.236C569.06 136.224 567.212 137.274 565.196 137.274C562.802 137.274 561.29 135.972 561.024 133.942H562.424C562.69 135.342 563.67 136.07 565.224 136.07C566.722 136.07 567.59 135.356 567.59 134.362C567.59 133.298 566.68 132.836 565.406 132.57L564.146 132.304C562.76 132.01 561.36 131.268 561.36 129.616C561.36 127.628 563.39 126.76 565.028 126.76C566.848 126.76 568.486 127.572 568.878 129.532H567.492C567.142 128.356 565.994 127.964 564.972 127.964C564.188 127.964 562.816 128.328 562.816 129.504C562.816 130.372 563.53 130.792 564.468 131.002ZM570.844 137.092V126.942H573.616C576.836 126.942 579.146 128.146 579.146 132.01C579.146 135.888 576.836 137.092 573.616 137.092H570.844ZM572.272 135.888H573.574C575.674 135.888 577.69 135.468 577.69 132.01C577.69 128.566 575.674 128.146 573.574 128.146H572.272V135.888Z" fill="#989898"/>
<rect x="340" y="174.092" width="40" height="40" rx="20" fill="#3D3D3D"/>
<rect x="343.336" y="177.424" width="33.335" height="33.335" rx="16.6675" fill="#DEDED9"/>
<path fill-rule="evenodd" clip-rule="evenodd" d="M368.331 190.562C368.331 191.524 367.601 192.316 366.664 192.415V197.88C367.262 198.248 367.729 198.819 367.962 199.518C368.302 200.538 367.543 201.592 366.467 201.592H353.527C352.452 201.592 351.692 200.538 352.033 199.518C352.265 198.819 352.733 198.248 353.331 197.88V192.415C352.394 192.316 351.664 191.524 351.664 190.562C351.664 189.856 352.063 189.211 352.694 188.895L358.507 185.989C359.445 185.519 360.55 185.519 361.488 185.989L367.301 188.895C367.932 189.211 368.331 189.856 368.331 190.562ZM363.331 192.425H364.997V197.425H363.331V192.425ZM356.664 197.425H354.997V192.425H356.664V197.425ZM358.331 197.425V192.425H361.664V197.425H358.331Z" fill="#D85E08"/>
<path d="M394.132 189.092V178.942H397.31C399.788 178.942 401.524 179.502 401.524 182.008C401.524 184.528 399.788 185.074 397.31 185.074H395.56V189.092H394.132ZM395.56 183.828H397.422C398.906 183.828 400.068 183.674 400.068 182.008C400.068 180.356 398.906 180.146 397.422 180.146H395.56V183.828ZM408.031 189.092V187.958C407.569 188.756 406.771 189.274 405.567 189.274C403.845 189.274 402.375 187.846 402.375 185.354C402.375 182.876 403.845 181.434 405.567 181.434C406.771 181.434 407.569 181.952 408.031 182.75V181.56H409.305V189.092H408.031ZM405.889 188.182C407.023 188.182 408.087 187.342 408.087 185.354C408.087 183.366 407.023 182.526 405.889 182.526C404.601 182.526 403.761 183.562 403.761 185.354C403.761 187.146 404.601 188.182 405.889 188.182ZM411.128 191.542V190.478H411.646C412.486 190.478 412.864 190.45 413.228 189.274L413.284 189.092L410.568 181.56H411.982L413.9 187.37L415.762 181.56H417.092L414.404 189.414C413.844 191.052 413.466 191.542 411.786 191.542H411.128ZM422.57 189.092L420.4 181.56H421.772L423.214 187.132L424.712 181.56H426.028L427.526 187.132L428.968 181.56H430.34L428.17 189.092H427.008L425.342 183.03L423.732 189.092H422.57ZM431.686 189.092V181.56H432.96V189.092H431.686ZM431.686 180.482V178.942H432.96V180.482H431.686ZM438.225 189.092H437.301C435.859 189.092 435.523 188.77 435.523 187.202V182.582H434.333V181.56H435.523V179.67H436.797V181.56H438.225V182.582H436.797V187.048C436.797 187.832 436.853 188.028 437.581 188.028H438.225V189.092ZM439.807 189.092V178.942H441.081V182.694C441.515 181.98 442.243 181.434 443.517 181.434C445.337 181.434 445.995 182.61 445.995 184.332V189.092H444.721V184.71C444.721 183.548 444.525 182.54 443.069 182.54C441.837 182.54 441.081 183.394 441.081 185.004V189.092H439.807Z" fill="#989898"/>
<path d="M392.767 209.092L396.533 198.942H398.185L402.007 209.092H400.467L399.683 206.908H394.993L394.223 209.092H392.767ZM395.441 205.676H399.235L397.317 200.384L395.441 205.676ZM408.097 206.642H409.413C409.161 208.056 407.803 209.274 406.053 209.274C403.897 209.274 402.539 207.636 402.539 205.34C402.539 203.1 403.953 201.434 406.179 201.434C407.999 201.434 409.161 202.806 409.329 204.08H408.041C407.859 203.184 407.075 202.554 406.095 202.554C404.961 202.554 403.925 203.436 403.925 205.326C403.925 207.244 404.975 208.154 406.095 208.154C407.159 208.154 407.915 207.44 408.097 206.642ZM411 209.092V201.56H412.274V202.694C412.708 201.98 413.408 201.434 414.542 201.434C415.69 201.434 416.376 201.938 416.712 202.764C417.314 201.84 418.196 201.434 419.246 201.434C420.996 201.434 421.682 202.61 421.682 204.332V209.092H420.408V204.71C420.408 203.548 420.184 202.54 418.798 202.54C417.706 202.54 416.978 203.394 416.978 205.004V209.092H415.704V204.71C415.704 203.548 415.48 202.54 414.094 202.54C413.002 202.54 412.274 203.394 412.274 205.004V209.092H411ZM426.933 202.526C425.897 202.526 424.875 203.016 424.665 204.654H429.103C429.019 203.422 428.151 202.526 426.933 202.526ZM429.033 206.908H430.349C429.999 208.21 428.809 209.274 426.975 209.274C424.595 209.274 423.279 207.566 423.279 205.34C423.279 202.96 424.875 201.434 426.933 201.434C429.103 201.434 430.461 203.17 430.461 205.34C430.461 205.466 430.461 205.592 430.447 205.718H424.637C424.791 207.468 425.925 208.154 426.975 208.154C428.095 208.154 428.711 207.65 429.033 206.908ZM442.6 205.858H443.986C443.538 208.098 441.788 209.274 439.59 209.274C436.678 209.274 434.984 207.09 434.984 203.996C434.984 200.846 436.832 198.76 439.702 198.76C441.802 198.76 443.496 200.006 443.93 202.176H442.544C442.236 200.916 441.256 199.964 439.632 199.964C437.84 199.964 436.44 201.364 436.44 203.996C436.44 206.558 437.784 208.07 439.674 208.07C441.284 208.07 442.278 207.16 442.6 205.858ZM445.604 209.092V198.942H446.878V202.694C447.312 201.98 448.04 201.434 449.314 201.434C451.134 201.434 451.792 202.61 451.792 204.332V209.092H450.518V204.71C450.518 203.548 450.322 202.54 448.866 202.54C447.634 202.54 446.878 203.394 446.878 205.004V209.092H445.604ZM457.039 202.526C456.003 202.526 454.981 203.016 454.771 204.654H459.209C459.125 203.422 458.257 202.526 457.039 202.526ZM459.139 206.908H460.455C460.105 208.21 458.915 209.274 457.081 209.274C454.701 209.274 453.385 207.566 453.385 205.34C453.385 202.96 454.981 201.434 457.039 201.434C459.209 201.434 460.567 203.17 460.567 205.34C460.567 205.466 460.567 205.592 460.553 205.718H454.743C454.897 207.468 456.031 208.154 457.081 208.154C458.201 208.154 458.817 207.65 459.139 206.908ZM467.283 206.642H468.599C468.347 208.056 466.989 209.274 465.239 209.274C463.083 209.274 461.725 207.636 461.725 205.34C461.725 203.1 463.139 201.434 465.365 201.434C467.185 201.434 468.347 202.806 468.515 204.08H467.227C467.045 203.184 466.261 202.554 465.281 202.554C464.147 202.554 463.111 203.436 463.111 205.326C463.111 207.244 464.161 208.154 465.281 208.154C466.345 208.154 467.101 207.44 467.283 206.642ZM470.186 209.092V198.942H471.46V204.948L474.498 201.56H476.066L473.196 204.682L476.458 209.092H474.904L472.342 205.62L471.46 206.572V209.092H470.186ZM477.459 209.092V201.56H478.733V209.092H477.459ZM477.459 200.482V198.942H478.733V200.482H477.459ZM480.918 209.092V201.56H482.192V202.694C482.626 201.98 483.354 201.434 484.628 201.434C486.448 201.434 487.106 202.61 487.106 204.332V209.092H485.832V204.71C485.832 203.548 485.636 202.54 484.18 202.54C482.948 202.54 482.192 203.394 482.192 205.004V209.092H480.918ZM495.587 201.56V208.35C495.587 210.576 494.411 211.724 492.269 211.724C490.561 211.724 489.413 210.94 489.175 209.414H490.533C490.701 210.086 491.121 210.604 492.283 210.604C493.417 210.604 494.313 210.1 494.313 208.518V207.664C493.851 208.462 493.123 208.966 491.919 208.966C490.253 208.966 488.727 207.622 488.727 205.2C488.727 202.792 490.253 201.434 491.919 201.434C493.123 201.434 493.851 201.952 494.313 202.75V201.56H495.587ZM492.241 207.888C493.375 207.888 494.369 207.118 494.369 205.2C494.369 203.296 493.375 202.526 492.241 202.526C490.995 202.526 490.113 203.492 490.113 205.2C490.113 206.922 490.995 207.888 492.241 207.888ZM501.431 203.198L500.689 202.722L501.669 201.35L500.087 200.79L500.367 200.006L501.949 200.608V198.942H502.803V200.608L504.385 200.006L504.707 200.79L503.097 201.35L504.063 202.708L503.419 203.198L502.383 201.784L501.431 203.198ZM509.898 209.092V206.586H504.858V205.382L509.884 198.942H511.186V205.382H513.048V206.586H511.186V209.092H509.898ZM506.272 205.382H509.898V200.692L506.272 205.382ZM516.196 209.092H514.656C514.88 205.452 516.49 202.316 519.01 200.132H513.466V198.942H520.494V200.132C517.988 202.162 516.434 205.298 516.196 209.092ZM522.804 201.798H521.488C521.642 200.006 522.916 198.76 525.044 198.76C526.808 198.76 528.334 199.46 528.334 201.336C528.334 202.372 527.746 203.254 526.682 203.688C528.194 204.164 528.614 205.172 528.614 206.236C528.614 208.28 526.878 209.274 524.946 209.274C522.566 209.274 521.474 207.79 521.334 206.096H522.65C522.79 207.342 523.532 208.21 524.96 208.21C526.304 208.21 527.256 207.51 527.256 206.25C527.256 204.794 525.954 204.318 524.33 204.318H524.12V203.156H524.288C526.052 203.156 526.99 202.666 526.99 201.476C526.99 200.384 526.094 199.824 525.016 199.824C523.658 199.824 522.916 200.65 522.804 201.798ZM533.574 204.584C534.904 204.584 535.786 203.576 535.786 202.19C535.786 200.79 534.932 199.824 533.588 199.824C532.272 199.824 531.362 200.804 531.362 202.19C531.362 203.576 532.258 204.584 533.574 204.584ZM530.172 206.74H531.558C531.726 207.65 532.412 208.21 533.448 208.21C535.016 208.21 535.898 206.628 535.968 204.262C535.506 205.074 534.61 205.704 533.266 205.704C531.39 205.704 530.004 204.29 530.004 202.246C530.004 200.37 531.404 198.76 533.574 198.76C536.108 198.76 537.27 200.524 537.27 203.66C537.27 206.53 536.234 209.274 533.308 209.274C531.32 209.274 530.382 208.028 530.172 206.74Z" fill="#F0F0EE"/>
<g clip-path="url(#clip1_1171_11497)">
<path d="M340 249.292C340 242.571 340 239.211 341.308 236.644C342.458 234.386 344.294 232.55 346.552 231.4C349.119 230.092 352.479 230.092 359.2 230.092H568.8C575.521 230.092 578.881 230.092 581.448 231.4C583.706 232.55 585.542 234.386 586.692 236.644C588 239.211 588 242.571 588 249.292V258.892C588 265.612 588 268.973 586.692 271.54C585.542 273.798 583.706 275.633 581.448 276.784C578.881 278.092 575.521 278.092 568.8 278.092H359.2C352.479 278.092 349.119 278.092 346.552 276.784C344.294 275.633 342.458 273.798 341.308 271.54C340 268.973 340 265.612 340 258.892V249.292Z" fill="#D85E08"/>
<path d="M437.028 259.092V248.942H440.976C442.992 248.942 444.658 249.446 444.658 251.49C444.658 252.442 444.238 253.254 443.51 253.688C444.462 254.066 445.078 254.808 445.078 256.054C445.078 258.252 443.454 259.092 441.256 259.092H437.028ZM438.82 257.58H441.284C442.558 257.58 443.202 257.02 443.202 256.04C443.202 255.032 442.558 254.556 441.228 254.556H438.82V257.58ZM438.82 253.17H441.144C442.18 253.17 442.824 252.75 442.824 251.77C442.824 250.888 442.166 250.454 441.144 250.454H438.82V253.17ZM451.368 259.092V258.028C450.934 258.756 450.276 259.274 449.072 259.274C447.224 259.274 446.58 258.112 446.58 256.264V251.56H448.246V255.816C448.246 256.95 448.386 257.902 449.674 257.902C450.794 257.902 451.368 257.16 451.368 255.634V251.56H453.048V259.092H451.368ZM454.849 261.542V260.254H455.353C456.235 260.254 456.543 260.212 456.851 259.26L456.907 259.078L454.163 251.56H455.997L457.733 256.95L459.427 251.56H461.191L458.405 259.288C457.775 261.038 457.327 261.542 455.535 261.542H454.849ZM465.285 259.092V251.56H466.951V252.638C467.343 251.98 468.113 251.42 469.345 251.42C471.207 251.42 471.851 252.582 471.851 254.416V259.092H470.185V254.878C470.185 253.744 470.045 252.778 468.715 252.778C467.581 252.778 466.951 253.562 466.951 255.088V259.092H465.285ZM477.093 259.274C475.203 259.274 473.313 258.056 473.313 255.326C473.313 252.596 475.203 251.392 477.093 251.392C478.969 251.392 480.859 252.596 480.859 255.326C480.859 258.056 478.969 259.274 477.093 259.274ZM477.093 257.902C478.157 257.902 479.109 257.174 479.109 255.326C479.109 253.492 478.143 252.778 477.093 252.778C476.029 252.778 475.063 253.492 475.063 255.326C475.063 257.174 476.015 257.902 477.093 257.902ZM483.567 259.092L481.551 251.56H483.301L484.575 256.95L485.835 251.56H487.557L488.817 256.95L490.091 251.56H491.841L489.839 259.092H488.089L486.675 253.226L485.303 259.092H483.567Z" fill="#F8F8F7"/>
</g>
</g>
</g>
<defs>
<filter id="filter0_dddd_1171_11497" x="276.5" y="97.0918" width="375" height="363.5" filterUnits="userSpaceOnUse" color-interpolation-filters="sRGB">
<feFlood flood-opacity="0" result="BackgroundImageFix"/>
<feColorMatrix in="SourceAlpha" type="matrix" values="0 0 0 0 0 0 0 0 0 0 0 0 0 0 0 0 0 0 127 0" result="hardAlpha"/>
<feOffset dy="7.5"/>
<feGaussianBlur stdDeviation="8.25"/>
<feColorMatrix type="matrix" values="0 0 0 0 0 0 0 0 0 0 0 0 0 0 0 0 0 0 0.04 0"/>
<feBlend mode="normal" in2="BackgroundImageFix" result="effect1_dropShadow_1171_11497"/>
<feColorMatrix in="SourceAlpha" type="matrix" values="0 0 0 0 0 0 0 0 0 0 0 0 0 0 0 0 0 0 127 0" result="hardAlpha"/>
<feOffset dy="29.5"/>
<feGaussianBlur stdDeviation="14.75"/>
<feColorMatrix type="matrix" values="0 0 0 0 0 0 0 0 0 0 0 0 0 0 0 0 0 0 0.03 0"/>
<feBlend mode="normal" in2="effect1_dropShadow_1171_11497" result="effect2_dropShadow_1171_11497"/>
<feColorMatrix in="SourceAlpha" type="matrix" values="0 0 0 0 0 0 0 0 0 0 0 0 0 0 0 0 0 0 127 0" result="hardAlpha"/>
<feOffset dy="67"/>
<feGaussianBlur stdDeviation="20"/>
<feColorMatrix type="matrix" values="0 0 0 0 0 0 0 0 0 0 0 0 0 0 0 0 0 0 0.02 0"/>
<feBlend mode="normal" in2="effect2_dropShadow_1171_11497" result="effect3_dropShadow_1171_11497"/>
<feColorMatrix in="SourceAlpha" type="matrix" values="0 0 0 0 0 0 0 0 0 0 0 0 0 0 0 0 0 0 127 0" result="hardAlpha"/>
<feOffset dy="119"/>
<feGaussianBlur stdDeviation="23.75"/>
<feColorMatrix type="matrix" values="0 0 0 0 0 0 0 0 0 0 0 0 0 0 0 0 0 0 0.01 0"/>
<feBlend mode="normal" in2="effect3_dropShadow_1171_11497" result="effect4_dropShadow_1171_11497"/>
<feBlend mode="normal" in="BackgroundImageFix" in2="effect4_dropShadow_1171_11497" result="BackgroundImageFix"/>
<feBlend mode="normal" in="SourceGraphic" in2="BackgroundImageFix" result="shape"/>
</filter>
<clipPath id="clip0_1171_11497">
<rect width="928" height="400" fill="white"/>
</clipPath>
<clipPath id="clip1_1171_11497">
<rect width="280" height="64" fill="white" transform="translate(324 230.092)"/>
</clipPath>
<pattern id="pattern0_1171_11497" patternUnits="userSpaceOnUse" patternTransform="matrix(23.4998 0 0 20.3282 462.936 198.936)" preserveAspectRatio="none" viewBox="0 0 88.32 76.4" width="1" height="1">
<g id="pattern0_1171_11497_inner">
<rect width="8" height="8" fill="#C1C0B8"/>
</g>
</pattern></defs>
</svg>
