<svg width="928" height="400" viewBox="0 0 928 400" fill="none" xmlns="http://www.w3.org/2000/svg" xmlns:xlink="http://www.w3.org/1999/xlink">
<g clip-path="url(#clip0_1320_26787)">
<rect width="928" height="400" fill="#212121"/>
<rect width="928" height="400" fill="url(#pattern0_1320_26787)" fill-opacity="0.1"/>
<g filter="url(#filter0_dddd_1320_26787)">
<rect x="346.867" y="176" width="234.273" height="48" rx="12.7531" fill="black" fill-opacity="0.6"/>
<rect width="13.0909" height="13.0909" transform="translate(364.32 193.455)" fill="black"/>
<path d="M369.654 193.455V197.334H372.078V193.455H377.411V198.788H373.532V201.213H377.411V206.546H372.078V202.667H369.654V206.546H364.32V201.213H368.199V198.788H364.32V193.455H369.654ZM373.532 205.091H375.957V202.667H373.532V205.091ZM365.775 205.091H368.199V202.667H365.775V205.091ZM369.654 201.213H372.078V198.788H369.654V201.213ZM373.532 197.334H375.957V194.91H373.532V197.334ZM365.775 197.334H368.199V194.91H365.775V197.334Z" fill="#F0F0EE"/>
<path d="M395.596 197.129C397.509 197.129 398.779 198.521 398.902 200.006H397.479C397.295 198.996 396.545 198.292 395.535 198.292C394.311 198.292 393.301 199.348 393.301 201.414C393.301 203.511 394.311 204.551 395.535 204.551C396.652 204.551 397.356 203.74 397.54 202.852H398.994C398.764 204.49 397.295 205.699 395.458 205.699C393.178 205.699 391.816 203.924 391.816 201.414C391.816 198.965 393.239 197.129 395.596 197.129ZM402.551 201.414C402.551 203.602 403.623 204.521 404.878 204.521C406.133 204.521 407.204 203.602 407.204 201.414C407.204 199.225 406.133 198.307 404.878 198.307C403.623 198.307 402.551 199.225 402.551 201.414ZM401.067 201.414C401.067 198.43 402.995 197.129 404.878 197.129C406.76 197.129 408.688 198.43 408.688 201.414C408.688 204.398 406.76 205.699 404.878 205.699C402.995 205.699 401.067 204.398 401.067 201.414ZM414.725 198.169C415.077 197.527 415.613 197.129 416.363 197.129C417.22 197.129 418.062 197.527 418.062 199.7V205.5H416.654V200.419C416.654 199.225 416.654 198.307 415.95 198.307C415.246 198.307 415.031 199.134 415.031 200.832V205.5H413.624V200.419C413.624 199.225 413.624 198.307 412.935 198.307C412.216 198.307 412.001 199.149 412.001 200.863V205.5H410.593V197.267H411.94V198.139C412.216 197.603 412.659 197.129 413.44 197.129C414.19 197.129 414.542 197.619 414.725 198.169ZM424.16 198.169C424.512 197.527 425.048 197.129 425.797 197.129C426.654 197.129 427.496 197.527 427.496 199.7V205.5H426.088V200.419C426.088 199.225 426.088 198.307 425.384 198.307C424.68 198.307 424.466 199.134 424.466 200.832V205.5H423.058V200.419C423.058 199.225 423.058 198.307 422.369 198.307C421.65 198.307 421.436 199.149 421.436 200.863V205.5H420.028V197.267H421.375V198.139C421.65 197.603 422.094 197.129 422.874 197.129C423.624 197.129 423.976 197.619 424.16 198.169ZM435.094 201.414C435.094 199.241 434.069 198.307 432.89 198.307C431.483 198.307 430.763 199.455 430.763 201.414C430.763 203.373 431.483 204.521 432.89 204.521C434.069 204.521 435.094 203.572 435.094 201.414ZM435.033 198.506V197.267H436.441V205.5H435.048L435.033 204.322C434.574 205.117 433.839 205.699 432.6 205.699C430.702 205.699 429.279 204.138 429.279 201.414C429.279 198.69 430.702 197.129 432.6 197.129C433.839 197.129 434.574 197.71 435.033 198.506ZM440.825 197.267V198.43C441.238 197.726 441.942 197.129 443.243 197.129C445.233 197.129 445.83 198.445 445.83 200.266V205.5H444.422V200.756C444.422 199.424 444.314 198.323 442.784 198.323C441.514 198.323 440.825 199.271 440.825 201.031V205.5H439.417V197.267H440.825ZM453.902 198.506V194.405H455.31V205.5H453.917L453.902 204.337C453.443 205.117 452.708 205.699 451.469 205.699C449.571 205.699 448.148 204.138 448.148 201.414C448.148 198.705 449.571 197.129 451.469 197.129C452.708 197.129 453.443 197.71 453.902 198.506ZM453.963 201.414C453.963 199.241 452.938 198.307 451.76 198.307C450.352 198.307 449.632 199.455 449.632 201.414C449.632 203.373 450.352 204.536 451.76 204.536C452.938 204.536 453.963 203.572 453.963 201.414ZM464.653 199.516H463.184C463 198.598 462.281 198.292 461.347 198.292C460.521 198.292 459.694 198.613 459.694 199.348C459.694 199.991 460.123 200.281 460.934 200.45L461.852 200.633C463.275 200.909 464.806 201.445 464.806 203.097C464.806 204.842 463.306 205.699 461.515 205.699C459.373 205.699 458.302 204.352 458.149 203.036H459.633C459.817 203.985 460.398 204.536 461.546 204.536C462.418 204.536 463.382 204.23 463.382 203.266C463.382 202.5 462.694 202.118 461.653 201.934L460.628 201.735C459.327 201.475 458.302 200.832 458.302 199.409C458.302 197.818 460.031 197.129 461.408 197.129C463.153 197.129 464.347 198.047 464.653 199.516ZM478.778 197.267V196.67C478.778 194.956 479.191 194.405 480.966 194.405H483.874V195.598H480.997C480.308 195.598 480.186 195.813 480.186 196.67V197.267H483.874V198.476H480.186V205.5H478.778V198.476H476.589V197.267H478.778ZM487.462 201.414C487.462 203.602 488.533 204.521 489.788 204.521C491.043 204.521 492.115 203.602 492.115 201.414C492.115 199.225 491.043 198.307 489.788 198.307C488.533 198.307 487.462 199.225 487.462 201.414ZM485.978 201.414C485.978 198.43 487.906 197.129 489.788 197.129C491.671 197.129 493.599 198.43 493.599 201.414C493.599 204.398 491.671 205.699 489.788 205.699C487.906 205.699 485.978 204.398 485.978 201.414ZM495.596 197.267H499.315V198.736C499.713 197.818 500.508 197.267 501.518 197.267H502.926V198.552H501.534C499.958 198.552 499.345 199.593 499.345 201.399V204.291H502.161V205.5H495.611V204.291H497.937V198.476H495.596V197.267ZM518.505 198.169C518.857 197.527 519.393 197.129 520.143 197.129C521 197.129 521.841 197.527 521.841 199.7V205.5H520.433V200.419C520.433 199.225 520.433 198.307 519.729 198.307C519.026 198.307 518.811 199.134 518.811 200.832V205.5H517.403V200.419C517.403 199.225 517.403 198.307 516.715 198.307C515.995 198.307 515.781 199.149 515.781 200.863V205.5H514.373V197.267H515.72V198.139C515.995 197.603 516.439 197.129 517.22 197.129C517.97 197.129 518.322 197.619 518.505 198.169ZM525.2 201.414C525.2 203.602 526.272 204.521 527.527 204.521C528.781 204.521 529.853 203.602 529.853 201.414C529.853 199.225 528.781 198.307 527.527 198.307C526.272 198.307 525.2 199.225 525.2 201.414ZM523.716 201.414C523.716 198.43 525.644 197.129 527.527 197.129C529.409 197.129 531.337 198.43 531.337 201.414C531.337 204.398 529.409 205.699 527.527 205.699C525.644 205.699 523.716 204.398 523.716 201.414ZM535.171 197.267V198.43C535.584 197.726 536.288 197.129 537.588 197.129C539.578 197.129 540.175 198.445 540.175 200.266V205.5H538.767V200.756C538.767 199.424 538.66 198.323 537.129 198.323C535.859 198.323 535.171 199.271 535.171 201.031V205.5H533.763V197.267H535.171ZM546.441 205.699C543.947 205.699 542.707 203.847 542.707 201.414C542.707 198.766 544.268 197.114 546.441 197.114C548.844 197.114 550.222 198.873 550.114 201.812H544.192C544.192 203.465 545.11 204.551 546.411 204.551C547.635 204.551 548.247 203.97 548.538 203.036H549.992C549.655 204.597 548.37 205.699 546.441 205.699ZM546.441 198.277C545.11 198.277 544.268 199.057 544.207 200.649H548.615C548.63 199.302 547.88 198.277 546.441 198.277ZM553.688 208.178H552.065V206.969H553.55C554.407 206.969 554.682 206.862 555.111 205.684L555.172 205.5L552.096 197.267H553.642L555.876 203.618L558.064 197.267H559.518L556.473 205.852C555.891 207.474 555.432 208.178 553.688 208.178Z" fill="#F0F0EE"/>
<rect x="561.5" y="190.182" width="2.18182" height="19.6364" rx="1.09091" fill="#00B3E0"/>
</g>
<path d="M519.136 301.008C172.62 526.038 277.732 498.242 -68.7844 723.273M519.136 301.008C172.62 526.038 314.739 555.228 -31.7771 780.259M519.136 301.008C172.62 526.038 351.747 612.215 5.23024 837.245M519.136 301.008C172.62 526.038 388.754 669.201 42.2375 894.231M519.136 301.008C172.62 526.038 499.776 840.16 153.259 1065.19M519.136 301.008C172.62 526.038 425.761 726.187 79.2449 951.218M519.136 301.008C172.62 526.038 462.769 783.173 116.252 1008.2M519.136 301.008C172.62 526.038 536.783 897.146 190.267 1122.18M519.136 301.008C172.62 526.038 573.791 954.132 227.274 1179.16M519.136 301.008C172.62 526.038 610.798 1011.12 264.281 1236.15M519.136 301.008L623.303 233.361M519.136 301.008L-87.2675 694.811" stroke="#00B3E0" stroke-width="0.33"/>
<path d="M393.703 107.841C47.1865 332.872 115.332 248.153 -231.184 473.183M393.703 107.841C47.1865 332.872 78.3252 191.167 -268.191 416.197M393.703 107.841C47.1865 332.872 41.3178 134.18 -305.199 359.211M393.703 107.841C47.1865 332.872 4.31056 77.1941 -342.206 302.225M393.703 107.841C47.1865 332.872 -106.711 -93.7646 -453.228 131.266M393.703 107.841C47.1865 332.872 -32.6968 20.2078 -379.213 245.238M393.703 107.841C47.1865 332.872 -69.7041 -36.7784 -416.221 188.252M393.703 107.841C47.1865 332.872 -143.719 -150.751 -490.235 74.2796M393.703 107.841C47.1865 332.872 -180.726 -207.737 -527.242 17.2934M393.703 107.841C47.1865 332.872 -217.733 -264.723 -564.25 -39.6929M393.703 107.841L497.869 40.1951M393.703 107.841L-212.701 501.645" stroke="#00B3E0" stroke-width="0.33"/>
<path d="M534.321 291.157C880.837 66.1261 812.691 150.845 1159.21 -74.1852M534.321 291.157C880.837 66.1261 849.698 207.831 1196.21 -17.199M534.321 291.157C880.837 66.1261 886.706 264.818 1233.22 39.7873M534.321 291.157C880.837 66.1261 923.713 321.804 1270.23 96.7735M534.321 291.157C880.837 66.1261 1034.73 492.763 1381.25 267.732M534.321 291.157C880.837 66.1261 960.72 378.79 1307.24 153.76M534.321 291.157C880.837 66.1261 997.728 435.776 1344.24 210.746M534.321 291.157C880.837 66.1261 1071.74 549.749 1418.26 324.718M534.321 291.157C880.837 66.1261 1108.75 606.735 1455.27 381.705M534.321 291.157C880.837 66.1261 1145.76 663.721 1492.27 438.691M534.321 291.157L430.154 358.803M534.321 291.157L1140.72 -102.647" stroke="#00B3E0" stroke-width="0.33"/>
<path d="M408.871 97.9883C755.388 -127.042 650.276 -99.2461 996.792 -324.277M408.871 97.9883C755.388 -127.042 613.268 -156.232 959.785 -381.263M408.871 97.9883C755.388 -127.042 576.261 -213.219 922.778 -438.249M408.871 97.9883C755.388 -127.042 539.254 -270.205 885.77 -495.235M408.871 97.9883C755.388 -127.042 428.232 -441.164 774.748 -666.194M408.871 97.9883C755.388 -127.042 502.246 -327.191 848.763 -552.222M408.871 97.9883C755.388 -127.042 465.239 -384.177 811.756 -609.208M408.871 97.9883C755.388 -127.042 391.225 -498.15 737.741 -723.18M408.871 97.9883C755.388 -127.042 354.217 -555.136 700.734 -780.167M408.871 97.9883C755.388 -127.042 317.21 -612.122 663.726 -837.153M408.871 97.9883L304.705 165.635M408.871 97.9883L1015.28 -295.815" stroke="#00B3E0" stroke-width="0.33"/>
</g>
<defs>
<filter id="filter0_dddd_1320_26787" x="295.049" y="166.182" width="337.91" height="239.455" filterUnits="userSpaceOnUse" color-interpolation-filters="sRGB">
<feFlood flood-opacity="0" result="BackgroundImageFix"/>
<feColorMatrix in="SourceAlpha" type="matrix" values="0 0 0 0 0 0 0 0 0 0 0 0 0 0 0 0 0 0 127 0" result="hardAlpha"/>
<feOffset dy="8.18182"/>
<feGaussianBlur stdDeviation="9"/>
<feColorMatrix type="matrix" values="0 0 0 0 0 0 0 0 0 0 0 0 0 0 0 0 0 0 0.04 0"/>
<feBlend mode="normal" in2="BackgroundImageFix" result="effect1_dropShadow_1320_26787"/>
<feColorMatrix in="SourceAlpha" type="matrix" values="0 0 0 0 0 0 0 0 0 0 0 0 0 0 0 0 0 0 127 0" result="hardAlpha"/>
<feOffset dy="32.1818"/>
<feGaussianBlur stdDeviation="16.0909"/>
<feColorMatrix type="matrix" values="0 0 0 0 0 0 0 0 0 0 0 0 0 0 0 0 0 0 0.03 0"/>
<feBlend mode="normal" in2="effect1_dropShadow_1320_26787" result="effect2_dropShadow_1320_26787"/>
<feColorMatrix in="SourceAlpha" type="matrix" values="0 0 0 0 0 0 0 0 0 0 0 0 0 0 0 0 0 0 127 0" result="hardAlpha"/>
<feOffset dy="73.0909"/>
<feGaussianBlur stdDeviation="21.8182"/>
<feColorMatrix type="matrix" values="0 0 0 0 0 0 0 0 0 0 0 0 0 0 0 0 0 0 0.02 0"/>
<feBlend mode="normal" in2="effect2_dropShadow_1320_26787" result="effect3_dropShadow_1320_26787"/>
<feColorMatrix in="SourceAlpha" type="matrix" values="0 0 0 0 0 0 0 0 0 0 0 0 0 0 0 0 0 0 127 0" result="hardAlpha"/>
<feOffset dy="129.818"/>
<feGaussianBlur stdDeviation="25.9091"/>
<feColorMatrix type="matrix" values="0 0 0 0 0 0 0 0 0 0 0 0 0 0 0 0 0 0 0.01 0"/>
<feBlend mode="normal" in2="effect3_dropShadow_1320_26787" result="effect4_dropShadow_1320_26787"/>
<feBlend mode="normal" in="BackgroundImageFix" in2="effect4_dropShadow_1320_26787" result="BackgroundImageFix"/>
<feBlend mode="normal" in="SourceGraphic" in2="BackgroundImageFix" result="shape"/>
</filter>
<clipPath id="clip0_1320_26787">
<rect width="928" height="400" fill="white"/>
</clipPath>
<pattern id="pattern0_1320_26787" patternUnits="userSpaceOnUse" patternTransform="matrix(23.4998 0 0 20.3282 462.936 198.936)" preserveAspectRatio="none" viewBox="0 0 88.32 76.4" width="1" height="1">
<g id="pattern0_1320_26787_inner">
<rect width="8" height="8" fill="#C1C0B8"/>
</g>
</pattern></defs>
</svg>
