<svg width="928" height="400" viewBox="0 0 928 400" fill="none" xmlns="http://www.w3.org/2000/svg" xmlns:xlink="http://www.w3.org/1999/xlink">
<g clip-path="url(#clip0_1320_26748)">
<rect width="928" height="400" fill="#F0F0EE"/>
<rect width="928" height="400" fill="url(#pattern0_1320_26748)" fill-opacity="0.6"/>
<path d="M348.437 191.615V196.542H351.378V191.615H358.291V198.529H353.364V201.47H358.291V208.383H351.378V203.456H348.437V208.383H341.523V201.47H346.451V198.529H341.523V191.615H348.437ZM353.364 206.397H356.305V203.456H353.364V206.397ZM343.51 206.397H346.451V203.456H343.51V206.397ZM348.437 201.47H351.378V198.529H348.437V201.47ZM353.364 196.542H356.305V193.602H353.364V196.542ZM343.51 196.542H346.451V193.602H343.51V196.542Z" fill="#282828"/>
<path d="M380.591 202.395H382.778C382.071 205.93 379.31 207.785 375.842 207.785C371.247 207.785 368.574 204.339 368.574 199.457C368.574 194.487 371.49 191.195 376.019 191.195C379.332 191.195 382.005 193.161 382.69 196.585H380.503C380.017 194.597 378.471 193.095 375.908 193.095C373.081 193.095 370.872 195.304 370.872 199.457C370.872 203.5 372.992 205.885 375.975 205.885C378.515 205.885 380.083 204.45 380.591 202.395ZM389.616 207.785C386.833 207.785 383.873 205.908 383.873 201.6C383.873 197.292 386.833 195.415 389.616 195.415C392.399 195.415 395.36 197.292 395.36 201.6C395.36 205.908 392.399 207.785 389.616 207.785ZM389.616 206.018C391.427 206.018 393.173 204.759 393.173 201.6C393.173 198.441 391.427 197.182 389.616 197.182C387.805 197.182 386.06 198.441 386.06 201.6C386.06 204.759 387.805 206.018 389.616 206.018ZM397.337 207.498V195.614H399.347V197.403C400.032 196.276 401.136 195.415 402.926 195.415C404.737 195.415 405.82 196.21 406.35 197.513C407.3 196.055 408.691 195.415 410.348 195.415C413.109 195.415 414.192 197.27 414.192 199.987V207.498H412.182V200.584C412.182 198.75 411.828 197.16 409.641 197.16C407.918 197.16 406.769 198.507 406.769 201.048V207.498H404.759V200.584C404.759 198.75 404.406 197.16 402.219 197.16C400.496 197.16 399.347 198.507 399.347 201.048V207.498H397.337ZM416.845 207.498V195.614H418.855V197.403C419.54 196.276 420.644 195.415 422.433 195.415C424.245 195.415 425.327 196.21 425.857 197.513C426.807 196.055 428.199 195.415 429.856 195.415C432.617 195.415 433.699 197.27 433.699 199.987V207.498H431.689V200.584C431.689 198.75 431.336 197.16 429.149 197.16C427.426 197.16 426.277 198.507 426.277 201.048V207.498H424.267V200.584C424.267 198.75 423.913 197.16 421.726 197.16C420.003 197.16 418.855 198.507 418.855 201.048V207.498H416.845ZM444.503 207.498V205.709C443.774 206.968 442.515 207.785 440.615 207.785C437.898 207.785 435.579 205.532 435.579 201.6C435.579 197.69 437.898 195.415 440.615 195.415C442.515 195.415 443.774 196.232 444.503 197.491V195.614H446.514V207.498H444.503ZM441.124 206.062C442.913 206.062 444.592 204.737 444.592 201.6C444.592 198.463 442.913 197.138 441.124 197.138C439.091 197.138 437.766 198.772 437.766 201.6C437.766 204.428 439.091 206.062 441.124 206.062ZM449.302 207.498V195.614H451.312V197.403C451.997 196.276 453.145 195.415 455.155 195.415C458.027 195.415 459.065 197.27 459.065 199.987V207.498H457.055V200.584C457.055 198.75 456.746 197.16 454.449 197.16C452.505 197.16 451.312 198.507 451.312 201.048V207.498H449.302ZM469.907 207.498V205.709C469.178 206.968 467.919 207.785 466.019 207.785C463.302 207.785 460.939 205.532 460.939 201.6C460.939 197.69 463.302 195.415 466.019 195.415C467.919 195.415 469.178 196.232 469.907 197.491V191.483H471.917V207.498H469.907ZM466.527 206.062C468.317 206.062 469.996 204.737 469.996 201.6C469.996 198.463 468.317 197.138 466.527 197.138C464.473 197.138 463.126 198.772 463.126 201.6C463.126 204.428 464.473 206.062 466.527 206.062ZM477.93 200.23L479.608 200.562C481.773 200.981 483.673 201.799 483.673 204.096C483.673 206.438 481.552 207.785 478.835 207.785C475.721 207.785 473.953 205.731 473.732 203.654H475.853C476.162 205.179 477.112 206.084 478.88 206.084C480.404 206.084 481.641 205.422 481.641 204.317C481.641 203.124 480.514 202.616 479.233 202.351L477.466 201.998C475.853 201.666 474.086 200.937 474.086 198.795C474.086 196.63 476.207 195.393 478.835 195.393C481.398 195.393 483.143 196.828 483.518 199.082H481.42C481.111 197.668 480.006 197.116 478.614 197.116C477.444 197.116 476.118 197.557 476.118 198.706C476.118 199.59 476.781 200.009 477.93 200.23ZM490.781 207.498V197.226H489.124V195.614H490.781V194.752C490.781 192.278 491.289 191.483 493.984 191.483H495.022V193.161H494.028C492.968 193.161 492.791 193.404 492.791 194.642V195.614H495.022V197.226H492.791V207.498H490.781ZM501.2 207.785C498.417 207.785 495.457 205.908 495.457 201.6C495.457 197.292 498.417 195.415 501.2 195.415C503.983 195.415 506.944 197.292 506.944 201.6C506.944 205.908 503.983 207.785 501.2 207.785ZM501.2 206.018C503.012 206.018 504.757 204.759 504.757 201.6C504.757 198.441 503.012 197.182 501.2 197.182C499.389 197.182 497.644 198.441 497.644 201.6C497.644 204.759 499.389 206.018 501.2 206.018ZM508.921 207.498V195.614H510.887V197.69C511.483 196.342 512.698 195.591 514.245 195.547C514.444 195.547 514.62 195.547 514.841 195.569V197.712C514.377 197.646 514.046 197.624 513.715 197.624C511.859 197.624 510.931 198.662 510.931 201.269V207.498H508.921ZM520.388 207.498V195.614H522.398V197.403C523.083 196.276 524.188 195.415 525.977 195.415C527.788 195.415 528.871 196.21 529.401 197.513C530.351 196.055 531.742 195.415 533.399 195.415C536.16 195.415 537.243 197.27 537.243 199.987V207.498H535.233V200.584C535.233 198.75 534.879 197.16 532.692 197.16C530.969 197.16 529.821 198.507 529.821 201.048V207.498H527.81V200.584C527.81 198.75 527.457 197.16 525.27 197.16C523.547 197.16 522.398 198.507 522.398 201.048V207.498H520.388ZM544.844 207.785C542.06 207.785 539.1 205.908 539.1 201.6C539.1 197.292 542.06 195.415 544.844 195.415C547.627 195.415 550.587 197.292 550.587 201.6C550.587 205.908 547.627 207.785 544.844 207.785ZM544.844 206.018C546.655 206.018 548.4 204.759 548.4 201.6C548.4 198.441 546.655 197.182 544.844 197.182C543.032 197.182 541.287 198.441 541.287 201.6C541.287 204.759 543.032 206.018 544.844 206.018ZM552.565 207.498V195.614H554.575V197.403C555.26 196.276 556.408 195.415 558.419 195.415C561.29 195.415 562.329 197.27 562.329 199.987V207.498H560.318V200.584C560.318 198.75 560.009 197.16 557.712 197.16C555.768 197.16 554.575 198.507 554.575 201.048V207.498H552.565ZM569.945 197.138C568.311 197.138 566.698 197.911 566.367 200.495H573.369C573.237 198.552 571.867 197.138 569.945 197.138ZM573.259 204.052H575.335C574.783 206.106 572.905 207.785 570.011 207.785C566.256 207.785 564.18 205.09 564.18 201.578C564.18 197.823 566.698 195.415 569.945 195.415C573.369 195.415 575.512 198.154 575.512 201.578C575.512 201.777 575.512 201.975 575.49 202.174H566.322C566.565 204.936 568.355 206.018 570.011 206.018C571.779 206.018 572.751 205.223 573.259 204.052ZM576.66 211.364V209.685H577.477C578.803 209.685 579.399 209.641 579.973 207.785L580.062 207.498L575.776 195.614H578.007L581.034 204.781L583.972 195.614H586.07L581.829 208.006C580.945 210.591 580.349 211.364 577.698 211.364H576.66Z" fill="#282828"/>
<path d="M519.136 301.365C172.62 526.396 277.732 498.6 -68.7844 723.63M519.136 301.365C172.62 526.396 314.739 555.586 -31.7771 780.616M519.136 301.365C172.62 526.396 351.747 612.572 5.23024 837.603M519.136 301.365C172.62 526.396 388.754 669.558 42.2375 894.589M519.136 301.365C172.62 526.396 499.776 840.517 153.259 1065.55M519.136 301.365C172.62 526.396 425.761 726.545 79.2449 951.575M519.136 301.365C172.62 526.396 462.769 783.531 116.252 1008.56M519.136 301.365C172.62 526.396 536.783 897.503 190.267 1122.53M519.136 301.365C172.62 526.396 573.791 954.49 227.274 1179.52M519.136 301.365C172.62 526.396 610.798 1011.48 264.281 1236.51M519.136 301.365L623.303 233.719M519.136 301.365L-87.2675 695.169" stroke="#00B3E0" stroke-width="0.5"/>
<path d="M393.703 108.199C47.1865 333.229 115.332 248.51 -231.184 473.541M393.703 108.199C47.1865 333.229 78.3252 191.524 -268.191 416.554M393.703 108.199C47.1865 333.229 41.3178 134.538 -305.199 359.568M393.703 108.199C47.1865 333.229 4.31056 77.5515 -342.206 302.582M393.703 108.199C47.1865 333.229 -106.711 -93.4072 -453.228 131.623M393.703 108.199C47.1865 333.229 -32.6968 20.5652 -379.213 245.596M393.703 108.199C47.1865 333.229 -69.7041 -36.421 -416.221 188.609M393.703 108.199C47.1865 333.229 -143.719 -150.393 -490.235 74.637M393.703 108.199C47.1865 333.229 -180.726 -207.38 -527.242 17.6508M393.703 108.199C47.1865 333.229 -217.733 -264.366 -564.25 -39.3355M393.703 108.199L497.869 40.5525M393.703 108.199L-212.701 502.002" stroke="#00B3E0" stroke-width="0.5"/>
<path d="M534.321 291.514C880.837 66.4836 812.691 151.203 1159.21 -73.8278M534.321 291.514C880.837 66.4836 849.698 208.189 1196.21 -16.8416M534.321 291.514C880.837 66.4836 886.706 265.175 1233.22 40.1447M534.321 291.514C880.837 66.4836 923.713 322.161 1270.23 97.1309M534.321 291.514C880.837 66.4836 1034.73 493.12 1381.25 268.09M534.321 291.514C880.837 66.4836 960.72 379.148 1307.24 154.117M534.321 291.514C880.837 66.4836 997.728 436.134 1344.24 211.103M534.321 291.514C880.837 66.4836 1071.74 550.106 1418.26 325.076M534.321 291.514C880.837 66.4836 1108.75 607.093 1455.27 382.062M534.321 291.514C880.837 66.4836 1145.76 664.079 1492.27 439.048M534.321 291.514L430.154 359.16M534.321 291.514L1140.72 -102.289" stroke="#00B3E0" stroke-width="0.5"/>
<path d="M408.871 98.3457C755.388 -126.685 650.276 -98.8886 996.792 -323.919M408.871 98.3457C755.388 -126.685 613.268 -155.875 959.785 -380.905M408.871 98.3457C755.388 -126.685 576.261 -212.861 922.778 -437.892M408.871 98.3457C755.388 -126.685 539.254 -269.847 885.77 -494.878M408.871 98.3457C755.388 -126.685 428.232 -440.806 774.748 -665.837M408.871 98.3457C755.388 -126.685 502.246 -326.834 848.763 -551.864M408.871 98.3457C755.388 -126.685 465.239 -383.82 811.756 -608.85M408.871 98.3457C755.388 -126.685 391.225 -497.792 737.741 -722.823M408.871 98.3457C755.388 -126.685 354.217 -554.779 700.734 -779.809M408.871 98.3457C755.388 -126.685 317.21 -611.765 663.726 -836.795M408.871 98.3457L304.705 165.992M408.871 98.3457L1015.28 -295.458" stroke="#00B3E0" stroke-width="0.5"/>
</g>
<defs>
<clipPath id="clip0_1320_26748">
<rect width="928" height="400" fill="white"/>
</clipPath>
<pattern id="pattern0_1320_26748" patternUnits="userSpaceOnUse" patternTransform="matrix(23.4998 0 0 20.3282 462.936 198.936)" preserveAspectRatio="none" viewBox="0 0 88.32 76.4" width="1" height="1">
<g id="pattern0_1320_26748_inner">
<rect width="8" height="8" fill="#C1C0B8"/>
</g>
</pattern></defs>
</svg>
