<svg width="68" height="16" viewBox="0 0 68 16" fill="none" xmlns="http://www.w3.org/2000/svg">
<g clip-path="url(#clip0_1042_40897)">
<path d="M0 7.99533C0 12.2921 3.78046 15.7147 7.81429 15.7147C8.18366 15.7147 8.77994 15.6341 9.5892 15.4753C9.68983 15.4557 9.76251 15.3687 9.76251 15.2678V11.4825C9.76251 11.3657 9.66634 11.2706 9.5488 11.2706H7.70851C5.81463 11.2706 4.35253 9.75379 4.35253 7.88293V0.497235C4.35253 0.38044 4.25706 0.286133 4.13883 0.286133H0.213697C0.0954663 0.286133 0 0.38044 0 0.497235V7.99533Z" fill="#989898"/>
<path d="M15.4718 7.92282C15.4718 3.62604 12.162 0.286133 7.81324 0.286133H6.0809C5.96267 0.286133 5.86719 0.38044 5.86719 0.496509C5.86719 1.19946 5.86719 3.5165 5.86719 4.22671C5.86719 4.34277 5.96267 4.43708 6.08016 4.43708H7.69353C9.71227 4.43708 11.275 5.97356 11.275 7.96779L11.2765 14.6251C11.2765 14.7854 11.4549 14.8863 11.593 14.8014C14.0148 13.3165 15.4718 10.5256 15.4718 7.92282Z" fill="#989898"/>
<path d="M36.1191 0.462891H32.9062V3.18328H36.1191V0.462891Z" fill="#989898"/>
<path d="M36.0742 4.95996H32.9531V15.2445H36.0742V4.95996Z" fill="#989898"/>
<path d="M51.5811 8.67635L49.1945 8.17795C48.3911 7.99658 47.8403 7.72452 47.8403 7.0448C47.8403 6.4224 48.5659 6.05023 49.5845 6.05023C50.7888 6.05023 51.6444 6.48189 52.0401 7.49823L54.9085 6.84098C54.3577 5.11806 52.7289 3.71289 49.6763 3.71289C46.9224 3.71289 45.0638 5.11806 45.0638 7.1812C45.0638 9.10795 46.4179 9.7884 48.6893 10.2868L50.6169 10.7177C51.6267 10.944 52.2003 11.2842 52.2003 11.9873C52.2003 12.775 51.4401 13.2089 50.2725 13.2089C48.936 13.2089 47.9755 12.6177 47.565 11.3299L44.7656 11.9422C45.2936 13.8915 46.9687 15.547 50.1808 15.547C53.3928 15.547 54.9996 13.8922 54.9996 11.829C54.9996 10.0612 53.7835 9.13115 51.5804 8.67778L51.5811 8.67635Z" fill="#989898"/>
<path d="M41.0023 0.462891H38.1641V11.5287C38.1641 13.977 39.3501 15.2466 41.8513 15.2466H43.5263V12.685H42.1957C41.4385 12.685 41.0023 12.2766 41.0023 11.5062V6.17499H43.5263V3.70414H41.0023V0.462891Z" fill="#989898"/>
<path d="M61.6531 3.71289C58.4623 3.71289 55.875 6.36144 55.875 9.62956C55.875 12.8976 58.4623 15.5462 61.6531 15.5462C64.8434 15.5462 67.4308 12.8976 67.4308 9.62956C67.4308 6.36144 64.8434 3.71289 61.6531 3.71289ZM61.6531 12.8788C59.9251 12.8788 58.524 11.4235 58.524 9.62882C58.524 7.83407 59.9251 6.37887 61.6531 6.37887C63.3811 6.37887 64.7817 7.83407 64.7817 9.62882C64.7817 11.4235 63.3811 12.8788 61.6531 12.8788Z" fill="#989898"/>
<path d="M26.0345 3.71301C24.8074 3.71301 23.3768 4.10547 22.4412 4.7736V0.455078H19.3438V15.2482H22.2011V14.0737L22.4259 14.0708L22.4486 14.1005C23.3394 15.1416 24.6965 15.5471 26.0338 15.5471C29.2245 15.5471 31.8117 12.8985 31.8117 9.63037C31.8117 6.36232 29.2245 3.71374 26.0338 3.71374L26.0345 3.71301ZM25.74 12.987C24.012 12.987 22.6109 11.4839 22.6109 9.62969C22.6109 7.77546 24.012 6.27237 25.74 6.27237C27.4679 6.27237 29.0197 7.77546 29.0197 9.62969C29.0197 11.4839 27.4679 12.987 25.74 12.987Z" fill="#989898"/>
</g>
<defs>
<clipPath id="clip0_1042_40897">
<rect width="67.4286" height="16" fill="white"/>
</clipPath>
</defs>
</svg>
