<svg preserveAspectRatio="none" width="100%" height="100%" overflow="visible" style="display: block;" viewBox="0 0 67.4286 16" fill="none" xmlns="http://www.w3.org/2000/svg">
<g id="Frame" clip-path="url(#clip0_0_360)">
<path id="Vector" d="M-0.00111618 7.99514C-0.00111618 12.2919 3.77935 15.7145 7.81317 15.7145C8.18254 15.7145 8.77883 15.6339 9.58808 15.4751C9.68871 15.4555 9.7614 15.3685 9.7614 15.2677V11.4823C9.7614 11.3655 9.66523 11.2705 9.54768 11.2705H7.7074C5.81351 11.2705 4.35141 9.7536 4.35141 7.88274V0.497039C4.35141 0.380244 4.25595 0.285937 4.13772 0.285937H0.212581C0.0943501 0.285937 -0.00111618 0.380244 -0.00111618 0.497039V7.99514Z" fill="var(--fill-0, #989898)"/>
<path id="Vector_2" d="M15.4722 7.92262C15.4722 3.62584 12.1625 0.285937 7.81369 0.285937H6.08135C5.96312 0.285937 5.86763 0.380244 5.86763 0.496313C5.86763 1.19926 5.86763 3.51631 5.86763 4.22651C5.86763 4.34258 5.96312 4.43688 6.08061 4.43688H7.69398C9.71272 4.43688 11.2754 5.97337 11.2754 7.96759L11.2769 14.6249C11.2769 14.7852 11.4553 14.8861 11.5934 14.8012C14.0153 13.3163 15.4722 10.5254 15.4722 7.92262Z" fill="var(--fill-0, #989898)"/>
<path id="Vector_3" d="M36.1211 0.4625H32.9083V3.18289H36.1211V0.4625Z" fill="var(--fill-0, #989898)"/>
<path id="Vector_4" d="M36.0762 4.96016H32.9551V15.2447H36.0762V4.96016Z" fill="var(--fill-0, #989898)"/>
<path id="Vector_5" d="M51.58 8.67674L49.1934 8.17834C48.39 7.99697 47.8392 7.72491 47.8392 7.0452C47.8392 6.4228 48.5647 6.05062 49.5834 6.05062C50.7877 6.05062 51.6433 6.48228 52.039 7.49862L54.9074 6.84137C54.3566 5.11845 52.7278 3.71328 49.6751 3.71328C46.9213 3.71328 45.0627 5.11845 45.0627 7.18159C45.0627 9.10834 46.4167 9.7888 48.6882 10.2872L50.6158 10.7181C51.6255 10.9444 52.1991 11.2846 52.1991 11.9877C52.1991 12.7754 51.439 13.2093 50.2714 13.2093C48.9349 13.2093 47.9743 12.6181 47.5639 11.3303L44.7645 11.9426C45.2925 13.8919 46.9675 15.5474 50.1797 15.5474C53.3917 15.5474 54.9985 13.8926 54.9985 11.8294C54.9985 10.0616 53.7823 9.13154 51.5793 8.67817L51.58 8.67674Z" fill="var(--fill-0, #989898)"/>
<path id="Vector_6" d="M41.0028 0.4625H38.1645V11.5283C38.1645 13.9767 39.3505 15.2462 41.8517 15.2462H43.5268V12.6846H42.1961C41.439 12.6846 41.0028 12.2763 41.0028 11.5059V6.1746H43.5268V3.70375H41.0028V0.4625Z" fill="var(--fill-0, #989898)"/>
<path id="Vector_7" d="M61.652 3.7125C58.4611 3.7125 55.8739 6.36105 55.8739 9.62917C55.8739 12.8972 58.4611 15.5459 61.652 15.5459C64.8423 15.5459 67.4297 12.8972 67.4297 9.62917C67.4297 6.36105 64.8423 3.7125 61.652 3.7125ZM61.652 12.8784C59.924 12.8784 58.5229 11.4231 58.5229 9.62843C58.5229 7.83368 59.924 6.37848 61.652 6.37848C63.38 6.37848 64.7806 7.83368 64.7806 9.62843C64.7806 11.4231 63.38 12.8784 61.652 12.8784Z" fill="var(--fill-0, #989898)"/>
<path id="Vector_8" d="M26.0334 3.71262C24.8063 3.71262 23.3757 4.10508 22.4401 4.77321V0.454688H19.3426V15.2478H22.2V14.0733L22.4248 14.0704L22.4475 14.1002C23.3383 15.1412 24.6954 15.5467 26.0327 15.5467C29.2234 15.5467 31.8106 12.8981 31.8106 9.62998C31.8106 6.36193 29.2234 3.71335 26.0327 3.71335L26.0334 3.71262ZM25.7389 12.9866C24.0109 12.9866 22.6098 11.4835 22.6098 9.6293C22.6098 7.77507 24.0109 6.27198 25.7389 6.27198C27.4668 6.27198 29.0186 7.77507 29.0186 9.6293C29.0186 11.4835 27.4668 12.9866 25.7389 12.9866Z" fill="var(--fill-0, #989898)"/>
</g>
<defs>
<clipPath id="clip0_0_360">
<rect width="67.4286" height="16" fill="white"/>
</clipPath>
</defs>
</svg>
