<svg width="37" height="20" viewBox="0 0 37 20" fill="none" xmlns="http://www.w3.org/2000/svg">
<g clip-path="url(#clip0_1042_40891)">
<path d="M2.07691 8.7098C2.02691 9.5378 2.07691 10.3658 2.07691 11.1698V19.0018H6.47691V11.8218C6.47691 9.5878 6.45191 7.6048 6.47691 7.1778C6.55291 5.2698 7.08091 3.9898 8.06191 2.9598H7.83591C6.77615 2.96622 5.73826 3.26188 4.83421 3.81488C3.93016 4.36789 3.19426 5.15724 2.70591 6.0978C2.27791 6.9268 2.12591 7.8048 2.07591 8.7088M12.1689 1.2168C10.5339 1.2168 9.12591 1.8698 8.06891 2.9488C11.3389 2.9488 13.4769 5.1828 13.5769 8.7238C13.6029 9.5278 13.6269 13.8958 13.6269 13.8958V18.9918H18.0289V12.1118C18.0289 10.0288 18.0539 8.2218 17.9029 6.9918C17.4759 3.5258 15.3629 1.2168 12.1689 1.2168ZM35.3559 11.9198C35.4059 11.0898 35.3559 10.2618 35.3559 9.4588V1.6258H30.9539V8.8058C30.9539 11.0398 30.9789 13.0238 30.9539 13.4508C30.8789 15.3838 30.3499 16.6378 29.3439 17.6928H29.5699C31.7079 17.6928 33.7199 16.4628 34.7009 14.5548C35.1539 13.7008 35.3039 12.8218 35.3549 11.9188" fill="#989898"/>
<path d="M25.2756 19.4C26.9106 19.4 28.3186 18.748 29.3756 17.668C26.1056 17.668 23.9676 15.434 23.8676 11.893C23.8426 11.09 23.8176 9.05598 23.8176 6.72198V1.62598H19.4156V8.50498C19.4156 10.589 19.3906 12.396 19.5416 13.626C19.9696 17.091 22.0816 19.4 25.2756 19.4Z" fill="#989898"/>
</g>
<defs>
<clipPath id="clip0_1042_40891">
<rect width="37" height="20" fill="white"/>
</clipPath>
</defs>
</svg>
