<svg width="73" height="16" viewBox="0 0 73 16" fill="none" xmlns="http://www.w3.org/2000/svg">
<g clip-path="url(#clip0_1042_40894)">
<path fill-rule="evenodd" clip-rule="evenodd" d="M49.6137 0H52.4813V15.8769H49.6137V0ZM72.7273 6.69538V4.23385H69.7856V1.03385H66.918V12.7262C66.918 13.8092 67.1899 14.6215 67.7338 15.1631C68.2776 15.7046 69.0934 15.9754 70.2058 15.9754H72.7273V13.5138H70.8733C70.4777 13.5138 70.1811 13.4154 70.008 13.2431C69.8597 13.0954 69.7608 12.6769 69.7608 12.2338V6.69538H72.7273ZM30.2083 12.7754L33.15 4.20923H36.1412L31.8893 15.8523H28.5026L24.2507 4.23385H27.2418L30.2083 12.7754ZM62.2706 10.0431C62.2706 10.7815 62.147 11.4215 61.9492 11.9385C61.7267 12.4554 61.4054 12.8738 61.0098 13.1446C60.6143 13.4154 60.1199 13.5385 59.5513 13.5385C58.7356 13.5385 58.1175 13.2677 57.722 12.7508C57.3265 12.2092 57.104 11.4215 57.104 10.3631V4.20923H54.2365V10.6585C54.2365 11.6677 54.3601 12.5292 54.6073 13.1938C54.8545 13.8831 55.2005 14.4246 55.6208 14.8431C56.041 15.2615 56.5354 15.5569 57.104 15.7292C57.6479 15.9015 58.2412 16 58.8592 16C59.7491 16 60.4907 15.8277 61.0593 15.5323C61.5784 15.2369 61.9986 14.8923 62.3447 14.5231L62.5919 15.8769H65.0887V4.23385H62.2211V10.0431H62.2706ZM45.2382 4.82462C44.3483 4.33231 43.2606 4.08615 42.074 4.08615C40.8875 4.08615 39.8245 4.33231 38.9098 4.82462C37.9952 5.31692 37.2783 6.03077 36.7839 6.91692C36.2895 7.80308 36.0423 8.86154 36.0423 10.0431C36.0423 11.2246 36.2895 12.2585 36.7839 13.1446C37.2783 14.0308 37.9952 14.7446 38.9098 15.2369C39.8245 15.7292 40.8875 15.9754 42.074 15.9754C43.2853 15.9754 44.3483 15.7292 45.2382 15.2369C46.1282 14.7446 46.8451 14.0308 47.3395 13.1446C47.8339 12.2585 48.0811 11.2 48.0811 10.0431C48.0811 8.86154 47.8339 7.80308 47.3395 6.91692C46.8698 6.03077 46.1529 5.34154 45.2382 4.82462ZM43.7303 13.1446C43.2606 13.44 42.7168 13.5877 42.074 13.5877C41.4313 13.5877 40.8875 13.44 40.4178 13.1446C39.9481 12.8492 39.5773 12.4308 39.3301 11.8892C39.0829 11.3477 38.9346 10.7323 38.9346 10.0431C38.9346 9.32923 39.0582 8.71385 39.3301 8.19692C39.5773 7.68 39.9481 7.23692 40.4178 6.94154C40.8875 6.64615 41.4313 6.47385 42.074 6.47385C42.7168 6.47385 43.2853 6.62154 43.7303 6.94154C44.2 7.23692 44.5461 7.68 44.818 8.19692C45.0652 8.71385 45.2135 9.35385 45.2135 10.0431C45.2135 10.7323 45.0899 11.3477 44.818 11.8892C44.5708 12.4308 44.2 12.8492 43.7303 13.1446ZM2.96644 3.91385H0V15.8523H2.96644V3.91385ZM12.286 4.60308C12.286 2.06769 10.2095 0 7.66331 0H0V2.56H7.2925C8.45436 2.56 9.39373 3.47077 9.41845 4.57846C9.41845 5.14462 9.22069 5.66154 8.82517 6.05538C8.42964 6.42462 7.91051 6.64615 7.36666 6.64615H4.52382C4.42494 6.64615 4.35078 6.72 4.35078 6.81846V9.10769C4.35078 9.15692 4.35078 9.18154 4.3755 9.20615L9.19597 15.8523H12.731L7.88579 9.18154C10.3084 9.08308 12.286 7.04 12.286 4.60308ZM21.4078 4.77538C20.5426 4.33231 19.5291 4.08615 18.3919 4.08615C17.2548 4.08615 16.2166 4.33231 15.3513 4.82462C14.4614 5.31692 13.794 6.03077 13.2995 6.91692C12.8051 7.80308 12.5827 8.86154 12.5827 10.0677C12.5827 11.2492 12.8299 12.2831 13.3243 13.1692C13.8187 14.0554 14.5356 14.7692 15.4255 15.2369C16.3402 15.7292 17.4278 15.9754 18.6639 15.9754C19.6527 15.9754 20.5179 15.8031 21.2842 15.4338C22.0506 15.0646 22.6686 14.5723 23.1135 13.9569C23.5585 13.3662 23.8551 12.7262 24.0035 12.0123L24.0282 11.9385H21.1359L21.1112 11.9877C20.9629 12.5292 20.6415 12.9477 20.2212 13.2431C19.7516 13.5631 19.1583 13.7354 18.4908 13.7354C17.9223 13.7354 17.4031 13.6123 16.9582 13.3662C16.5132 13.12 16.1671 12.7754 15.9199 12.3569C15.6727 11.9138 15.5491 11.3969 15.4997 10.8062V10.7077H24.0776V10.6585C24.1023 10.4862 24.1271 10.3138 24.1271 10.1662C24.1271 9.99385 24.1271 9.84615 24.1271 9.67385C24.1023 8.54154 23.8551 7.55692 23.3855 6.72C22.9405 5.85846 22.2483 5.21846 21.4078 4.77538ZM20.3696 6.96615C20.864 7.38462 21.1606 7.95077 21.2842 8.68923H15.6233C15.6974 8.22154 15.8457 7.80308 16.0929 7.45846C16.3649 7.08923 16.6862 6.81846 17.1065 6.62154C17.502 6.42462 17.947 6.32615 18.4167 6.32615C19.2077 6.32615 19.8504 6.54769 20.3696 6.96615Z" fill="#989898"/>
</g>
<defs>
<clipPath id="clip0_1042_40894">
<rect width="72.7273" height="16" fill="white"/>
</clipPath>
</defs>
</svg>
