<svg width="68" height="20" viewBox="0 0 68 20" fill="none" xmlns="http://www.w3.org/2000/svg">
<g clip-path="url(#clip0_1042_40885)">
<mask id="mask0_1042_40885" style="mask-type:luminance" maskUnits="userSpaceOnUse" x="0" y="0" width="68" height="20">
<path d="M0.140625 0.506836H67.0446V19.7068H0.140625V0.506836Z" fill="white"/>
</mask>
<g mask="url(#mask0_1042_40885)">
<path d="M19.8135 6.18568C16.3095 6.18568 13.4423 9.06568 13.4423 12.5857C13.4423 16.1057 16.3095 18.9857 19.8143 18.9857C23.3183 18.9857 26.1855 16.1057 26.1855 12.5857C26.1855 9.06568 23.3175 6.18568 19.8135 6.18568ZM22.9207 12.5057C22.9207 14.2657 21.5671 15.7057 19.8943 15.7057C18.2223 15.7057 16.8679 14.2657 16.8679 12.5057C16.8679 10.7457 18.2215 9.30568 19.8943 9.30568C21.5663 9.30568 22.9215 10.7457 22.9215 12.5057M42.1175 6.42568C42.0375 6.34568 41.9575 6.34568 41.8775 6.34568H39.3295C39.1695 6.34568 39.0111 6.50568 39.0111 6.66568V18.2657C39.0111 18.3457 39.0111 18.4257 39.0911 18.5057C39.1703 18.5857 39.2495 18.5857 39.3295 18.5857H41.8783C42.0375 18.5857 42.1967 18.4257 42.1967 18.2657V6.66568C42.1967 6.58568 42.1975 6.50568 42.1175 6.42568ZM40.6031 4.82568C41.5591 4.82568 42.3551 4.02568 42.3551 3.06568C42.4351 2.10568 41.5591 1.30568 40.6031 1.30568C39.6471 1.30568 38.8511 2.10568 38.8511 3.06568C38.8511 4.10568 39.6471 4.82568 40.6031 4.82568ZM37.1783 1.54568H27.8583C27.6991 1.54568 27.5399 1.70568 27.5399 1.86568V18.2657C27.5399 18.3457 27.5399 18.4257 27.6199 18.5057C27.6999 18.5857 27.7791 18.5857 27.8583 18.5857H30.4071C30.5671 18.5857 30.7255 18.4257 30.7255 18.2657V11.6257H36.4607C36.5407 11.6257 36.6199 11.6257 36.6991 11.5457C36.7791 11.4657 36.7791 11.3857 36.7791 11.3057V8.90568C36.7791 8.74568 36.6191 8.58568 36.4607 8.58568H30.7255V4.58568H37.1775C37.2575 4.58568 37.3367 4.58568 37.4159 4.50568C37.4959 4.42568 37.4959 4.34568 37.4959 4.26568V1.86568C37.4959 1.70568 37.3367 1.54568 37.1783 1.54568ZM7.46866 8.66568C4.91986 7.54568 4.12306 7.06568 4.12306 6.10568C4.12306 4.82568 5.31826 4.42568 6.43266 4.42568C7.62786 4.42568 8.90226 5.06568 8.90226 6.82568C8.90226 6.98568 8.98173 7.06568 9.14066 7.06568H11.9287C12.0087 6.98568 12.0887 6.90568 12.0887 6.82568C12.0887 3.62568 9.77826 1.30568 6.43266 1.30568C3.08786 1.30568 0.936663 3.22568 0.936663 6.10568C0.936663 9.54568 3.48626 10.5857 5.95506 11.5457L6.11506 11.6257C8.42466 12.5057 9.22066 12.9057 9.22066 14.0257C9.22066 15.5457 7.62786 15.7857 6.75186 15.7857C5.07906 15.7857 3.80466 14.5857 3.80466 12.9857V12.8257C3.80466 12.6657 3.72493 12.5857 3.56546 12.5857H0.778263C0.698263 12.5857 0.539062 12.6657 0.539062 12.8257V13.0657C0.539062 16.5857 3.08786 18.9857 6.67186 18.9857C10.0967 18.9857 12.4071 16.9857 12.4071 14.1057C12.4871 11.1457 10.9727 10.1057 7.46866 8.66568ZM62.5055 2.02568C62.7683 2.02364 63.0288 2.07404 63.2719 2.17394C63.515 2.27383 63.7357 2.42122 63.9211 2.60746C64.1066 2.7937 64.253 3.01506 64.3518 3.25858C64.4506 3.5021 64.4999 3.76289 64.4967 4.02568C64.4967 5.14568 63.6207 6.02568 62.5055 6.02568C62.2427 6.02772 61.9821 5.97731 61.739 5.87742C61.4959 5.77752 61.2752 5.63014 61.0898 5.4439C60.9044 5.25765 60.758 5.03629 60.6591 4.79277C60.5603 4.54925 60.5111 4.28847 60.5143 4.02568C60.5143 2.90568 61.3903 2.02568 62.5055 2.02568ZM62.5055 1.30568C60.9919 1.30568 59.7175 2.58568 59.7175 4.10568C59.7175 5.62568 60.9919 6.90568 62.5055 6.90568C64.0191 6.90568 65.2935 5.62568 65.2935 4.10568C65.2935 2.58568 64.0191 1.30568 62.5055 1.30568ZM63.8327 12.5585C64.4827 12.2014 64.9651 11.6016 65.1745 10.8901C65.3839 10.1786 65.3033 9.41316 64.9503 8.76088C64.7764 8.43825 64.5405 8.15315 64.2561 7.92197C63.9718 7.6908 63.6445 7.5181 63.2932 7.4138C62.9418 7.3095 62.5733 7.27565 62.2089 7.31421C61.8444 7.35277 61.4912 7.46297 61.1695 7.63848C60.5194 7.99557 60.037 8.59533 59.8276 9.30684C59.6183 10.0183 59.6989 10.7838 60.0519 11.4361C60.2258 11.7586 60.4617 12.0437 60.7461 12.2748C61.0305 12.5058 61.3578 12.6785 61.7091 12.7827C62.0605 12.8869 62.4289 12.9207 62.7934 12.8821C63.1578 12.8435 63.511 12.7332 63.8327 12.5577M63.8295 18.5593C64.4794 18.202 64.9616 17.6022 65.1708 16.8907C65.3801 16.1792 65.2993 15.4139 64.9463 14.7617C64.7724 14.439 64.5365 14.1539 64.2521 13.9228C63.9678 13.6916 63.6405 13.5189 63.2892 13.4146C62.9378 13.3103 62.5694 13.2765 62.2049 13.315C61.8404 13.3536 61.4872 13.4638 61.1655 13.6393C60.5154 13.9964 60.033 14.5961 59.8236 15.3076C59.6143 16.0191 59.6949 16.7846 60.0479 17.4369C60.2217 17.7596 60.4576 18.0448 60.7421 18.276C61.0265 18.5073 61.3539 18.68 61.7053 18.7843C62.0567 18.8886 62.4253 18.9225 62.7898 18.8838C63.1544 18.8452 63.5077 18.7349 63.8295 18.5593ZM56.5319 8.10568C57.0895 8.10568 57.5671 8.34568 57.9655 8.66568C58.3639 9.06568 58.5231 9.54568 58.5231 10.1057C58.5231 11.2257 57.6471 12.1057 56.5319 12.1057C55.9743 12.1057 55.4967 11.8657 55.0983 11.5457C54.6999 11.1457 54.5407 10.6657 54.5407 10.1057C54.4607 8.98568 55.4167 8.10568 56.5319 8.10568ZM56.5319 7.30568C55.0183 7.30568 53.7439 8.58568 53.7439 10.1057C53.7439 11.6257 55.0183 12.9057 56.5319 12.9057C58.0455 12.9057 59.3199 11.6257 59.3199 10.1057C59.3199 8.58568 58.0455 7.30568 56.5319 7.30568ZM53.0887 11.2177C53.3883 10.5393 53.4072 9.76995 53.1411 9.07777C52.875 8.38559 52.3456 7.82696 51.6687 7.52408C51.3337 7.37553 50.9727 7.29458 50.6063 7.28586C50.24 7.27714 49.8755 7.34084 49.5339 7.47328C49.1922 7.60573 48.88 7.80432 48.6153 8.05768C48.3505 8.31103 48.1384 8.61416 47.9911 8.94968C47.6911 9.62809 47.6722 10.3977 47.9383 11.0901C48.2044 11.7824 48.734 12.3412 49.4111 12.6441C49.7461 12.7926 50.1072 12.8735 50.4735 12.8822C50.8399 12.8908 51.2044 12.8271 51.5461 12.6945C51.8877 12.562 52.1999 12.3633 52.4646 12.1099C52.7293 11.8565 52.9414 11.5533 53.0887 11.2177ZM59.0743 5.22088C59.3742 4.54246 59.3932 3.77286 59.127 3.08049C58.8609 2.38812 58.3314 1.82936 57.6543 1.52648C57.3192 1.37796 56.9582 1.29704 56.5918 1.28838C56.2254 1.27972 55.8609 1.34348 55.5193 1.476C55.1776 1.60853 54.8654 1.80721 54.6007 2.06064C54.336 2.31408 54.1239 2.61729 53.9767 2.95288C53.677 3.6312 53.6582 4.4006 53.9243 5.09278C54.1904 5.78496 54.7198 6.34359 55.3967 6.64648C55.7316 6.79502 56.0927 6.87598 56.459 6.88469C56.8253 6.89341 57.1898 6.82972 57.5315 6.69727C57.8731 6.56482 58.1853 6.36623 58.45 6.11287C58.7148 5.85952 58.9269 5.55639 59.0743 5.22088ZM53.0959 5.21288C53.3955 4.53455 53.4144 3.76515 53.1483 3.07297C52.8822 2.38079 52.3528 1.82216 51.6759 1.51928C51.3409 1.37073 50.9799 1.28978 50.6135 1.28106C50.2472 1.27234 49.8827 1.33604 49.5411 1.46848C49.1994 1.60093 48.8872 1.79952 48.6225 2.05288C48.3577 2.30623 48.1456 2.60936 47.9983 2.94488C47.6983 3.62329 47.6794 4.39289 47.9455 5.08526C48.2116 5.77763 48.7412 6.33639 49.4183 6.63928C49.7533 6.7878 50.1144 6.86871 50.4807 6.87737C50.8471 6.88603 51.2116 6.82227 51.5533 6.68975C51.8949 6.55723 52.2071 6.35855 52.4718 6.10511C52.7365 5.85167 52.9486 5.54846 53.0959 5.21288ZM59.0599 17.2297C59.3598 16.5513 59.3788 15.7817 59.1126 15.0893C58.8465 14.3969 58.317 13.8382 57.6399 13.5353C57.3048 13.3868 56.9438 13.3058 56.5774 13.2972C56.211 13.2885 55.8465 13.3523 55.5049 13.4848C55.1632 13.6173 54.851 13.816 54.5863 14.0694C54.3216 14.3229 54.1095 14.6261 53.9623 14.9617C53.6626 15.64 53.6438 16.4094 53.9099 17.1016C54.176 17.7938 54.7054 18.3524 55.3823 18.6553C55.7172 18.8038 56.0783 18.8848 56.4446 18.8935C56.8109 18.9022 57.1754 18.8385 57.5171 18.7061C57.8587 18.5736 58.1709 18.375 58.4356 18.1217C58.7004 17.8683 58.9125 17.5652 59.0599 17.2297ZM50.5583 14.1057C51.1159 14.1057 51.5935 14.3457 51.9919 14.6657C52.3903 15.0657 52.5495 15.5457 52.5495 16.1057C52.5495 17.2257 51.6735 18.1057 50.5583 18.1057C50.2955 18.1077 50.0349 18.0573 49.7918 17.9574C49.5487 17.8575 49.328 17.7101 49.1426 17.5239C48.9572 17.3377 48.8108 17.1163 48.7119 16.8728C48.6131 16.6293 48.5639 16.3685 48.5671 16.1057C48.4871 14.9857 49.4423 14.1057 50.5583 14.1057ZM50.5591 13.3057C49.0455 13.3057 47.7711 14.5857 47.7711 16.1057C47.7711 17.6257 49.0455 18.9057 50.5591 18.9057C52.0727 18.9057 53.3471 17.6257 53.3471 16.1057C53.3471 14.5857 52.0727 13.3057 50.5591 13.3057Z" fill="#989898"/>
</g>
</g>
<defs>
<clipPath id="clip0_1042_40885">
<rect width="67.2" height="20" fill="white"/>
</clipPath>
</defs>
</svg>
