<svg preserveAspectRatio="none" width="100%" height="100%" overflow="visible" style="display: block;" viewBox="0 0 88.889 16.001" fill="none" xmlns="http://www.w3.org/2000/svg">
<g id="Group">
<path id="Vector" d="M17.94 4.467C14.711 4.467 12.188 6.937 12.188 10.244C12.188 13.551 14.648 15.999 17.94 15.999C21.233 15.999 23.735 13.508 23.735 10.223C23.735 6.958 21.275 4.467 17.94 4.467ZM17.962 13.617C16.123 13.617 14.775 12.177 14.775 10.244C14.775 8.29 16.101 6.852 17.94 6.852C19.8 6.852 21.147 8.312 21.147 10.244C21.147 12.177 19.801 13.617 17.962 13.617ZM24.44 6.98H26.044V15.785H28.61V4.682H24.44V6.98ZM5.73 6.85C7.078 6.85 8.147 7.688 8.553 8.934H11.269C10.777 6.271 8.596 4.467 5.752 4.467C2.523 4.467 0 6.937 0 10.244C0 13.551 2.46 16 5.752 16C8.532 16 10.756 14.196 11.248 11.511H8.553C8.168 12.757 7.099 13.616 5.751 13.616C3.891 13.616 2.587 12.177 2.587 10.244C2.587 8.29 3.871 6.85 5.73 6.85ZM73.194 9.171L71.312 8.893C70.414 8.764 69.772 8.463 69.772 7.754C69.772 6.981 70.607 6.594 71.74 6.594C72.98 6.594 73.771 7.131 73.942 8.012H76.422C76.144 5.779 74.434 4.469 71.804 4.469C69.088 4.469 67.292 5.865 67.292 7.84C67.292 9.73 68.468 10.826 70.842 11.169L72.723 11.448C73.643 11.576 74.156 11.942 74.156 12.629C74.156 13.509 73.258 13.875 72.018 13.875C70.499 13.875 69.644 13.252 69.516 12.307H66.993C67.228 14.477 68.917 16.001 71.996 16.001C74.798 16.001 76.657 14.712 76.657 12.5C76.657 10.524 75.311 9.493 73.194 9.171ZM27.327 0.107C26.387 0.107 25.68 0.794 25.68 1.739C25.68 2.684 26.386 3.371 27.327 3.371C28.268 3.371 28.974 2.684 28.974 1.739C28.974 0.794 28.268 0.107 27.327 0.107ZM64.983 8.483C64.983 6.078 63.529 4.468 60.45 4.468C57.542 4.468 55.917 5.95 55.595 8.226H58.14C58.269 7.346 58.953 6.616 60.407 6.616C61.712 6.616 62.353 7.196 62.353 7.904C62.353 8.828 61.177 9.064 59.723 9.214C57.755 9.429 55.318 10.116 55.318 12.694C55.318 14.691 56.794 15.979 59.146 15.979C60.985 15.979 62.139 15.206 62.717 13.981C62.803 15.076 63.615 15.785 64.749 15.785H66.246V13.488H64.984L64.983 8.483ZM62.46 11.275C62.46 12.758 61.177 13.853 59.615 13.853C58.653 13.853 57.84 13.445 57.84 12.586C57.84 11.491 59.145 11.19 60.342 11.062C61.497 10.954 62.139 10.697 62.46 10.202V11.275ZM48.839 4.467C47.406 4.467 46.209 5.069 45.353 6.077V0H42.787V15.785H45.31V14.325C45.7317 14.8549 46.269 15.2814 46.8808 15.5717C47.4927 15.862 48.1628 16.0085 48.84 16C51.919 16 54.25 13.552 54.25 10.244C54.25 6.937 51.875 4.467 48.839 4.467ZM48.455 13.617C46.615 13.617 45.268 12.177 45.268 10.244C45.268 8.312 46.637 6.852 48.476 6.852C50.336 6.852 51.64 8.291 51.64 10.244C51.64 12.177 50.294 13.617 48.455 13.617ZM36.65 4.466C34.982 4.466 33.891 5.153 33.25 6.12V4.68H30.705V15.784H33.271V9.75C33.271 8.053 34.34 6.85 35.922 6.85C37.398 6.85 38.317 7.903 38.317 9.428V15.785H40.883V9.235C40.883 6.443 39.452 4.466 36.65 4.466ZM88.889 9.879C88.889 6.701 86.579 4.468 83.479 4.468C80.186 4.468 77.769 6.958 77.769 10.244C77.769 13.702 80.357 16 83.521 16C86.195 16 88.291 14.41 88.824 12.156H86.151C85.766 13.144 84.825 13.702 83.564 13.702C81.917 13.702 80.677 12.672 80.399 10.867H88.889V9.879ZM80.549 9.02C80.956 7.474 82.11 6.722 83.436 6.722C84.89 6.722 86.002 7.56 86.258 9.02H80.549Z" fill="var(--fill-0, #989898)"/>
</g>
</svg>
