<svg width="70" height="20" viewBox="0 0 70 20" fill="none" xmlns="http://www.w3.org/2000/svg">
<g clip-path="url(#clip0_1508_62211)">
<path d="M25.3194 14.0019L22.0263 5.2085C22.0144 5.17261 21.9784 5.13672 21.9305 5.13672H19.7392C19.6913 5.13672 19.6553 5.16065 19.6434 5.19654L16.3144 13.9899C16.2904 14.0617 16.3383 14.1215 16.4102 14.1215H18.3142C18.3621 14.1215 18.398 14.0976 18.41 14.0497L19.0087 12.3628C19.0207 12.327 19.0566 12.2911 19.1045 12.2911H22.4574C22.5053 12.2911 22.5413 12.315 22.5532 12.3628L23.152 14.0497C23.1639 14.0856 23.1999 14.1215 23.2478 14.1215H25.2236C25.2954 14.1455 25.3433 14.0737 25.3194 14.0019ZM21.8108 10.4845H19.7631C19.7272 10.4845 19.7032 10.4486 19.7152 10.4128L20.757 7.50555C20.769 7.45769 20.8408 7.45769 20.8528 7.50555L21.8707 10.4128C21.8707 10.4486 21.8467 10.4845 21.8108 10.4845Z" fill="#989898"/>
<path d="M26.9001 4.77539C27.5347 4.77539 28.0496 5.27787 28.0496 5.89999C28.0496 6.5221 27.5347 7.02458 26.9001 7.02458C26.2894 7.02458 25.7744 6.5221 25.7744 5.89999C25.7744 5.27787 26.2894 4.77539 26.9001 4.77539Z" fill="#989898"/>
<path d="M25.9421 14.0371V7.93555C25.9421 7.87574 25.99 7.83984 26.0499 7.83984H27.7862C27.8461 7.83984 27.894 7.8877 27.894 7.93555V14.0371C27.894 14.0969 27.8461 14.1328 27.7862 14.1328H26.0499C25.99 14.1448 25.9421 14.0969 25.9421 14.0371Z" fill="#989898"/>
<path d="M32.8754 9.60976C32.8754 9.66958 32.8156 9.71743 32.7557 9.70547C32.5881 9.66958 32.4204 9.66958 32.2647 9.66958C31.4864 9.66958 30.7799 10.1242 30.7799 11.3804V14.0364C30.7799 14.0962 30.732 14.1321 30.6721 14.1321H28.9358C28.8759 14.1321 28.828 14.0842 28.828 14.0364V7.93483C28.828 7.87501 28.8759 7.83912 28.9358 7.83912H30.6122C30.6721 7.83912 30.72 7.88697 30.72 7.93483V8.68854C31.0553 7.98268 31.8576 7.7793 32.3725 7.7793C32.5282 7.7793 32.6839 7.79126 32.8036 7.82715C32.8515 7.83912 32.8874 7.87501 32.8874 7.92286V9.60976H32.8754Z" fill="#989898"/>
<path d="M39.7729 7.89795L40.9345 11.4153C40.9464 11.4632 41.0183 11.4632 41.0303 11.4153L42.0242 7.90992C42.0361 7.86206 42.0721 7.83814 42.12 7.83814H43.8084C43.8802 7.83814 43.9281 7.90992 43.9042 7.96974L42.0002 14.0713C41.9882 14.1191 41.9523 14.1431 41.9044 14.1431H40.1202C40.0723 14.1431 40.0364 14.1191 40.0244 14.0713L38.7191 10.207C38.7072 10.1591 38.6353 10.1591 38.6233 10.207L37.342 14.0713C37.3301 14.1072 37.2941 14.1431 37.2462 14.1431H35.4261C35.3782 14.1431 35.3423 14.1191 35.3303 14.0713L33.4023 7.96974C33.3784 7.90992 33.4263 7.83814 33.4981 7.83814H35.2944C35.3423 7.83814 35.3782 7.87403 35.3902 7.90992L36.3841 11.4033C36.396 11.4512 36.4679 11.4512 36.4799 11.4033L37.6534 7.89795C37.6654 7.86206 37.7013 7.82617 37.7492 7.82617H39.6771C39.713 7.82617 39.749 7.86206 39.7729 7.89795Z" fill="#989898"/>
<path d="M50.5382 7.82619H48.8617C48.8019 7.82619 48.754 7.87404 48.754 7.9219V8.54401C48.6222 8.25688 48.1313 7.63477 46.9937 7.63477C45.1137 7.63477 43.9042 9.08238 43.9042 10.9607C43.9042 12.8988 45.1975 14.3106 47.0536 14.3106C47.8439 14.3106 48.4786 13.9277 48.7659 13.3176C48.7659 13.3535 48.754 13.82 48.754 14.0234C48.754 14.0832 48.8019 14.1311 48.8617 14.1311H50.5382C50.5981 14.1311 50.646 14.0832 50.646 14.0354V7.93386C50.646 7.87404 50.5981 7.82619 50.5382 7.82619ZM47.317 12.6476C46.5147 12.6476 45.8561 12.0135 45.8561 10.9727C45.8561 9.88396 46.4788 9.3097 47.317 9.3097C48.1073 9.3097 48.7659 9.88396 48.7659 10.9727C48.7659 12.0374 48.0954 12.6476 47.317 12.6476Z" fill="#989898"/>
<path d="M51.6159 14.0356V5.05079C51.6159 4.99097 51.6638 4.95508 51.7237 4.95508H53.46C53.5199 4.95508 53.5678 5.00293 53.5678 5.05079V14.0356C53.5678 14.0954 53.5199 14.1313 53.46 14.1313H51.7237C51.6638 14.1433 51.6159 14.0954 51.6159 14.0356Z" fill="#989898"/>
<path d="M54.4779 14.0356V5.05079C54.4779 4.99097 54.5258 4.95508 54.5857 4.95508H56.322C56.3819 4.95508 56.4298 5.00293 56.4298 5.05079V14.0356C56.4298 14.0954 56.3819 14.1313 56.322 14.1313H54.5857C54.5258 14.1433 54.4779 14.0954 54.4779 14.0356Z" fill="#989898"/>
<path d="M65.4347 10.9385L63.3631 7.99537C63.3152 7.92359 63.3631 7.83984 63.4469 7.83984H65.4826C65.5186 7.83984 65.5545 7.85181 65.5665 7.8877L66.6322 9.50281C66.6562 9.5387 66.6921 9.5387 66.716 9.50281L67.7578 7.8877C67.7818 7.86377 67.8057 7.83984 67.8417 7.83984H69.7576C69.8414 7.83984 69.8893 7.93555 69.8414 7.99537L67.8057 10.8667C67.7818 10.9026 67.7818 10.9504 67.8057 10.9863C68.4763 11.9315 69.2427 13.0321 69.9253 13.9892C69.9732 14.061 69.9253 14.1448 69.8414 14.1448H67.8177C67.7818 14.1448 67.7459 14.1328 67.7339 14.0969L66.6322 12.4339C66.6083 12.398 66.5723 12.398 66.5484 12.4339C66.2131 12.9245 65.782 13.6064 65.4587 14.0969C65.4347 14.1208 65.4108 14.1448 65.3749 14.1448H63.4948C63.411 14.1448 63.3631 14.0491 63.411 13.9892L65.4467 11.0581C65.4587 11.0102 65.4587 10.9744 65.4347 10.9385Z" fill="#989898"/>
<path d="M59.0043 11.4751H61.2197H63.3751C63.3871 11.4393 63.411 11.1402 63.411 10.877C63.411 8.84311 62.2016 7.63477 60.2258 7.63477C58.5732 7.63477 57.0644 8.92685 57.0644 10.9607C57.0644 13.0783 58.6211 14.3225 60.3694 14.3225C61.9501 14.3225 62.956 13.4372 63.2793 12.3724C63.2793 12.3605 63.2913 12.3246 63.3033 12.2648C63.3152 12.2049 63.2673 12.1451 63.2075 12.1451H61.5909C61.5549 12.1451 61.531 12.1571 61.507 12.193C61.2915 12.504 60.9323 12.6954 60.3934 12.6954C59.6629 12.6954 59.0283 12.2169 58.9564 11.535C58.9445 11.4991 58.9684 11.4751 59.0043 11.4751ZM60.2497 9.16613C61.1358 9.16613 61.4711 9.7045 61.519 10.1711C61.519 10.207 61.4951 10.2309 61.4711 10.2309H59.0403C59.0043 10.2309 58.9804 10.207 58.9924 10.1711C59.0522 9.71647 59.4594 9.16613 60.2497 9.16613Z" fill="#989898"/>
<path d="M13.8356 8.51888C13.3207 8.0164 12.6022 7.87284 11.9436 8.14801L8.97388 9.35635L5.74071 5.49204C5.27369 4.92975 4.55521 4.66654 3.83672 4.78618C3.11824 4.91778 2.53148 5.39633 2.28001 6.09023L0.112582 11.9286C-0.174811 12.6942 0.100608 13.5676 0.795142 14.0222C1.28611 14.3452 1.90879 14.3811 2.44766 14.1658L5.38147 12.9694C5.87243 12.766 6.14785 12.2157 5.9802 11.7132C5.80058 11.1629 5.18987 10.8757 4.66298 11.0911L2.43568 12.0123C2.33988 12.0482 2.23211 11.9525 2.26803 11.8568L4.10017 6.91574C4.13609 6.83199 4.25584 6.80806 4.31571 6.87984L9.94384 13.6035C10.327 14.0581 10.8779 14.3094 11.4527 14.3094C11.5844 14.3094 11.7041 14.2974 11.8358 14.2735C12.5304 14.1419 13.0932 13.6274 13.3327 12.9574L14.2667 10.4092C14.5182 9.73919 14.3505 9.0094 13.8356 8.51888ZM12.1232 10.457L11.5125 12.108C11.4766 12.2037 11.3569 12.2157 11.297 12.1439L10.3151 10.9715L11.9556 10.3015C12.0634 10.2536 12.1711 10.3493 12.1232 10.457Z" fill="#989898"/>
</g>
<defs>
<clipPath id="clip0_1508_62211">
<rect width="69.94" height="20" fill="white"/>
</clipPath>
</defs>
</svg>
