<svg xmlns="http://www.w3.org/2000/svg" width="20" height="20" viewBox="0 0 24 24" fill="none" stroke="currentColor" stroke-width="1.5" stroke-linecap="round" stroke-linejoin="round">
<path d="M4.75 8.25H5.75M18.25 15.75H19.25M1.75 15.75V8.25C1.75 6.59315 3.09315 5.25 4.75 5.25H19.25C20.9069 5.25 22.25 6.59315 22.25 8.25V15.75C22.25 17.4069 20.9069 18.75 19.25 18.75H4.75C3.09315 18.75 1.75 17.4069 1.75 15.75ZM14 12C14 13.1046 13.1046 14 12 14C10.8954 14 10 13.1046 10 12C10 10.8954 10.8954 10 12 10C13.1046 10 14 10.8954 14 12Z" stroke="currentColor" stroke-width="1.5" stroke-linecap="round" stroke-linejoin="round"/>
</svg>