<svg width="69" height="20" viewBox="0 0 69 20" fill="none" xmlns="http://www.w3.org/2000/svg">
<path d="M67.8007 7.57525C67.4367 6.91554 66.652 6.41519 65.7997 6.41519C65.0501 6.41519 64.3907 6.7222 64.3907 7.51823C64.3907 8.18854 65.2207 8.6432 66.0848 9.20056C67.0277 9.79156 68.0057 10.5185 68.0057 11.7809C68.0057 13.4292 66.4031 14.4405 64.5501 14.4405C63.7884 14.4405 62.9931 14.2929 62.0951 13.9519L62.2424 11.7579C62.6748 12.6336 63.4821 13.3265 64.6747 13.3265C65.5957 13.3265 66.2774 12.8836 66.2774 12.1102C66.2774 11.4509 65.72 11.0419 65.0387 10.6329C63.606 9.76927 62.6974 9.0752 62.6974 7.82524C62.6974 5.9492 64.2657 5.32422 65.891 5.32422C66.834 5.32422 67.4257 5.4949 68.0277 5.4949L67.8007 7.57525ZM59.8558 9.5412C59.6504 9.88256 59.3901 10.3478 59.23 10.6896C59.0941 11.3372 59.0257 12.2016 59.0257 13.1559C59.0257 13.5539 59.0941 14.0878 59.2757 14.2699H56.9004C57.3204 13.8722 57.4914 11.4289 57.4691 10.6556C57.1508 9.55325 56.7181 8.49591 56.0591 7.21123C55.6395 6.4046 55.1501 5.64219 54.8431 5.4949C55.3771 5.44994 56.0591 5.41559 56.3891 5.41559C56.9798 5.41559 57.1395 5.4949 57.5035 6.29092C58.0707 7.57561 58.4914 8.54086 58.7418 9.25758C59.3444 8.3139 59.7648 7.66624 60.3104 6.77958C60.4468 6.56358 60.5604 6.29092 60.5604 6.02924C60.5604 5.82421 60.5261 5.59724 60.4354 5.4949H62.7884C62.3338 5.59724 60.2874 8.81425 59.8558 9.5412ZM51.5921 7.55295L50.1832 10.6099H52.4788L51.5921 7.55295ZM54.3545 14.3492C53.6037 14.3492 53.5475 14.3269 52.9448 12.2582L52.7291 11.4965C52.3658 11.6669 51.7171 11.7465 50.6832 11.7465H49.6375L49.4555 12.1329C49.1942 12.7133 48.8418 13.3942 48.8418 13.8726C48.8418 13.9862 48.8532 14.1109 48.8988 14.2702H42.6925C43.0452 13.8726 43.1589 12.5883 43.3292 10.2575L43.3632 9.70092C43.4542 8.3709 43.5233 7.34791 43.5112 6.63229C43.4999 6.0413 43.4429 5.66595 43.2839 5.49564H45.6826C45.3412 5.75731 45.2158 7.16628 45.0572 9.49697L45.0115 10.0536C44.9545 10.9176 44.8412 11.8039 44.8412 12.6679C44.8412 13.0652 45.0002 13.1562 45.4099 13.1562C46.8642 13.1562 47.2286 13.1222 47.8872 12.6789C48.2962 11.9286 48.7629 10.9849 49.2168 10.0076L49.8316 8.70057C50.4109 7.47292 50.9788 6.22222 50.9788 5.98392C50.9788 5.81288 50.9335 5.65425 50.8659 5.4949H52.7752C52.7752 5.4949 53.5478 8.35957 53.7185 8.97286L54.0931 10.3599C54.7408 12.6902 55.1505 13.8265 55.6962 14.2699C55.2408 14.3269 54.5931 14.3492 54.3545 14.3492ZM38.8852 14.4405C36.6233 14.4405 35.3159 12.5766 35.3159 10.4852C35.3159 7.57561 36.8955 5.32422 39.9079 5.32422C40.8512 5.32422 41.2949 5.4949 42.0559 5.4949L41.8289 7.73423C41.3969 6.9499 40.6918 6.41556 39.7489 6.41556C37.8736 6.41556 37.1119 8.43925 37.1119 10.1782C37.1119 12.0649 38.1693 13.0988 39.5782 13.0988C40.3399 13.0988 41.0102 12.8942 42.1359 12.1102C41.6812 13.5656 40.6239 14.4405 38.8852 14.4405ZM31.0427 6.56358C30.8266 6.56358 30.5646 6.56358 30.3606 6.58624C30.2923 6.96123 30.2353 7.60924 30.1556 8.65453L30.1099 9.26892C30.2243 9.29193 30.3716 9.30363 30.5083 9.30363C31.5989 9.30363 32.3496 8.64357 32.3496 7.64395C32.3496 6.96123 31.8723 6.56358 31.0427 6.56358ZM34.2132 14.6452C33.5656 14.6452 33.4062 14.5425 33.1906 14.2468L30.7353 10.8368C30.5419 10.5755 30.3943 10.3595 30.0876 10.3595H30.0306L29.9857 11.0189C29.9283 11.9169 29.8943 12.6336 29.8943 13.1676C29.9056 13.7585 29.974 14.1218 30.1333 14.2699H27.7576C28.0983 13.9629 28.2229 12.9399 28.4166 10.2572L28.451 9.70054C28.542 8.38223 28.6103 7.35888 28.5986 6.64326C28.5869 6.01791 28.5193 5.63122 28.3483 5.4949H31.5876C32.6446 5.4949 34.0996 5.67727 34.0996 7.39323C34.0996 8.80219 33.1559 9.57556 31.9856 9.93884C32.0993 10.0415 32.3036 10.3029 32.4289 10.4622L34.2132 12.8266C35.3272 14.2929 35.4179 14.3609 35.8163 14.5655C35.3159 14.6222 34.6456 14.6452 34.2132 14.6452ZM23.1434 7.55295L21.7216 10.6099H24.029L23.1434 7.55295ZM25.9046 14.3492C25.155 14.3492 25.098 14.3269 24.4957 12.2582L24.2797 11.4965C23.9153 11.6669 23.2677 11.7465 22.2333 11.7465H21.1877L21.006 12.1329C20.824 12.5426 20.3807 13.3839 20.392 13.8726C20.392 13.9862 20.4033 14.0999 20.449 14.2702H18.3464C18.9487 13.6679 19.7104 12.2699 20.7674 10.0079L21.3814 8.70095C21.938 7.51896 22.5294 6.17763 22.5294 5.98429C22.5294 5.81325 22.4844 5.65462 22.4157 5.49527H24.3257C24.3257 5.49527 24.825 7.39359 25.2687 8.97323L25.6437 10.3602C26.2917 12.6906 26.7007 13.8269 27.2463 14.2702C26.7577 14.3269 26.1437 14.3492 25.9046 14.3492ZM15.0837 6.55225C14.913 6.55225 14.686 6.55225 14.47 6.57528C14.379 7.18892 14.322 7.77991 14.277 8.42757C14.277 8.42757 14.2427 8.98419 14.2427 8.96153H14.47C15.584 8.96153 16.6074 8.57522 16.6074 7.55295C16.6074 6.96123 16.1184 6.55225 15.0837 6.55225ZM14.8001 10.0302H14.1751L14.0841 11.3259C14.0388 11.8946 14.0157 12.3715 14.0044 12.9399C14.0044 13.0199 14.2544 13.1902 14.845 13.1902C16.0727 13.1902 16.88 12.5766 16.88 11.5645C16.88 10.4392 15.959 10.0302 14.8001 10.0302ZM14.9364 14.2699H11.8674C12.2541 13.9285 12.3564 12.5989 12.5267 10.2572L12.5607 9.71187C12.6521 8.38188 12.7201 7.35888 12.7088 6.64326C12.6974 6.02924 12.6291 5.63122 12.4584 5.4949H15.891C16.7094 5.4949 18.3464 5.54059 18.3464 7.24522C18.3464 8.38187 17.289 9.08653 16.323 9.33725C17.687 9.47358 18.71 10.1326 18.71 11.5419C18.7097 13.0648 17.2777 14.2699 14.9364 14.2699Z" fill="#989898"/>
<path d="M4.95989 4.26441C4.65581 4.26441 4.59295 4.31741 4.49427 4.42742C4.45374 4.425 4.41315 4.4239 4.37256 4.42413C4.13865 4.42413 3.83822 4.45848 3.58201 4.62989C3.33458 4.79327 3.21689 5.08236 3.34883 5.29398C3.34883 5.29398 3.43728 5.16424 3.72821 5.16424C3.76914 5.16424 3.81446 5.16862 3.86271 5.17264C4.26474 5.22015 4.56225 5.43177 4.52606 5.9906C4.4939 6.54906 4.28448 7.17185 3.42778 7.17916C3.42778 7.17916 3.3174 7.17916 3.19971 7.1682C2.80097 7.12471 2.67561 6.87434 2.67561 6.87434C2.67561 6.87434 3.02026 6.78078 3.02318 6.34329C3.02026 6.04578 2.76113 5.7735 2.38724 5.66349C2.25812 5.62703 2.12448 5.60907 1.99032 5.61013C1.54954 5.61013 1.05467 5.7947 0.720984 6.23036C-0.0355725 7.22923 -0.0969742 8.68533 0.0875964 10.0395C0.273264 11.3965 1.13398 12.6534 1.1592 12.6878C1.17748 12.7119 1.19392 12.7251 1.21256 12.7251C1.22362 12.7244 1.23409 12.7198 1.24217 12.7123C1.61387 12.3515 1.96839 11.8585 2.12007 11.5288C2.28234 11.6582 2.19755 11.9334 2.10837 12.2273C2.02358 12.5277 1.81744 12.9264 1.74288 13.0551C1.67088 13.1808 1.5744 13.327 1.70414 13.4034C1.71937 13.4121 1.7367 13.4164 1.75421 13.4158C1.92088 13.4158 2.31304 13.1253 2.75053 12.5419C3.24028 11.8855 3.48881 11.3029 3.48881 11.3029C3.52463 11.311 3.58457 11.3717 3.5747 11.5369C3.56812 11.7046 3.39561 12.3289 3.05973 12.91C2.72019 13.4907 2.40661 13.854 2.34338 13.9366C2.30427 13.9845 2.33753 14.0145 2.36275 14.0339C2.3876 14.0507 2.9881 14.6113 3.86051 15.085C4.89411 15.6358 5.35243 15.7348 5.35243 15.7348C5.35243 15.7348 5.80965 15.6383 6.84325 15.0879C7.7153 14.6135 8.31835 14.0503 8.34064 14.0313C8.36586 14.0141 8.39803 13.9871 8.36002 13.9344C8.30044 13.8555 7.98576 13.4904 7.64695 12.9096C7.31217 12.3325 7.13308 11.7042 7.13052 11.5387C7.12357 11.3717 7.17986 11.3165 7.21422 11.3026C7.21422 11.3026 7.4653 11.8888 7.95506 12.5416C8.39474 13.1256 8.78325 13.4155 8.95064 13.4155C8.96874 13.416 8.98667 13.4118 9.00254 13.403C9.12827 13.3266 9.0347 13.1782 8.96087 13.054C8.89216 12.9261 8.6831 12.5299 8.59429 12.2269C8.50913 11.9298 8.42069 11.6549 8.58589 11.5284C8.73793 11.8581 9.08989 12.3537 9.46269 12.7093C9.46673 12.7139 9.47167 12.7177 9.4772 12.7203C9.48272 12.7229 9.48873 12.7244 9.49485 12.7247C9.5113 12.7247 9.52884 12.7119 9.54419 12.6896C9.5716 12.653 10.4338 11.3983 10.618 10.0391C10.8029 8.68204 10.7419 7.22923 9.9846 6.22999C9.65311 5.79323 9.15458 5.60757 8.71088 5.60757C8.57236 5.60757 8.44006 5.62548 8.31908 5.6602C7.94226 5.7735 7.68423 6.04835 7.68642 6.34293C7.68642 6.78042 8.0329 6.87398 8.0329 6.87398C8.0329 6.87398 7.91705 7.11813 7.50405 7.16783C7.42984 7.17702 7.35514 7.18166 7.28037 7.18172C6.9697 7.18172 6.70802 7.08304 6.4668 6.74241C6.23288 6.41456 6.24056 5.73952 6.22704 5.51438C6.21644 5.28595 6.16746 4.77354 5.92734 4.56448C5.68794 4.34994 5.39629 4.27793 5.03263 4.26367C5.00595 4.2644 4.98219 4.26441 4.95989 4.26441Z" fill="#989898"/>
</svg>
