<svg width="68" height="20" viewBox="0 0 68 20" fill="none" xmlns="http://www.w3.org/2000/svg">
<g clip-path="url(#clip0_1512_24949)">
<path d="M13.9209 3.05664V16.9414H0V3.05664H13.9209ZM8.2793 13.2715C7.91149 13.516 7.60448 13.6994 7.20605 13.8828V13.333C6.99151 13.6387 6.77644 13.8831 6.53125 14.1582C6.102 14.2805 5.76422 14.3115 5.33496 14.3115C5.58016 14.4338 5.82574 14.5258 6.10156 14.5869C5.82584 14.8313 5.61076 14.9846 5.33496 15.168C5.76416 15.0762 6.34711 14.8923 6.77637 14.6172C6.99098 14.6172 7.20606 14.6175 7.35938 14.5869C7.32875 14.4648 7.2982 14.3724 7.26758 14.1895C7.66613 13.8837 7.97271 13.6078 8.2793 13.2715ZM2.20801 11.1016C2.11605 11.8048 2.11603 12.2943 2.20801 12.8447C1.90141 12.9365 1.65544 12.9978 1.41016 13.1201C1.77801 13.3341 2.08492 13.5177 2.4834 13.7012C2.69802 14.1598 2.94363 14.4963 3.31152 14.8633C3.21958 14.5576 3.18879 14.3127 3.25 13.9766C3.64848 14.1294 4.04734 14.1901 4.56836 14.2207C4.07804 14.0373 3.7096 13.8229 3.3418 13.4561C3.4644 13.1198 3.58726 12.875 3.80176 12.5693C3.40341 12.6304 3.09688 12.6612 2.75977 12.7529C2.45319 12.2331 2.33064 11.7437 2.20801 11.1016ZM5.85645 7.24609C5.61097 7.27684 4.96686 7.58294 4.56836 7.88867H3.80176C3.31121 7.9193 2.6671 8.04109 2.42188 8.13281C2.91222 8.16338 3.55616 8.28587 3.80176 8.53027C3.78812 8.54225 3.05995 9.1865 2.36133 10.5801C2.36133 10.5801 3.64917 9.38698 4.20117 9.08105C4.20613 9.09863 4.47874 10.0639 4.69141 10.5488C4.69452 10.5298 4.87775 9.41221 5.18164 8.77539C5.18164 8.77539 5.27426 8.71418 5.67285 8.68359C6.10207 8.62246 6.6846 8.62225 7.78809 8.80566C7.76671 8.79256 6.73239 8.16206 5.48828 7.98047C5.51893 7.82761 5.70316 7.4602 5.85645 7.24609ZM7.88086 4.58789C8.28017 4.77179 9.81117 5.56565 9.99609 5.81055C9.19883 5.90231 7.63473 6.36189 6.86816 6.79004C7.75723 6.60658 9.01449 6.48374 9.87305 6.45312C9.53588 6.97281 9.35163 7.21788 8.7998 7.79883C9.71954 7.24844 9.99628 7.18733 10.8545 6.69824C11.1609 7.18768 11.2529 8.28814 11.2529 9.1748C11.5595 8.62444 11.8971 6.51535 11.7441 6.14746C12.2652 5.81118 12.2651 5.65762 12.3877 5.41309C11.8666 5.47422 11.5601 5.47471 11.2842 5.56641C10.579 5.13831 9.07665 4.67973 7.88086 4.58789Z" fill="#989898"/>
<path d="M19.1339 8.13447C20.0844 8.13447 20.4217 8.31797 20.4217 8.83788C20.4217 8.99079 20.3911 9.11312 20.2991 9.20487C20.1151 9.41895 19.7778 9.54128 19.3178 9.5107H19.2872L19.0112 10.1835H19.2872C19.8084 10.1835 20.2684 10.3364 20.483 10.6117C20.575 10.734 20.6364 10.8869 20.6364 11.0398C20.6364 11.5597 20.1764 11.835 19.2565 11.835C19.1032 11.835 18.8579 11.835 18.7046 11.835C18.6739 11.1316 18.6739 10.1529 18.6739 9.87769C18.6739 9.54128 18.7046 8.80729 18.7046 8.16506C18.7966 8.13447 18.9805 8.13447 19.1339 8.13447ZM17.4167 7.64515C17.4474 8.13447 17.478 9.41895 17.478 9.87769C17.478 10.3058 17.478 11.7432 17.4167 12.3549V12.4161H19.6245C20.7283 12.4161 21.8936 12.0796 21.8936 11.101C21.8936 10.4893 21.4336 10.0306 20.6057 9.78594C21.219 9.63303 21.6482 9.20487 21.6482 8.71554C21.6482 7.92039 20.7283 7.61457 19.8698 7.58398H17.386L17.4167 7.64515Z" fill="#989898"/>
<path d="M27.0756 7.58398H25.9717L26.0024 8.80729C26.0331 9.41895 26.0331 10.0306 26.0944 10.6117C26.0331 10.4282 25.9717 10.3364 25.6344 9.8471C25.6344 9.81652 24.4999 8.07331 24.1013 7.58398H22.8441V7.64515C22.8747 8.13447 22.9054 9.41895 22.9054 9.87769C22.9054 10.3058 22.9054 11.7432 22.8441 12.3549V12.4161H23.9786V12.3549C23.9173 11.1927 23.9173 10 23.9173 8.83788C23.948 8.99079 24.0093 9.08254 24.1933 9.35778C24.1933 9.38836 26.1557 12.202 26.2477 12.3855V12.4161H27.1676V12.3549C27.1063 11.7432 27.1063 10.3058 27.1063 9.87769C27.1063 9.41895 27.1369 8.13447 27.1676 7.64515V7.61457H27.0756V7.58398Z" fill="#989898"/>
<path d="M30.05 8.16506C30.6939 8.16506 31.1232 8.28739 31.3379 8.53205C31.4299 8.65438 31.4912 8.80729 31.4912 8.96021C31.4912 9.66361 30.6939 9.81652 30.05 9.81652H29.774C29.774 9.81652 29.7127 9.81652 29.6514 9.81652C29.6514 9.66361 29.6514 9.44953 29.6514 9.20487C29.6514 8.89904 29.6514 8.53205 29.6514 8.19564C29.7434 8.19564 29.8967 8.16506 30.05 8.16506ZM28.3942 7.64515C28.4249 8.13447 28.4555 9.41895 28.4555 9.87769C28.4555 10.3058 28.4555 11.7432 28.3942 12.3549V12.4161H29.7434V12.3549C29.7127 11.8961 29.6821 11.0704 29.6821 10.4282C29.7434 10.4282 29.9274 10.4282 29.9274 10.4282H30.1113C31.8898 10.4282 32.7484 9.96944 32.7484 8.99079C32.7484 7.85923 31.5525 7.61457 30.5406 7.58398H28.4249V7.64515" fill="#989898"/>
<path d="M36.9493 8.16506C37.5932 8.16506 38.0225 8.28739 38.2371 8.53205C38.3291 8.65438 38.3905 8.80729 38.3905 8.96021C38.3905 9.66361 37.5932 9.81652 36.9493 9.81652H36.6733C36.6733 9.81652 36.612 9.81652 36.5507 9.81652C36.5507 9.66361 36.5507 9.44953 36.5507 9.20487C36.5507 8.89904 36.5507 8.53205 36.5507 8.19564C36.6426 8.19564 36.796 8.16506 36.9493 8.16506ZM35.2935 7.64515C35.3241 8.13447 35.3548 9.41895 35.3548 9.87769C35.3548 10.3058 35.3548 11.7432 35.2935 12.3549V12.4161H36.6426V12.3549C36.612 11.8961 36.5813 11.0704 36.5813 10.4282C36.6426 10.4282 36.8266 10.4282 36.8266 10.4282H37.0106C38.7891 10.4282 39.6476 9.96944 39.6476 8.99079C39.6476 7.85923 38.4211 7.61457 37.4092 7.58398H35.2935V7.64515Z" fill="#989898"/>
<path d="M41.7634 9.02137C41.8554 9.26603 42.162 9.87769 42.4686 10.6423C42.4073 10.6423 42.346 10.6423 42.346 10.6423H41.7634C41.7634 10.6423 41.1501 10.6423 41.0581 10.6423C41.3034 10.0306 41.5487 9.48011 41.7634 9.02137ZM41.4261 7.58398C41.1501 8.28739 39.525 11.8044 39.2797 12.3549L39.249 12.4161H40.3835V12.3855C40.4755 12.0491 40.6288 11.6821 40.7822 11.2845C40.8435 11.2845 41.7327 11.2845 41.7327 11.2845H42.53C42.53 11.2845 42.6526 11.2845 42.6833 11.2845C42.8979 11.8044 43.0512 12.202 43.1126 12.3855V12.4161H44.4311L42.2847 7.58398H42.3153H41.4261Z" fill="#989898"/>
<path d="M45.0136 7.64515C45.0443 8.13447 45.075 9.41895 45.075 9.87769C45.075 10.3058 45.075 11.7432 45.0136 12.3549V12.4161H46.3628V12.3549C46.3015 11.7432 46.2708 10.3058 46.2708 9.87769C46.2708 9.54128 46.2708 8.80729 46.3015 8.19564C46.3935 8.19564 46.5468 8.16506 46.6695 8.16506C47.2827 8.16506 47.7427 8.28739 47.9573 8.53205C48.0493 8.65438 48.1106 8.80729 48.1106 8.96021C48.1106 9.51069 47.5894 9.78594 47.0987 9.81652C46.9454 9.81652 46.8228 9.81652 46.8228 9.81652L46.7308 9.78594L46.7921 9.87769C47.2827 10.5811 47.988 11.7738 48.2946 12.3549V12.3855H49.7358L49.7051 12.3243C49.6438 12.2326 48.6932 10.8563 48.2946 10.2753L48.2639 10.2447C48.9999 10.0306 49.3678 9.60244 49.3678 8.99079C49.3678 7.88981 48.172 7.61457 47.1294 7.58398H45.0136V7.64515Z" fill="#989898"/>
<path d="M51.6369 7.58398H50.3491V7.61457C50.3798 8.10389 50.4104 9.38836 50.4104 9.8471C50.4104 10.2753 50.4104 11.7126 50.3491 12.3243V12.3855H51.6983V12.3243C51.637 11.7126 51.6369 10.2753 51.6369 9.8471C51.6369 9.38836 51.6676 8.10389 51.6983 7.61457V7.58398H51.6369Z" fill="#989898"/>
<path d="M54.6113 8.13447C55.5619 8.13447 55.8992 8.31797 55.8992 8.83788C55.8992 8.99079 55.8685 9.11312 55.7765 9.20487C55.5926 9.41895 55.2553 9.54128 54.7953 9.5107H54.7647L54.5194 10.1835H54.7647C55.2859 10.1835 55.7152 10.3364 55.9605 10.6117C56.0832 10.734 56.1138 10.8869 56.1138 11.0398C56.1138 11.5597 55.6539 11.835 54.7033 11.835C54.55 11.835 54.3047 11.835 54.1514 11.835C54.1207 11.1316 54.1207 10.1529 54.1207 9.87769C54.1207 9.54128 54.1207 8.80729 54.1514 8.16506C54.274 8.13447 54.458 8.13447 54.6113 8.13447ZM52.8942 7.64515C52.9249 8.13447 52.9555 9.41895 52.9555 9.87769C52.9555 10.3058 52.9555 11.7432 52.8942 12.3549V12.4161H55.1326C56.2365 12.4161 57.4017 12.0796 57.4017 11.101C57.4017 10.4893 56.9418 10.0306 56.1138 9.78594C56.7271 9.63303 57.1564 9.20487 57.1564 8.71554C57.1564 7.92039 56.2365 7.61457 55.3779 7.58398H52.8942V7.64515Z" fill="#989898"/>
<path d="M60.1307 8.99079C60.2534 9.20487 60.5293 9.8471 60.836 10.6117C60.7746 10.6117 60.744 10.6117 60.744 10.6117H60.1614C60.1614 10.6117 59.5481 10.6117 59.4561 10.6117C59.6707 10.0306 59.9161 9.48011 60.1307 8.99079ZM60.6826 7.58398H59.7934V7.61457C59.5174 8.34855 57.831 12.0491 57.6776 12.3549L57.647 12.4161H58.8122V12.3855C58.9042 12.0491 59.0268 11.6821 59.1801 11.2845C59.2108 11.2845 60.1307 11.2845 60.1307 11.2845H60.9279H61.0813C61.2959 11.8044 61.4492 12.202 61.5106 12.3855V12.4161H62.8291L60.6826 7.58398Z" fill="#989898"/>
<path d="M63.2584 8.8384C63.2584 9.69471 64.1169 10.0311 64.8529 10.3369C65.4355 10.5816 66.0487 10.8263 66.0487 11.2238C66.0487 11.3462 66.0181 11.4379 65.9567 11.5297C65.8034 11.6826 65.5274 11.7743 65.0675 11.7438C64.6075 11.7132 64.1169 11.5908 63.5343 11.3156L63.3197 11.1933V11.3768V12.2331L63.473 12.2637H63.565C63.841 12.3248 64.3929 12.4472 64.9142 12.4472C66.3247 12.4472 67.1833 11.8967 67.1833 10.9486C67.1833 10.0617 66.3247 9.72529 65.5274 9.41947C64.9448 9.17481 64.3622 8.96073 64.3622 8.59373C64.3622 8.4714 64.3622 8.16558 65.0982 8.16558C65.6501 8.16558 66.1714 8.37966 66.478 8.50199L66.754 8.62432V8.44082V7.55392L66.478 7.49276C66.202 7.43159 65.7421 7.33984 65.2821 7.33984C64.0556 7.40101 63.2584 7.98208 63.2584 8.8384Z" fill="#989898"/>
</g>
<defs>
<clipPath id="clip0_1512_24949">
<rect width="67.2" height="20" fill="white"/>
</clipPath>
</defs>
</svg>
