<svg width="78" height="20" viewBox="0 0 78 20" fill="none" xmlns="http://www.w3.org/2000/svg">
<g clip-path="url(#clip0_1512_24949)">
<path d="M13.9209 3.05664V16.9414H0V3.05664H13.9209ZM8.2793 13.2715C7.91149 13.516 7.60448 13.6994 7.20605 13.8828V13.333C6.99151 13.6387 6.77644 13.8831 6.53125 14.1582C6.102 14.2805 5.76422 14.3115 5.33496 14.3115C5.58016 14.4338 5.82574 14.5258 6.10156 14.5869C5.82584 14.8313 5.61076 14.9846 5.33496 15.168C5.76416 15.0762 6.34711 14.8923 6.77637 14.6172C6.99098 14.6172 7.20606 14.6175 7.35938 14.5869C7.32875 14.4648 7.2982 14.3724 7.26758 14.1895C7.66613 13.8837 7.97271 13.6078 8.2793 13.2715ZM2.20801 11.1016C2.11605 11.8048 2.11603 12.2943 2.20801 12.8447C1.90141 12.9365 1.65544 12.9978 1.41016 13.1201C1.77801 13.3341 2.08492 13.5177 2.4834 13.7012C2.69802 14.1598 2.94363 14.4963 3.31152 14.8633C3.21958 14.5576 3.18879 14.3127 3.25 13.9766C3.64848 14.1294 4.04734 14.1901 4.56836 14.2207C4.07804 14.0373 3.7096 13.8229 3.3418 13.4561C3.4644 13.1198 3.58726 12.875 3.80176 12.5693C3.40341 12.6304 3.09688 12.6612 2.75977 12.7529C2.45319 12.2331 2.33064 11.7437 2.20801 11.1016ZM5.85645 7.24609C5.61097 7.27684 4.96686 7.58294 4.56836 7.88867H3.80176C3.31121 7.9193 2.6671 8.04109 2.42188 8.13281C2.91222 8.16338 3.55616 8.28587 3.80176 8.53027C3.78812 8.54225 3.05995 9.1865 2.36133 10.5801C2.36133 10.5801 3.64917 9.38698 4.20117 9.08105C4.20613 9.09863 4.47874 10.0639 4.69141 10.5488C4.69452 10.5298 4.87775 9.41221 5.18164 8.77539C5.18164 8.77539 5.27426 8.71418 5.67285 8.68359C6.10207 8.62246 6.6846 8.62225 7.78809 8.80566C7.76671 8.79256 6.73239 8.16206 5.48828 7.98047C5.51893 7.82761 5.70316 7.4602 5.85645 7.24609ZM7.88086 4.58789C8.28017 4.77179 9.81117 5.56565 9.99609 5.81055C9.19883 5.90231 7.63473 6.36189 6.86816 6.79004C7.75723 6.60658 9.01449 6.48374 9.87305 6.45312C9.53588 6.97281 9.35163 7.21788 8.7998 7.79883C9.71954 7.24844 9.99628 7.18733 10.8545 6.69824C11.1609 7.18768 11.2529 8.28814 11.2529 9.1748C11.5595 8.62444 11.8971 6.51535 11.7441 6.14746C12.2652 5.81118 12.2651 5.65762 12.3877 5.41309C11.8666 5.47422 11.5601 5.47471 11.2842 5.56641C10.579 5.13831 9.07665 4.67973 7.88086 4.58789Z" fill="#989898"/>
<path d="M19.4836 7.78174C20.6244 7.78174 21.0292 8.00195 21.0292 8.62589C21.0292 8.80941 20.9924 8.95622 20.882 9.06632C20.6612 9.32324 20.2564 9.47005 19.7044 9.43335H19.6676L19.3364 10.2408H19.6676C20.2932 10.2408 20.8452 10.4243 21.1028 10.7546C21.2132 10.9014 21.2868 11.085 21.2868 11.2685C21.2868 11.8924 20.7348 12.2227 19.6308 12.2227C19.4468 12.2227 19.1524 12.2227 18.9684 12.2227C18.9316 11.3786 18.9316 10.2041 18.9316 9.87378C18.9316 9.47005 18.9684 8.58919 18.9684 7.81844C19.0788 7.78174 19.2996 7.78174 19.4836 7.78174ZM17.4228 7.1945C17.4596 7.78174 17.4964 9.32324 17.4964 9.87378C17.4964 10.3876 17.4964 12.1126 17.4228 12.8467V12.9201H20.0724C21.3972 12.9201 22.7955 12.5164 22.7955 11.3419C22.7955 10.6078 22.2435 10.0573 21.25 9.76367C21.9859 9.58016 22.5011 9.06632 22.5011 8.47908C22.5011 7.52482 21.3972 7.1578 20.3668 7.12109H17.386L17.4228 7.1945Z" fill="#989898"/>
<path d="M29.0146 7.12109H27.6898L27.7266 8.58919C27.7634 9.32324 27.7634 10.0573 27.837 10.7546C27.7634 10.5344 27.6898 10.4243 27.285 9.83708C27.285 9.80037 25.9234 7.70833 25.445 7.12109H23.9363V7.1945C23.9731 7.78174 24.0099 9.32324 24.0099 9.87378C24.0099 10.3876 24.0099 12.1126 23.9363 12.8467V12.9201H25.2978V12.8467C25.2242 11.452 25.2243 10.0206 25.2243 8.62589C25.2611 8.80941 25.3346 8.91951 25.5554 9.24984C25.5554 9.28654 27.9106 12.6632 28.021 12.8834V12.9201H29.125V12.8467C29.0514 12.1126 29.0514 10.3876 29.0514 9.87378C29.0514 9.32324 29.0882 7.78174 29.125 7.1945V7.1578H29.0146V7.12109Z" fill="#989898"/>
<path d="M32.5841 7.81844C33.3569 7.81844 33.8721 7.96525 34.1297 8.25887C34.2401 8.40568 34.3137 8.58919 34.3137 8.7727C34.3137 9.61686 33.3569 9.80037 32.5841 9.80037H32.2529C32.2529 9.80037 32.1793 9.80037 32.1058 9.80037C32.1058 9.61686 32.1058 9.35994 32.1058 9.06632C32.1058 8.6993 32.1058 8.25887 32.1058 7.85514C32.2161 7.85514 32.4001 7.81844 32.5841 7.81844ZM30.597 7.1945C30.6338 7.78174 30.6706 9.32324 30.6706 9.87378C30.6706 10.3876 30.6706 12.1126 30.597 12.8467V12.9201H32.2162V12.8467C32.1794 12.2961 32.1426 11.3052 32.1426 10.5344C32.2162 10.5344 32.4369 10.5344 32.4369 10.5344H32.6577C34.7921 10.5344 35.8225 9.98389 35.8225 8.80941C35.8225 7.45142 34.3873 7.1578 33.1729 7.12109H30.6338V7.1945" fill="#989898"/>
<path d="M40.864 7.81844C41.6368 7.81844 42.152 7.96525 42.4096 8.25887C42.52 8.40568 42.5935 8.58919 42.5935 8.7727C42.5935 9.61686 41.6368 9.80037 40.864 9.80037H40.5328C40.5328 9.80037 40.4592 9.80037 40.3856 9.80037C40.3856 9.61686 40.3856 9.35994 40.3856 9.06632C40.3856 8.6993 40.3856 8.25887 40.3856 7.85514C40.496 7.85514 40.68 7.81844 40.864 7.81844ZM38.8768 7.1945C38.9136 7.78174 38.9504 9.32324 38.9504 9.87378C38.9504 10.3876 38.9504 12.1126 38.8768 12.8467V12.9201H40.496V12.8467C40.4592 12.2961 40.4224 11.3052 40.4224 10.5344C40.496 10.5344 40.7168 10.5344 40.7168 10.5344H40.9376C43.0719 10.5344 44.1023 9.98389 44.1023 8.80941C44.1023 7.45142 42.6303 7.1578 41.416 7.12109H38.8768V7.1945Z" fill="#989898"/>
<path d="M46.6414 8.84611C46.7518 9.13973 47.1198 9.87378 47.4878 10.7913C47.4142 10.7913 47.3406 10.7913 47.3406 10.7913H46.6414C46.6414 10.7913 45.9054 10.7913 45.7951 10.7913C46.0894 10.0573 46.3838 9.39665 46.6414 8.84611ZM46.2366 7.12109C45.9055 7.96525 43.9551 12.186 43.6607 12.8467L43.6239 12.9201H44.9855V12.8834C45.0959 12.4797 45.2799 12.0392 45.4639 11.5621C45.5375 11.5621 46.6046 11.5621 46.6046 11.5621H47.5614C47.5614 11.5621 47.7086 11.5621 47.7454 11.5621C48.003 12.186 48.187 12.6632 48.2606 12.8834V12.9201H49.843L47.267 7.12109H47.3038H46.2366Z" fill="#989898"/>
<path d="M50.5421 7.1945C50.5789 7.78174 50.6157 9.32324 50.6157 9.87378C50.6157 10.3876 50.6157 12.1126 50.5421 12.8467V12.9201H52.1612V12.8467C52.0876 12.1126 52.0508 10.3876 52.0508 9.87378C52.0508 9.47005 52.0508 8.58919 52.0876 7.85514C52.198 7.85514 52.382 7.81844 52.5292 7.81844C53.2652 7.81844 53.8172 7.96525 54.0748 8.25887C54.1852 8.40568 54.2588 8.58919 54.2588 8.7727C54.2588 9.43335 53.6332 9.76367 53.0444 9.80037C52.8604 9.80037 52.7132 9.80037 52.7132 9.80037L52.6028 9.76367L52.6764 9.87378C53.2652 10.7179 54.1116 12.1493 54.4796 12.8467V12.8834H56.2091L56.1723 12.81C56.0987 12.6999 54.958 11.0483 54.4796 10.3509L54.4428 10.3142C55.3259 10.0573 55.7675 9.54346 55.7675 8.80941C55.7675 7.48812 54.3324 7.1578 53.0812 7.12109H50.5421V7.1945Z" fill="#989898"/>
<path d="M58.4908 7.12109H56.9452V7.1578C56.982 7.74504 57.0188 9.28654 57.0188 9.83708C57.0188 10.3509 57.0188 12.0759 56.9452 12.81V12.8834H58.5644V12.81C58.4908 12.0759 58.4908 10.3509 58.4908 9.83708C58.4908 9.28654 58.5276 7.74504 58.5644 7.1578V7.12109H58.4908Z" fill="#989898"/>
<path d="M62.0603 7.78174C63.2011 7.78174 63.6059 8.00195 63.6059 8.62589C63.6059 8.80941 63.5691 8.95622 63.4587 9.06632C63.2379 9.32324 62.8331 9.47005 62.2811 9.43335H62.2443L61.9499 10.2408H62.2443C62.8699 10.2408 63.3851 10.4243 63.6795 10.7546C63.8267 10.9014 63.8635 11.085 63.8635 11.2685C63.8635 11.8924 63.3115 12.2227 62.1707 12.2227C61.9867 12.2227 61.6923 12.2227 61.5083 12.2227C61.4715 11.3786 61.4715 10.2041 61.4715 9.87378C61.4715 9.47005 61.4715 8.58919 61.5083 7.81844C61.6555 7.78174 61.8763 7.78174 62.0603 7.78174ZM59.9996 7.1945C60.0364 7.78174 60.0732 9.32324 60.0732 9.87378C60.0732 10.3876 60.0732 12.1126 59.9996 12.8467V12.9201H62.6859C64.0107 12.9201 65.4091 12.5164 65.4091 11.3419C65.4091 10.6078 64.8571 10.0573 63.8635 9.76367C64.5995 9.58016 65.1147 9.06632 65.1147 8.47908C65.1147 7.52482 64.0107 7.1578 62.9803 7.12109H59.9996V7.1945Z" fill="#989898"/>
<path d="M68.6841 8.80941C68.8313 9.06632 69.1625 9.83708 69.5305 10.7546C69.4569 10.7546 69.4201 10.7546 69.4201 10.7546H68.7209C68.7209 10.7546 67.9849 10.7546 67.8745 10.7546C68.1321 10.0573 68.4265 9.39665 68.6841 8.80941ZM69.3465 7.12109H68.2793V7.1578C67.9481 8.03866 65.9242 12.4797 65.7402 12.8467L65.7034 12.9201H67.1017V12.8834C67.2121 12.4797 67.3593 12.0392 67.5433 11.5621C67.5801 11.5621 68.6841 11.5621 68.6841 11.5621H69.6409H69.8249C70.0825 12.186 70.2665 12.6632 70.3401 12.8834V12.9201H71.9224L69.3465 7.12109Z" fill="#989898"/>
<path d="M72.4376 8.62655C72.4376 9.65421 73.468 10.0579 74.3512 10.425C75.0504 10.7186 75.7863 11.0122 75.7863 11.4893C75.7863 11.6361 75.7496 11.7463 75.676 11.8564C75.492 12.0399 75.1608 12.15 74.6088 12.1133C74.0568 12.0766 73.468 11.9298 72.7688 11.5994L72.5112 11.4526V11.6729V12.7005L72.6952 12.7372H72.8056C73.1368 12.8106 73.7992 12.9574 74.4248 12.9574C76.1175 12.9574 77.1479 12.2968 77.1479 11.159C77.1479 10.0946 76.1175 9.69092 75.1608 9.32389C74.4616 9.03027 73.7624 8.77336 73.7624 8.33293C73.7624 8.18612 73.7624 7.81909 74.6456 7.81909C75.308 7.81909 75.9335 8.07601 76.3015 8.22282L76.6327 8.36963V8.14941V7.08504L76.3015 7.01164C75.9703 6.93823 75.4184 6.82812 74.8664 6.82812C73.3944 6.90153 72.4376 7.59888 72.4376 8.62655Z" fill="#989898"/>
</g>
<defs>
<clipPath id="clip0_1512_24949">
<rect width="77.15" height="20" fill="white"/>
</clipPath>
</defs>
</svg>
