<svg width="31" height="20" viewBox="0 0 31 20" fill="none" xmlns="http://www.w3.org/2000/svg">
<g clip-path="url(#clip0_1523_25062)">
<path d="M17.7108 17.5321C17.7108 17.1674 18.0075 16.8711 18.3955 16.8711C18.7835 16.8711 19.0802 17.1674 19.0802 17.5321C19.0802 17.8967 18.7835 18.2158 18.3955 18.2158C18.0075 18.2158 17.7108 17.9195 17.7108 17.5321ZM17.8478 17.5321C17.8478 17.8283 18.0989 18.0791 18.4184 18.0791C18.7151 18.0791 18.9661 17.8511 18.9661 17.5321C18.9661 17.2358 18.7151 17.0078 18.4184 17.0078C18.076 17.0078 17.8478 17.2586 17.8478 17.5321Z" fill="#989898"/>
<path d="M18.7379 17.9162H18.601L18.3727 17.5743H18.2358V17.9162H18.1445V17.1641H18.4869C18.5553 17.1641 18.6238 17.1641 18.6694 17.2096C18.7379 17.2324 18.7607 17.3008 18.7607 17.3692C18.7607 17.5059 18.6466 17.5743 18.5097 17.5743L18.7379 17.9162ZM18.3727 17.4831C18.4869 17.4831 18.6238 17.5059 18.6238 17.3692C18.6238 17.278 18.5325 17.2552 18.4412 17.2552H18.2358V17.4831H18.3727Z" fill="#989898"/>
<path d="M15.1319 18.2122C19.9248 14.1097 26.6577 10.1211 30.3551 8.68523C29.7845 8.32057 28.8944 7.79636 27.8902 7.22656C23.1201 8.79919 17.5512 12.2863 12.5757 16.2293C13.4201 16.8675 14.3102 17.5284 15.1319 18.2122Z" fill="#989898"/>
<path d="M12.9409 7.06923C12.2334 6.72735 11.4574 6.40827 10.864 6.13477C9.06094 7.02364 6.71014 8.36835 3.7431 10.488C4.38216 10.8299 5.06686 11.2401 5.79721 11.6504C8.07955 9.96378 10.3847 8.36835 12.9409 7.06923Z" fill="#989898"/>
<path d="M17.2087 5.11116C16.3414 4.63253 13.3287 3.51574 11.2518 3.03711C10.6356 3.26503 9.7683 3.6069 9.1749 3.85761C9.92807 4.06274 12.7353 4.81486 15.1318 6.02283C15.748 5.72653 16.6153 5.36187 17.2087 5.11116Z" fill="#989898"/>
<path d="M7.00678 4.8125C4.33645 6.04325 1.52917 7.72984 0 8.70989C0.547761 8.96059 1.09552 9.16572 1.84869 9.53039C5.22655 7.25122 7.87406 5.86092 8.92394 5.40508C8.17076 5.13158 7.46325 4.94925 7.00678 4.8125Z" fill="#989898"/>
<path d="M19.2172 4.40425C19.8335 4.19913 20.541 4.01679 21.1572 3.83446C19.377 3.08233 17.1403 2.28462 15.1318 1.7832C14.8123 1.87437 13.8537 2.12508 13.1918 2.3302C13.8765 2.53533 16.1361 3.05954 19.2172 4.40425ZM7.9653 12.9739C8.69565 13.407 9.47164 13.9996 10.2248 14.501C15.2231 10.6264 20.153 7.64068 25.5621 5.95409C24.809 5.56663 24.1471 5.22475 23.3026 4.8145C20.0617 5.63501 14.5156 7.8458 7.9653 12.9739Z" fill="#989898"/>
</g>
<defs>
<clipPath id="clip0_1523_25062">
<rect width="30.36" height="20" fill="white"/>
</clipPath>
</defs>
</svg>
