<svg xmlns="http://www.w3.org/2000/svg" width="20" height="20" viewBox="0 0 24 24" fill="none" stroke="currentColor" stroke-width="1.5" stroke-linecap="round" stroke-linejoin="round">
<path d="M12.022 11.9133C12.1237 11.2368 12.5022 10.8714 12.8816 10.6136C13.2526 10.3613 13.6237 10.0339 13.6237 9.42768C13.6237 8.59098 12.9524 7.91333 12.1237 7.91333C11.2949 7.91333 10.6237 8.59098 10.6237 9.42768M9.29422 18.4836L11.3593 20.2147C11.7292 20.5248 12.2679 20.5263 12.6397 20.2183L14.738 18.4799C14.9173 18.3313 15.143 18.25 15.3759 18.25H17.25C18.9069 18.25 20.25 16.9069 20.25 15.25V6.75C20.25 5.09315 18.9069 3.75 17.25 3.75H6.75C5.09315 3.75 3.75 5.09315 3.75 6.75V15.25C3.75 16.9069 5.09315 18.25 6.75 18.25H8.65182C8.88675 18.25 9.11418 18.3327 9.29422 18.4836Z" stroke="currentColor" stroke-width="1.5" stroke-linecap="round"/><path d="M11.25 14.25C11.25 14.6642 11.5858 15 12 15C12.4142 15 12.75 14.6642 12.75 14.25C12.75 13.8358 12.4142 13.5 12 13.5C11.5858 13.5 11.25 13.8358 11.25 14.25Z" fill="currentColor" stroke="currentColor" stroke-width="0.5"/>
</svg>