<svg xmlns="http://www.w3.org/2000/svg" width="20" height="20" viewBox="0 0 24 24" fill="none" stroke="currentColor" stroke-width="1.5" stroke-linecap="round" stroke-linejoin="round">
<path d="M3.5 19.25C3.08579 19.25 2.75 18.9142 2.75 18.5V11.9234C2.75 11.3217 2.9309 10.734 3.26922 10.2364L6.10711 6.06307C6.66566 5.24167 7.59458 4.75 8.58789 4.75H15.4121C16.4054 4.75 17.3343 5.24167 17.8929 6.06307L20.7308 10.2364C21.0691 10.734 21.25 11.3217 21.25 11.9234V18.5C21.25 18.9142 20.9142 19.25 20.5 19.25H18C17.5858 19.25 17.25 18.9142 17.25 18.5V17.1786H6.75V18.5C6.75 18.9142 6.41421 19.25 6 19.25H3.5Z" stroke="currentColor" stroke-width="1.5" stroke-linecap="round" stroke-linejoin="round"/><path d="M1.75 10.25H3" stroke="currentColor" stroke-width="1.5" stroke-linecap="round" stroke-linejoin="round"/><path d="M21 10.25H22.75" stroke="currentColor" stroke-width="1.5" stroke-linecap="round" stroke-linejoin="round"/><path d="M5.75 13.25H7.25" stroke="currentColor" stroke-width="1.5" stroke-linecap="round" stroke-linejoin="round"/><path d="M16.75 13.25H18.25" stroke="currentColor" stroke-width="1.5" stroke-linecap="round" stroke-linejoin="round"/>
</svg>