<svg width="60" height="20" viewBox="0 0 60 20" fill="none" xmlns="http://www.w3.org/2000/svg">
<g clip-path="url(#clip0_1516_24994)">
<path d="M52.1262 4.47461C51.894 4.47461 51.7564 4.66456 51.7564 4.84587V7.58283H58.972L55.6867 4.47461H52.1262Z" fill="#989898"/>
<path d="M59.2043 8.41813C59.2043 8.18502 59.0151 8.04688 58.8345 8.04688H56.1082V15.2908L59.2043 11.9926V8.41813Z" fill="#989898"/>
<path d="M55.2739 15.5242C55.5061 15.5242 55.6437 15.3343 55.6437 15.153V12.416H48.4281L51.7134 15.5242H55.2739Z" fill="#989898"/>
<path d="M48.1959 11.5775C48.1959 11.8106 48.3851 11.9488 48.5657 11.9488H51.292V4.74805L48.1959 8.04622V11.5775Z" fill="#989898"/>
<path d="M15.2139 5.77734V9.11868H10.5955V5.77734H8.92706V14.2214H10.5955V10.6037H15.2139V14.2214H16.9253V5.77734H15.2139Z" fill="#989898"/>
<path d="M37.652 5.77734V14.1782H45.0482L44.128 12.7363H39.3634V10.6037H43.9388V9.16185H39.3634V7.26238H44.0764L45.0052 5.77734H37.652Z" fill="#989898"/>
<path d="M2.64028 5.77734C0.885829 5.77734 0 6.84795 0 8.42797V11.588C0 13.4011 1.15244 14.2386 2.64028 14.2386H7.91225L6.94042 12.6586H2.9585C2.12427 12.6586 1.75446 12.3305 1.75446 11.4067V8.57474C1.75446 7.64228 2.08127 7.27102 3.0015 7.27102H6.98342L7.91225 5.78598L2.64028 5.77734Z" fill="#989898"/>
<path d="M30.2471 5.77734C29.2323 5.77734 28.2089 6.38172 28.2089 7.96174V8.37616C28.2089 9.99935 29.2237 10.6555 30.1955 10.6555H33.713C34.0828 10.6555 34.358 10.6987 34.358 11.3549V12.0542C34.358 12.6154 34.0828 12.7536 33.6614 12.7536H29.0345L28.1057 14.2386H33.799C35.1837 14.2386 36.1125 13.5393 36.1125 11.9593V11.398C36.1125 9.86984 35.2353 9.17049 33.8936 9.17049H30.5137C30.1439 9.17049 29.8687 9.07552 29.8687 8.52294V7.8754C29.8687 7.40916 30.0579 7.22785 30.4707 7.22785H34.8655L35.7943 5.78598H30.2471V5.77734Z" fill="#989898"/>
<path d="M21.8275 5.77734L17.8456 14.1782H19.7462L20.5289 12.46H24.829L25.6116 14.1782H27.5123L23.4874 5.77734H21.8275ZM22.6187 7.53867L24.141 11.0182H21.0879L22.6187 7.53867Z" fill="#989898"/>
</g>
<defs>
<clipPath id="clip0_1516_24994">
<rect width="59.2" height="20" fill="white"/>
</clipPath>
</defs>
</svg>
