<svg xmlns="http://www.w3.org/2000/svg" width="20" height="20" viewBox="0 0 24 24" fill="none" stroke="currentColor" stroke-width="1.5" stroke-linecap="round" stroke-linejoin="round">
<path d="M12 7.75V6.08333M12 7.75H10.3333C8.49238 7.75 7 6.25762 7 4.41667C7 3.49619 7.74619 2.75 8.66667 2.75C10.5076 2.75 12 4.24238 12 6.08333M12 7.75H13.6667C15.5076 7.75 17 6.25762 17 4.41667C17 3.49619 16.2538 2.75 15.3333 2.75C13.4924 2.75 12 4.24238 12 6.08333M12 7.75H5.875C4.70139 7.75 3.75 8.70139 3.75 9.875C3.75 10.6355 4.14946 11.3026 4.75 11.6781M12 7.75H18.125C19.2986 7.75 20.25 8.70139 20.25 9.875C20.25 10.6355 19.8505 11.3026 19.25 11.6781M12 7.75V12M12 20.25H7.75C6.09315 20.25 4.75 18.9069 4.75 17.25V11.6781M12 20.25H16.25C17.9069 20.25 19.25 18.9069 19.25 17.25V11.6781M12 20.25V12M12 12H18.125C18.5381 12 18.9237 11.8821 19.25 11.6781M12 12H5.875C5.46186 12 5.07626 11.8821 4.75 11.6781M4.75 11.5V11.6781M19.25 11.6781V11.5" stroke="currentColor" stroke-width="1.5"/>
</svg>