<svg width="20" height="20" viewBox="0 0 20 20" fill="none" xmlns="http://www.w3.org/2000/svg">
<path fill-rule="evenodd" clip-rule="evenodd" d="M8.35942 2L3.45659 3.2841L2.10542 8.21456L3.79531 9.94961L2.07812 11.656L3.34975 16.6081L8.23135 17.972L9.94887 16.2653L11.6388 18L16.5416 16.7159L17.8924 11.7851L16.2029 10.0507L17.9201 8.34432L16.6484 3.39195L11.7662 2.02797L10.0493 3.73438L8.35942 2ZM5.35072 4.23251L7.93341 3.55575L9.06281 4.71514L7.41573 6.35178L5.35072 4.23251ZM11.0203 4.73065L12.1679 3.59046L14.7395 4.30902L12.6408 6.39425L11.0203 4.73065ZM3.65275 7.80979L4.36422 5.21294L6.42856 7.33221L4.78181 8.96885L3.65275 7.80945V7.80979ZM13.6111 7.39085L15.7098 5.30495L16.3791 7.91359L15.2319 9.05412L13.6111 7.39085ZM8.38638 7.34805L10.0335 5.71141L11.6536 7.37501L10.0068 9.01165L8.38638 7.34805ZM5.7528 9.96512L7.39955 8.32848L9.02068 9.99208L7.37326 11.6287L5.7528 9.96512ZM10.9778 10.0079L12.6246 8.37128L14.245 10.0349L12.598 11.6715L10.9778 10.0079ZM3.61837 12.0864L4.76631 10.9455L6.38643 12.6095L4.28839 14.6944L3.61837 12.0864ZM8.34392 12.625L9.991 10.9884L11.6115 12.6519L9.96471 14.2886L8.34392 12.625ZM13.5686 12.6681L15.2157 11.0315L16.3451 12.1906L15.634 14.7874L13.5686 12.6681ZM5.25871 15.6913L7.35708 13.6054L8.97822 15.269L7.83028 16.4099L5.25871 15.6913ZM10.9354 15.2849L12.5821 13.6482L14.6468 15.7678L12.0644 16.4443L10.9354 15.2849Z" fill="#1A1A1A"/>
</svg>
