<svg width="20" height="20" viewBox="0 0 20 20" fill="none" xmlns="http://www.w3.org/2000/svg">
<path fill-rule="evenodd" d="M1.32227 8.87695C1.93488 4.0816 6.33488 0.689058 11.1201 1.30273C15.9055 1.91646 19.2911 6.30894 18.6787 11.1133C18.0574 15.9174 13.6748 19.3098 8.88086 18.6963C4.09547 18.0738 0.709876 13.6725 1.32227 8.87695ZM4.87109 14.8301C4.84512 14.8475 4.84541 14.8905 4.87109 14.9082C4.87979 14.9169 4.88898 14.9257 4.90625 14.9258L6.4541 15.0312L5.5625 14.1367L4.87109 14.8301ZM8.84668 11.1836H8.8125L8.43555 11.2637L5.6875 14.0098L6.61719 14.9404C6.64406 14.9579 6.67711 14.9613 6.70703 14.9434C6.75071 14.9171 6.76826 14.8651 6.74219 14.8213L6.59375 14.1895C6.57665 14.111 6.61125 14.0409 6.68066 14.0059C8.22827 13.226 9.47902 12.4194 10.3975 11.6221L9.76074 10.9824L8.84668 11.1836ZM13.3545 7.84277C13.3458 7.85153 13.3369 7.86039 13.3281 7.86914L9.90723 10.874L10.5254 11.4932C11.9473 10.1359 13.3262 8.74679 13.4189 7.76172C13.3991 7.78944 13.3794 7.81782 13.3545 7.84277ZM8.75879 10.9814C8.76555 10.995 8.77869 11.0009 8.7959 11.0039L9.00977 10.959L8.75391 10.9551C8.75278 10.9637 8.75462 10.9728 8.75879 10.9814ZM8.91309 10.7822L9.56836 10.792L9.37598 10.5957L9.2373 10.457L8.91309 10.7822ZM9.64453 10.6045L9.79395 10.7539L13.2236 7.73828C13.3393 7.64342 13.3897 7.50073 13.3789 7.36035C13.3398 7.24283 13.2778 7.13113 13.1973 7.03613L9.64453 10.6045ZM7.55664 10.499C7.53933 10.5164 7.53083 10.5433 7.54785 10.5693C7.55658 10.5955 7.58323 10.6043 7.60938 10.5957L9.05273 10.2803L8.45215 9.67773L8.41309 9.63965L7.55664 10.499ZM12.9531 6.94043C12.8426 6.93613 12.7292 6.97007 12.6377 7.04492C12.629 7.05364 12.6198 7.06257 12.6025 7.07129L9.36523 10.3242L9.4707 10.4297L12.9531 6.94043ZM12.9121 6.77344C12.3158 6.28366 11.7406 6.31459 8.54883 9.5127L9.23438 10.1992L12.4707 6.95801C12.5929 6.83557 12.7528 6.77371 12.9121 6.77344ZM14.1279 4.51172C13.3934 4.5119 12.7982 5.10767 12.8066 5.84375C12.8066 6.24001 12.9803 6.59525 13.2539 6.83789C13.2614 6.84194 13.2698 6.84613 13.2764 6.85254C13.2856 6.86104 13.2939 6.87108 13.3027 6.87988C13.5307 7.06286 13.8208 7.17166 14.1367 7.16797C14.3359 7.16796 14.5346 7.12369 14.7168 7.0293L13.9092 6.21875L13.8047 6.11523C13.7875 6.09793 13.7784 6.08056 13.7783 6.05469C13.7784 6.02862 13.7873 6.0106 13.8047 5.99316L14.9766 4.81836C14.7404 4.61694 14.4427 4.51172 14.1279 4.51172ZM13.9893 6.05469L14.873 6.93945C14.9429 6.89567 15.013 6.83475 15.0654 6.78223C15.564 6.2825 15.5905 5.46644 15.1094 4.94043L13.9893 6.05469ZM15.0146 5.61621C15.0668 5.59894 15.1277 5.62477 15.1455 5.67676C15.233 5.85207 15.2064 6.06293 15.0752 6.22949C15.0402 6.27317 14.9792 6.28202 14.9355 6.24707C14.9009 6.21194 14.8919 6.15012 14.9268 6.10645C14.9966 6.01004 15.0143 5.87853 14.9619 5.77344C14.9616 5.76485 14.9531 5.75565 14.9531 5.74707C14.9361 5.69467 14.9625 5.63375 15.0146 5.61621Z" fill="#1A1A1A"/>
</svg>
