<svg width="20" height="20" viewBox="0 0 20 20" fill="none" xmlns="http://www.w3.org/2000/svg">
<path d="M18.6784 11.1135C19.2908 6.30917 15.9052 1.91686 11.1198 1.30316C6.33441 0.689466 1.93395 4.08233 1.32156 8.87792C0.709175 13.6735 4.09481 18.0746 8.8802 18.6971C13.6743 19.3108 18.0573 15.9179 18.6784 11.1135Z" fill="#1A1A1A"/>
<path d="M13.1548 6.86176L9.46294 10.5615L8.42188 9.51818C12.0525 5.87984 12.4112 6.19546 13.1548 6.86176Z" fill="#F8F8F7"/>
<path d="M9.46542 10.6493C9.43917 10.6493 9.42168 10.6405 9.40418 10.623L8.35437 9.57969C8.31938 9.54462 8.31938 9.49202 8.35437 9.45695C12.0462 5.75724 12.4311 6.10792 13.2097 6.80929C13.2272 6.82682 13.236 6.84436 13.236 6.87066C13.236 6.89696 13.2272 6.91449 13.2097 6.93203L9.51791 10.623C9.50916 10.6405 9.48292 10.6493 9.46542 10.6493ZM8.54684 9.51832L9.46542 10.4389L13.026 6.87066C12.3786 6.29203 11.9412 6.11669 8.54684 9.51832Z" fill="#1A1A1A"/>
<path d="M10.5217 11.622L9.51562 10.6138L13.2075 6.91406C14.196 7.91351 12.7175 9.53542 10.5217 11.622Z" fill="#F8F8F7"/>
<path d="M10.5223 11.7104C10.4961 11.7104 10.4786 11.7016 10.4611 11.6841L9.455 10.6759C9.4375 10.6584 9.4375 10.6408 9.4375 10.6145C9.4375 10.5882 9.44625 10.5707 9.46374 10.5532L13.1556 6.85345C13.1906 6.81838 13.2431 6.81838 13.2781 6.85345C13.5055 7.06386 13.628 7.36194 13.6192 7.66879C13.6017 8.64194 12.4994 9.87809 10.5923 11.6841C10.566 11.7016 10.5398 11.7104 10.5223 11.7104ZM9.63871 10.6145C10.1986 11.1844 10.4348 11.4123 10.5223 11.5C11.992 10.0973 13.418 8.65947 13.4268 7.66879C13.4355 7.44084 13.348 7.2129 13.1993 7.03756L9.63871 10.6145Z" fill="#1A1A1A"/>
<path d="M8.44304 9.54471L9.18665 10.2899C9.20415 10.3075 9.20415 10.325 9.18665 10.3425C9.1779 10.3513 9.1779 10.3513 9.16916 10.3513L7.62943 10.6844C7.5507 10.6932 7.48071 10.6406 7.46321 10.5617C7.45446 10.5179 7.47196 10.474 7.49821 10.4477L8.39055 9.55348C8.40804 9.53595 8.43429 9.52718 8.44304 9.54471Z" fill="#F8F8F7"/>
<path d="M7.60246 10.7718C7.47123 10.7718 7.375 10.6666 7.375 10.5351C7.375 10.4737 7.40125 10.4124 7.44499 10.3685L8.33733 9.47428C8.38982 9.43045 8.4598 9.43045 8.5123 9.47428L9.25591 10.2195C9.3084 10.2633 9.3084 10.3422 9.25591 10.3948C9.23841 10.4124 9.22092 10.4211 9.19467 10.4299L7.65495 10.763C7.63745 10.763 7.61996 10.7718 7.60246 10.7718ZM8.41606 9.64086L7.55872 10.5C7.54122 10.5176 7.53247 10.5439 7.54997 10.5702C7.55872 10.5965 7.58496 10.6052 7.61121 10.5965L9.0547 10.2809L8.41606 9.64086Z" fill="#1A1A1A"/>
<path d="M15.1094 4.80999C14.5495 4.26643 13.6484 4.28397 13.106 4.85383C12.5636 5.42369 12.5811 6.31793 13.1498 6.86149C13.6134 7.30861 14.3133 7.38752 14.8645 7.05437L13.8671 6.05492L15.1094 4.80999Z" fill="#F8F8F7"/>
<path d="M14.1297 7.344C13.2986 7.344 12.625 6.66894 12.625 5.83606C12.625 5.00319 13.2986 4.32812 14.1297 4.32812C14.5147 4.32812 14.8908 4.47717 15.1708 4.74894C15.1883 4.76648 15.197 4.78401 15.197 4.81031C15.197 4.83662 15.1883 4.85415 15.1708 4.87168L13.9898 6.05524L14.9171 6.98455C14.9521 7.01962 14.9521 7.07222 14.9171 7.10729C14.9083 7.11606 14.9083 7.11606 14.8996 7.12482C14.6721 7.2651 14.4009 7.344 14.1297 7.344ZM14.1297 4.51223C13.3949 4.51223 12.8 5.1084 12.8087 5.84483C12.8087 6.58127 13.4036 7.17743 14.1385 7.16866C14.3397 7.16866 14.5409 7.12483 14.7246 7.02839L13.806 6.11661C13.7885 6.09908 13.7798 6.08154 13.7798 6.05524C13.7798 6.02894 13.7885 6.01141 13.806 5.99387L14.9783 4.81908C14.7421 4.61744 14.4447 4.51223 14.1297 4.51223Z" fill="#1A1A1A"/>
<path d="M15.1357 4.83687L15.1182 4.81934L13.8672 6.05549L14.8558 7.04618C14.952 6.98481 15.0482 6.91467 15.127 6.83577C15.6869 6.28344 15.6869 5.3892 15.1357 4.83687Z" fill="#F8F8F7"/>
<path d="M14.8661 7.14237C14.8398 7.14237 14.8223 7.13361 14.8048 7.11607L13.8075 6.11662C13.79 6.09909 13.7812 6.08156 13.7812 6.05525C13.7812 6.02895 13.79 6.01142 13.8075 5.99388L15.0498 4.74896C15.0848 4.71389 15.1373 4.71389 15.1723 4.74896L15.1985 4.76649C15.7846 5.35389 15.7846 6.30073 15.2072 6.89689C15.1198 6.98456 15.0235 7.06347 14.9185 7.12484C14.8923 7.13361 14.8748 7.14237 14.8661 7.14237ZM13.9912 6.05525L14.8748 6.94073C14.9448 6.89689 15.0148 6.83552 15.0673 6.78292C15.5659 6.2832 15.5922 5.46786 15.111 4.94183L13.9912 6.05525Z" fill="#1A1A1A"/>
<path d="M13.3093 7.01914C13.0993 6.80873 12.7581 6.80873 12.5482 7.01914L9.25 10.3243L9.80115 10.8767L13.2918 7.80817C13.5192 7.6153 13.5367 7.27338 13.3443 7.04544C13.3268 7.03667 13.318 7.0279 13.3093 7.01914Z" fill="#F8F8F7"/>
<path d="M9.78707 10.9651C9.76083 10.9651 9.74333 10.9563 9.72583 10.9388L9.17468 10.3865C9.13969 10.3514 9.13969 10.2988 9.17468 10.2637L12.4728 6.95852C12.7178 6.71304 13.1115 6.71304 13.3564 6.95852C13.6014 7.204 13.6014 7.59852 13.3564 7.844C13.3477 7.85277 13.3389 7.86153 13.3302 7.8703L9.83956 10.9388C9.83081 10.9563 9.81332 10.9651 9.78707 10.9651ZM9.36715 10.3251L9.79582 10.7547L13.2252 7.73879C13.4177 7.58099 13.4352 7.29167 13.2777 7.0988C13.1202 6.90592 12.8315 6.88839 12.6391 7.04619C12.6303 7.05496 12.6216 7.06373 12.6041 7.07249L9.36715 10.3251Z" fill="#1A1A1A"/>
<path d="M6.71823 14.0857C6.68323 14.1032 6.66574 14.1383 6.67449 14.1734L6.82321 14.8046C6.8582 14.8923 6.80571 14.9975 6.70948 15.0238C6.63949 15.0501 6.56076 15.0238 6.51701 14.9712L5.55469 14.0155L8.69537 10.8682L9.78018 10.8857L10.515 11.6221C10.3401 11.7712 9.28152 12.7969 6.71823 14.0857Z" fill="#F8F8F7"/>
<path d="M6.64791 15.1112C6.57793 15.1112 6.50794 15.0849 6.4642 15.0323L5.51062 14.0767C5.49312 14.0592 5.48438 14.0416 5.48438 14.0153C5.48438 13.989 5.49312 13.9715 5.51062 13.954L8.6513 10.8066C8.6688 10.789 8.69505 10.7803 8.71254 10.7803L9.79735 10.7978C9.82359 10.7978 9.84109 10.8066 9.85859 10.8241L10.5935 11.5605C10.611 11.5781 10.6197 11.6044 10.6197 11.6307C10.6197 11.657 10.611 11.6745 10.5847 11.6921L10.5235 11.7447C9.59613 12.56 8.33636 13.3753 6.77039 14.1556L6.91912 14.7781C6.94536 14.892 6.89287 15.0148 6.78789 15.0761C6.7354 15.1024 6.69166 15.1112 6.64791 15.1112ZM5.68559 14.0153L6.58668 14.9096C6.61292 14.9534 6.66541 14.9709 6.70915 14.9446C6.7529 14.9183 6.77039 14.8657 6.74415 14.8219L6.59542 14.1907C6.57793 14.1118 6.61292 14.0416 6.68291 14.0066C8.23138 13.2263 9.48241 12.4197 10.401 11.6219L9.75361 10.9732L8.74754 10.9556L5.68559 14.0153Z" fill="#1A1A1A"/>
<path d="M4.80938 14.7696L5.56175 14.0156L6.68154 15.1378L4.89687 15.0151C4.81813 15.0063 4.76564 14.9362 4.77439 14.8573C4.77439 14.8222 4.78314 14.7871 4.80938 14.7696Z" fill="#F8F8F7"/>
<path d="M6.68368 15.2165L4.89025 15.0937C4.75902 15.085 4.67154 14.971 4.68029 14.8395C4.68904 14.7869 4.70653 14.7343 4.75028 14.6992L5.50264 13.9452C5.53763 13.9102 5.59013 13.9102 5.62512 13.9452L6.74492 15.0674C6.77116 15.0937 6.77991 15.1288 6.76241 15.1639C6.74492 15.1989 6.71867 15.2165 6.68368 15.2165ZM5.56388 14.1381L4.87275 14.8307C4.84651 14.8483 4.84651 14.8921 4.87275 14.9096C4.8815 14.9184 4.89025 14.9272 4.90775 14.9272L6.45622 15.0324L5.56388 14.1381Z" fill="#1A1A1A"/>
<path d="M8.39217 11.2718C8.33968 11.2718 8.30469 11.228 8.30469 11.1842C8.30469 11.1579 8.31344 11.1403 8.33093 11.1228L9.17953 10.2724C9.21452 10.2373 9.26701 10.2373 9.30201 10.2724L9.85316 10.8247C9.8794 10.851 9.88815 10.8773 9.8794 10.9124C9.87066 10.9387 9.84441 10.965 9.80942 10.9738L8.40967 11.2718C8.40092 11.2718 8.39217 11.2718 8.39217 11.2718ZM9.24077 10.4565L8.66337 11.0351L9.6082 10.8335L9.24077 10.4565Z" fill="#1A1A1A"/>
<path d="M9.7792 10.8863L8.81688 11.0967C8.74689 11.1143 8.6769 11.0704 8.65941 11.0003C8.65066 10.9565 8.65941 10.9126 8.6944 10.8776L9.22805 10.3428L9.7792 10.8863Z" fill="#F8F8F7"/>
<path d="M8.80465 11.1842C8.68217 11.1842 8.58594 11.0877 8.58594 10.965C8.58594 10.9036 8.61218 10.851 8.64718 10.8072L9.18083 10.2724C9.21582 10.2373 9.26831 10.2373 9.30331 10.2724L9.85446 10.8247C9.8807 10.851 9.88945 10.8773 9.8807 10.9124C9.87196 10.9387 9.84571 10.965 9.81072 10.9738L8.84839 11.1842C8.83089 11.1842 8.8134 11.1842 8.80465 11.1842ZM9.24207 10.4565L8.76965 10.9299C8.75216 10.9475 8.75216 10.965 8.76091 10.9825C8.76965 11.0001 8.78715 11.0088 8.8134 11.0088L9.61825 10.8335L9.24207 10.4565Z" fill="#1A1A1A"/>
<path d="M15.1472 5.67811C15.1297 5.6255 15.0685 5.5992 15.016 5.61674C14.9635 5.63427 14.9373 5.69564 14.9548 5.74824C14.9548 5.75701 14.9635 5.76578 14.9635 5.77455C15.016 5.87975 14.9985 6.01126 14.9285 6.10769C14.8935 6.15153 14.9023 6.2129 14.9373 6.24797C14.981 6.28304 15.0423 6.27427 15.0773 6.23043C15.2085 6.06386 15.2347 5.85345 15.1472 5.67811Z" fill="#1A1A1A"/>
</svg>
