<svg width="24" height="24" viewBox="0 0 24 24" fill="none" xmlns="http://www.w3.org/2000/svg">
<path d="M12 7.75C12 6.09315 13.3431 4.75 15 4.75H20.25C21.3546 4.75 22.25 5.64543 22.25 6.75V17.25C22.25 18.3546 21.3546 19.25 20.25 19.25H15.277C14.5966 19.25 13.9296 19.4142 13.3508 19.7719C12.772 20.1296 12.3043 20.6414 12 21.25M12 7.75C12 6.09315 10.6569 4.75 9 4.75H3.75C2.64543 4.75 1.75 5.64543 1.75 6.75V17.25C1.75 18.3546 2.64543 19.25 3.75 19.25H8.723C9.40341 19.25 10.0704 19.4142 10.6492 19.7719C11.228 20.1296 11.6957 20.6414 12 21.25M12 7.75V21.25" stroke="#00B3E0" stroke-width="2" stroke-linecap="round" stroke-linejoin="round"/>
</svg>
