<svg width="20" height="20" viewBox="0 0 20 20" fill="none" xmlns="http://www.w3.org/2000/svg">
<path d="M6.2884 7.91448L7.2259 8.53951L8.7856 6.45989M11.7175 7.49969H13.3842M6.2884 12.9154L7.2259 13.5404L8.7856 11.4608M8.33594 16.6663H5.83594C4.45523 16.6663 3.33594 15.5471 3.33594 14.1663V5.83301C3.33594 4.4523 4.45523 3.33301 5.83594 3.33301H14.1693C15.55 3.33301 16.6693 4.4523 16.6693 5.83301V8.33301M15.937 15.9341C14.9607 16.9104 13.3779 16.9104 12.4015 15.9341C11.4252 14.9578 11.4252 13.3748 12.4015 12.3985C13.3779 11.4223 14.9607 11.4223 15.937 12.3985C16.9134 13.3748 16.9134 14.9578 15.937 15.9341ZM15.937 15.9341L17.5026 17.4997" stroke="#7C7C7C" stroke-width="1.5" stroke-linecap="round" stroke-linejoin="round"/>
</svg>
