<svg width="53" height="20" viewBox="0 0 53 20" fill="none" xmlns="http://www.w3.org/2000/svg">
<g clip-path="url(#clip0_1512_24969)">
<path fill-rule="evenodd" clip-rule="evenodd" d="M0 14.4472H1.90653V5.42969H0V14.4472Z" fill="#989898"/>
<path fill-rule="evenodd" clip-rule="evenodd" d="M8.83636 10.865V14.4462H7.01997V11.1742C7.01997 10.2981 6.54329 9.7957 5.79617 9.7957C5.29376 9.7957 4.79136 10.0792 4.53374 10.5172V14.4462H2.71729V8.12111H4.53374V8.86823C4.88143 8.32715 5.55139 7.99219 6.25994 7.99219C7.85722 7.99219 8.83636 9.08723 8.83636 10.865Z" fill="#989898"/>
<path fill-rule="evenodd" clip-rule="evenodd" d="M9.51886 13.7763L10.0599 12.5139C10.6525 12.9518 11.4254 13.1837 12.1983 13.1837C12.7651 13.1837 13.1258 12.9647 13.1258 12.6684C13.113 11.7023 9.71211 12.4237 9.68638 10.092C9.67339 8.9068 10.7298 7.99219 12.2241 7.99219C13.113 7.99219 14.0019 8.21124 14.6331 8.71364L14.1178 10.0276C13.6283 9.65404 12.8296 9.37058 12.1468 9.37058C11.683 9.37058 11.3739 9.58958 11.3739 9.87298C11.3868 10.7877 14.8134 10.2853 14.852 12.5525C14.852 13.7247 13.8215 14.5749 12.3529 14.5749C11.2709 14.5749 10.2789 14.3173 9.51886 13.7763Z" fill="#989898"/>
<path fill-rule="evenodd" clip-rule="evenodd" d="M19.928 14.3687C19.6961 14.4846 19.3355 14.549 19.0005 14.549C17.519 14.549 16.4755 13.6087 16.4755 11.9725V9.84699H15.3033V8.12078H16.4755V6.45898H18.292V8.12078H19.8508V9.84699H18.292V11.8824C18.292 12.4749 18.7429 12.8486 19.271 12.8486C19.4514 12.8486 19.6961 12.8099 19.8379 12.7584L19.928 14.3687Z" fill="#989898"/>
<path fill-rule="evenodd" clip-rule="evenodd" d="M25.2227 12.0629V10.517C24.9522 10.0533 24.3853 9.7055 23.7541 9.7055C22.8653 9.7055 22.1825 10.3753 22.1825 11.2772C22.1825 12.1788 22.8653 12.8487 23.7541 12.8487C24.3853 12.8487 24.9522 12.5138 25.2227 12.0629ZM27.0391 8.121V14.4461H25.2227V13.6989C24.9135 14.2143 24.1534 14.5749 23.3547 14.5749C21.7058 14.5749 20.4048 13.1064 20.4048 11.2772C20.4048 9.44788 21.7058 7.99219 23.3547 7.99219C24.1406 7.99219 24.9135 8.35289 25.2227 8.86814V8.121H27.0391Z" fill="#989898"/>
<path fill-rule="evenodd" clip-rule="evenodd" d="M31.9078 8.1081L31.8047 9.80859C31.5599 9.71835 31.2508 9.66687 30.993 9.66687C30.5808 9.66687 29.9238 10.0019 29.6147 10.6201V14.4462H27.7982V8.121H29.6147V8.86814C29.9238 8.32711 30.6064 7.99219 31.1347 7.99219C31.4567 7.99219 31.7145 8.03087 31.9078 8.1081Z" fill="#989898"/>
<path fill-rule="evenodd" clip-rule="evenodd" d="M36.52 10.5558C36.4428 9.92457 35.8632 9.46076 35.1933 9.46076C34.4331 9.46076 33.9308 9.87304 33.7634 10.5558H36.52ZM38.2848 11.7152H33.7375C33.9051 12.5783 34.4974 13.0291 35.3606 13.0291C35.9275 13.0291 36.52 12.7715 36.7392 12.385L38.1561 13.2482C37.6923 14.0855 36.6361 14.5751 35.322 14.5751C33.467 14.5751 31.9986 13.1322 31.9986 11.2514C31.9986 9.40926 33.4414 7.99219 35.2834 7.99219C36.9967 7.99219 38.3364 9.31908 38.3364 11.0067C38.3364 11.2256 38.3237 11.4705 38.2848 11.7152Z" fill="#989898"/>
<path fill-rule="evenodd" clip-rule="evenodd" d="M48.7448 10.5172V14.4462H46.9154V10.8907C46.9154 10.1307 46.4903 9.66694 45.8206 9.66694C45.3698 9.66694 44.9057 9.95029 44.6868 10.3368V14.4462H42.8704V10.8907C42.8704 10.1307 42.4197 9.66694 41.8142 9.66694C41.2859 9.66694 40.8481 9.96328 40.6548 10.3754V14.4462H38.8384V8.12111H40.6548V8.84245C40.9509 8.43024 41.5564 7.99219 42.4583 7.99219C43.257 7.99219 43.8368 8.24992 44.2231 8.88114C44.6096 8.43024 45.3179 7.99219 46.1556 7.99219C47.6626 7.99219 48.7448 8.9971 48.7448 10.5172Z" fill="#989898"/>
<path fill-rule="evenodd" clip-rule="evenodd" d="M49.7759 13.416C49.7759 12.7719 50.2912 12.2695 50.9483 12.2695C51.6183 12.2695 52.1336 12.7719 52.1336 13.416C52.1336 14.0602 51.6183 14.5755 50.9483 14.5755C50.2912 14.5755 49.7759 14.0602 49.7759 13.416Z" fill="#989898"/>
</g>
<defs>
<clipPath id="clip0_1512_24969">
<rect width="52.3" height="20" fill="white"/>
</clipPath>
</defs>
</svg>
