<svg xmlns="http://www.w3.org/2000/svg" width="20" height="20" viewBox="0 0 24 24" fill="none" stroke="currentColor" stroke-width="1.5" stroke-linecap="round" stroke-linejoin="round">
<path d="M8.74799 15.4838V16.75C8.74799 17.5784 9.41957 18.25 10.248 18.25H13.7504C14.5788 18.25 15.2504 17.5784 15.2504 16.75V15.4838M8.74799 15.4838C8.33548 15.2765 7.94548 15.031 7.58263 14.7519C5.85907 13.4264 4.74829 11.3433 4.74829 9.00089C4.74829 4.99633 7.99462 1.75 11.9992 1.75C16.0037 1.75 19.2501 4.99633 19.2501 9.00089C19.2501 11.3433 18.1393 13.4264 16.4157 14.7519C16.0529 15.031 15.6629 15.2765 15.2504 15.4838M8.74799 15.4838H15.2504M9.75006 21.25H14.2501" stroke="currentColor" stroke-width="1.5" stroke-linecap="round" stroke-linejoin="round"/>
</svg>