<svg xmlns="http://www.w3.org/2000/svg" width="20" height="20" viewBox="0 0 24 24" fill="none" stroke="currentColor" stroke-width="1.5" stroke-linecap="round" stroke-linejoin="round">
<path d="M15.25 8.75V5.75C15.25 4.09315 13.9069 2.75 12.25 2.75H5.75C4.09315 2.75 2.75 4.09315 2.75 5.75V12.25C2.75 13.9069 4.09315 15.25 5.75 15.25H8.75M3.1 11.9L4.34154 11.0866C5.34728 10.4276 6.64928 10.4329 7.64972 11.0998L8.37885 11.5859M6 6.25H6.5M14.5 15.0002H15M6.75 6.25C6.75 6.52614 6.52614 6.75 6.25 6.75C5.97386 6.75 5.75 6.52614 5.75 6.25C5.75 5.97386 5.97386 5.75 6.25 5.75C6.52614 5.75 6.75 5.97386 6.75 6.25ZM13.75 13.2V16.8L16.55 15L13.75 13.2ZM18.25 21.25H11.75C10.0931 21.25 8.75 19.9069 8.75 18.25V11.75C8.75 10.0931 10.0931 8.75 11.75 8.75H18.25C19.9069 8.75 21.25 10.0931 21.25 11.75V18.25C21.25 19.9069 19.9069 21.25 18.25 21.25Z" stroke="currentColor" stroke-width="1.5" stroke-linecap="round" stroke-linejoin="round"/>
</svg>