<svg width="39" height="20" viewBox="0 0 39 20" fill="none" xmlns="http://www.w3.org/2000/svg">
<g clip-path="url(#clip0_1508_62240)">
<path d="M26.3343 13.7228C26.3343 14.2381 26.75 14.6537 27.2652 14.6537C27.7804 14.6537 28.1902 14.238 28.1902 13.7228C28.1902 12.2885 29.3551 11.1235 30.7895 11.1235C31.3047 11.1235 31.7203 10.7078 31.7203 10.1926C31.7203 9.67744 31.3047 9.26182 30.7895 9.26182C28.3306 9.2677 26.3343 11.264 26.3343 13.7228ZM23.7174 10.1985C23.7174 11.6328 22.5524 12.7979 21.118 12.7979C19.6837 12.7979 18.5187 11.6328 18.5187 10.1985C18.5187 8.76417 19.6837 7.59917 21.118 7.59917C22.5524 7.59921 23.7174 8.76417 23.7174 10.1985ZM25.5733 10.1985C25.5733 7.73969 23.577 5.74335 21.118 5.74335C18.6593 5.74335 16.663 7.73964 16.663 10.1985C16.663 12.6573 18.6593 14.6537 21.118 14.6537C23.5769 14.6537 25.5733 12.6573 25.5733 10.1985ZM38.5055 7.23624C38.7983 6.82057 38.728 6.23515 38.3241 5.93075C37.9025 5.61458 37.3054 5.71411 37.0068 6.14147L35.6018 8.1495C35.4554 8.36029 35.1393 8.36029 34.9929 8.1495L33.5879 6.14147C33.4181 5.90146 33.143 5.74344 32.8268 5.74344H27.2593C26.7441 5.74344 26.3285 6.15906 26.3285 6.67425V8.48907C26.3285 8.99841 26.7208 9.44332 27.2301 9.45502C27.757 9.47261 28.1843 9.0511 28.1843 8.53002V7.97384C28.1843 7.76902 28.3482 7.60502 28.5532 7.60502H32.1477C32.2707 7.60502 32.3819 7.66356 32.4521 7.76308L33.7167 9.56621C33.986 9.95262 33.986 10.462 33.7167 10.8425L32.0892 13.1666C31.7965 13.5823 31.8667 14.1677 32.2707 14.4722C32.6921 14.7883 33.2893 14.6887 33.5879 14.2614L34.9929 12.2533C35.1392 12.0426 35.4554 12.0426 35.6018 12.2533L36.9834 14.2262C37.2761 14.6419 37.8498 14.7825 38.2772 14.5014C38.7163 14.2145 38.8275 13.6174 38.5289 13.19L36.878 10.8366C36.6086 10.4502 36.6086 9.94088 36.878 9.56032L38.5055 7.23624ZM3.52578 4.09241C0.153643 6.0419 -0.999624 10.3508 0.943977 13.7228C2.89343 17.095 7.2023 18.2482 10.5744 16.3046C13.9464 14.3551 15.0998 10.0463 13.1562 6.67417C11.2125 3.30211 6.89787 2.14881 3.52578 4.09241ZM11.6692 10.1985C11.6692 10.7664 11.2126 11.223 10.6446 11.223H9.866C8.49024 11.223 7.21985 11.9549 6.5349 13.1433L6.14852 13.8165C5.86753 14.3083 5.23526 14.4723 4.74936 14.1912C4.25761 13.9102 4.09366 13.2838 4.37469 12.792L4.76106 12.1188C5.44606 10.9303 5.44606 9.46083 4.76106 8.27242L4.39224 7.62842C4.11125 7.13667 4.25176 6.49855 4.73181 6.20586C5.22352 5.90727 5.86168 6.077 6.14856 6.56879L6.53498 7.24204C7.21997 8.43045 8.49032 9.16233 9.86612 9.16233H10.6447C11.2067 9.17395 11.6692 9.63068 11.6692 10.1985Z" fill="#989898"/>
</g>
<defs>
<clipPath id="clip0_1508_62240">
<rect width="38.7" height="20" fill="white"/>
</clipPath>
</defs>
</svg>
