<svg width="39" height="20" viewBox="0 0 39 20" fill="none" xmlns="http://www.w3.org/2000/svg">
<g clip-path="url(#clip0_1512_24917)">
<path d="M38.588 4.7793V14.4888H36.3882V4.7793H38.588Z" fill="#989898"/>
<path d="M35.5765 8.05471V14.5036H33.6204V13.9486C33.3737 14.1899 33.0909 14.3739 32.7769 14.5036C32.4615 14.6408 32.1204 14.7102 31.7539 14.7102C31.2933 14.7102 30.8672 14.6242 30.4755 14.4523C30.0836 14.2713 29.7425 14.027 29.4525 13.7178C29.1624 13.4086 28.9321 13.0467 28.7616 12.635C28.6 12.2142 28.5193 11.7617 28.5193 11.2806C28.5193 10.7996 28.6 10.3516 28.7616 9.93989C28.9321 9.51912 29.1624 9.15265 29.4525 8.84348C29.7425 8.53431 30.0836 8.29299 30.4755 8.12106C30.8672 7.9401 31.2933 7.84961 31.7539 7.84961C32.1204 7.84961 32.4615 7.91898 32.7769 8.05622C33.0925 8.18592 33.3737 8.36992 33.6204 8.61122V8.05622H35.5765V8.05471ZM32.11 12.7496C32.5107 12.7496 32.8381 12.6123 33.0939 12.3363C33.3586 12.0619 33.4902 11.709 33.4902 11.2791C33.4902 10.8493 33.3586 10.4964 33.0939 10.2219C32.8381 9.94743 32.5093 9.80868 32.11 9.80868C31.7107 9.80868 31.3773 9.94593 31.1125 10.2219C30.8568 10.4964 30.7282 10.8493 30.7282 11.2791C30.7282 11.709 30.8568 12.0619 31.1125 12.3363C31.3773 12.6108 31.7091 12.7496 32.11 12.7496Z" fill="#989898"/>
<path d="M25.3825 4.77734C25.9629 4.77734 26.4563 4.85878 26.8661 5.02167C27.2758 5.18454 27.6212 5.41228 27.9024 5.70486C28.1926 6.00649 28.4183 6.35035 28.5799 6.73643C28.7413 7.12403 28.8222 7.54027 28.8222 7.9882C28.8222 8.43613 28.7413 8.85237 28.5799 9.23996C28.4183 9.62756 28.1926 9.97141 27.9024 10.2715C27.6212 10.5641 27.2758 10.7918 26.8661 10.9547C26.4563 11.1176 25.9629 11.1991 25.3825 11.1991H24.3207V14.5004H22.082V4.77734H25.3811H25.3825ZM25.0625 9.20075C25.3617 9.20075 25.5904 9.1706 25.7534 9.11026C25.9238 9.0409 26.0644 8.95493 26.1752 8.85237C26.4055 8.6367 26.5206 8.34866 26.5206 7.9882C26.5206 7.62774 26.4055 7.3397 26.1752 7.12403C26.0644 7.02147 25.9238 6.93852 25.7534 6.87971C25.592 6.81033 25.3617 6.77715 25.0625 6.77715H24.3207V9.20226H25.0625V9.20075Z" fill="#989898"/>
<path d="M13.837 8.05273H16.2672L17.9167 11.1474H17.9421L19.4122 8.05273H21.6629L16.8415 17.7773H14.6027L16.8026 13.3282L13.8355 8.05273H13.837Z" fill="#989898"/>
<path d="M13.4014 8.05471V14.5036H11.4453V13.9486C11.1986 14.1899 10.9159 14.3739 10.6019 14.5036C10.2863 14.6408 9.94537 14.7102 9.57897 14.7102C9.11836 14.7102 8.69215 14.6242 8.30034 14.4523C7.90852 14.2713 7.56754 14.027 7.27742 13.7178C6.9873 13.4086 6.757 13.0467 6.58652 12.635C6.42501 12.2142 6.34424 11.7617 6.34424 11.2806C6.34424 10.7996 6.42501 10.3516 6.58652 9.93989C6.757 9.51912 6.9873 9.15265 7.27742 8.84348C7.56754 8.53431 7.90852 8.29299 8.30034 8.12106C8.69215 7.9401 9.11836 7.84961 9.57897 7.84961C9.94537 7.84961 10.2863 7.91898 10.6019 8.05622C10.9174 8.18592 11.1986 8.36992 11.4453 8.61122V8.05622H13.4014V8.05471ZM9.93489 12.7496C10.3357 12.7496 10.6632 12.6123 10.9204 12.3363C11.1851 12.0619 11.3167 11.709 11.3167 11.2791C11.3167 10.8493 11.1851 10.4964 10.9204 10.2219C10.6647 9.94743 10.3357 9.80868 9.93489 9.80868C9.53411 9.80868 9.20211 9.94593 8.93741 10.2219C8.68167 10.4964 8.55307 10.8493 8.55307 11.2791C8.55307 11.709 8.68167 12.0619 8.93741 12.3363C9.20211 12.6108 9.53411 12.7496 9.93489 12.7496Z" fill="#989898"/>
<path d="M3.29903 4.77734C3.87929 4.77734 4.3728 4.85878 4.78257 5.02167C5.19233 5.18454 5.53778 5.41228 5.81893 5.70486C6.10907 6.00649 6.33488 6.35035 6.49639 6.73643C6.6579 7.12403 6.73865 7.54027 6.73865 7.9882C6.73865 8.43613 6.6579 8.85237 6.49639 9.23996C6.33488 9.62756 6.10907 9.97141 5.81893 10.2715C5.53778 10.5641 5.19233 10.7918 4.78257 10.9547C4.3728 11.1176 3.87929 11.1991 3.29903 11.1991H2.23725V14.5004H0V4.77734H3.29903ZM2.9805 9.20075C3.27961 9.20075 3.50841 9.1706 3.67142 9.11026C3.8419 9.0409 3.98249 8.95493 4.09315 8.85237C4.32345 8.6367 4.4386 8.34866 4.4386 7.9882C4.4386 7.62774 4.32345 7.3397 4.09315 7.12403C3.98249 7.02147 3.8419 6.93852 3.67142 6.87971C3.50991 6.81033 3.27961 6.77715 2.9805 6.77715H2.23874V9.20226H2.9805V9.20075Z" fill="#989898"/>
</g>
<defs>
<clipPath id="clip0_1512_24917">
<rect width="38.6" height="20" fill="white"/>
</clipPath>
</defs>
</svg>
