<svg width="42" height="20" viewBox="0 0 42 20" fill="none" xmlns="http://www.w3.org/2000/svg">
<g clip-path="url(#clip0_1512_24917)">
<path d="M41.1922 4.33984V14.7046H38.8439V4.33984H41.1922Z" fill="#989898"/>
<path d="M37.9775 7.83808V14.7221H35.8893V14.1297C35.6259 14.3873 35.324 14.5837 34.9889 14.7221C34.6522 14.8686 34.2881 14.9427 33.8969 14.9427C33.4052 14.9427 32.9503 14.8509 32.5322 14.6674C32.1138 14.4742 31.7497 14.2134 31.4402 13.8834C31.1304 13.5533 30.8846 13.167 30.7026 12.7274C30.5301 12.2783 30.444 11.7953 30.444 11.2817C30.444 10.7682 30.5301 10.29 30.7026 9.85048C30.8846 9.40132 31.1304 9.01012 31.4402 8.68008C31.7497 8.35004 32.1138 8.09244 32.5322 7.90891C32.9503 7.71574 33.4052 7.61914 33.8969 7.61914C34.2881 7.61914 34.6522 7.69319 34.9889 7.8397C35.3258 7.97815 35.6259 8.17457 35.8893 8.43214V7.8397H37.9775V7.83808ZM34.277 12.8498C34.7047 12.8498 35.0543 12.7033 35.3273 12.4087C35.6099 12.1157 35.7503 11.739 35.7503 11.2801C35.7503 10.8213 35.6099 10.4446 35.3273 10.1516C35.0543 9.85854 34.7033 9.71042 34.277 9.71042C33.8507 9.71042 33.4948 9.85693 33.2122 10.1516C32.9392 10.4446 32.8019 10.8213 32.8019 11.2801C32.8019 11.739 32.9392 12.1157 33.2122 12.4087C33.4948 12.7017 33.849 12.8498 34.277 12.8498Z" fill="#989898"/>
<path d="M27.0955 4.33789C27.715 4.33789 28.2417 4.42483 28.6791 4.5987C29.1165 4.77257 29.4853 5.01567 29.7854 5.328C30.0952 5.64998 30.3361 6.01705 30.5086 6.42919C30.6809 6.84295 30.7673 7.28728 30.7673 7.76543C30.7673 8.24359 30.6809 8.68792 30.5086 9.10167C30.3361 9.51542 30.0952 9.88249 29.7854 10.2029C29.4853 10.5152 29.1165 10.7583 28.6791 10.9322C28.2417 11.106 27.715 11.193 27.0955 11.193H25.962V14.7171H23.5722V4.33789H27.094H27.0955ZM26.7539 9.05982C27.0733 9.05982 27.3174 9.02763 27.4914 8.96322C27.6733 8.88917 27.8234 8.79741 27.9416 8.68792C28.1874 8.4577 28.3104 8.15022 28.3104 7.76543C28.3104 7.38065 28.1874 7.07317 27.9416 6.84295C27.8234 6.73347 27.6733 6.64492 27.4914 6.58213C27.3191 6.50808 27.0733 6.47266 26.7539 6.47266H25.962V9.06143H26.7539V9.05982Z" fill="#989898"/>
<path d="M14.7709 7.83398H17.365L19.1259 11.1375H19.153L20.7223 7.83398H23.1249L17.978 18.2148H15.5882L17.9365 13.4655L14.7692 7.83398H14.7709Z" fill="#989898"/>
<path d="M14.3059 7.83808V14.7221H12.2177V14.1297C11.9543 14.3873 11.6526 14.5837 11.3174 14.7221C10.9805 14.8686 10.6165 14.9427 10.2254 14.9427C9.73373 14.9427 9.27875 14.8509 8.86049 14.6674C8.44224 14.4742 8.07824 14.2134 7.76854 13.8834C7.45884 13.5533 7.213 13.167 7.03101 12.7274C6.8586 12.2783 6.77238 11.7953 6.77238 11.2817C6.77238 10.7682 6.8586 10.29 7.03101 9.85048C7.213 9.40132 7.45884 9.01012 7.76854 8.68008C8.07824 8.35004 8.44224 8.09244 8.86049 7.90891C9.27875 7.71574 9.73373 7.61914 10.2254 7.61914C10.6165 7.61914 10.9805 7.69319 11.3174 7.8397C11.6542 7.97815 11.9543 8.17457 12.2177 8.43214V7.8397H14.3059V7.83808ZM10.6054 12.8498C11.0332 12.8498 11.3828 12.7033 11.6574 12.4087C11.94 12.1157 12.0804 11.739 12.0804 11.2801C12.0804 10.8213 11.94 10.4446 11.6574 10.1516C11.3844 9.85854 11.0332 9.71042 10.6054 9.71042C10.1775 9.71042 9.82313 9.85693 9.54056 10.1516C9.26756 10.4446 9.13028 10.8213 9.13028 11.2801C9.13028 11.739 9.26756 12.1157 9.54056 12.4087C9.82313 12.7017 10.1775 12.8498 10.6054 12.8498Z" fill="#989898"/>
<path d="M3.52167 4.33789C4.14109 4.33789 4.6679 4.42483 5.10533 4.5987C5.54274 4.77257 5.9115 5.01567 6.21162 5.328C6.52134 5.64998 6.7624 6.01705 6.93481 6.42919C7.10722 6.84295 7.19341 7.28728 7.19341 7.76543C7.19341 8.24359 7.10722 8.68792 6.93481 9.10167C6.7624 9.51542 6.52134 9.88249 6.21162 10.2029C5.9115 10.5152 5.54274 10.7583 5.10533 10.9322C4.6679 11.106 4.14109 11.193 3.52167 11.193H2.38823V14.7171H0V4.33789H3.52167ZM3.18164 9.05982C3.50094 9.05982 3.74517 9.02763 3.91919 8.96322C4.10118 8.88917 4.25125 8.79741 4.36938 8.68792C4.61522 8.4577 4.73815 8.15022 4.73815 7.76543C4.73815 7.38065 4.61522 7.07317 4.36938 6.84295C4.25125 6.73347 4.10118 6.64492 3.91919 6.58213C3.74678 6.50808 3.50094 6.47266 3.18164 6.47266H2.38983V9.06143H3.18164V9.05982Z" fill="#989898"/>
</g>
<defs>
<clipPath id="clip0_1512_24917">
<rect width="41.19" height="20" fill="white"/>
</clipPath>
</defs>
</svg>
