<svg xmlns="http://www.w3.org/2000/svg" width="20" height="20" viewBox="0 0 24 24" fill="none" stroke="currentColor" stroke-width="1.5" stroke-linecap="round" stroke-linejoin="round">
<path d="M15.75 6.5C15.75 8.57107 14.0711 10.25 12 10.25C9.92893 10.25 8.25 8.57107 8.25 6.5C8.25 4.42893 9.92893 2.75 12 2.75C14.0711 2.75 15.75 4.42893 15.75 6.5Z" stroke="currentColor" stroke-width="1.5" stroke-linecap="round" stroke-linejoin="round"/><path d="M11.8521 13.2513C8.9437 13.3017 6.65344 14.8422 5.43304 17.1121C4.59593 18.6691 6.02717 20.25 7.79494 20.25H12.4997M11.8521 13.2513C11.9011 13.2504 11.9503 13.25 11.9997 13.25C12.3518 13.25 12.695 13.2717 13.0287 13.3138M11.8521 13.2513C11.202 13.2626 10.5831 13.3483 9.99978 13.5M13.0287 13.3138C13.3624 13.3559 13.6864 13.4184 14.0001 13.5M13.0287 13.3138C13.7306 13.4024 14.3901 13.5812 14.9997 13.838" stroke="currentColor" stroke-width="1.5" stroke-linecap="round" stroke-linejoin="round"/><path d="M18.25 15.25V18.25M18.25 18.25V21.25M18.25 18.25H15.25M18.25 18.25H21.25" stroke="currentColor" stroke-width="1.5" stroke-linecap="round" stroke-linejoin="round"/>
</svg>