<svg width="62" height="20" viewBox="0 0 62 20" fill="none" xmlns="http://www.w3.org/2000/svg">
<g clip-path="url(#clip0_1508_62236)">
<path fill-rule="evenodd" clip-rule="evenodd" d="M44.873 7.53934C44.95 7.53934 45.0122 7.60262 45.0122 7.6799V13.6107C45.0122 13.6883 44.95 13.751 44.873 13.751H42.9909C42.914 13.751 42.8516 13.6883 42.8516 13.6107V7.6799C42.8516 7.60262 42.914 7.53934 42.9909 7.53934H44.873ZM53.4253 5.73886C53.5022 5.73886 53.5645 5.8015 53.5645 5.87892V13.6109C53.5645 13.688 53.5022 13.751 53.4253 13.751H51.5432C51.4663 13.751 51.4039 13.688 51.4039 13.6109V5.87892C51.4039 5.8015 51.4663 5.73886 51.5432 5.73886H53.4253ZM43.9769 4.47852C44.6481 4.47852 45.1923 5.02261 45.1923 5.69366C45.1923 6.36489 44.6481 6.90917 43.9769 6.90917C43.3057 6.90917 42.7616 6.36489 42.7616 5.69366C42.7616 5.02261 43.3057 4.47852 43.9769 4.47852ZM61.0356 8.31362C61.0356 8.3156 61.0365 8.31884 61.0365 8.32073V13.865C61.0365 15.2082 60.46 16.1364 59.201 16.5659C58.404 16.8381 57.6459 16.8603 56.9311 16.749C56.8577 16.7373 56.8064 16.6699 56.8129 16.5966L56.9551 14.9612C56.9625 14.8767 57.0373 14.8229 57.1217 14.8368C57.3483 14.8745 57.7668 14.8783 57.772 14.8783C57.949 14.8835 58.1142 14.8394 58.2613 14.7647C58.2687 14.7613 58.2758 14.7575 58.2831 14.7539C58.5887 14.5891 58.8315 14.2755 58.8428 13.9057V13.3542C58.8428 13.0788 58.6505 13.1368 58.5212 13.2374C58.1138 13.555 57.6544 13.8624 56.9894 13.8624C56.2519 13.8624 55.6913 13.5575 55.3139 13.0592C55.0973 12.7739 54.9149 12.1711 54.9149 10.9008V7.67927C54.9149 7.60174 54.9777 7.53934 55.0556 7.53934H56.9635C57.0416 7.53934 57.1048 7.60174 57.1048 7.67927V10.9008C57.1048 11.5757 57.4391 11.9298 57.9576 11.9298C58.4766 11.9298 58.8455 11.5757 58.8455 10.9008V7.67927C58.8455 7.60174 58.9086 7.53934 58.9865 7.53934H60.8943C60.9723 7.53934 61.0356 7.60174 61.0356 7.67927V8.31362ZM50.0917 7.54599C50.1701 7.54599 50.2336 7.60827 50.2336 7.68534V9.30143C50.2336 9.37858 50.1701 9.44077 50.0917 9.44077H49.2267C49.1482 9.44077 49.0847 9.50297 49.0847 9.58003V11.387C49.0847 12.2138 49.753 12.0716 50.0701 12.025C50.1564 12.0123 50.2336 12.0767 50.2336 12.1624V13.4701C50.2336 13.5312 50.1922 13.5764 50.1347 13.6038C49.8723 13.728 49.24 13.841 48.5044 13.841C47.4986 13.841 46.8826 13.1282 46.8826 12.249V9.58003C46.8826 9.50297 46.8192 9.44077 46.7406 9.44077H46.1445C46.0661 9.44077 46.0025 9.37858 46.0025 9.30143V7.68534C46.0025 7.60827 46.0661 7.54599 46.1445 7.54599H46.7406C46.8192 7.54599 46.8826 7.48344 46.8826 7.40665V5.87812C46.8826 5.80132 46.9462 5.73886 47.0248 5.73886H48.9429C49.021 5.73886 49.0847 5.80132 49.0847 5.87812V7.40683C49.0847 7.48344 49.1482 7.54599 49.2267 7.54599H50.0917ZM20.2736 9.58472C21.0338 9.58472 21.4714 9.21847 21.4714 8.63474V8.61187C21.4714 7.98249 21.011 7.66197 20.2619 7.66197H18.9402C18.8622 7.66197 18.7992 7.72461 18.7992 7.80189V9.44462C18.7992 9.522 18.8622 9.58472 18.9402 9.58472H20.2736ZM16.5645 5.87896C16.5645 5.80159 16.6274 5.73886 16.7054 5.73886H20.3773C21.6099 5.73886 22.4622 6.05947 23.0037 6.60885C23.4761 7.06658 23.7178 7.68475 23.7178 8.47466V8.49735C23.7178 9.6592 23.1266 10.4503 22.2106 10.8899C22.1322 10.9273 22.1035 11.0227 22.1525 11.0938L23.8317 13.5316C23.8955 13.6247 23.8289 13.751 23.7153 13.751H21.5041C21.4405 13.751 21.3811 13.7194 21.346 13.6668L19.8501 11.4316C19.8054 11.3646 19.7297 11.3245 19.6487 11.3245H18.9402C18.8622 11.3245 18.7992 11.3871 18.7992 11.4645V13.6109C18.7992 13.6883 18.7359 13.751 18.6581 13.751H16.7054C16.6274 13.751 16.5645 13.6883 16.5645 13.6109V5.87896ZM28.6313 9.91889V9.91871C28.6313 9.31091 28.1864 8.83154 27.5243 8.83154C26.9102 8.83154 26.435 9.31091 26.435 9.91871V9.91889C26.435 9.99609 26.4935 10.0585 26.5657 10.0585H28.5006C28.5727 10.0585 28.6313 9.99609 28.6313 9.91889ZM27.4301 7.35929C29.5075 7.35929 30.6083 8.87824 30.6083 10.6681V11.0687C30.6083 11.1462 30.5456 11.2095 30.4683 11.2095H26.5036L26.5029 11.2099H26.4989C26.4222 11.2099 26.36 11.2726 26.36 11.3498C26.36 11.9574 26.917 12.3266 27.6222 12.3266L27.6228 12.326C27.6238 12.326 27.6256 12.3266 27.6256 12.3266C28.0033 12.3266 28.273 12.1809 28.4871 11.9571C28.5337 11.909 28.5956 11.8791 28.6623 11.8791H30.3199C30.4186 11.8791 30.4898 11.9805 30.4521 12.0719C30.0132 13.1317 29.0523 13.841 27.4301 13.841C25.6177 13.841 24.3066 12.4579 24.3066 10.6681C24.3066 8.87824 25.5026 7.35929 27.4301 7.35929ZM37.4647 8.25219C37.9857 7.70111 38.598 7.35929 39.4547 7.35929C40.7831 7.35929 41.5913 8.17986 41.5913 9.61577V13.5215C41.5913 13.5987 41.5279 13.661 41.45 13.661H39.5385C39.4602 13.661 39.3972 13.5987 39.3972 13.5215V10.3109C39.3972 9.63829 39.062 9.28517 38.5422 9.28517C38.0227 9.28517 37.6414 9.63829 37.6414 10.3109V13.5215C37.6414 13.5987 37.578 13.661 37.5001 13.661H35.5886C35.5102 13.661 35.4471 13.5987 35.4471 13.5215V10.3109C35.4471 9.63829 35.1121 9.28517 34.5923 9.28517C34.0726 9.28517 33.7032 9.63829 33.7032 10.3109V13.5215C33.7032 13.5987 33.6398 13.661 33.5617 13.661H31.65C31.5718 13.661 31.5086 13.5987 31.5086 13.5215V7.63569C31.5086 7.55842 31.5718 7.49615 31.65 7.49615H33.5663C33.6419 7.49615 33.7032 7.55645 33.7032 7.63084V8.06984C33.7032 8.17179 33.8325 8.21549 33.897 8.13625C34.2683 7.68244 34.8366 7.38406 35.4783 7.3601C35.5072 7.35947 35.5351 7.35929 35.5625 7.35929C36.3377 7.35929 36.9422 7.67643 37.2922 8.23631C37.3297 8.29688 37.4153 8.30451 37.4647 8.25219Z" fill="#989898"/>
<path fill-rule="evenodd" clip-rule="evenodd" d="M11.3971 11.7198L6.62599 8.26253C6.38544 8.08847 6.05997 8.08847 5.81978 8.26253L3.6933 9.80319C3.56909 9.89292 3.41743 9.92941 3.26603 9.90544C3.11454 9.88166 2.98167 9.8004 2.89143 9.67652C2.80119 9.55282 2.76478 9.40147 2.7889 9.25057C2.81293 9.09957 2.89423 8.96687 3.01843 8.87696L4.52615 7.78441H4.52651L5.83902 6.83331C6.57233 6.30168 7.58323 6.36763 8.23903 6.99079C8.38392 7.12881 8.60984 7.13728 8.7719 7.01962L11.3971 5.11752V11.7198ZM11.337 13.0712L11.3302 13.1169C11.3141 13.2168 11.2474 13.3609 11.1742 13.4304C10.9811 13.614 10.6982 13.6285 10.4924 13.4792L8.16361 11.7901L8.14662 11.778C8.00544 11.6755 7.77482 11.6767 7.64637 11.7948C7.45947 11.9668 7.48395 12.2548 7.67871 12.3958L7.70725 12.4164L9.84304 13.9641C9.96183 14.0504 10.0495 14.178 10.0697 14.3235C10.0978 14.5244 10.0164 14.7134 9.85686 14.8291L9.8079 14.8647C9.62209 14.9992 9.37052 14.9992 9.18462 14.8647L6.53593 12.9451C6.39474 12.8431 6.16367 12.8441 6.03549 12.9621C5.84833 13.1344 5.87308 13.4219 6.06765 13.5629L8.23199 15.1312C8.35113 15.2176 8.43848 15.3453 8.45854 15.4908C8.48708 15.692 8.40578 15.8805 8.24599 15.9965L8.19676 16.032C8.01104 16.1666 7.75937 16.1666 7.57374 16.032L7.09119 15.6822L4.92487 14.1125C4.78368 14.0102 4.55289 14.0116 4.42462 14.1297C4.23727 14.3016 4.2622 14.5893 4.45677 14.7303L6.62111 16.2988C6.74008 16.3849 6.82743 16.5127 6.84793 16.6579C6.87603 16.8593 6.79473 17.0481 6.63484 17.1639L6.58733 17.1985C6.42085 17.3189 6.2036 17.3315 6.02592 17.2366L0.846238 13.4831V5.11752L3.09711 6.74881L3.80657 7.2626L2.52098 8.19442C2.21412 8.41641 2.01268 8.74479 1.95343 9.11858C1.89372 9.4921 1.98387 9.86634 2.20708 10.1727C2.42992 10.4786 2.75891 10.6796 3.13351 10.7392C3.20876 10.751 3.28401 10.7569 3.35871 10.7569C3.65626 10.7569 3.94532 10.6639 4.19075 10.4861L5.9887 9.18336C6.12835 9.08209 6.31733 9.08209 6.4568 9.18336L11.1742 12.6031C11.3026 12.722 11.3645 12.8955 11.337 13.0712ZM10.7908 4.51363L8.65275 6.06294C8.58744 6.11024 8.49855 6.11474 8.43081 6.0706C7.56101 5.50536 6.42916 5.48041 5.52874 6.02681C5.50137 6.03897 5.4749 6.05348 5.44961 6.07168L4.52597 6.74115L1.45245 4.51363H10.7908ZM12.1192 3.79335C12.0402 3.71407 11.9324 3.66992 11.82 3.66992H0.423036C0.18935 3.66992 1.52588e-05 3.85875 1.52588e-05 4.09155V13.698C1.52588e-05 13.8331 0.0649638 13.9598 0.174174 14.0393L5.65655 18.0132H5.65683C5.93387 18.2141 6.30938 18.2141 6.58651 18.0132L12.0687 14.0407C12.1784 13.9609 12.2433 13.8343 12.2433 13.6993V4.09191C12.2433 3.98002 12.1988 3.87272 12.1192 3.79335Z" fill="#989898"/>
</g>
<defs>
<clipPath id="clip0_1508_62236">
<rect width="61.04" height="20" fill="white"/>
</clipPath>
</defs>
</svg>
