<svg width="62" height="20" viewBox="0 0 62 20" fill="none" xmlns="http://www.w3.org/2000/svg">
<g clip-path="url(#clip0_1508_62236)">
<path fill-rule="evenodd" clip-rule="evenodd" d="M44.8731 7.84012C44.95 7.84012 45.0122 7.9034 45.0122 7.98068V13.9115C45.0122 13.9891 44.95 14.0518 44.8731 14.0518H42.9909C42.914 14.0518 42.8516 13.9891 42.8516 13.9115V7.98068C42.8516 7.9034 42.914 7.84012 42.9909 7.84012H44.8731ZM53.4253 6.03964C53.5022 6.03964 53.5645 6.10228 53.5645 6.1797V13.9116C53.5645 13.9888 53.5022 14.0518 53.4253 14.0518H51.5432C51.4663 14.0518 51.404 13.9888 51.404 13.9116V6.1797C51.404 6.10228 51.4663 6.03964 51.5432 6.03964H53.4253ZM43.977 4.7793C44.6481 4.7793 45.1923 5.32339 45.1923 5.99444C45.1923 6.66567 44.6481 7.20995 43.977 7.20995C43.3058 7.20995 42.7616 6.66567 42.7616 5.99444C42.7616 5.32339 43.3058 4.7793 43.977 4.7793ZM61.0356 8.6144C61.0356 8.61638 61.0366 8.61962 61.0366 8.62151V14.1658C61.0366 15.509 60.46 16.4371 59.201 16.8666C58.4041 17.1388 57.6459 17.1611 56.9311 17.0498C56.8577 17.0381 56.8064 16.9707 56.8129 16.8973L56.9552 15.262C56.9626 15.1774 57.0373 15.1237 57.1218 15.1375C57.3483 15.1753 57.7668 15.1791 57.772 15.1791C57.949 15.1843 58.1142 15.1402 58.2613 15.0655C58.2688 15.0621 58.2758 15.0583 58.2831 15.0547C58.5887 14.8899 58.8315 14.5763 58.8428 14.2065V13.655C58.8428 13.3796 58.6505 13.4376 58.5212 13.5382C58.1138 13.8558 57.6544 14.1632 56.9894 14.1632C56.252 14.1632 55.6914 13.8583 55.3139 13.36C55.0973 13.0747 54.9149 12.4719 54.9149 11.2016V7.98005C54.9149 7.90252 54.9777 7.84012 55.0556 7.84012H56.9635C57.0416 7.84012 57.1048 7.90252 57.1048 7.98005V11.2016C57.1048 11.8765 57.4391 12.2306 57.9576 12.2306C58.4766 12.2306 58.8455 11.8765 58.8455 11.2016V7.98005C58.8455 7.90252 58.9086 7.84012 58.9865 7.84012H60.8943C60.9723 7.84012 61.0356 7.90252 61.0356 7.98005V8.6144ZM50.0917 7.84678C50.1701 7.84678 50.2336 7.90906 50.2336 7.98612V9.60221C50.2336 9.67936 50.1701 9.74155 50.0917 9.74155H49.2267C49.1482 9.74155 49.0847 9.80375 49.0847 9.88081V11.6878C49.0847 12.5145 49.7531 12.3724 50.0701 12.3258C50.1565 12.3131 50.2336 12.3775 50.2336 12.4632V13.7709C50.2336 13.8319 50.1922 13.8772 50.1347 13.9045C49.8723 14.0288 49.24 14.1418 48.5044 14.1418C47.4986 14.1418 46.8826 13.429 46.8826 12.5498V9.88081C46.8826 9.80375 46.8192 9.74155 46.7406 9.74155H46.1445C46.0661 9.74155 46.0025 9.67936 46.0025 9.60221V7.98612C46.0025 7.90906 46.0661 7.84678 46.1445 7.84678H46.7406C46.8192 7.84678 46.8826 7.78423 46.8826 7.70743V6.1789C46.8826 6.1021 46.9462 6.03964 47.0248 6.03964H48.9429C49.0211 6.03964 49.0847 6.1021 49.0847 6.1789V7.70761C49.0847 7.78423 49.1482 7.84678 49.2267 7.84678H50.0917ZM20.2736 9.88551C21.0338 9.88551 21.4715 9.51925 21.4715 8.93552V8.91265C21.4715 8.28327 21.011 7.96275 20.2619 7.96275H18.9402C18.8622 7.96275 18.7992 8.02539 18.7992 8.10267V9.7454C18.7992 9.82278 18.8622 9.88551 18.9402 9.88551H20.2736ZM16.5645 6.17974C16.5645 6.10237 16.6275 6.03964 16.7054 6.03964H20.3773C21.6099 6.03964 22.4622 6.36025 23.0038 6.90963C23.4761 7.36736 23.7178 7.98553 23.7178 8.77544V8.79813C23.7178 9.95999 23.1266 10.7511 22.2106 11.1907C22.1322 11.2281 22.1035 11.3235 22.1525 11.3945L23.8317 13.8323C23.8955 13.9254 23.8289 14.0518 23.7154 14.0518H21.5041C21.4405 14.0518 21.3811 14.0202 21.346 13.9676L19.8501 11.7324C19.8054 11.6654 19.7297 11.6253 19.6487 11.6253H18.9402C18.8622 11.6253 18.7992 11.6879 18.7992 11.7652V13.9117C18.7992 13.9891 18.7359 14.0518 18.6581 14.0518H16.7054C16.6275 14.0518 16.5645 13.9891 16.5645 13.9117V6.17974ZM28.6313 10.2197V10.2195C28.6313 9.6117 28.1864 9.13232 27.5243 9.13232C26.9102 9.13232 26.435 9.6117 26.435 10.2195V10.2197C26.435 10.2969 26.4935 10.3593 26.5657 10.3593H28.5006C28.5727 10.3593 28.6313 10.2969 28.6313 10.2197ZM27.4301 7.66008C29.5075 7.66008 30.6083 9.17902 30.6083 10.9689V11.3695C30.6083 11.447 30.5456 11.5103 30.4683 11.5103H26.5036L26.5029 11.5106H26.4989C26.4222 11.5106 26.3601 11.5734 26.3601 11.6506C26.3601 12.2582 26.917 12.6274 27.6222 12.6274L27.6228 12.6268C27.6238 12.6268 27.6256 12.6274 27.6256 12.6274C28.0033 12.6274 28.273 12.4817 28.4872 12.2579C28.5337 12.2098 28.5957 12.1799 28.6624 12.1799H30.32C30.4186 12.1799 30.4898 12.2812 30.4521 12.3727C30.0132 13.4325 29.0524 14.1418 27.4301 14.1418C25.6177 14.1418 24.3066 12.7587 24.3066 10.9689C24.3066 9.17902 25.5026 7.66008 27.4301 7.66008ZM37.4647 8.55297C37.9857 8.00189 38.598 7.66008 39.4547 7.66008C40.7831 7.66008 41.5913 8.48064 41.5913 9.91655V13.8223C41.5913 13.8995 41.528 13.9618 41.45 13.9618H39.5385C39.4602 13.9618 39.3972 13.8995 39.3972 13.8223V10.6117C39.3972 9.93907 39.062 9.58595 38.5422 9.58595C38.0227 9.58595 37.6414 9.93907 37.6414 10.6117V13.8223C37.6414 13.8995 37.578 13.9618 37.5002 13.9618H35.5886C35.5103 13.9618 35.4471 13.8995 35.4471 13.8223V10.6117C35.4471 9.93907 35.1121 9.58595 34.5924 9.58595C34.0726 9.58595 33.7032 9.93907 33.7032 10.6117V13.8223C33.7032 13.8995 33.6398 13.9618 33.5617 13.9618H31.65C31.5718 13.9618 31.5086 13.8995 31.5086 13.8223V7.93647C31.5086 7.8592 31.5718 7.79693 31.65 7.79693H33.5664C33.6419 7.79693 33.7032 7.85723 33.7032 7.93162V8.37062C33.7032 8.47257 33.8325 8.51627 33.8971 8.43703C34.2683 7.98322 34.8367 7.68484 35.4784 7.66088C35.5072 7.66025 35.5351 7.66008 35.5625 7.66008C36.3377 7.66008 36.9422 7.97721 37.2922 8.53709C37.3297 8.59766 37.4153 8.60529 37.4647 8.55297Z" fill="#989898"/>
<path fill-rule="evenodd" clip-rule="evenodd" d="M11.3971 12.0206L6.626 8.56331C6.38545 8.38925 6.05999 8.38925 5.8198 8.56331L3.69331 10.104C3.56911 10.1937 3.41744 10.2302 3.26605 10.2062C3.11456 10.1824 2.98168 10.1012 2.89144 9.9773C2.8012 9.8536 2.7648 9.70225 2.78892 9.55135C2.81294 9.40035 2.89424 9.26765 3.01845 9.17774L4.52617 8.08519H4.52653L5.83904 7.1341C6.57235 6.60246 7.58324 6.66841 8.23905 7.29157C8.38394 7.4296 8.60986 7.43806 8.77191 7.3204L11.3971 5.4183V12.0206ZM11.337 13.372L11.3302 13.4176C11.3141 13.5175 11.2474 13.6617 11.1742 13.7312C10.9811 13.9148 10.6982 13.9293 10.4924 13.78L8.16362 12.0909L8.14664 12.0788C8.00545 11.9763 7.77484 11.9775 7.64639 12.0956C7.45949 12.2676 7.48397 12.5555 7.67872 12.6965L7.70727 12.7172L9.84306 14.2649C9.96184 14.3512 10.0496 14.4787 10.0697 14.6243C10.0978 14.8252 10.0164 15.0142 9.85688 15.1299L9.80792 15.1655C9.62211 15.3 9.37054 15.3 9.18464 15.1655L6.53594 13.2459C6.39476 13.1438 6.16369 13.1448 6.03551 13.2629C5.84834 13.4352 5.87309 13.7227 6.06767 13.8637L8.232 15.432C8.35115 15.5184 8.4385 15.6461 8.45855 15.7916C8.4871 15.9928 8.4058 16.1813 8.246 16.2973L8.19677 16.3328C8.01105 16.4674 7.75939 16.4674 7.57376 16.3328L7.09121 15.983L4.92489 14.4133C4.7837 14.311 4.5529 14.3124 4.42463 14.4304C4.23729 14.6023 4.26222 14.8901 4.45679 15.0311L6.62113 16.5996C6.74009 16.6857 6.82744 16.8135 6.84795 16.9587C6.87604 17.16 6.79474 17.3489 6.63486 17.4646L6.58734 17.4992C6.42086 17.6197 6.20361 17.6323 6.02593 17.5374L0.846253 13.7839V5.4183L3.09713 7.04959L3.80659 7.56338L2.52099 8.4952C2.21414 8.71719 2.0127 9.04557 1.95344 9.41936C1.89373 9.79288 1.98388 10.1671 2.20709 10.4734C2.42994 10.7794 2.75893 10.9804 3.13353 11.0399C3.20877 11.0517 3.28402 11.0577 3.35872 11.0577C3.65628 11.0577 3.94534 10.9647 4.19076 10.7869L5.98872 9.48414C6.12837 9.38288 6.31734 9.38288 6.45681 9.48414L11.1742 12.9039C11.3026 13.0228 11.3645 13.1963 11.337 13.372ZM10.7908 4.81441L8.65276 6.36372C8.58746 6.41102 8.49857 6.41552 8.43082 6.37138C7.56102 5.80614 6.42917 5.78119 5.52875 6.32759C5.50138 6.33976 5.47491 6.35426 5.44962 6.37246L4.52598 7.04193L1.45247 4.81441H10.7908ZM12.1192 4.09413C12.0402 4.01485 11.9324 3.9707 11.82 3.9707H0.423052C0.189365 3.9707 3.05176e-05 4.15954 3.05176e-05 4.39233V13.9988C3.05176e-05 14.1339 0.064979 14.2606 0.174189 14.3401L5.65657 18.3139H5.65684C5.93389 18.5148 6.30939 18.5148 6.58653 18.3139L12.0687 14.3414C12.1784 14.2617 12.2433 14.135 12.2433 14.0001V4.39269C12.2433 4.2808 12.1988 4.1735 12.1192 4.09413Z" fill="#989898"/>
</g>
<defs>
<clipPath id="clip0_1508_62236">
<rect width="61.04" height="20" fill="white"/>
</clipPath>
</defs>
</svg>
