<svg xmlns="http://www.w3.org/2000/svg" width="20" height="20" viewBox="0 0 24 24" fill="none" stroke="currentColor" stroke-width="1.5" stroke-linecap="round" stroke-linejoin="round">
<path d="M14.25 16.75C14.25 18.1307 15.3693 19.25 16.75 19.25C18.1307 19.25 19.25 18.1307 19.25 16.75C19.25 15.3693 18.1307 14.25 16.75 14.25C15.3693 14.25 14.25 15.3693 14.25 16.75Z" stroke="currentColor" stroke-width="1.5" stroke-linecap="round" stroke-linejoin="round"/><path d="M4.75 16.75C4.75 18.1307 5.86929 19.25 7.25 19.25C8.63071 19.25 9.75 18.1307 9.75 16.75C9.75 15.3693 8.63071 14.25 7.25 14.25C5.86929 14.25 4.75 15.3693 4.75 16.75Z" stroke="currentColor" stroke-width="1.5" stroke-linecap="round" stroke-linejoin="round"/><path d="M14 16.25H10" stroke="currentColor" stroke-width="1.5" stroke-linecap="round" stroke-linejoin="round"/><path d="M19.25 16.25C20.3546 16.25 21.25 15.3546 21.25 14.25V10.6248C21.25 10.2179 21.1259 9.82081 20.8944 9.48633L19.5965 7.61158C19.2229 7.07198 18.6084 6.75 17.9521 6.75H15.25" stroke="currentColor" stroke-width="1.5" stroke-linecap="round" stroke-linejoin="round"/><path d="M4.64394 16.25C3.59795 16.25 2.75 15.4021 2.75 14.3561V7.75C2.75 6.09315 4.09315 4.75 5.75 4.75H12.25C13.9069 4.75 15.25 6.09315 15.25 7.75V14.5" stroke="currentColor" stroke-width="1.5" stroke-linecap="round" stroke-linejoin="round"/>
</svg>