<svg width="20" height="20" viewBox="0 0 20 20" fill="none" xmlns="http://www.w3.org/2000/svg">
<path d="M8.95833 8.54167C8.61317 8.54167 8.33333 8.8215 8.33333 9.16667C8.33333 9.51183 8.61317 9.79167 8.95833 9.79167V8.54167ZM10 9.16667H10.625C10.625 8.8215 10.3452 8.54167 10 8.54167V9.16667ZM9.375 13.5417C9.375 13.8868 9.65483 14.1667 10 14.1667C10.3452 14.1667 10.625 13.8868 10.625 13.5417H9.375ZM16.25 7.125V12.875H17.5V7.125H16.25ZM12.875 16.25H7.125V17.5H12.875V16.25ZM3.75 12.875V7.125H2.5V12.875H3.75ZM7.125 3.75H12.875V2.5H7.125V3.75ZM7.125 16.25C6.41463 16.25 5.91943 16.2495 5.5339 16.218C5.15567 16.1871 4.93837 16.1295 4.77377 16.0457L4.20628 17.1594C4.57646 17.348 4.97658 17.4267 5.43211 17.4638C5.88034 17.5005 6.43525 17.5 7.125 17.5V16.25ZM2.5 12.875C2.5 13.5647 2.49952 14.1197 2.53613 14.5679C2.57336 15.0234 2.65198 15.4235 2.84061 15.7937L3.95437 15.2262C3.8705 15.0617 3.81288 14.8443 3.78198 14.4661C3.75048 14.0806 3.75 13.5854 3.75 12.875H2.5ZM4.77377 16.0457C4.42097 15.8658 4.13413 15.579 3.95437 15.2262L2.84061 15.7937C3.14021 16.3817 3.61828 16.8597 4.20628 17.1594L4.77377 16.0457ZM16.25 12.875C16.25 13.5854 16.2495 14.0806 16.218 14.4661C16.1871 14.8443 16.1295 15.0617 16.0457 15.2262L17.1594 15.7937C17.348 15.4235 17.4267 15.0234 17.4638 14.5679C17.5005 14.1197 17.5 13.5647 17.5 12.875H16.25ZM12.875 17.5C13.5647 17.5 14.1197 17.5005 14.5679 17.4638C15.0234 17.4267 15.4235 17.348 15.7937 17.1594L15.2262 16.0457C15.0617 16.1295 14.8443 16.1871 14.4661 16.218C14.0806 16.2495 13.5854 16.25 12.875 16.25V17.5ZM16.0457 15.2262C15.8659 15.579 15.579 15.8658 15.2262 16.0457L15.7937 17.1594C16.3817 16.8597 16.8598 16.3817 17.1594 15.7937L16.0457 15.2262ZM17.5 7.125C17.5 6.43525 17.5005 5.88034 17.4638 5.43211C17.4267 4.97658 17.348 4.57646 17.1594 4.20628L16.0457 4.77377C16.1295 4.93837 16.1871 5.15567 16.218 5.5339C16.2495 5.91943 16.25 6.41463 16.25 7.125H17.5ZM12.875 3.75C13.5854 3.75 14.0806 3.75048 14.4661 3.78198C14.8443 3.81288 15.0617 3.8705 15.2262 3.95437L15.7937 2.84061C15.4235 2.65198 15.0234 2.57336 14.5679 2.53613C14.1197 2.49952 13.5647 2.5 12.875 2.5V3.75ZM17.1594 4.20628C16.8598 3.61828 16.3817 3.14021 15.7937 2.84061L15.2262 3.95437C15.579 4.13413 15.8659 4.42097 16.0457 4.77377L17.1594 4.20628ZM3.75 7.125C3.75 6.41463 3.75048 5.91943 3.78198 5.5339C3.81288 5.15567 3.8705 4.93837 3.95437 4.77377L2.84061 4.20628C2.65198 4.57646 2.57336 4.97658 2.53613 5.43211C2.49952 5.88034 2.5 6.43525 2.5 7.125H3.75ZM7.125 2.5C6.43525 2.5 5.88034 2.49952 5.43211 2.53613C4.97658 2.57336 4.57646 2.65198 4.20628 2.84061L4.77377 3.95437C4.93837 3.8705 5.15567 3.81288 5.5339 3.78198C5.91943 3.75048 6.41463 3.75 7.125 3.75V2.5ZM3.95437 4.77377C4.13413 4.42097 4.42097 4.13413 4.77377 3.95437L4.20628 2.84061C3.61828 3.14021 3.14021 3.61828 2.84061 4.20628L3.95437 4.77377ZM8.95833 9.79167H10V8.54167H8.95833V9.79167ZM9.375 9.16667V13.5417H10.625V9.16667H9.375Z" fill="currentColor"/>
<path d="M9.9974 6.14551C9.70973 6.14551 9.47656 6.37869 9.47656 6.66634C9.47656 6.95399 9.70973 7.18717 9.9974 7.18717C10.2851 7.18717 10.5182 6.95399 10.5182 6.66634C10.5182 6.37869 10.2851 6.14551 9.9974 6.14551Z" fill="currentColor"/>
</svg>
