<svg xmlns="http://www.w3.org/2000/svg" width="20" height="20" viewBox="0 0 24 24" fill="none" stroke="currentColor" stroke-width="1.5" stroke-linecap="round" stroke-linejoin="round">
<path d="M20.25 11.4087V17.25C20.25 18.9069 18.9069 20.25 17.25 20.25H6.75C5.09315 20.25 3.75 18.9069 3.75 17.25V11.4087" stroke="currentColor" stroke-width="1.5" stroke-linecap="round" stroke-linejoin="round"/><path d="M9.50026 3.75H14.5003M9.50026 3.75L8.90923 8.77398C8.69156 10.6243 10.1373 12.25 12.0003 12.25C13.8633 12.25 15.309 10.6243 15.0914 8.77397L14.5003 3.75M9.50026 3.75H6.61992C5.309 3.75 4.14989 4.60117 3.75748 5.85198L2.97261 8.35377C2.36663 10.2853 3.80934 12.25 5.83373 12.25C7.3543 12.25 8.63416 11.1119 8.81182 9.60174L9.50026 3.75ZM14.5003 3.75H17.3806C18.6915 3.75 19.8506 4.60117 20.243 5.85198L21.0279 8.35377C21.6339 10.2853 20.1912 12.25 18.1668 12.25C16.6462 12.25 15.3664 11.1119 15.1887 9.60174L14.5003 3.75Z" stroke="currentColor" stroke-width="1.5" stroke-linecap="round" stroke-linejoin="round"/>
</svg>