<svg width="34" height="20" viewBox="0 0 34 20" fill="none" xmlns="http://www.w3.org/2000/svg">
<g clip-path="url(#clip0_1512_24980)">
<path fill-rule="evenodd" clip-rule="evenodd" d="M33.5545 10.4324C33.5545 8.04003 32.3988 6.15234 30.1898 6.15234C27.9714 6.15234 26.6293 8.04003 26.6293 10.4137C26.6293 13.2265 28.2138 14.6469 30.488 14.6469C31.5972 14.6469 32.4361 14.3946 33.0699 14.0395V12.1705C32.4361 12.4882 31.709 12.6845 30.7863 12.6845C29.8822 12.6845 29.0806 12.3668 28.9781 11.2641H33.5359C33.5359 11.1426 33.5545 10.6566 33.5545 10.4324ZM28.9501 9.54458C28.9501 8.48859 29.5932 8.04938 30.1804 8.04938C30.749 8.04938 31.3549 8.48859 31.3549 9.54458H28.9501Z" fill="#989898"/>
<path fill-rule="evenodd" clip-rule="evenodd" d="M23.0314 6.15234C22.118 6.15234 21.5308 6.58221 21.2045 6.88125L21.0834 6.30186H19.0328V17.1981L21.363 16.7028L21.3723 14.0582C21.7079 14.3012 22.2019 14.6469 23.0221 14.6469C24.6905 14.6469 26.2098 13.3013 26.2098 10.3389C26.2004 7.62885 24.6625 6.15234 23.0314 6.15234ZM22.4722 12.591C21.9222 12.591 21.596 12.3948 21.3723 12.1518L21.363 8.68484C21.6053 8.41383 21.9409 8.22693 22.4722 8.22693C23.3203 8.22693 23.9075 9.18012 23.9075 10.4043C23.9075 11.6565 23.3297 12.591 22.4722 12.591Z" fill="#989898"/>
<path fill-rule="evenodd" clip-rule="evenodd" d="M15.8265 5.59893L18.166 5.0943V3.19727L15.8265 3.69255V5.59893Z" fill="#989898"/>
<path d="M18.166 6.31055H15.8265V14.4874H18.166V6.31055Z" fill="#989898"/>
<path fill-rule="evenodd" clip-rule="evenodd" d="M13.3193 7.00101L13.1701 6.30949H11.1569V14.4864H13.487V8.94477C14.037 8.22521 14.969 8.35604 15.258 8.45883V6.30949C14.9597 6.19735 13.8692 5.99176 13.3193 7.00101Z" fill="#989898"/>
<path fill-rule="evenodd" clip-rule="evenodd" d="M8.65894 4.2832L6.38469 4.76914L6.37537 12.2545C6.37537 13.6375 7.40996 14.6561 8.78943 14.6561C9.55372 14.6561 10.113 14.516 10.4205 14.3478V12.4507C10.1223 12.5722 8.64962 13.0021 8.64962 11.619V8.30155H10.4205V6.31107H8.64962L8.65894 4.2832Z" fill="#989898"/>
<path fill-rule="evenodd" clip-rule="evenodd" d="M2.35812 8.68484C2.35812 8.32038 2.65638 8.18021 3.15038 8.18021C3.85875 8.18021 4.75354 8.39514 5.46191 8.77829V6.58221C4.68829 6.27383 3.924 6.15234 3.15038 6.15234C1.25828 6.15234 -1.71661e-05 7.14291 -1.71661e-05 8.79698C-1.71661e-05 11.3762 3.54185 10.965 3.54185 12.0771C3.54185 12.5069 3.16902 12.6471 2.64706 12.6471C1.87344 12.6471 0.885449 12.3294 0.10251 11.8995V14.1236C0.969335 14.4974 1.84548 14.6563 2.64706 14.6563C4.58576 14.6563 5.91862 13.6938 5.91862 12.021C5.9093 9.23619 2.35812 9.73148 2.35812 8.68484Z" fill="#989898"/>
</g>
<defs>
<clipPath id="clip0_1512_24980">
<rect width="33.6" height="20" fill="white"/>
</clipPath>
</defs>
</svg>
