<svg width="88" height="20" viewBox="0 0 88 20" fill="none" xmlns="http://www.w3.org/2000/svg">
<g clip-path="url(#clip0_1512_24930)">
<path d="M5.00124 13.781C5.90198 15.349 7.37305 15.349 8.26985 13.781L8.77135 12.9048L4.26964 5.04883H0L5.00124 13.781Z" fill="#989898"/>
<path d="M14.4806 10.423C14.1522 10.9919 13.3793 10.9919 13.0528 10.423L9.96907 5.04889H5.6955L10.7046 13.7811C11.6053 15.3491 13.0725 15.3491 13.9732 13.7811L17.3244 7.92922L15.6724 5.04492H11.4028L14.4806 10.423Z" fill="#989898"/>
<path d="M21.893 13.8164H23.3503L23.3621 13.7688C24.2628 10.4068 24.6286 8.97154 24.7781 8.07949C24.9236 8.96758 25.2756 10.4226 26.1351 13.7688L26.1469 13.8164H27.6356L29.7085 6.13086H28.3515L28.3397 6.17844C27.439 9.66734 27.0968 11.0788 26.9394 11.9827C26.7585 11.0153 26.3671 9.42153 25.5274 6.17844L25.5156 6.13086H24.0996L24.0878 6.17844C23.2106 9.63562 22.8448 11.1144 22.6875 12.0739C22.5144 11.1382 22.1309 9.58805 21.2558 6.17844L21.244 6.13086H19.8358L21.8851 13.7728C21.8772 13.7728 21.893 13.8164 21.893 13.8164Z" fill="#989898"/>
<path d="M32.0115 13.9226C33.1128 13.9226 34.1551 13.318 34.5721 12.414L33.5651 11.8966H33.5455L33.5258 11.9323C33.4039 12.186 32.9574 12.7788 32.0213 12.7788C31.1737 12.7788 30.5247 12.2336 30.4263 11.4427H34.755V11.3832C34.7825 10.3048 34.4914 9.42267 33.9152 8.82995C33.4176 8.31257 32.7273 8.04297 31.9269 8.04297C31.1265 8.04297 30.4106 8.34627 29.8934 8.88942C29.3801 9.4306 29.0969 10.1779 29.0969 10.9907C29.0988 12.7173 30.2985 13.9226 32.0115 13.9226ZM31.9289 9.161C32.7293 9.161 33.3409 9.67839 33.4058 10.398H30.4303C30.5207 9.67839 31.1402 9.161 31.9289 9.161Z" fill="#989898"/>
<path d="M37.4985 13.9225C38.9145 13.9225 39.7955 13.2584 39.7955 12.1879C39.7955 10.9192 38.6509 10.6199 37.7305 10.378C37.0953 10.2115 36.5466 10.0668 36.5466 9.66242C36.5466 9.33533 36.8908 9.10538 37.3785 9.10538C37.9154 9.10538 38.2871 9.39084 38.35 9.84876L38.3894 10.0787H38.413L39.5418 9.86462C39.5418 8.79812 38.6057 8.05078 37.3903 8.05078C36.1749 8.05078 35.2663 8.74658 35.2663 9.74171C35.2663 10.947 36.3755 11.2463 37.2664 11.4842C37.9134 11.6586 38.47 11.8113 38.47 12.2315C38.47 12.6022 38.1101 12.8282 37.5339 12.8282C36.8396 12.8282 36.3735 12.5011 36.3145 11.9778L36.3027 11.8906L35.107 12.1165C35.1188 13.298 36.4129 13.9225 37.4985 13.9225Z" fill="#989898"/>
<path d="M40.8064 12.7693C40.8064 13.4056 41.2056 13.923 41.8684 13.923C42.6885 13.923 42.9304 13.8159 42.9304 13.8159V12.7455C42.9304 12.7455 42.6865 12.7851 42.3856 12.7851C42.1929 12.7851 42.0533 12.6662 42.0533 12.4898V9.24468H42.9225L42.9107 8.16233H42.0592V6.55664L40.8123 6.87183V8.16431H40.1613V9.24667H40.8123V12.7713H40.8064V12.7693Z" fill="#989898"/>
<path d="M50.5847 8.8801V8.16448H49.4873V13.8181H50.805L50.7932 10.3609C50.8089 10.014 50.9269 9.74836 51.1373 9.56995C51.4127 9.33604 51.8473 9.25476 52.4196 9.33604L52.4865 9.34397L52.4983 8.16646L52.4432 8.15853C51.6585 8.04356 50.9446 8.28738 50.5847 8.8801Z" fill="#989898"/>
<path d="M56.0874 8.04883C55.2949 8.04883 54.5515 8.36798 54.1817 8.9726V8.16579H53.0411V13.8194H54.3705V10.7825C54.3705 9.80716 54.876 9.22633 55.7236 9.22633C56.3038 9.22633 56.9941 9.48007 56.9941 10.6992V13.8174H58.3235V10.5149C58.3255 8.69705 57.1652 8.04883 56.0874 8.04883Z" fill="#989898"/>
<path d="M65.4724 10.6347C65.4724 11.9391 64.8568 12.6587 63.7437 12.6587C62.6305 12.6587 62.0268 11.9391 62.0268 10.6347V6.13086H60.6855V10.603C60.6855 12.6845 61.8301 13.9254 63.7437 13.9254C65.6572 13.9254 66.8018 12.6845 66.8018 10.603V6.13086H65.4724V10.6347Z" fill="#989898"/>
<path d="M70.6428 8.04883C69.8502 8.04883 69.1029 8.36798 68.7371 8.9726V8.16579H67.5925V13.8194H68.9219V10.7825C68.9219 9.80716 69.4274 9.22633 70.275 9.22633C70.8552 9.22633 71.5455 9.48007 71.5455 10.6992V13.8174H72.8749V10.5149C72.8808 8.69705 71.7244 8.04883 70.6428 8.04883Z" fill="#989898"/>
<path d="M75.0225 8.16211H73.7048V13.8157H75.0225V8.16211Z" fill="#989898"/>
<path d="M74.3696 6.08008C73.9389 6.08008 73.6006 6.41509 73.6006 6.84328C73.6006 7.27146 73.9448 7.59458 74.3696 7.59458C74.7964 7.59458 75.1268 7.2556 75.1268 6.84328C75.1268 6.42104 74.7865 6.08008 74.3696 6.08008Z" fill="#989898"/>
<path d="M78.596 8.04883C77.7759 8.04883 77.0246 8.34816 76.4798 8.88339C75.939 9.42457 75.6401 10.1679 75.6401 10.9847C75.6401 12.6875 76.883 13.9245 78.596 13.9245C80.309 13.9245 81.5598 12.6875 81.5598 10.9847C81.5598 10.1699 81.2589 9.4206 80.72 8.88339C80.1752 8.3442 79.42 8.04883 78.596 8.04883ZM78.596 12.7033C77.6441 12.7033 76.9302 11.9639 76.9302 10.9847C76.9302 10.0054 77.6441 9.26598 78.596 9.26598C79.5479 9.26598 80.2814 10.0054 80.2814 10.9847C80.2814 11.9639 79.5557 12.7033 78.596 12.7033Z" fill="#989898"/>
<path d="M85.2216 8.04883C84.4291 8.04883 83.6857 8.36798 83.3159 8.9726V8.16579H82.1713V13.8194H83.5008V10.7825C83.5008 9.80716 84.0062 9.22633 84.8539 9.22633C85.434 9.22633 86.1243 9.48007 86.1243 10.6992V13.8174H87.4538V10.5149C87.4597 8.69705 86.3033 8.04883 85.2216 8.04883Z" fill="#989898"/>
<path d="M46.0908 8.04883C45.2983 8.04883 44.5745 8.35213 44.0573 8.89528C43.544 9.43646 43.2608 10.1838 43.2608 10.9966C43.2608 12.7192 44.4565 13.9245 46.1734 13.9245C47.2748 13.9245 48.3171 13.3199 48.734 12.4159L47.7271 11.8985H47.7074L47.6878 11.9342C47.5658 12.1879 47.1194 12.7807 46.1833 12.7807C45.3356 12.7807 44.6866 12.2355 44.5883 11.4446H48.9169V11.3851C48.9445 10.3067 48.6534 9.42457 48.0772 8.83185C47.5816 8.32041 46.8913 8.04883 46.0908 8.04883ZM44.5863 10.3999C44.6768 9.68029 45.2963 9.1629 46.0908 9.1629C46.8834 9.1629 47.5029 9.68029 47.5678 10.3999H44.5863Z" fill="#989898"/>
</g>
<defs>
<clipPath id="clip0_1512_24930">
<rect width="87.5" height="20" fill="white"/>
</clipPath>
</defs>
</svg>
