<svg width="43" height="20" viewBox="0 0 43 20" fill="none" xmlns="http://www.w3.org/2000/svg">
<g clip-path="url(#clip0_1508_62233)">
<path d="M23.7221 5.30113H26.3385L25.0206 14.6823H22.4042L23.7221 5.30113ZM20.408 5.30113L18.6443 10.7059L17.8691 5.30113H16.0279L13.7022 10.6866L13.4309 5.32044H10.8726L11.7641 14.7016H13.8766L16.4737 8.75632L17.3846 14.6823H19.4583L22.8887 5.30113H20.408ZM42.4439 10.7638H36.2227C36.2614 11.9799 36.9785 12.7906 38.0639 12.7906C38.8778 12.7906 39.5174 12.3659 40.0213 11.5359L42.1338 12.4818C41.378 13.8909 39.8663 14.8174 37.9863 14.8174C35.4281 14.8174 33.7226 13.0994 33.7226 10.3391C33.7226 7.30862 35.7188 5.16602 38.5484 5.16602C41.0291 5.16602 42.5796 6.82605 42.5796 9.43192C42.5796 9.85658 42.5408 10.3005 42.4439 10.7638ZM40.0988 8.96865C40.0988 7.8877 39.4787 7.1928 38.5096 7.1928C37.5018 7.1928 36.6491 7.907 36.4359 8.96865H40.0988ZM2.67456 8.13864L1.52588e-05 11.2464H4.78707L5.32973 9.77937H3.27537L4.53512 8.33166V8.29306L3.72112 6.90326H7.38409L4.53512 14.6823H6.47319L9.90359 5.30113H1.04658L2.67456 8.13864ZM30.6023 7.1928C31.5325 7.1928 32.3465 7.69467 33.0442 8.54399L33.4125 5.89952C32.7535 5.45556 31.862 5.18532 30.6798 5.18532C28.3347 5.18532 27.0168 6.55581 27.0168 8.29306C27.0168 9.48983 27.6951 10.2426 28.7998 10.7059L29.3231 10.9375C30.3115 11.3622 30.5829 11.5745 30.5829 12.0185C30.5829 12.4818 30.1371 12.7713 29.4588 12.7713C28.3347 12.7713 27.4238 12.2115 26.7455 11.2271L26.3579 13.9295C27.1331 14.5278 28.1409 14.8367 29.4588 14.8367C31.6876 14.8367 33.0636 13.5627 33.0636 11.7676C33.0636 10.5515 32.521 9.77937 31.1643 9.16168L30.5829 8.89144C29.7689 8.54399 29.4976 8.33166 29.4976 7.94561C29.5169 7.52095 29.8852 7.1928 30.6023 7.1928Z" fill="#989898"/>
</g>
<defs>
<clipPath id="clip0_1508_62233">
<rect width="42.63" height="20" fill="white"/>
</clipPath>
</defs>
</svg>
