<svg width="41" height="20" viewBox="0 0 41 20" fill="none" xmlns="http://www.w3.org/2000/svg">
<g clip-path="url(#clip0_1508_62233)">
<path d="M22.6001 5.92756H25.0928L23.8372 14.865H21.3445L22.6001 5.92756ZM19.4427 5.92756L17.7625 11.0767L17.0239 5.92756H15.2698L13.0542 11.0583L12.7957 5.94595H10.3584L11.2077 14.8834H13.2203L15.6945 9.21933L16.5623 14.865H18.538L21.8061 5.92756H19.4427ZM40.4365 11.1319H34.5095C34.5464 12.2904 35.2296 13.0628 36.2636 13.0628C37.0391 13.0628 37.6484 12.6582 38.1284 11.8675L40.141 12.7686C39.4209 14.111 37.9807 14.9937 36.1897 14.9937C33.7524 14.9937 32.1276 13.357 32.1276 10.7273C32.1276 7.84009 34.0294 5.79883 36.7252 5.79883C39.0886 5.79883 40.5657 7.38035 40.5657 9.86297C40.5657 10.2675 40.5288 10.6905 40.4365 11.1319ZM38.2023 9.42161C38.2023 8.39179 37.6114 7.72975 36.6882 7.72975C35.7281 7.72975 34.9157 8.41018 34.7126 9.42161H38.2023ZM2.54806 8.63085L1.52588e-05 11.5916H4.56065L5.07765 10.194H3.12045L4.32062 8.81475V8.77797L3.54513 7.45391H7.03485L4.32062 14.865H6.16703L9.43518 5.92756H0.997078L2.54806 8.63085ZM29.1549 7.72975C30.0411 7.72975 30.8166 8.20789 31.4814 9.01704L31.8322 6.49764C31.2044 6.07467 30.355 5.81722 29.2287 5.81722C26.9946 5.81722 25.739 7.12289 25.739 8.77797C25.739 9.91814 26.3853 10.6353 27.4377 11.0767L27.9362 11.2974C28.8779 11.7019 29.1364 11.9042 29.1364 12.3272C29.1364 12.7686 28.7117 13.0444 28.0655 13.0444C26.9946 13.0444 26.1268 12.5111 25.4805 11.5732L25.1112 14.1478C25.8498 14.7179 26.8099 15.0121 28.0655 15.0121C30.1889 15.0121 31.4998 13.7984 31.4998 12.0881C31.4998 10.9296 30.9828 10.194 29.6903 9.60551L29.1364 9.34805C28.3609 9.01704 28.1024 8.81475 28.1024 8.44696C28.1209 8.04238 28.4717 7.72975 29.1549 7.72975Z" fill="#989898"/>
</g>
<defs>
<clipPath id="clip0_1508_62233">
<rect width="40.6" height="20" fill="white"/>
</clipPath>
</defs>
</svg>
