<svg width="41" height="20" viewBox="0 0 41 20" fill="none" xmlns="http://www.w3.org/2000/svg">
<path d="M11.1903 9.96739C11.1903 8.53261 12.2322 7.44565 13.6213 7.44565C15.0214 7.44565 16.0741 8.54348 16.0741 9.98913V10.0109C16.0741 11.4457 15.0322 12.5217 13.643 12.5217C12.243 12.5217 11.1903 11.4348 11.1903 9.97826V9.96739ZM13.6322 5.75C11.1794 5.75 9.25848 7.6087 9.25848 9.98913V10.0109C9.25848 12.4239 11.136 14.2391 13.6105 14.2391C16.0632 14.2391 17.995 12.3696 17.995 9.98913V9.96739C18.0059 7.56522 16.1175 5.75 13.6322 5.75ZM20.6106 9.96739C20.6106 8.53261 21.6525 7.44565 23.0416 7.44565C24.4416 7.44565 25.4944 8.54348 25.4944 9.98913V10.0109C25.4944 11.4457 24.4525 12.5217 23.0633 12.5217C21.6633 12.5217 20.6106 11.4348 20.6106 9.97826V9.96739ZM23.0525 5.75C20.5997 5.75 18.6679 7.61957 18.6679 10V10.0217C18.6679 12.4348 20.5455 14.25 23.0199 14.25C25.4727 14.25 27.4045 12.3804 27.4045 10V9.97826C27.4262 7.56522 25.5378 5.75 23.0525 5.75ZM37.5628 5.83696C36.5317 5.83696 35.6961 6.23913 34.9906 7.06522C34.524 6.27174 33.7208 5.83696 32.7115 5.83696C31.648 5.83696 30.9859 6.33696 30.5301 6.86957V6.1413C30.5301 6.06522 30.465 6 30.389 6H28.6417C28.5549 6 28.4898 6.06522 28.4898 6.1413V13.7935C28.4898 13.8696 28.5549 13.9348 28.6417 13.9348H30.389C30.4758 13.9348 30.5301 13.8696 30.5301 13.7935V9.47826C30.5301 8.41304 31.1162 7.71739 32.017 7.71739C32.9177 7.71739 33.417 8.32609 33.417 9.42391V13.7935C33.417 13.8696 33.4821 13.9348 33.5689 13.9348H35.3162C35.3922 13.9348 35.4682 13.8696 35.4682 13.7935V9.46739C35.4682 8.36956 36.0217 7.71739 36.955 7.71739C38.1163 7.71739 38.355 8.65217 38.355 9.43478V13.7935C38.355 13.8696 38.4201 13.9348 38.507 13.9348H40.2543C40.3302 13.9348 40.4062 13.8696 40.4062 13.7935V8.90217C40.3845 6.97826 39.3209 5.83696 37.5628 5.83696Z" fill="#989898"/>
<path d="M6.45844 9.25C6.46929 9.27174 6.50185 9.28261 6.52355 9.28261C6.54526 9.28261 6.57782 9.27174 6.58867 9.25L9.30189 6.1413C9.33445 6.11957 9.33445 6.07609 9.32359 6.05435C9.31274 6.02174 9.28018 6 9.23677 6H6.89255C6.87084 6 6.83829 6.01087 6.82743 6.03261L5.28633 7.79348C5.25377 7.82609 5.25377 7.88043 5.28633 7.91304L6.45844 9.25ZM6.122 9.61957L2.99637 6.03261C2.97466 6.01087 2.95296 6 2.93125 6H0.619592C0.587033 6 0.554475 6.02174 0.532769 6.05435C0.521916 6.08696 0.521916 6.11957 0.554475 6.15217L3.61498 9.66304L0.0226843 13.7935C0.000978602 13.8152 -0.00987427 13.8587 0.0118315 13.8913C0.0226843 13.9239 0.0552429 13.9457 0.0986544 13.9457H2.43202C2.45373 13.9457 2.48629 13.9348 2.49714 13.913L4.96074 11.087C4.97159 11.087 4.97159 11.0761 4.97159 11.0761L6.122 9.75C6.15456 9.70652 6.15456 9.65217 6.122 9.61957Z" fill="#989898"/>
<path d="M9.75771 13.7931L6.58868 10.1517C6.56697 10.13 6.54526 10.1191 6.52356 10.1191C6.50185 10.1191 6.46929 10.13 6.45844 10.1517L5.29719 11.4778C5.26463 11.5104 5.26463 11.5648 5.29719 11.5974L7.30497 13.9126C7.32667 13.9344 7.34838 13.9452 7.37008 13.9452H9.68174C9.7143 13.9452 9.74686 13.9235 9.76857 13.8909C9.77942 13.8474 9.77942 13.8148 9.75771 13.7931Z" fill="#989898"/>
</svg>
