<svg width="50" height="50" viewBox="0 0 50 50" fill="none" xmlns="http://www.w3.org/2000/svg">
<path d="M25 50C11.2255 50 0 38.7745 0 25C0 11.201 11.2255 0 25 0C38.799 0 50 11.201 50 25C50 38.7745 38.799 50 25 50ZM24.9755 29.1912C29.7059 29.2402 33.3824 25.2206 33.3824 19.951C33.3824 15 29.6814 10.8824 24.9755 10.8824C20.2941 10.8824 16.5441 15 16.5686 19.951C16.5686 25.2206 20.2696 29.1422 24.9755 29.1912ZM24.9755 46.2745C30.6127 46.2745 36.2745 43.9706 40.049 39.9755C37.3775 35.7598 31.5686 33.3578 24.9755 33.3578C18.3333 33.3578 12.5735 35.8088 9.92647 39.9755C13.6765 43.9706 19.3627 46.2745 24.9755 46.2745Z" fill="url(#paint0_linear_2344_50155)"/>
<path d="M24.9755 46.2745C30.6127 46.2745 36.2745 43.9706 40.049 39.9755C37.3775 35.7598 31.5686 33.3578 24.9755 33.3578C18.3333 33.3578 12.5735 35.8088 9.92647 39.9755C13.6765 43.9706 19.3627 46.2745 24.9755 46.2745Z" fill="white"/>
<path d="M24.9755 29.1912C29.7059 29.2402 33.3824 25.2206 33.3824 19.951C33.3824 15 29.6814 10.8824 24.9755 10.8824C20.2941 10.8824 16.5441 15 16.5686 19.951C16.5686 25.2206 20.2696 29.1422 24.9755 29.1912Z" fill="white"/>
<defs>
<linearGradient id="paint0_linear_2344_50155" x1="25.4167" y1="-5.4085" x2="25.4167" y2="54.1993" gradientUnits="userSpaceOnUse">
<stop stop-color="#A7BFDF"/>
<stop offset="1" stop-color="#737CB5"/>
</linearGradient>
</defs>
</svg>
