<svg width="302" height="272" viewBox="0 0 302 272" fill="none" xmlns="http://www.w3.org/2000/svg">
<path d="M125.901 0.416558C173.789 -1.50841 245.594 1.80965 279.231 41.5304C301.994 68.4072 303.509 107.913 300.494 141.147C298.229 166.122 290.444 192.22 270.171 208.565C234.261 238.809 160.484 238.177 115.596 233.971C108.591 233.256 102.344 232.532 95.2938 232.535C80.9688 249.794 68.9538 261.311 46.7463 268.146C40.5813 270.044 30.6063 273.269 24.6888 270.226C23.4063 268.502 22.2588 266.323 23.6013 264.254C35.7663 245.501 44.6013 232.235 46.3638 208.856C43.2513 206.377 40.1988 203.818 37.2138 201.182C12.7863 179.352 2.52626 149.781 0.426259 117.714C-5.31874 30.1553 47.5563 4.47805 125.901 0.416558Z" fill="#113D28"/>
<path d="M133.485 5.70292C147.12 5.4171 164.85 6.02774 178.387 7.12451C211.11 9.77491 252.57 18.312 274.718 44.7784C296.265 70.5277 297.817 105.601 295.267 137.406C293.28 162.164 286.717 187.367 267.007 203.877C229.942 234.918 156.435 232.038 111.097 228.032C89.9025 225.248 92.4375 227.986 79.035 242.4C66.3375 256.054 46.9499 264.124 28.4624 266.204C39.6899 250.557 48.5625 235.687 51.225 216.004C51.405 214.065 51.8849 207.431 50.3174 206.114C19.9049 180.28 7.27497 152.278 5.61747 112.875C2.00247 26.9046 59.9325 8.28205 133.485 5.70292Z" fill="#F7F1E4"/>
</svg>
