<svg width="325" height="302" viewBox="0 0 325 302" fill="none" xmlns="http://www.w3.org/2000/svg">
<path d="M74.8417 0.196967C87.7942 -0.374672 99.7642 0.489551 112.597 0.392778C146.054 0.139966 179.032 0.753597 212.482 2.29147C238.012 3.6433 263.632 3.38151 289.019 6.69507C308.969 9.30045 321.532 21.2268 323.444 41.5208C325.889 71.9632 321.839 103.1 319.957 133.645C318.464 157.779 316.687 183.509 313.139 207.325C309.802 229.728 296.489 236.328 275.594 237.51C257.617 238.526 239.159 238.046 221.122 238.443C211.214 238.724 203.714 250.934 198.157 258.156C188.377 270.666 165.232 298.194 148.522 301.15C131.662 301.295 158.354 238.451 147.104 237.396C108.494 233.777 65.7517 239.769 27.6067 232.485C4.97175 228.162 -0.780806 198.918 0.081694 178.625C2.13669 130.538 -1.36581 78.973 6.08169 31.3408C11.6242 -2.83226 48.1942 0.377762 74.8417 0.196967Z" fill="#113D28"/>
<path d="M71.9568 5.4013C143.537 4.02546 218.237 6.76814 289.569 12.4298C313.487 14.3285 320.109 37.1115 319.074 57.7663C316.592 107.102 313.974 157.358 307.667 206.351C302.807 245.662 247.164 228.567 220.074 233.195C206.972 235.433 205.629 239.65 198.212 249.1C185.184 265.41 167.274 289.382 147.054 295.817C148.607 279.266 155.507 259.043 155.109 241.656C155.042 238.665 154.059 234.452 151.224 233.219C144.369 230.245 131.237 230.969 123.812 230.916C102.624 231.044 81.5793 230.981 60.4443 230.272C30.9243 229.282 9.45933 229.026 6.49683 193.312C4.23933 166.083 6.5418 138.987 6.8493 111.643C7.1418 86.2973 6.26433 60.7866 10.8093 35.6772C16.6593 2.3383 45.3018 5.88891 71.9568 5.4013Z" fill="#E7F6E9"/>
<path d="M54.0234 73.3007C61.7184 72.5138 73.9509 72.7621 81.8184 73.0284C137.273 74.9099 192.503 75.8911 248.003 75.9774C253.613 75.9864 261.826 75.8281 267.046 76.7943C268.576 78.9031 268.073 78.4897 268.231 81.597C253.388 82.0989 237.331 81.0036 222.346 81.0066C181.681 81.0141 140.903 80.8641 100.298 78.609C89.2284 77.9946 65.1309 79.9661 55.4334 77.8303C53.8509 75.9991 54.3534 76.2302 54.0234 73.3007Z" fill="#113D28"/>
<path d="M54.9531 118.283C104.656 117.961 152.866 119.807 202.463 121.076L243.833 122.358C248.986 122.535 261.848 122.728 266.363 123.815C267.751 125.748 267.256 125.415 267.083 128.475C256.516 129.006 232.471 127.354 221.041 126.959L133.741 124.439C112.028 123.849 90.3082 123.925 68.5882 123.603C64.5607 123.543 60.4882 123.673 56.4907 123.115C54.6232 121.001 55.2081 121.733 54.9531 118.283Z" fill="#113D28"/>
<path d="M54.8164 163.325C100.881 163.284 147.074 164.591 193.056 167.015C202.221 167.498 236.954 167.508 242.999 168.934C244.424 171.185 243.966 170.522 243.809 173.737C241.004 173.859 237.966 173.612 235.139 173.57C228.224 173.465 221.301 173.198 214.394 173.079C180.479 172.503 146.601 169.452 112.686 169.247C96.9439 169.152 81.209 168.919 65.474 168.666C62.2115 168.613 59.3014 168.612 56.0689 168.099C54.4189 166.029 54.9514 166.57 54.8164 163.325Z" fill="#113D28"/>
</svg>
