<svg width="182" height="182" viewBox="0 0 182 182" fill="none" xmlns="http://www.w3.org/2000/svg">
<path d="M79.6526 0.690644C129.369 -5.43685 174.639 29.8893 180.804 79.6122C186.961 129.337 151.674 174.648 101.964 180.837C52.2116 187.033 6.86211 151.7 0.697858 101.93C-5.46639 52.1607 29.8916 6.82339 79.6526 0.690644Z" fill="#113D28"/>
<path d="M79.7228 6.66037C126.279 0.550126 168.939 33.4374 174.887 80.0238C180.834 126.608 147.812 169.166 101.214 174.957C54.8445 180.726 12.5475 147.883 6.62624 101.523C0.705745 55.159 33.3915 12.7406 79.7228 6.66037Z" fill="#1DD25D"/>
<path d="M88.0438 36.418C90.2698 37.0886 90.5203 37.2154 92.2168 38.8028C93.7813 41.616 93.3343 45.8965 93.2908 49.2596C102.94 50.2693 114.534 54.6137 118.584 64.2355C118.487 66.6488 118.885 65.9452 117.445 67.273C113.83 68.3135 112.66 67.7531 109.765 65.5123C103.412 60.5956 101.087 59.0862 93.1723 57.7089L93.2488 85.5497C105.43 88.2144 118.652 92.8295 120.4 107.193C121.09 112.578 119.59 118.017 116.23 122.278C110.155 129.87 102.055 130.965 93.2188 131.978C93.2046 136.847 93.2773 138.767 92.1928 143.448C88.9003 144.198 88.277 144.146 85.8148 142.158C84.446 139.21 84.8225 134.934 84.8405 131.535C77.1245 129.862 56.6218 123.636 58.3401 113.164L59.6428 112.264C67.2628 111.544 69.5938 117.019 76.3415 120.192C78.818 121.355 82.2313 122.278 84.893 123.036L85.0078 92.7762C75.0598 90.3171 64.4773 85.5145 62.2663 74.3667C61.3168 69.351 62.4223 64.1643 65.333 59.9722C70.2628 52.7817 76.9835 50.7855 84.992 49.2296C84.8405 43.0496 84.0358 40.8305 88.0438 36.418Z" fill="#FEFEFD"/>
<path d="M93.7814 94.7383C106.665 97.6617 118.95 104.881 107.857 119.114C102.48 122.527 99.6674 122.692 93.2767 123.27C93.1627 117.681 92.5897 99.571 93.7814 94.7383Z" fill="#1DD25D"/>
<path d="M84.1921 57.8281C85.6921 59.9909 85.0254 79.8873 84.9886 83.675C81.7486 82.4357 78.9399 81.1341 75.7929 79.6765C64.1626 70.0576 72.7299 60.8776 84.1921 57.8281Z" fill="#1DD25D"/>
</svg>
