<svg width="215" height="265" viewBox="0 0 215 265" fill="none" xmlns="http://www.w3.org/2000/svg">
<path d="M75.6505 0.21041C78.2973 -0.0303989 81.4818 -0.230699 84.0393 0.598253C93.2298 3.57423 99.3228 14.9613 103.441 22.9845C110.5 36.7406 127.593 70.1537 116.043 84.2819C108.978 92.924 97.1515 98.6614 88.027 104.919C84.9903 107.001 80.4475 110.449 79.5258 114.263C77.269 123.601 96.3768 153.453 102.153 161.648C106.407 167.683 113.898 179.043 121.353 180.744C129.816 182.677 153.432 157.121 172.978 160.745C182.276 162.469 188.388 170.571 193.339 177.969C200.778 189.083 216.591 212.996 213.711 226.279C211.181 237.94 197.753 245.711 188.359 251.621C156.974 270.656 127.893 268.33 98.2908 247.58C52.813 215.705 16.2633 164.858 3.04227 110.848C-10.4262 55.8282 22.0855 11.3679 75.6505 0.21041Z" fill="#113D28"/>
<path d="M197.326 237.871C160.09 267.057 126.532 264.198 90.4003 234.313C50.0465 200.935 14.3705 150.126 7.09401 97.2459C4.27401 74.4606 8.22651 57.3902 21.899 38.7669C31.2515 26.0295 73.5365 -3.56446 87.1445 9.80155C100.112 24.9357 111.238 51.7983 114.025 71.0998C116.533 88.462 70.0865 99.8513 73.2515 116.019C77.6825 138.655 95.7553 166.167 111.787 182.575C127.543 198.701 149.085 165.546 167 166.589C171.233 166.603 176.593 167.644 179.986 171.361C190.348 182.71 205.464 206.661 207.987 221.881C208.809 226.844 204.542 231.16 201.689 234.334C195.915 221.321 191.28 212.988 184.184 200.77C182.497 201.508 180.441 202.483 178.759 203.122C186.226 214.298 191.029 226.226 197.326 237.871Z" fill="#1DD25D"/>
<path d="M178.76 203.125C174.216 195.685 168.824 188.994 164.513 181.482C163.706 180.075 164.388 178.67 164.898 177.352L166.445 177.332C172.261 180.851 180.303 194.613 184.185 200.772C182.498 201.51 180.441 202.486 178.76 203.125Z" fill="#113D28"/>
<path d="M69.7604 10.1523C70.4774 10.2064 71.1194 10.2649 71.7974 10.5259C77.9436 12.8898 92.3549 47.4259 95.9789 56.0298C98.6826 62.4491 105.422 74.8264 102.681 81.5608C100.912 81.0311 98.7239 80.2465 98.1059 78.3185C91.0086 56.1686 80.3594 35.6016 69.5616 15.0795C68.4044 12.8815 69.0456 12.2934 69.7604 10.1523Z" fill="#113D28"/>
</svg>
