<svg width="195" height="179" viewBox="0 0 195 179" fill="none" xmlns="http://www.w3.org/2000/svg">
<path d="M43.2976 0.167369C72.2836 -1.57306 87.1351 10.2634 99.8243 35.5265C103.454 29.465 105.815 25.6623 110.856 20.4321C121.238 9.51315 135.554 3.19736 150.615 2.89054C177.342 2.48694 194.736 23.2618 194.207 49.1873C193.441 86.611 171.799 115.339 146.416 140.568C139.849 147.027 108.717 176.914 101.549 178.31C99.1568 178.775 96.3968 177.244 94.4483 175.947C86.0341 170.335 78.9593 161.033 71.3821 154.184C43.4363 128.925 9.52431 103.53 1.44156 64.3111C-1.61319 49.4889 -0.0659301 34.6548 8.52532 21.9032C16.7071 9.76071 29.1346 2.83577 43.2976 0.167369Z" fill="#113D28"/>
<path d="M49.5905 5.53908C86.2107 3.66437 94.0887 44.5568 99.0942 47.337C102.006 46.0467 102.832 44.5613 103.958 41.6304C106.483 35.0535 109.579 30.7505 114.263 25.4842C139.797 -3.22608 188.934 5.66884 188.372 48.8374C187.929 82.8072 167.329 111.19 144.415 134.168C134.343 144.423 122.82 153.523 112.226 163.238C108.351 166.794 104.525 170.35 100.215 173.366C99.848 173.103 99.488 172.825 99.134 172.548C91.7405 166.726 85.4922 158.287 77.2197 151.378C43.4037 123.126 -18.0768 71.0271 15.9042 21.9644C22.9827 11.7454 37.214 6.80238 49.5905 5.53908Z" fill="#1DD25D"/>
</svg>
