<svg width="182" height="254" viewBox="0 0 182 254" fill="none" xmlns="http://www.w3.org/2000/svg">
<path d="M92.553 0.00377872C94.3454 -0.0104741 96.1378 0.0156681 97.9377 0.0809272C115.12 0.769594 130.338 6.26541 142.285 19.1512C161.365 39.7242 157.226 70.3842 155.905 96.5731C177.55 98.9197 181.945 107.466 181.196 129.096C180.423 154.602 178.331 181.123 176.726 206.412C174.648 239.037 172.646 253.591 135.033 253.403C121.616 253.328 106.405 252.976 92.718 252.578C68.7931 252.053 29.6656 255.429 8.50804 242.999C0.0705625 238.04 -0.0946971 219.84 0.0178008 210.921C0.422801 179.421 -0.754816 147.338 2.33518 115.925C3.96273 99.4478 12.0782 94.6188 27.4006 93.33C28.5406 68.3812 28.2779 41.8052 45.4153 21.9471C58.5477 6.72895 73.2555 1.56192 92.553 0.00377872ZM122.582 95.8446C124.18 68.7053 130.218 30.8618 90.1682 34.3768C59.9283 40.8186 62.7777 69.8113 61.0002 94.7518C72.7452 94.9709 85.2101 95.0185 96.9026 95.5106L122.582 95.8446Z" fill="#113D28"/>
<path d="M26.1645 98.9508C43.2345 98.2374 60.9945 100.345 78.132 100.783C102.657 101.409 127.587 100.521 152.022 102.171C157.152 102.518 163.002 103.08 167.802 104.926C170.457 105.949 172.752 109.352 173.84 111.923C178.34 122.588 171.56 223.832 166.422 235.82C163.977 241.537 159.087 243.922 153.657 246.045C137.39 249.984 26.082 248.281 12.297 238.896C-0.0404902 230.501 7.37695 137.047 7.73695 118.558C7.99195 105.682 13.6395 100.624 26.1645 98.9508Z" fill="#1DD25D"/>
<path d="M86.2699 137.182C94.2349 136.501 102.05 138.572 107.322 144.911C110.907 149.233 112.595 154.818 112.01 160.405C111.17 168.364 107.315 172.498 101.42 177.157C103.662 184.628 110.307 202.94 108.08 209.264C104.825 211.988 98.6824 210.915 94.1074 210.72C87.9724 210.802 74.3374 212.243 70.0549 207.471C67.7674 202.273 75.7624 183.938 78.1174 177.322C73.0324 173.166 69.8674 170.57 67.9849 164.006C66.4474 158.674 67.1524 152.948 69.9349 148.152C73.8424 141.515 79.2049 139.058 86.2699 137.182Z" fill="#113D28"/>
<path d="M90.243 5.99883C106.803 3.67626 126.7 10.893 138.048 23.241C155.823 42.5845 151.211 71.9182 150.213 96.3914L128.538 96.0081C128.643 66.907 137.29 33.7083 97.878 28.2755C56.178 28.6304 57.2205 62.934 55.4655 94.3254C47.778 94.2729 40.848 93.8985 33.168 93.4169C33.918 51.3354 39.273 11.8578 90.243 5.99883Z" fill="#1DD25D"/>
</svg>
