<svg xmlns="http://www.w3.org/2000/svg" viewBox="0 0 24 24" width="24" height="24">
  <title>arrow.up.arrow.down</title>
  <path transform="matrix(0.6954631893507199, 0, 0, 0.6954631893507199, -0.0782396088019559, 17.880195599022002)" d="M19.32-5.55C19.03-5.86 18.66-6 18.23-6C17.33-6 16.69-5.37 16.69-4.45C16.69-4.05 16.88-3.61 17.17-3.33L23.05 2.73C23.70 3.40 24.73 3.41 25.37 2.73L31.27-3.33C31.56-3.61 31.75-4.05 31.75-4.45C31.75-5.37 31.10-6 30.20-6C29.77-6 29.40-5.86 29.11-5.55L26.29-2.61L25.71-1.96L25.78-4.05L25.78-18.59C25.78-19.48 25.11-20.14 24.21-20.14C23.32-20.14 22.65-19.48 22.65-18.59L22.65-4.05L22.72-1.95L22.11-2.65ZM5.63-11.36L8.41-14.27L9.02-14.96L8.95-12.86L8.95 1.66C8.95 2.57 9.62 3.23 10.52 3.23C11.41 3.23 12.08 2.57 12.08 1.66L12.08-12.86L12.01-14.95L12.59-14.31L15.41-11.36C15.70-11.05 16.07-10.91 16.50-10.91C17.40-10.91 18.05-11.54 18.05-12.46C18.05-12.86 17.86-13.30 17.57-13.59L11.67-19.64C11.03-20.32 10.01-20.31 9.36-19.64L3.47-13.59C3.18-13.30 2.99-12.86 2.99-12.46C2.99-11.54 3.63-10.91 4.54-10.91C4.97-10.91 5.33-11.05 5.63-11.36Z" fill="currentColor"/>
</svg>