<svg xmlns="http://www.w3.org/2000/svg" viewBox="0 0 24 24" width="24" height="24">
  <title>arrow.up.arrow.down</title>
  <path transform="matrix(0.70494286107669, 0, 0, 0.70494286107669, -0.10656753407682773, 17.96137959520859)" d="M5.31-11.54L7.97-14.31L9.07-15.57L8.96-13.22L8.96 1.71C8.96 2.51 9.54 3.09 10.34 3.09C11.13 3.09 11.71 2.51 11.71 1.71L11.71-13.22L11.61-15.56L12.68-14.33L15.36-11.54C15.62-11.27 15.94-11.14 16.32-11.14C17.12-11.14 17.68-11.71 17.68-12.52C17.68-12.86 17.52-13.25 17.26-13.51L11.36-19.56C10.78-20.16 9.88-20.16 9.32-19.56L3.41-13.51C3.15-13.25 2.99-12.86 2.99-12.52C2.99-11.71 3.55-11.14 4.35-11.14C4.73-11.14 5.05-11.27 5.31-11.54ZM18.98-5.38C18.73-5.64 18.41-5.77 18.02-5.77C17.23-5.77 16.66-5.21 16.66-4.41C16.66-4.05 16.83-3.67 17.09-3.40L22.98 2.65C23.55 3.23 24.46 3.25 25.03 2.65L30.93-3.40C31.20-3.67 31.36-4.05 31.36-4.41C31.36-5.21 30.79-5.77 29.99-5.77C29.61-5.77 29.30-5.64 29.04-5.38L26.34-2.58L25.29-1.36L25.38-3.69L25.38-18.63C25.38-19.42 24.80-20.00 24.01-20.00C23.21-20.00 22.63-19.42 22.63-18.63L22.63-3.69L22.73-1.34L21.64-2.60Z" fill="currentColor"/>
</svg>