<svg xmlns="http://www.w3.org/2000/svg" viewBox="0 0 24 24" width="24" height="24">
  <title>arrow.left</title>
  <path transform="matrix(0.8916753744339951, 0, 0, 0.8916753744339951, -0.6645768025078369, 19.570532915360502)" d="M12.18 0.73C13.02 0.73 13.61 0.13 13.61-0.66C13.61-1.09 13.43-1.44 13.16-1.70L10.55-4.35L7.46-7.17L10.11-7.02L23.93-7.02C24.82-7.02 25.42-7.62 25.42-8.48C25.42-9.35 24.82-9.95 23.93-9.95L10.11-9.95L7.46-9.80L10.55-12.62L13.16-15.27C13.43-15.54 13.61-15.89 13.61-16.31C13.61-17.11 13.02-17.71 12.18-17.71C11.81-17.71 11.45-17.55 11.12-17.23L3.45-9.56C3.16-9.28 2.99-8.88 2.99-8.48C2.99-8.09 3.16-7.69 3.45-7.41L11.14 0.28C11.45 0.59 11.81 0.73 12.18 0.73Z" fill="currentColor"/>
</svg>