<svg xmlns="http://www.w3.org/2000/svg" viewBox="0 0 24 24" width="24" height="24">
  <title>chevron.right</title>
  <path transform="matrix(0.9497310332034873, 0, 0, 0.9497310332034873, 1.8330550918197002, 20.030050083472453)" d="M16.84-8.46C16.84-8.94 16.66-9.34 16.29-9.71L7.27-18.54C6.96-18.84 6.60-18.98 6.16-18.98C5.29-18.98 4.57-18.29 4.57-17.41C4.57-16.98 4.76-16.58 5.07-16.27L13.09-8.47L5.07-0.66C4.76-0.34 4.57 0.05 4.57 0.49C4.57 1.37 5.29 2.07 6.16 2.07C6.60 2.07 6.96 1.92 7.27 1.62L16.29-7.21C16.68-7.58 16.84-7.98 16.84-8.46Z" fill="currentColor"/>
</svg>