<svg xmlns="http://www.w3.org/2000/svg" viewBox="0 0 24 24" width="24" height="24">
  <title>chevron.down</title>
  <path transform="matrix(0.9492028179458658, 0, 0, 0.9492028179458658, -0.8364849833147945, 19.630700778642936)" d="M13.52-1.90C14.00-1.90 14.41-2.09 14.79-2.47L23.60-11.48C23.91-11.79 24.06-12.15 24.06-12.59C24.06-13.46 23.36-14.18 22.48-14.18C22.05-14.18 21.64-13.99 21.33-13.68L13.54-5.66L5.72-13.68C5.40-13.99 5.00-14.18 4.56-14.18C3.69-14.18 2.99-13.46 2.99-12.59C2.99-12.15 3.15-11.79 3.45-11.48L12.26-2.46C12.64-2.09 13.04-1.90 13.52-1.90Z" fill="currentColor"/>
</svg>