<svg xmlns="http://www.w3.org/2000/svg" viewBox="0 0 24 24" width="24" height="24">
  <title>chevron.left</title>
  <path transform="matrix(0.9497310332034873, 0, 0, 0.9497310332034873, 4.838063439065109, 20.030050083472453)" d="M1.41-8.46C1.41-7.98 1.58-7.58 1.97-7.21L10.99 1.62C11.29 1.92 11.66 2.07 12.09 2.07C12.97 2.07 13.68 1.37 13.68 0.49C13.68 0.05 13.50-0.34 13.18-0.66L5.17-8.47L13.18-16.27C13.50-16.58 13.68-16.98 13.68-17.41C13.68-18.29 12.97-18.98 12.09-18.98C11.65-18.98 11.29-18.84 10.99-18.54L1.97-9.71C1.58-9.34 1.42-8.94 1.41-8.46Z" fill="currentColor"/>
</svg>