<svg xmlns="http://www.w3.org/2000/svg" viewBox="0 0 24 24" width="24" height="24">
  <title>creditcard.and.numbers</title>
  <path transform="matrix(0.6703325477873789, 0, 0, 0.6703325477873789, -0.003142183817753441, 17.306362922230953)" d="M6.96 1.79L15.56 1.79L15.56-0.82L7.18-0.82C6.15-0.82 5.60-1.34 5.60-2.41L5.60-10.88L28.25-10.88L28.25-7.36C28.69-7.49 29.16-7.57 29.63-7.57C30.06-7.57 30.47-7.52 30.87-7.42L30.87-14.74C30.87-17.32 29.48-18.68 26.89-18.68L6.96-18.68C4.37-18.68 2.99-17.32 2.99-14.74L2.99-2.14C2.99 0.43 4.37 1.79 6.96 1.79ZM5.60-14.47C5.60-15.55 6.15-16.08 7.18-16.08L26.67-16.08C27.69-16.08 28.25-15.55 28.25-14.47L28.25-13.68L5.60-13.68ZM20.93 2.73L25.34 2.73C25.82 2.73 26.17 2.38 26.17 1.91C26.17 1.42 25.82 1.07 25.34 1.07L22.84 1.07L22.84 1.01L24.18-0.30C25.49-1.58 25.92-2.32 25.92-3.25C25.92-4.69 24.67-5.78 23.00-5.78C21.69-5.78 20.57-5.04 20.21-3.94C20.14-3.77 20.11-3.59 20.11-3.38C20.11-2.89 20.45-2.55 20.92-2.55C21.34-2.55 21.59-2.77 21.71-3.21C21.75-3.32 21.77-3.40 21.82-3.47C22.04-3.90 22.46-4.14 23.00-4.14C23.63-4.14 24.14-3.69 24.14-3.18C24.14-2.68 23.93-2.37 22.97-1.42L20.48 1.04C20.19 1.32 20.07 1.58 20.07 1.89C20.07 2.38 20.43 2.73 20.93 2.73ZM29.63 2.85C31.48 2.85 32.82 1.73 32.82 0.22C32.82-0.64 32.37-1.37 31.68-1.72C32.20-2.11 32.50-2.71 32.50-3.41C32.50-4.78 31.29-5.78 29.61-5.78C28.38-5.78 27.35-5.21 26.91-4.32C26.79-4.08 26.73-3.80 26.73-3.55C26.73-3.07 27.06-2.73 27.54-2.73C27.96-2.73 28.20-2.93 28.32-3.29C28.51-3.83 28.96-4.14 29.58-4.14C30.30-4.14 30.73-3.81 30.73-3.27C30.73-2.71 30.28-2.36 29.54-2.36L28.97-2.36C28.50-2.36 28.16-2.03 28.16-1.57C28.16-1.11 28.50-0.77 28.97-0.77L29.55-0.77C30.49-0.77 31.01-0.42 31.01 0.22C31.01 0.81 30.47 1.20 29.64 1.20C28.91 1.20 28.39 0.88 28.20 0.35C28.07-0.01 27.81-0.21 27.41-0.21C26.91-0.21 26.54 0.15 26.54 0.63C26.54 0.88 26.63 1.15 26.75 1.38C27.28 2.32 28.30 2.85 29.63 2.85ZM18.21 2.85C18.75 2.85 19.11 2.48 19.11 1.96L19.11-4.79C19.11-5.34 18.73-5.72 18.15-5.72C17.86-5.72 17.64-5.65 17.31-5.43L15.57-4.29C15.26-4.09 15.11-3.83 15.11-3.52C15.11-3.07 15.45-2.74 15.90-2.74C16.08-2.74 16.24-2.80 16.42-2.92L17.29-3.48L17.34-3.48L17.34 1.96C17.34 2.47 17.71 2.85 18.21 2.85Z" fill="currentColor"/>
</svg>