<svg xmlns="http://www.w3.org/2000/svg" viewBox="0 0 24 24" width="24" height="24">
  <title>delete.left</title>
  <path transform="matrix(0.7821570424686831, 0, 0, 0.7821570424686831, 0.13015582034830442, 18.60403299725023)" d="M24.12 2.50C26.65 2.50 27.96 1.29 27.96-1.22L27.96-15.57C27.96-18.08 26.65-19.38 24.12-19.38L13.98-19.38C12.41-19.38 11.26-19.00 10.21-17.85L3.57-10.80C2.72-9.88 2.39-9.20 2.39-8.46C2.39-7.72 2.72-7.03 3.57-6.12L10.22 0.89C11.27 2.04 12.42 2.48 13.98 2.48ZM23.98 0.20L13.89 0.20C13.07 0.20 12.54-0.01 11.96-0.61L5.37-7.57C5.02-7.93 4.91-8.19 4.91-8.46C4.91-8.73 5.03-8.98 5.37-9.34L11.95-16.34C12.53-16.93 13.07-17.09 13.88-17.09L23.98-17.09C25.07-17.09 25.66-16.52 25.66-15.39L25.66-1.51C25.66-0.38 25.07 0.20 23.98 0.20ZM14.25-3.84L17.34-6.94L20.44-3.84C20.64-3.64 20.89-3.53 21.21-3.53C21.80-3.53 22.27-4.00 22.27-4.59C22.27-4.89 22.15-5.13 21.95-5.33L18.83-8.44L21.95-11.54C22.15-11.74 22.27-12 22.27-12.28C22.27-12.87 21.80-13.32 21.21-13.32C20.91-13.32 20.66-13.23 20.46-13.02L17.34-9.91L14.24-13.02C14.03-13.23 13.79-13.32 13.49-13.32C12.90-13.32 12.43-12.87 12.43-12.28C12.43-12 12.55-11.74 12.75-11.54L15.86-8.44L12.75-5.33C12.55-5.13 12.43-4.89 12.43-4.59C12.43-4.00 12.90-3.53 13.49-3.53C13.80-3.53 14.05-3.64 14.25-3.84Z" fill="currentColor"/>
</svg>