<svg xmlns="http://www.w3.org/2000/svg" viewBox="0 0 24 24" width="24" height="24">
  <title>ellipsis</title>
  <path transform="matrix(0.8987186238371072, 0, 0, 0.8987186238371072, 0.11479726171669302, 19.604002106371773)" d="M4.46-6.09C5.78-6.09 6.83-7.15 6.83-8.46C6.83-9.77 5.78-10.83 4.46-10.83C3.15-10.83 2.10-9.77 2.10-8.46C2.10-7.15 3.15-6.09 4.46-6.09ZM13.23-6.09C14.53-6.09 15.60-7.15 15.60-8.46C15.60-9.77 14.53-10.83 13.23-10.83C11.92-10.83 10.86-9.77 10.86-8.46C10.86-7.15 11.92-6.09 13.23-6.09ZM21.98-6.09C23.30-6.09 24.35-7.15 24.35-8.46C24.35-9.77 23.30-10.83 21.98-10.83C20.67-10.83 19.62-9.77 19.62-8.46C19.62-7.15 20.67-6.09 21.98-6.09Z" fill="currentColor"/>
</svg>