<svg xmlns="http://www.w3.org/2000/svg" viewBox="0 0 24 24" width="24" height="24">
  <title>ellipsis</title>
  <path transform="matrix(0.8865800865800866, 0, 0, 0.8865800865800866, 0.1402597402597403, 19.506493506493506)" d="M4.58-5.99C5.95-5.99 7.05-7.09 7.05-8.46C7.05-9.83 5.95-10.95 4.58-10.95C3.21-10.95 2.10-9.83 2.10-8.46C2.10-7.09 3.21-5.99 4.58-5.99ZM13.37-5.99C14.74-5.99 15.86-7.09 15.86-8.46C15.86-9.83 14.74-10.95 13.37-10.95C12.01-10.95 10.90-9.83 10.90-8.46C10.90-7.09 12.01-5.99 13.37-5.99ZM22.17-5.99C23.54-5.99 24.66-7.09 24.66-8.46C24.66-9.83 23.54-10.95 22.17-10.95C20.80-10.95 19.70-9.83 19.70-8.46C19.70-7.09 20.80-5.99 22.17-5.99Z" fill="currentColor"/>
</svg>