<svg xmlns="http://www.w3.org/2000/svg" viewBox="0 0 24 24" width="24" height="24">
  <title>faceid</title>
  <path transform="matrix(0.8436315702751689, 0, 0, 0.8436315702751689, -0.5160652496292641, 19.123084527928818)" d="M2.99-13.36C2.99-12.56 3.63-11.92 4.43-11.92C5.23-11.92 5.87-12.56 5.87-13.36L5.87-15.56C5.87-16.73 6.54-17.41 7.72-17.41L9.97-17.41C10.78-17.41 11.41-18.05 11.41-18.86C11.41-19.65 10.78-20.30 9.97-20.30L7.72-20.30C4.82-20.30 2.99-18.45 2.99-15.56ZM26.68-13.36L26.68-15.56C26.68-18.45 24.86-20.30 21.96-20.30L19.70-20.30C18.90-20.30 18.26-19.65 18.26-18.86C18.26-18.05 18.90-17.41 19.70-17.41L21.96-17.41C23.13-17.41 23.80-16.73 23.80-15.56L23.80-13.36C23.80-12.56 24.45-11.92 25.24-11.92C26.04-11.92 26.68-12.56 26.68-13.36ZM13.92-6.49L14.03-6.49C15.27-6.49 15.96-7.20 15.96-8.44L15.96-12.08C15.96-12.60 15.60-12.96 15.07-12.96C14.54-12.96 14.18-12.60 14.18-12.08L14.18-8.44C14.18-8.34 14.12-8.30 14.04-8.30L13.75-8.30C13.24-8.30 12.86-7.91 12.86-7.42C12.86-6.84 13.27-6.49 13.92-6.49ZM10.55-9.22C11.16-9.22 11.60-9.67 11.60-10.28L11.60-11.89C11.60-12.50 11.16-12.95 10.55-12.95C9.95-12.95 9.50-12.50 9.50-11.89L9.50-10.28C9.50-9.67 9.95-9.22 10.55-9.22ZM19.11-9.22C19.71-9.22 20.16-9.67 20.16-10.28L20.16-11.89C20.16-12.50 19.71-12.95 19.11-12.95C18.50-12.95 18.06-12.50 18.06-11.89L18.06-10.28C18.06-9.67 18.50-9.22 19.11-9.22ZM14.79-2.75C16.21-2.75 17.66-3.38 18.70-4.41C18.86-4.57 18.94-4.79 18.94-5.06C18.94-5.58 18.55-5.95 18.05-5.95C17.78-5.95 17.59-5.85 17.34-5.59C16.75-4.96 15.77-4.54 14.79-4.54C13.84-4.54 12.88-4.95 12.22-5.60C12-5.82 11.81-5.95 11.52-5.95C11.00-5.95 10.62-5.58 10.62-5.06C10.62-4.84 10.70-4.63 10.88-4.42C11.78-3.35 13.28-2.75 14.79-2.75ZM2.99-3.53L2.99-1.32C2.99 1.57 4.82 3.41 7.72 3.41L9.97 3.41C10.78 3.41 11.41 2.78 11.41 1.97C11.41 1.16 10.78 0.53 9.97 0.53L7.72 0.53C6.54 0.53 5.87-0.15 5.87-1.32L5.87-3.53C5.87-4.32 5.23-4.97 4.43-4.97C3.63-4.97 2.99-4.32 2.99-3.53ZM26.68-3.53C26.68-4.32 26.04-4.97 25.24-4.97C24.45-4.97 23.80-4.32 23.80-3.53L23.80-1.32C23.80-0.15 23.13 0.53 21.96 0.53L19.70 0.53C18.90 0.53 18.26 1.16 18.26 1.97C18.26 2.78 18.90 3.41 19.70 3.41L21.96 3.41C24.86 3.41 26.68 1.57 26.68-1.32Z" fill="currentColor"/>
</svg>