<svg xmlns="http://www.w3.org/2000/svg" viewBox="0 0 24 24" width="24" height="24">
  <title>gearshape.fill</title>
  <path transform="matrix(0.8165869218500797, 0, 0, 0.8165869218500797, 0.2870813397129186, 18.90909090909091)" d="M13.27 3.79L15.42 3.79C16.03 3.79 16.46 3.42 16.61 2.82L17.21 0.25C17.67 0.09 18.12-0.08 18.50-0.27L20.77 1.11C21.27 1.43 21.84 1.38 22.27 0.96L23.78-0.54C24.20-0.96 24.26-1.57 23.92-2.07L22.54-4.31C22.73-4.72 22.91-5.14 23.04-5.57L25.64-6.19C26.24-6.33 26.59-6.76 26.59-7.37L26.59-9.49C26.59-10.09 26.24-10.52 25.64-10.66L23.06-11.29C22.91-11.77 22.72-12.20 22.56-12.56L23.94-14.84C24.26-15.35 24.23-15.90 23.80-16.34L22.27-17.85C21.83-18.25 21.30-18.34 20.80-18.02L18.50-16.61C18.13-16.80 17.70-16.98 17.21-17.13L16.61-19.75C16.46-20.34 16.03-20.71 15.42-20.71L13.27-20.71C12.66-20.71 12.22-20.34 12.07-19.75L11.46-17.16C11.00-17.00 10.56-16.83 10.16-16.62L7.89-18.02C7.38-18.34 6.83-18.27 6.41-17.85L4.89-16.34C4.45-15.90 4.42-15.35 4.75-14.84L6.12-12.56C5.96-12.20 5.78-11.77 5.63-11.29L3.05-10.66C2.45-10.52 2.10-10.09 2.10-9.49L2.10-7.37C2.10-6.76 2.45-6.33 3.05-6.19L5.65-5.57C5.78-5.14 5.95-4.72 6.14-4.31L4.77-2.07C4.42-1.57 4.49-0.96 4.91-0.54L6.41 0.96C6.83 1.38 7.42 1.43 7.92 1.11L10.17-0.27C10.57-0.08 11.00 0.09 11.46 0.25L12.07 2.82C12.22 3.42 12.66 3.79 13.27 3.79ZM14.34-4.32C12.06-4.32 10.21-6.18 10.21-8.46C10.21-10.75 12.06-12.60 14.34-12.60C16.63-12.60 18.48-10.75 18.48-8.46C18.48-6.18 16.63-4.32 14.34-4.32Z" fill="currentColor"/>
</svg>