<svg xmlns="http://www.w3.org/2000/svg" viewBox="0 0 24 24" width="24" height="24">
  <title>person.2</title>
  <path transform="matrix(0.6058454620754941, 0, 0, 0.6058454620754941, 0.18956336528221507, 17.126020589279374)" d="M25.65-8.38C28.51-8.38 30.82-10.90 30.82-13.99C30.82-17.04 28.51-19.48 25.65-19.48C22.80-19.48 20.47-17.00 20.47-13.98C20.47-10.89 22.78-8.38 25.65-8.38ZM12.01-8.24C14.51-8.24 16.52-10.44 16.52-13.17C16.52-15.83 14.51-17.99 12.01-17.99C9.54-17.99 7.50-15.80 7.50-13.16C7.50-10.43 9.53-8.24 12.01-8.24ZM25.65-10.61C24.09-10.61 22.78-12.07 22.78-13.98C22.78-15.82 24.09-17.25 25.65-17.25C27.22-17.25 28.52-15.84 28.52-13.99C28.52-12.09 27.22-10.61 25.65-10.61ZM12.01-10.43C10.75-10.43 9.68-11.63 9.68-13.16C9.68-14.61 10.75-15.81 12.01-15.81C13.29-15.81 14.34-14.64 14.34-13.17C14.34-11.63 13.28-10.43 12.01-10.43ZM5.60 2.55L14.64 2.55C13.95 2.14 13.52 1.21 13.61 0.38L5.60 0.38C5.39 0.38 5.31 0.28 5.31 0.09C5.31-2.45 8.36-4.91 12-4.91C13.21-4.91 14.51-4.61 15.45-4.10C15.86-4.73 16.38-5.29 17.10-5.74C15.63-6.61 13.76-7.09 12-7.09C7.02-7.09 2.99-3.55 2.99 0.34C2.99 1.79 3.86 2.55 5.60 2.55ZM18.38 2.55L32.91 2.55C34.98 2.55 36 1.88 36 0.43C36-2.87 31.89-7.08 25.64-7.08C19.41-7.08 15.29-2.87 15.29 0.43C15.29 1.88 16.30 2.55 18.38 2.55ZM18.12 0.33C17.87 0.33 17.78 0.25 17.78 0.05C17.78-1.65 20.61-4.85 25.64-4.85C30.67-4.85 33.52-1.65 33.52 0.05C33.52 0.25 33.42 0.33 33.16 0.33Z" fill="currentColor"/>
</svg>