<svg xmlns="http://www.w3.org/2000/svg" viewBox="0 0 24 24" width="24" height="24">
  <title>person.2</title>
  <path transform="matrix(0.6088714472588893, 0, 0, 0.6088714472588893, 0.18052087049589716, 17.151623260792007)" d="M25.54-8.41C28.37-8.41 30.67-10.91 30.67-13.98C30.67-17.00 28.37-19.41 25.54-19.41C22.72-19.41 20.41-16.97 20.41-13.96C20.41-10.90 22.71-8.41 25.54-8.41ZM11.95-8.29C14.43-8.29 16.42-10.48 16.42-13.18C16.42-15.81 14.43-17.94 11.95-17.94C9.52-17.94 7.50-15.77 7.50-13.16C7.50-10.46 9.50-8.29 11.95-8.29ZM25.54-10.44C23.92-10.44 22.54-11.98 22.54-13.96C22.54-15.89 23.89-17.38 25.54-17.38C27.19-17.38 28.55-15.91 28.55-13.98C28.55-12 27.18-10.44 25.54-10.44ZM11.95-10.29C10.63-10.29 9.49-11.57 9.49-13.16C9.49-14.70 10.62-15.95 11.95-15.95C13.32-15.95 14.44-14.72 14.44-13.18C14.44-11.57 13.30-10.29 11.95-10.29ZM5.51 2.48L14.61 2.48C13.98 2.11 13.55 1.28 13.63 0.50L5.38 0.50C5.16 0.50 5.06 0.40 5.06 0.20C5.06-2.50 8.23-5.07 11.95-5.07C13.27-5.07 14.59-4.75 15.61-4.18C16.00-4.73 16.49-5.23 17.12-5.64C15.63-6.56 13.78-7.05 11.95-7.05C7.00-7.05 2.99-3.52 2.99 0.38C2.99 1.77 3.83 2.48 5.51 2.48ZM18.22 2.48L32.84 2.48C34.86 2.48 35.84 1.84 35.84 0.47C35.84-2.73 31.83-7.04 25.54-7.04C19.24-7.04 15.23-2.73 15.23 0.47C15.23 1.84 16.21 2.48 18.22 2.48ZM17.84 0.46C17.55 0.46 17.45 0.38 17.45 0.15C17.45-1.64 20.36-5.02 25.54-5.02C30.71-5.02 33.61-1.64 33.61 0.15C33.61 0.38 33.50 0.46 33.23 0.46Z" fill="currentColor"/>
</svg>