<svg xmlns="http://www.w3.org/2000/svg" viewBox="0 0 24 24" width="24" height="24">
  <title>plus</title>
  <path transform="matrix(1.0086682427107958, 0, 0, 1.0086682427107958, -1.0141843971631186, 20.534278959810877)" d="M4.50-6.95L11.39-6.95L11.39-0.06C11.39 0.77 12.07 1.45 12.90 1.45C13.73 1.45 14.41 0.77 14.41-0.06L14.41-6.95L21.30-6.95C22.14-6.95 22.82-7.63 22.82-8.46C22.82-9.29 22.14-9.97 21.30-9.97L14.41-9.97L14.41-16.86C14.41-17.68 13.73-18.38 12.90-18.38C12.07-18.38 11.39-17.68 11.39-16.86L11.39-9.97L4.50-9.97C3.68-9.97 2.99-9.29 2.99-8.46C2.99-7.63 3.68-6.95 4.50-6.95Z" fill="currentColor"/>
</svg>