<svg xmlns="http://www.w3.org/2000/svg" viewBox="0 0 24 24" width="24" height="24">
  <title>xmark</title>
  <path transform="matrix(1.0471119984897288, 0, 0, 1.0471119984897288, -1.1305755314532737, 20.83885979151619)" d="M21.66-1.46L14.68-8.44L21.66-15.42C22.23-16.00 22.23-16.97 21.64-17.55C21.06-18.13 20.10-18.14 19.52-17.57L12.54-10.58L5.55-17.57C5.00-18.12 4.01-18.14 3.42-17.55C2.85-16.97 2.86-15.98 3.41-15.43L10.39-8.44L3.41-1.45C2.86-0.90 2.85 0.09 3.42 0.67C4.01 1.24 5.00 1.23 5.55 0.68L12.54-6.30L19.52 0.68C20.09 1.25 21.07 1.25 21.64 0.67C22.23 0.08 22.23-0.89 21.66-1.46Z" fill="currentColor"/>
</svg>