<svg width="24" height="24" viewBox="0 0 24 24" fill="none" xmlns="http://www.w3.org/2000/svg">
  <!-- Figma 109:29424 (icon-token-SOL): black rounded-8 chip, Solana mark inset
       24.22% / 27.34% (the mark path + gradient are the raw Figma export). -->
  <rect width="24" height="24" rx="8" fill="#000000"/>
  <g transform="translate(5.8125 6.5625)">
    <path d="M12.1248 8.57416L10.1128 10.7269C10.0691 10.7737 10.0162 10.8109 9.95737 10.8364C9.89857 10.8619 9.83513 10.875 9.77103 10.875H0.233569C0.18806 10.875 0.143543 10.8617 0.105488 10.8368C0.0674329 10.8119 0.0374965 10.7765 0.0193571 10.7348C0.00121782 10.6932 -0.00433418 10.6472 0.00338332 10.6024C0.0111008 10.5577 0.0317516 10.5162 0.0627984 10.483L2.07623 8.33025C2.11985 8.28361 2.1726 8.2464 2.23121 8.22093C2.28983 8.19545 2.35306 8.18225 2.417 8.18214H11.9539C11.9994 8.18214 12.044 8.19541 12.082 8.2203C12.12 8.2452 12.15 8.28066 12.1682 8.32229C12.1863 8.36394 12.1918 8.40995 12.1841 8.45469C12.1764 8.49944 12.1558 8.54097 12.1248 8.57416ZM10.1128 4.23917C10.0691 4.19241 10.0162 4.15513 9.95737 4.12965C9.89857 4.10418 9.83513 4.09104 9.77103 4.09108H0.233569C0.18806 4.09108 0.143543 4.10434 0.105488 4.12924C0.0674329 4.15414 0.0374965 4.18958 0.0193571 4.23122C0.00121782 4.27286 -0.00433418 4.31888 0.00338332 4.36363C0.0111008 4.40837 0.0317516 4.44989 0.0627984 4.4831L2.07623 6.63583C2.11985 6.68247 2.1726 6.71966 2.23121 6.74514C2.28983 6.77061 2.35306 6.78382 2.417 6.78392H11.9539C11.9994 6.78392 12.044 6.77066 12.082 6.74576C12.12 6.72086 12.15 6.68542 12.1682 6.64378C12.1863 6.60214 12.1918 6.55612 12.1841 6.51137C12.1764 6.46663 12.1558 6.42511 12.1248 6.3919L10.1128 4.23917ZM0.233569 2.69286H9.77103C9.83513 2.69288 9.89857 2.67976 9.95737 2.65428C10.0162 2.6288 10.0691 2.59151 10.1128 2.54475L12.1248 0.392018C12.1558 0.358822 12.1764 0.3173 12.1841 0.272555C12.1918 0.227809 12.1863 0.181789 12.1682 0.140149C12.15 0.098509 12.12 0.0630621 12.082 0.0381642C12.044 0.0132661 11.9994 1.5333e-06 11.9539 0H2.417C2.35306 0.000108552 2.28983 0.0133094 2.23121 0.0387852C2.1726 0.0642611 2.11985 0.10147 2.07623 0.148108L0.0633174 2.30084C0.0323006 2.334 0.0116589 2.37548 0.00392395 2.42017C-0.00381106 2.46487 0.00169689 2.51085 0.0197722 2.55247C0.0378476 2.5941 0.0677047 2.62954 0.105682 2.65448C0.143659 2.67941 0.188105 2.69275 0.233569 2.69286Z" fill="url(#sol-mark-gradient)"/>
    <defs>
      <linearGradient id="sol-mark-gradient" x1="1.02877" y1="11.1342" x2="11.0046" y2="-0.137414" gradientUnits="userSpaceOnUse">
        <stop offset="0.08" stop-color="#9945FF"/>
        <stop offset="0.3" stop-color="#8752F3"/>
        <stop offset="0.5" stop-color="#5497D5"/>
        <stop offset="0.6" stop-color="#43B4CA"/>
        <stop offset="0.72" stop-color="#28E0B9"/>
        <stop offset="0.97" stop-color="#19FB9B"/>
      </linearGradient>
    </defs>
  </g>
</svg>
