<svg width="24" height="24" viewBox="0 0 24 24" fill="none" xmlns="http://www.w3.org/2000/svg">
<path d="M21 11V16C21 17.6569 19.6569 19 18 19H6C4.34315 19 3 17.6569 3 16V11M21 11H18M21 11V8C21 6.34315 19.6569 5 18 5H6C4.34315 5 3 6.34315 3 8V11M3 11H6M18 11H17.2426C16.447 11 15.6839 11.3161 15.1213 11.8787L14.8787 12.1213C14.3161 12.6839 13.553 13 12.7574 13H11.2426C10.447 13 9.68393 12.6839 9.12132 12.1213L8.87868 11.8787C8.31607 11.3161 7.55301 11 6.75736 11H6M18 11V8.5C18 8.22386 17.7761 8 17.5 8H6.5C6.22386 8 6 8.22386 6 8.5V11" stroke="black" stroke-width="2"/>
</svg>
