<svg width="68" height="62" viewBox="0 0 68 62" fill="none" xmlns="http://www.w3.org/2000/svg">
<g opacity="0.1" filter="url(#filter0_f_2638_18055)">
<ellipse cx="34.5" cy="43.5" rx="17" ry="8.5" fill="black"/>
</g>
<path d="M15.3663 30.0173C15.3213 25.4801 16.0841 22.9447 19.2556 19.5168C28.8876 9.106 53.3389 13.6076 52.1483 30.161C52.1608 30.9113 52.1696 31.6617 52.1746 32.412C52.1784 33.2823 52.2071 34.6496 52.0383 35.4662C49.152 49.4113 28.0284 51.5889 19.1368 42.3643C15.185 38.2639 15.3288 35.0976 15.3663 30.0173Z" fill="#55BD79"/>
<path d="M15.3663 30.0156C15.7828 31.1351 15.9003 32.0328 16.4131 33.1991C18.0313 36.8849 21.0765 39.3442 24.6569 41.0056C29.8105 43.3974 36.1634 43.578 41.4847 41.6051C45.4215 40.1453 49.1244 37.3842 50.959 33.5017C51.2404 32.9055 52.1133 30.2152 52.1483 30.1593C52.1608 30.9097 52.1696 31.66 52.1746 32.4104C52.1784 33.2806 52.2071 34.6479 52.0383 35.4645C49.152 49.4096 28.0284 51.5872 19.1368 42.3626C15.185 38.2622 15.3288 35.096 15.3663 30.0156Z" fill="#299154"/>
<path d="M33.609 16.7089C43.6174 16.5544 53.6095 25.7791 45.5683 35.361C42.9596 38.4689 38.016 39.9555 34.0092 40.0759C29.6884 39.9967 26.0242 39.0294 22.729 36.1099C15.8358 30.0016 19.3449 20.856 27.2773 17.9241C29.6096 17.0621 31.0991 16.8331 33.609 16.7089Z" fill="#E1F9E9"/>
<path d="M32.2522 21.6914C36.9232 21.7038 35.5688 22.4636 35.5663 26.7948C37.1358 26.7805 39.6244 26.6347 41.1864 26.948C41.6804 27.0471 41.5741 29.4634 41.3364 29.8421C40.7512 30.2115 36.593 30.062 35.58 30.0543C35.57 31.4911 35.6826 33.1242 35.5438 34.5657C35.5125 34.8899 35.3362 34.9485 35.0986 35.113C30.544 35.0443 31.8646 34.2955 31.8633 30.0529C30.7415 30.0604 27.3312 30.2232 26.1907 29.8622C25.8605 29.7576 25.8655 27.4178 26.1344 27.0179C26.9423 26.6341 30.6903 26.7814 31.8608 26.7898C31.8621 25.5467 31.727 23.3042 31.9483 22.0384C32.0684 21.9016 32.1697 21.786 32.2522 21.6914Z" fill="#55BD79"/>
<defs>
<filter id="filter0_f_2638_18055" x="13.5" y="31" width="42" height="25" filterUnits="userSpaceOnUse" color-interpolation-filters="sRGB">
<feFlood flood-opacity="0" result="BackgroundImageFix"/>
<feBlend mode="normal" in="SourceGraphic" in2="BackgroundImageFix" result="shape"/>
<feGaussianBlur stdDeviation="2" result="effect1_foregroundBlur_2638_18055"/>
</filter>
</defs>
</svg>
