<svg width="68" height="62" viewBox="0 0 68 62" fill="none" xmlns="http://www.w3.org/2000/svg">
<g opacity="0.1" filter="url(#filter0_f_2638_18041)">
<ellipse cx="34" cy="43.5" rx="17" ry="8.5" fill="black"/>
</g>
<path d="M24.5163 18.8814C30.6635 13.3662 42.1289 11.7413 48.028 18.4081C51.5742 22.4149 52.3988 28.0268 50.153 32.7968C50.0346 33.0467 49.5739 34.0923 49.5449 34.2771C49.2957 37.4214 49.769 42.2348 45.3957 41.613C44.4175 41.474 44.133 41.2778 43.4293 40.609C41.75 41.5708 40.7316 42.1193 38.915 42.8173C38.6871 44.096 38.4203 46.8324 37.252 47.3274C33.0915 49.0919 31.7558 47.4597 31.436 43.8959C30.9835 43.8723 27.8889 43.3858 27.8552 43.3948C27.3888 43.6731 26.8753 43.8636 26.3402 43.9566C24.504 44.2752 23.1471 43.7561 22.8406 41.8056C18.1506 42.0884 14.7682 35.0905 18.4126 33.296C18.1182 31.0963 18.0391 29.0813 18.7165 26.9365C18.9355 26.243 19.3365 25.6196 19.4954 24.9202C18.7343 23.1865 17.2959 19.5019 19.4293 18.3229C21.406 17.8986 22.6749 18.1455 24.5163 18.8814Z" fill="#F899AC"/>
<path d="M22.8406 41.8065C18.1506 42.0894 14.7682 35.0914 18.4126 33.2969C19.1754 33.3696 19.6196 33.397 20.3201 33.7645C22.8227 35.0778 25.6831 39.4767 22.8406 41.8065Z" fill="#F899AC"/>
<path d="M21.1632 37.0547C22.462 37.2527 22.1484 38.9215 21.8006 39.7844C20.6254 39.2553 20.8073 38.0999 21.1632 37.0547Z" fill="#D7607C"/>
<path d="M18.8017 35.6758C19.9143 36.0511 19.698 37.5466 19.3115 38.3803C18.0733 38.1205 18.4242 36.493 18.8017 35.6758Z" fill="#D7607C"/>
<path d="M18.4141 33.2927C19.3723 32.6197 20.3046 32.0128 21.5534 32.2722C24.1562 32.8127 26.4275 36.1961 25.9738 38.8089C25.7308 40.2087 24.7884 40.796 23.6025 41.3328C24.5215 41.9056 25.1803 42.2521 26.1841 42.6753C26.4814 42.8006 27.6751 43.2585 27.8566 43.3916C27.3902 43.6699 26.8767 43.8604 26.3417 43.9534C24.5055 44.272 23.1486 43.7528 22.842 41.8023C25.6846 39.4725 22.8242 35.0737 20.3215 33.7604C19.6211 33.3928 19.1768 33.3655 18.4141 33.2927Z" fill="#D7607C"/>
<path d="M19.4308 18.3203C21.5685 18.8936 22.9019 20.7013 24.0051 22.5041C22.0682 22.6497 21.0348 23.1218 19.7446 24.6728C19.6427 24.7952 19.6243 24.8221 19.4969 24.9176C18.7358 23.1838 17.2974 19.4992 19.4308 18.3203Z" fill="#D7607C"/>
<path d="M49.5453 34.2734C49.296 37.4177 49.7694 42.2312 45.396 41.6093C44.4179 41.4703 44.1334 41.2742 43.4297 40.6053C46.4774 38.367 47.4178 37.3451 49.5453 34.2734Z" fill="#D7607C"/>
<path d="M33.0179 23.9762C37.6241 23.6692 36.0883 29.6615 34.2692 32.0103C34.0628 31.908 33.9004 31.3073 33.7934 31.027C32.9361 28.7106 31.6017 26.9579 29.7305 25.3953C30.873 24.5758 31.6495 24.2276 33.0179 23.9762Z" fill="#D7607C"/>
<path d="M38.4118 15.6632C39.0665 15.5644 40.2422 15.8539 40.314 16.6173C40.2448 16.6995 40.1604 16.799 40.0622 16.9155C38.6586 17.2648 37.2763 17.6102 35.9684 18.18C34.0838 19.0007 33.0125 19.6623 31.4855 20.9339C30.9977 21.2169 30.1373 20.7911 29.9258 20.1872C30.2543 18.2541 36.5261 16.041 38.4118 15.6632Z" fill="#D7607C"/>
<path d="M26.4051 31.8666C26.7591 31.6496 27.2034 31.6431 27.5634 31.85C27.9236 32.0567 28.142 32.4435 28.1331 32.8587C28.124 33.2739 27.889 33.6509 27.5204 33.8419C26.9779 34.1229 26.3103 33.9241 26.0101 33.3921C25.7097 32.8601 25.8843 32.1858 26.4051 31.8666Z" fill="#D7607C"/>
<path d="M20.409 28.2773C21.9327 28.5404 21.8123 29.7867 20.9636 30.7646C19.4901 30.4313 19.5955 29.2419 20.409 28.2773Z" fill="#D7607C"/>
<defs>
<filter id="filter0_f_2638_18041" x="13" y="31" width="42" height="25" filterUnits="userSpaceOnUse" color-interpolation-filters="sRGB">
<feFlood flood-opacity="0" result="BackgroundImageFix"/>
<feBlend mode="normal" in="SourceGraphic" in2="BackgroundImageFix" result="shape"/>
<feGaussianBlur stdDeviation="2" result="effect1_foregroundBlur_2638_18041"/>
</filter>
</defs>
</svg>
