<svg width="68" height="62" viewBox="0 0 68 62" fill="none" xmlns="http://www.w3.org/2000/svg">
<g opacity="0.1" filter="url(#filter0_f_2638_18025)">
<ellipse cx="33.5" cy="44.5" rx="22" ry="7.5" fill="black"/>
</g>
<path d="M9.57418 33.2654C9.56831 32.8806 9.64052 32.2785 9.99172 32.0454C12.6915 30.2538 15.5361 28.6123 18.3175 26.936L30.2321 19.7603C31.6508 18.9065 37.2911 15.2481 38.5335 15.2815L38.7214 15.2862C39.1362 15.2953 40.0231 15.3867 40.5018 15.6922C46.466 19.4976 52.7263 23.1704 58.5369 27.1742C59.0044 27.4963 58.8313 29.2932 58.786 29.8037C58.5469 30.1751 58.3304 30.4046 57.9487 30.6379C49.3117 35.9193 40.6531 41.1715 31.9923 46.414C31.5893 46.6579 30.5559 47.1708 30.1446 47.2471C28.7604 47.4347 27.6657 46.7547 26.5554 46.0461C21.1626 42.6043 15.762 39.1736 10.3856 35.7065C9.36154 35.0462 9.54487 34.3496 9.57418 33.2654Z" fill="#964EBF"/>
<path d="M9.57418 33.269C9.65923 33.385 9.75077 33.4962 9.8483 33.6019C10.4237 34.2265 12.3231 35.3474 13.1159 35.8508C17.9749 38.9262 22.8149 42.0958 27.6926 45.1316C29.0921 46.0025 30.4827 45.6468 31.7704 44.895C33.7561 43.7358 35.764 42.5065 37.7251 41.3135L48.7446 34.6133C51.1529 33.1805 53.5453 31.7215 55.9214 30.2361C56.7887 29.7052 57.9822 29.1646 58.6559 28.4375C58.7416 28.6834 58.7678 29.4998 58.786 29.8074C58.5469 30.1788 58.3304 30.4082 57.9487 30.6416C49.3117 35.923 40.6531 41.1752 31.9923 46.4177C31.5893 46.6616 30.556 47.1744 30.1446 47.2507C28.7604 47.4383 27.6657 46.7584 26.5554 46.0498C21.1626 42.608 15.762 39.1773 10.3856 35.7102C9.36154 35.0498 9.54487 34.3533 9.57418 33.269Z" fill="#6C2B89"/>
<path d="M39.6224 34.2773C40.3445 34.2801 41.0974 34.9367 41.6731 35.3697C37.8473 37.7991 33.7834 40.1702 29.8931 42.5311C29.142 42.542 28.5026 41.9239 27.9062 41.4635C28.9595 40.6655 30.4827 39.8536 31.6236 39.1434C34.2425 37.5133 37.0562 35.9763 39.6224 34.2773Z" fill="#D9ACF9"/>
<path d="M21.7106 29.3125C21.8973 29.2908 22.0849 29.277 22.2727 29.271C22.7697 29.259 23.7097 29.3143 24.0841 29.6651L24.0796 29.936C23.5463 30.6684 22.3964 31.2243 21.591 31.6862L25.8339 34.4534L24.1202 35.5087C24.0536 35.5469 23.8092 35.5936 23.7786 35.5762C22.4815 34.8332 18.7768 32.3324 17.7812 31.6549C19.0932 30.8854 20.3603 30.0183 21.7106 29.3125Z" fill="#D9ACF9"/>
<path d="M35.154 32.1408C35.9952 32.1291 36.6517 32.7321 37.306 33.2371C36.211 34.0261 33.8777 35.3469 32.6293 36.1182C31.8637 36.1588 31.1137 35.4608 30.5078 34.9925C31.856 34.0771 33.6884 33.0877 35.154 32.1408Z" fill="#D9ACF9"/>
<path d="M42.0105 28.043C42.6595 28.2232 43.4925 28.4833 43.5143 29.2289C43.0915 30.0478 40.216 31.5014 39.1294 32.1711C38.4839 31.9965 37.7065 31.6887 37.668 30.9696C38.1021 30.0915 40.9365 28.6745 42.0105 28.043Z" fill="#D9ACF9"/>
<path d="M28.6777 36.1484C29.2936 36.2961 30.0961 36.5711 30.2108 37.2424C29.8431 38.1144 26.8938 39.5864 25.8689 40.1823C25.2295 40.0329 24.4515 39.409 23.9102 39.0099C24.8404 38.3013 27.5696 36.776 28.6777 36.1484Z" fill="#D9ACF9"/>
<path d="M48.3908 24.1582C49.3338 24.1205 49.8413 24.6409 50.6154 25.1972C49.81 25.8135 47.0621 27.3704 46.065 27.9681C45.454 28.2418 44.6956 27.6133 44.2643 27.2337L44.2617 26.9616C44.7775 26.1507 47.3773 24.8145 48.3908 24.1582Z" fill="#D9ACF9"/>
<path d="M17.1273 32.0312C17.6138 32.209 18.5422 32.8784 19.0106 33.1928L17.5234 34.0953C17.0496 34.3895 16.2206 34.7232 15.9037 33.9536C15.4723 32.906 16.3417 32.4429 17.1273 32.0312Z" fill="#D9ACF9"/>
<path d="M21.4872 34.7969C21.864 34.9974 22.8911 35.7085 23.2916 35.9723C22.4201 36.5835 22.16 36.7349 21.1082 36.8674C20.2267 36.7751 20.0024 36.6445 19.2344 36.1879L21.4872 34.7969Z" fill="#D9ACF9"/>
<path d="M26.6984 31.6451C26.9948 31.6348 27.2038 31.7617 27.4376 31.9442C27.6284 32.0958 27.7434 32.3233 27.7525 32.5669C27.7873 33.3271 26.9683 34.0837 26.2571 34.0416L24.582 32.9602C25.2736 32.517 25.9987 32.0796 26.6984 31.6451Z" fill="#D9ACF9"/>
<path d="M19.5387 33.5156L20.9822 34.4375L18.6821 35.8344L17.2734 34.8965L19.5387 33.5156Z" fill="#D9ACF9"/>
<path d="M24.9568 30.3164L26.3222 31.2145L24.1288 32.5523C23.6878 32.4469 23.086 31.9714 22.6875 31.6955C23.4082 31.2254 24.2137 30.7611 24.9568 30.3164Z" fill="#D9ACF9"/>
<defs>
<filter id="filter0_f_2638_18025" x="7.5" y="33" width="52" height="23" filterUnits="userSpaceOnUse" color-interpolation-filters="sRGB">
<feFlood flood-opacity="0" result="BackgroundImageFix"/>
<feBlend mode="normal" in="SourceGraphic" in2="BackgroundImageFix" result="shape"/>
<feGaussianBlur stdDeviation="2" result="effect1_foregroundBlur_2638_18025"/>
</filter>
</defs>
</svg>
