<svg width="68" height="62" viewBox="0 0 68 62" fill="none" xmlns="http://www.w3.org/2000/svg">
<g opacity="0.1" filter="url(#filter0_f_2638_18017)">
<ellipse cx="33" cy="44.5" rx="22" ry="7.5" fill="black"/>
</g>
<path d="M38.6435 15.457L59.743 28.1073L28.2012 47.4567C27.5717 47.4935 23.5601 44.8318 22.5795 44.2225L7.20703 34.7008L38.6435 15.457Z" fill="#FBC051"/>
<path d="M28.8834 25.9922C29.2873 26.0996 32.5452 28.1335 33.0625 28.4493L42.4608 34.1662C41.826 34.5465 41.1884 34.9215 40.5482 35.2912C36.0409 32.7037 31.4241 29.8179 26.9492 27.1387C27.6232 26.8014 28.2472 26.3927 28.8834 25.9922Z" fill="#E1921D"/>
<path d="M33.1112 23.4375C37.6415 26.1391 42.1583 28.8635 46.6602 31.6104L44.7665 32.7798L31.1797 24.5891L33.1112 23.4375Z" fill="#E1921D"/>
<path d="M26.8615 36.8828L27.0316 36.9499C27.2099 37.5817 27.2208 38.6335 27.2532 39.3199C29.5602 38.9498 31.8983 38.7079 34.2012 38.3035C34.2012 38.9416 34.2607 39.3576 34.3471 39.9931L32.8424 40.2196C30.3558 40.6505 27.788 40.8539 25.2365 41.2922C25.2095 39.905 25.1407 38.5189 25.0312 37.1357L26.8615 36.8828Z" fill="#E1921D"/>
<path d="M38.6956 19.9609C40.3935 21.1782 44.9508 23.7288 46.9066 24.8875C46.3812 25.2937 45.5775 25.7582 44.9967 26.1172C42.2629 24.4279 39.5074 22.77 36.7344 21.1442L38.6956 19.9609Z" fill="#E1921D"/>
<defs>
<filter id="filter0_f_2638_18017" x="7" y="33" width="52" height="23" filterUnits="userSpaceOnUse" color-interpolation-filters="sRGB">
<feFlood flood-opacity="0" result="BackgroundImageFix"/>
<feBlend mode="normal" in="SourceGraphic" in2="BackgroundImageFix" result="shape"/>
<feGaussianBlur stdDeviation="2" result="effect1_foregroundBlur_2638_18017"/>
</filter>
</defs>
</svg>
