<svg width="53" height="70" viewBox="0 0 53 70" fill="none" xmlns="http://www.w3.org/2000/svg">
<g opacity="0.1" filter="url(#filter0_f_2638_18094)">
<ellipse cx="28" cy="53.5" rx="17" ry="5.5" fill="black"/>
</g>
<path d="M4.02344 35.8125L49.0021 20L37.1351 53.3514L28.1053 48.428L23.1482 53.3942C22.4575 54.085 21.0957 55.5107 20.3764 56.1094L20.248 56.17C19.9955 55.7934 19.589 54.2014 19.4397 53.6747C19.0932 52.7573 18.5887 50.8053 18.2925 49.7811L16.0864 42.1544C15.4817 41.7107 14.7328 41.391 14.0709 41.0318C10.7686 39.2402 7.31014 37.6257 4.02344 35.8125Z" fill="#55BD79"/>
<path d="M16.0859 42.1496C17.7218 40.7999 21.4349 38.5222 23.31 37.2682L40.4122 25.7431C42.5941 24.2729 45.9899 22.2679 47.9529 20.7093L48.1006 20.7269L47.8428 20.8069L48.1946 20.6172C47.4776 21.5756 43.291 25.3103 42.0826 26.442L27.2361 40.2982C26.55 40.9273 22.3868 44.6667 22.1141 45.0964C24.1009 46.2452 26.1391 47.2719 28.1049 48.4231L23.1477 53.3893C22.457 54.0801 21.0952 55.5058 20.3759 56.1046L20.2476 56.1651C19.995 55.7885 19.5886 54.1966 19.4392 53.6698C19.0927 52.7525 18.5882 50.8004 18.292 49.7762L16.0859 42.1496Z" fill="#299154"/>
<path d="M22.1144 45.0977C24.1012 46.2465 26.1395 47.2731 28.1052 48.4244L23.148 53.3906C22.4574 54.0814 21.0956 55.5071 20.3763 56.1058C20.2804 55.4739 20.5398 54.3748 20.6674 53.7167C20.8086 53.1671 21.0086 51.6554 21.1157 51.0241C21.4631 49.0512 21.7959 47.0755 22.1144 45.0977Z" fill="#207249"/>
<defs>
<filter id="filter0_f_2638_18094" x="7" y="44" width="42" height="19" filterUnits="userSpaceOnUse" color-interpolation-filters="sRGB">
<feFlood flood-opacity="0" result="BackgroundImageFix"/>
<feBlend mode="normal" in="SourceGraphic" in2="BackgroundImageFix" result="shape"/>
<feGaussianBlur stdDeviation="2" result="effect1_foregroundBlur_2638_18094"/>
</filter>
</defs>
</svg>
