<svg width="52" height="70" viewBox="0 0 52 70" fill="none" xmlns="http://www.w3.org/2000/svg">
<g opacity="0.1" filter="url(#filter0_f_2638_18063)">
<ellipse cx="28" cy="55.5" rx="20" ry="6.5" fill="black"/>
</g>
<path fill-rule="evenodd" clip-rule="evenodd" d="M5.5833 26.4257C5.58049 26.4276 5.53681 26.5336 5.53353 26.5564C5.39296 26.6221 5.27627 26.6936 5.23502 26.8521C5.07307 27.4737 5.09688 28.4534 5.11475 29.1889C5.1175 29.302 5.12011 29.4093 5.12188 29.5086C5.60296 30.0696 5.89086 30.187 6.26822 30.3409C6.46452 30.421 6.68502 30.511 6.96951 30.6783C6.9687 30.7073 6.96789 30.7358 6.96709 30.7638C6.93171 32.001 6.9243 32.2601 8.2312 32.7257C8.24322 34.1028 8.2868 43.6711 8.15502 43.881C7.94829 44.0411 7.37863 44.3999 6.75102 44.7951C5.75482 45.4225 4.61266 46.1418 4.54435 46.3045L4.54398 46.3695C4.5298 46.3785 4.51647 46.3864 4.50403 46.3938C4.43331 46.4358 4.39152 46.4606 4.38684 46.5755C4.37384 46.8923 4.37042 47.2618 4.36729 47.5995C4.36642 47.6938 4.36557 47.7856 4.36454 47.8731C4.16294 48.0328 3.88414 48.2082 3.60968 48.3809C3.42729 48.4956 3.24683 48.6092 3.09221 48.7161C3.0345 48.8951 3.0569 50.1122 3.09661 50.3122L26.5438 60.7109L45.5793 48.9985L45.557 48.9727C45.5587 48.8727 45.5627 48.7498 45.5672 48.6117C45.5908 47.8849 45.628 46.7403 45.4136 46.3263C45.2696 46.1129 44.1236 45.5979 43.5071 45.3209C43.3845 45.2658 43.2829 45.2202 43.2142 45.1881C43.228 42.8026 43.2269 40.4169 43.2105 38.0314C43.2106 37.6024 43.2135 37.1552 43.2164 36.6989C43.2255 35.2849 43.2351 33.7838 43.1655 32.4707C43.226 32.4357 43.291 32.3991 43.3587 32.3609C43.7837 32.1215 44.3176 31.8207 44.5368 31.4526C44.8725 30.8905 44.7973 28.7496 44.6416 28.1672C44.3405 27.5072 43.194 26.1758 42.4503 25.3121C42.297 25.134 42.1607 24.9759 42.0526 24.8476L38.1812 20.2553L35.0055 16.4575C34.9083 16.3413 34.7924 16.1972 34.6638 16.0374C34.077 15.3083 33.2257 14.2505 32.6712 14.0058C32.1424 13.951 30.831 14.2984 29.9833 14.523C29.8014 14.5711 29.6409 14.6137 29.514 14.6453L25.0174 15.7766L21.8746 16.5727C21.7517 16.6036 21.6202 16.6359 21.4841 16.6693C21.0153 16.7844 20.4927 16.9127 20.085 17.0416C19.6017 17.1944 18.7781 17.7702 18.3561 18.0797C18.1786 18.2099 18.1099 18.3452 18.0491 18.4651C17.9959 18.5699 17.9487 18.663 17.84 18.7305C17.6173 18.8687 17.3934 19.006 17.1694 19.1433C16.6791 19.4438 16.1882 19.7447 15.7072 20.0577C13.0677 21.7491 10.4139 23.4182 7.74622 25.065C7.56001 25.1817 7.34675 25.3125 7.12258 25.4501C6.60056 25.7703 6.01944 26.1269 5.5833 26.4257Z" fill="#ECE9E4"/>
<path d="M5.53309 26.5564C5.53638 26.5336 5.58006 26.4276 5.58286 26.4257C6.2063 25.9986 7.12596 25.4535 7.74579 25.065C10.4135 23.4182 13.0672 21.7491 15.7068 20.0577C16.4075 19.6018 17.1294 19.1713 17.8395 18.7305C18.0727 18.5858 18.0229 18.3237 18.3556 18.0797C18.7777 17.7702 19.6012 17.1944 20.0846 17.0416C20.6106 16.8753 21.328 16.7099 21.8742 16.5727L25.017 15.7766L29.5136 14.6453C30.2321 14.4659 32.0285 13.9393 32.6708 14.0058C33.3469 14.3042 34.464 15.8111 35.0051 16.4575L38.1808 20.2553L42.0522 24.8476C42.6849 25.5982 44.278 27.3712 44.6412 28.1672C44.7968 28.7496 44.872 30.8905 44.5364 31.4526C44.2822 31.8793 43.605 32.2157 43.1651 32.4707L34.5048 37.91C32.9651 38.875 31.4027 39.8697 29.8488 40.8136C29.7127 40.8961 29.6179 40.9216 29.4607 40.9364C29.1483 40.9353 28.6289 40.7057 28.334 40.5816C27.75 40.3874 25.9382 39.4449 25.4797 39.0703C25.1356 38.7715 23.2343 37.958 22.7202 37.7225C22.4068 37.4997 20.3329 36.6487 19.885 36.4661C19.5965 36.4064 17.5786 35.4526 17.2019 35.2827L10.3506 32.2055C10.0947 32.7255 10.6171 33.2366 9.94133 33.5281L9.8958 33.6729L9.86631 33.5294C9.68036 33.2924 8.55342 32.8593 8.23077 32.7257C6.89432 32.2496 6.93228 31.9894 6.96908 30.6783C6.13768 30.1892 5.85278 30.3614 5.12144 29.5086C5.10815 28.7631 5.04774 27.5692 5.23459 26.8521C5.27583 26.6936 5.39252 26.6221 5.53309 26.5564Z" fill="#D2C9C0"/>
<path d="M5.53309 26.5565L13.3017 24.6088C14.018 24.4293 17.3527 23.5332 17.8243 23.5799C18.0728 23.7045 18.2522 23.8358 18.4431 24.0374C19.3685 25.0146 26.4751 33.6374 26.7176 34.3658C26.7832 34.5627 26.8303 34.7789 26.9256 34.9635C27.4027 35.8851 28.6294 36.7629 29.1266 37.8698C29.3405 38.7772 29.0572 39.8141 29.2664 40.7034C29.2801 40.7605 29.4114 40.8897 29.4607 40.9365C29.1483 40.9355 28.6289 40.7058 28.334 40.5817C27.75 40.3875 25.9382 39.445 25.4797 39.0704C25.1356 38.7716 23.2343 37.9581 22.7202 37.7226C22.4068 37.4998 20.3329 36.6488 19.885 36.4662C19.5965 36.4065 17.5786 35.4527 17.2019 35.2828L10.3506 32.2056C10.0947 32.7256 10.6171 33.2367 9.94133 33.5282L9.8958 33.673L9.86631 33.5295C9.68036 33.2925 8.55342 32.8594 8.23077 32.7258C6.89432 32.2497 6.93228 31.9895 6.96908 30.6784C6.13768 30.1893 5.85278 30.3615 5.12144 29.5087C5.10815 28.7632 5.04774 27.5693 5.23459 26.8522C5.27583 26.6937 5.39252 26.6222 5.53309 26.5565Z" fill="#ECE9E4"/>
<path d="M6.96916 30.6797C8.08816 31.2135 9.23867 31.6713 10.3507 32.2068C10.0948 32.7269 10.6172 33.238 9.94141 33.5294L9.89588 33.6743L9.86639 33.5308C9.68044 33.2937 8.5535 32.8606 8.23085 32.727C6.8944 32.2509 6.93237 31.9908 6.96916 30.6797Z" fill="#F1F1F0"/>
<path d="M7.90371 28.3032C8.9551 27.9953 17.539 25.4041 17.769 25.5361C18.5729 25.9974 25.3553 35.2566 26.5821 36.7836C26.7774 36.9418 27.3662 37.6704 27.2751 37.9374L27.1581 37.9607C26.4434 37.6987 25.3972 37.1698 24.6792 36.8355L20.1502 34.7417C15.9428 32.8238 11.7143 30.9327 7.49842 29.0325C7.33042 28.9568 7.11509 28.85 7.00391 28.7024L7.02482 28.602C7.22517 28.4564 7.64889 28.3705 7.90371 28.3032Z" fill="#D2C9C0"/>
<path d="M26.5821 36.7852C26.7774 36.9434 27.3662 37.672 27.2751 37.9389L27.1581 37.9622C26.4434 37.7002 25.3972 37.1714 24.6792 36.8371L20.1502 34.7432C15.9428 32.8253 11.7143 30.9343 7.49842 29.034C7.33042 28.9583 7.11509 28.8515 7.00391 28.7039L7.02482 28.6035C7.22517 28.458 7.64889 28.372 7.90371 28.3047C8.33262 28.5791 9.82876 29.2003 10.3717 29.4472L16.5381 32.2254L23.7791 35.5275C24.1577 35.7005 26.3322 36.7254 26.5821 36.7852Z" fill="#F1F1F0"/>
<path d="M16.3646 27.7083C17.271 26.9076 18.1315 27.2615 18.8609 28.0876C19.5563 28.8753 20.0464 30.4557 19.1762 31.2881C19.0631 31.3938 18.8332 31.5059 18.6724 31.5074C16.7843 32.9983 14.2369 28.706 16.3646 27.7083Z" fill="#F1F1F0"/>
<path d="M16.3633 27.7083C17.2696 26.9076 18.1301 27.2615 18.8595 28.0876C19.555 28.8753 20.0451 30.4557 19.1748 31.2881C19.0617 31.3938 18.8318 31.5059 18.6711 31.5074C19.5404 30.3359 18.5272 28.3827 17.3433 27.8296C16.9778 27.6589 16.754 27.6668 16.3633 27.7083Z" fill="#A29C95"/>
<path d="M5.53516 26.5564C5.53844 26.5336 5.58212 26.4276 5.58493 26.4257C6.20836 25.9986 7.12802 25.4535 7.74785 25.065C10.4156 23.4182 13.0693 21.7491 15.7088 20.0577C16.4096 19.6018 17.1314 19.1713 17.8416 18.7305C18.0748 18.5858 18.025 18.3237 18.3577 18.0797C18.7797 17.7702 19.6033 17.1944 20.0866 17.0416C20.6127 16.8753 21.33 16.7099 21.8762 16.5727L25.019 15.7766L29.5157 14.6453C30.2341 14.4659 32.0306 13.9393 32.6728 14.0058C31.9851 14.1679 24.2497 19.1685 23.2491 19.8142C22.9626 19.9862 22.1886 20.5635 21.983 20.8183L21.9337 21.019C21.0626 21.5186 20.1538 22.1341 19.2896 22.6625C18.9568 22.866 18.0834 23.3785 17.8264 23.5798C17.3547 23.5331 14.0201 24.4292 13.3037 24.6087L5.53516 26.5564Z" fill="#FDFDFD"/>
<path d="M29.1289 37.8704C29.7282 37.4408 30.8104 36.811 31.4739 36.3939L36.2622 33.3821L41.6156 30.0201C42.5442 29.4397 43.6937 28.6798 44.6435 28.168C44.7992 28.7504 44.8743 30.8913 44.5387 31.4534C44.2845 31.8801 43.6074 32.2164 43.1674 32.4715L34.5071 37.9108C32.9674 38.8758 31.405 39.8704 29.8511 40.8144C29.715 40.8969 29.6202 40.9224 29.463 40.9371C29.4137 40.8904 29.2824 40.7611 29.2687 40.7041C29.0595 39.8148 29.3428 38.7779 29.1289 37.8704Z" fill="#A29C95"/>
<path d="M4.54552 46.3711C8.36198 48.0405 12.1584 49.7555 15.9339 51.5156C16.8643 51.9602 17.8024 52.5816 18.5856 52.9444C20.5162 53.8415 22.4521 54.7273 24.3931 55.6016C25.4399 56.0728 26.5311 56.5467 27.5614 57.0528C27.7806 57.1603 27.8875 57.3813 28.0051 57.5925C28.0156 57.8313 28.0686 58.7586 27.9743 58.9079C27.6233 59.1282 27.0642 59.4538 26.7428 59.6858L26.7015 59.6949C25.8645 59.3975 24.2131 58.5716 23.3374 58.1758C21.7195 57.3974 19.9902 56.7252 18.3937 55.9148C13.3933 53.3768 8.25704 50.915 3.09375 48.7177C3.48105 48.4499 4.03051 48.1406 4.36608 47.8747C4.37079 47.4739 4.37175 46.9823 4.38837 46.5771C4.39388 46.4421 4.45069 46.4315 4.54552 46.3711Z" fill="#F1F1F0"/>
<path d="M4.36608 47.8711C5.85348 48.4674 7.38688 49.2233 8.85887 49.8819C11.0818 50.8764 13.2681 51.8953 15.4531 52.9703C16.7713 53.6188 18.1208 54.3605 19.4312 54.9783C21.5028 55.955 23.6386 56.8671 25.7168 57.8344C26.0196 57.9754 27.8065 58.7538 27.9743 58.9043C27.6233 59.1246 27.0642 59.4502 26.7428 59.6822L26.7015 59.6913C25.8645 59.3939 24.2131 58.568 23.3374 58.1722C21.7195 57.3938 19.9902 56.7216 18.3937 55.9112C13.3933 53.3732 8.25704 50.9114 3.09375 48.7141C3.48105 48.4463 4.03051 48.137 4.36608 47.8711Z" fill="#ECE9E4"/>
<path d="M45.4118 46.3281C45.667 46.8208 45.5659 48.3478 45.5553 48.9746C45.5579 49.206 45.5886 49.4701 45.4054 49.6158C44.9941 49.9437 44.4355 50.2726 43.9934 50.549L41.0713 52.376L32.2692 57.8824C31.5258 58.3458 27.3828 61.025 26.8851 61.1248L26.7713 61.0934C26.7284 60.8035 26.7221 60.0015 26.7395 59.686C27.0609 59.454 27.62 59.1284 27.971 58.9081C28.0653 58.7588 28.0123 57.8315 28.0017 57.5926C28.0992 57.349 28.1834 57.1351 28.4041 56.9826C28.9881 56.5797 29.6251 56.1975 30.227 55.823L33.7807 53.6095L45.4118 46.3281Z" fill="#D2C9C0"/>
<path d="M3.0936 48.7148C8.25689 50.9121 13.3932 53.3739 18.3935 55.9119C19.9901 56.7223 21.7194 57.3945 23.3372 58.1729C24.213 58.5687 25.8643 59.3946 26.7014 59.692L26.7141 60.5024C26.7162 60.7128 26.7231 60.9781 26.5706 61.1336C25.9543 61.1488 18.7134 57.5017 17.5006 57.0595C16.1956 56.5838 13.5859 55.0786 12.2112 54.4201C10.2221 53.473 8.22047 52.5526 6.20674 51.6592C5.73161 51.4452 3.41816 50.3355 3.098 50.3109C3.05829 50.111 3.03589 48.8938 3.0936 48.7148Z" fill="#F1F1F0"/>
<path d="M43.1659 32.4688C43.258 34.2056 43.2114 36.2712 43.2109 38.0294C43.2273 40.4149 43.2283 42.8006 43.2146 45.1861L43.222 46.1519C42.863 46.7137 41.1301 47.6817 40.4948 48.08L36.2284 50.7513L33.3916 52.5238C32.9723 52.7849 32.2141 53.2868 31.7964 53.4725C31.3442 53.5908 31.305 53.556 30.8894 53.3202L30.7793 52.9641C30.6061 52.7976 29.8803 52.4829 29.6203 52.3615C29.6256 52.6239 29.6219 52.7744 29.5965 53.035C29.1994 53.6372 28.6038 53.677 27.9414 53.7089C28.0065 53.3251 27.9753 51.1132 27.9748 50.6443L27.9721 44.2151C27.9695 43.8538 27.916 42.2389 28.0102 41.9689L28.2411 41.8626C28.3671 41.6636 28.2114 40.9466 28.3348 40.5796C28.6297 40.7037 29.1491 40.9333 29.4615 40.9344C29.6187 40.9196 29.7135 40.8941 29.8496 40.8116C31.4035 39.8677 32.9659 38.873 34.5056 37.908L43.1659 32.4688Z" fill="#D2C9C0"/>
<path d="M29.5879 42.5273C30.3047 42.813 31.1111 43.2033 31.8216 43.5292L31.7962 53.4761C31.3441 53.5943 31.3049 53.5595 30.8893 53.3238L30.7791 52.9677C30.606 52.8012 29.8801 52.4865 29.6202 52.3651C29.6254 52.6275 29.6217 52.778 29.5963 53.0386C29.5418 52.4079 29.5889 51.6539 29.5969 51.0135C29.6313 48.1913 29.5317 45.3472 29.5879 42.5273Z" fill="#F1F1F0"/>
<path d="M9.89453 33.6745L9.94007 33.5296C10.6158 33.2381 10.0934 32.7271 10.3493 32.207L17.2006 35.2842C17.5773 35.4542 19.5952 36.408 19.8837 36.4677C19.9115 36.8185 19.9208 37.7779 20.1438 37.9995C20.1824 38.0379 20.166 38.0205 20.1765 38.0626C19.3105 37.7356 18.2762 37.2397 17.4202 36.8568L11.5535 34.1875L11.56 44.0602C11.6126 45.2458 10.9104 45.2932 9.91645 45.3934L9.91507 38.0232C9.91454 36.5982 9.93731 35.094 9.89453 33.6745Z" fill="#D2C9C0"/>
<path d="M25.4787 39.0703C25.9372 39.4448 27.749 40.3873 28.333 40.5816C28.2096 40.9486 28.3653 41.6655 28.2393 41.8646L28.0084 41.9709C27.9142 42.2409 27.9676 43.8557 27.9703 44.217L27.9729 50.6463C27.9735 51.1151 28.0047 53.3271 27.9396 53.7108C27.8925 53.4652 27.9258 50.7257 27.9264 50.3023L27.9179 41.8979C27.3736 41.6344 26.8208 41.387 26.2617 41.1561L26.2782 51.3353C25.9139 51.1699 25.5475 51.0083 25.1801 50.8507C25.1817 50.6727 25.1928 50.602 25.1134 50.4372C24.7284 50.2379 24.3562 50.0661 23.9618 49.8853C23.9554 50.0604 23.9533 50.4003 23.9157 50.5554C23.8914 50.3483 23.9216 49.8754 23.9221 49.6365L23.9163 47.5388L23.9247 40.027C24.3001 40.1672 24.8624 40.4485 25.2404 40.6238C24.8984 39.9234 25.0705 39.6713 25.4787 39.0703Z" fill="#F1F1F0"/>
<path d="M22.4575 40.1696C22.4723 39.9395 22.4278 39.2145 22.4966 39.1823C23.1203 38.8885 22.5093 38.1915 22.7211 37.7227C23.2352 37.9581 25.1365 38.7716 25.4806 39.0705C25.0724 39.6715 24.9004 39.9235 25.2424 40.624C24.8644 40.4487 24.3021 40.1674 23.9267 40.0272L23.9182 47.539L23.924 49.6367C23.9235 49.8755 23.8933 50.3485 23.9177 50.5556C23.4931 51.1245 22.9583 51.1375 22.3081 51.2075C22.3044 49.904 22.2457 48.4409 22.3145 47.1503C22.4405 44.7958 22.467 42.5265 22.4575 40.1696Z" fill="#D2C9C0"/>
<path d="M11.5547 34.1875L17.4214 36.8567C18.2773 37.2397 19.3117 37.7356 20.1776 38.0626C20.1672 38.0205 20.1836 38.0379 20.1449 37.9995C19.9219 37.7779 19.9127 36.8185 19.8849 36.4676C20.3328 36.6502 22.4066 37.5013 22.7201 37.724C22.5083 38.1929 23.1193 38.8899 22.4956 39.1836C22.4268 39.2159 22.4712 39.9409 22.4564 40.171C22.4098 39.7888 22.4088 39.4406 22.4019 39.0566C21.99 38.8389 21.3404 38.4484 20.8814 38.5548C20.7276 38.6914 20.6854 39.052 20.6886 39.2536C20.7322 41.9429 20.5672 44.6709 20.7799 47.3493C20.7881 47.4522 20.7681 47.4928 20.6996 47.5541C20.5928 47.1938 20.6129 45.3264 20.6119 44.8761C20.6074 42.8902 20.6152 40.8891 20.6097 38.9017C20.6093 38.7506 20.7252 38.6096 20.8117 38.4828C19.1775 37.6805 17.2238 36.9035 15.5385 36.1262C14.3586 35.582 12.8165 34.8232 11.6386 34.3451V44.0384C11.8989 44.1219 12.5801 44.373 12.7624 44.5467C12.857 44.7572 12.8697 45.0362 12.9896 45.1127C13.0886 45.1758 13.914 45.4328 13.8786 45.5737C13.5251 45.4341 13.2131 45.2908 12.8686 45.131C12.871 45.3907 12.8902 45.8743 12.8473 46.1128C12.7936 45.679 12.8936 45.0691 12.7738 44.6625C12.6097 44.519 11.8105 44.1733 11.5612 44.0602L11.5547 34.1875Z" fill="#F1F1F0"/>
<path d="M6.94948 44.8672C8.0014 45.3741 9.08191 45.805 10.1434 46.3442C10.1446 46.6269 10.1127 47.5454 10.1848 47.7517L10.0827 47.7949C9.57055 47.6413 7.50361 46.6288 6.95054 46.3561C6.93482 45.8549 6.94276 45.3678 6.94948 44.8672Z" fill="#F1F1F0"/>
<path d="M24.957 53.207C25.9577 53.6243 27.1204 54.1859 28.12 54.6406C28.1798 55.1544 28.0962 55.6506 28.1359 56.1288C27.7155 56.0218 25.4261 54.9382 24.9925 54.7144C24.9501 54.417 24.9613 53.5473 24.957 53.207Z" fill="#F1F1F0"/>
<path d="M19.9004 52.4447C19.9046 52.094 19.8268 51.0552 19.9686 50.832C20.0175 50.8556 20.0282 50.8608 20.0825 50.8651C20.7818 50.9212 21.1751 51.365 21.7102 51.7285C21.8293 51.8094 22.2861 52.0019 22.4445 52.0683C22.4566 52.446 22.4392 53.2847 22.4725 53.5925C22.2999 53.6003 20.2389 52.6041 19.9004 52.4447Z" fill="#F1F1F0"/>
<path d="M30.779 52.9648L30.8891 53.321C30.8705 53.7068 30.8515 54.0757 30.8531 54.4621C30.0652 54.9439 28.9137 55.7085 28.137 56.1258C28.0973 55.6476 28.1809 55.1514 28.1211 54.6376C28.5044 54.3129 30.2924 53.2421 30.779 52.9648Z" fill="#D2C9C0"/>
<path d="M25.1164 50.4375C25.1958 50.6024 25.1847 50.673 25.1831 50.8511L25.1731 51.9523C24.2793 52.51 23.3798 53.0572 22.4734 53.5938C22.44 53.286 22.4575 52.4474 22.4453 52.0696C23.3353 51.5501 24.237 50.9792 25.1164 50.4375Z" fill="#D2C9C0"/>
<path d="M12.7753 44.6602C12.8952 45.0668 12.7951 45.6767 12.8489 46.1105C11.9691 46.6714 11.0808 47.2187 10.1841 47.7522C10.112 47.5459 10.144 46.6275 10.1427 46.3447C10.476 45.9797 12.2627 44.9509 12.7753 44.6602Z" fill="#D2C9C0"/>
<path d="M15.4124 38.0391L16.3173 38.4402C17.5651 38.9818 18.8535 39.5905 20.0964 40.1553C20.089 42.9009 20.0962 45.6464 20.1179 48.392C18.5497 47.6408 16.97 46.9137 15.3795 46.211L15.381 40.8108C15.3812 40.0407 15.344 38.7696 15.4124 38.0391Z" fill="#95908C"/>
<path d="M15.4141 38.0391L16.319 38.4402C16.2689 39.2838 16.2947 40.2811 16.2951 41.1374L16.3076 45.6169C16.0235 45.7693 15.7089 45.9818 15.4337 46.1575L15.4381 40.8984C15.4386 40.1003 15.476 38.8099 15.4141 38.0391Z" fill="#D2C9C0"/>
<defs>
<filter id="filter0_f_2638_18063" x="4" y="45" width="48" height="21" filterUnits="userSpaceOnUse" color-interpolation-filters="sRGB">
<feFlood flood-opacity="0" result="BackgroundImageFix"/>
<feBlend mode="normal" in="SourceGraphic" in2="BackgroundImageFix" result="shape"/>
<feGaussianBlur stdDeviation="2" result="effect1_foregroundBlur_2638_18063"/>
</filter>
</defs>
</svg>
