<svg width="20" height="20" viewBox="0 0 20 20" fill="none" xmlns="http://www.w3.org/2000/svg">
<rect width="20" height="20" rx="6.67" fill="#FF8C42"/>
<path fill-rule="evenodd" clip-rule="evenodd" d="M9.46198 3.59375L10.4984 3.86826L10.0821 5.64209C10.3602 5.70954 10.6402 5.77776 10.9128 5.84991L11.3261 4.08798L12.3634 4.36249L11.9389 6.17249C13.2477 6.65156 14.2051 7.36963 14.0172 8.70529C13.8811 9.68323 13.3703 10.1572 12.6929 10.3232C13.6231 10.8378 14.0963 11.6271 13.6453 12.9951C13.0856 14.6936 11.7567 14.8371 9.98901 14.4817L9.55978 16.3083L8.52249 16.0338L8.94608 14.2316C8.67753 14.1606 8.40292 14.0855 8.12012 14.0041L7.6947 15.8151L6.65924 15.5406L7.08847 13.7099C6.99167 13.6836 6.89391 13.6567 6.79581 13.6295C6.64855 13.5887 6.4998 13.5471 6.34918 13.5069L5 13.15L5.51498 11.889L5.89523 11.9949C6.08454 12.0468 6.27235 12.0959 6.26801 12.0882C6.56126 12.1653 6.69184 11.9628 6.74332 11.8272L7.90695 6.86874C7.91956 6.63473 7.84313 6.33981 7.4234 6.22849C7.4396 6.21689 6.67333 6.03008 6.67038 6.02936L6.94626 4.85275L8.37677 5.23224L8.37494 5.23804C8.58991 5.29483 8.81192 5.34825 9.03748 5.40283L9.46198 3.59375ZM8.45688 12.6784C8.51479 12.6936 8.58306 12.7132 8.65891 12.7344C9.50515 12.9719 11.3531 13.4899 11.6472 12.2353C11.9483 10.9522 10.1561 10.5241 9.28101 10.3154C9.1832 10.2921 9.09595 10.2724 9.02527 10.2536L8.45688 12.6784ZM9.2865 9.14261C9.33523 9.15555 9.3923 9.17251 9.45633 9.19067C10.1617 9.39069 11.7002 9.82631 11.9682 8.68561C12.2417 7.51894 10.7468 7.16701 10.0165 6.99524C9.93437 6.97591 9.86155 6.95888 9.8024 6.94321L9.2865 9.14261Z" fill="white"/>
</svg>
