<svg width="20" height="20" viewBox="0 0 20 20" fill="none" xmlns="http://www.w3.org/2000/svg">
<rect width="20" height="20" rx="6.67" fill="#FF060A"/>
<path d="M16.0944 8.07333C15.4922 7.51731 14.6592 6.66823 13.9808 6.06605L13.9406 6.03795C13.8738 5.98431 13.7985 5.94223 13.7178 5.9135C12.0819 5.60839 4.4683 4.18523 4.31975 4.2033C4.27814 4.20912 4.23834 4.22422 4.20333 4.24745L4.1652 4.27756C4.11823 4.32525 4.08256 4.38287 4.06081 4.44617L4.05078 4.47226V4.61478V4.63686C4.90789 7.02351 8.29216 14.8419 8.95858 16.6766C8.99872 16.8009 9.075 17.0378 9.21752 17.0498H9.24962C9.32591 17.0498 9.65108 16.6203 9.65108 16.6203C9.65108 16.6203 15.4642 9.57075 16.0523 8.82003C16.1284 8.72756 16.1956 8.62809 16.253 8.52295C16.2677 8.44069 16.2608 8.35605 16.233 8.27725C16.2052 8.19845 16.1575 8.12819 16.0944 8.07333ZM11.1425 8.8943L13.6235 6.83684L15.0788 8.1777L11.1425 8.8943ZM10.179 8.75981L5.90752 5.25912L12.8186 6.53375L10.179 8.75981ZM10.5644 9.67714L14.9362 8.97258L9.93813 14.9944L10.5644 9.67714ZM5.32741 5.60839L9.8217 9.42222L9.17134 14.9984L5.32741 5.60839Z" fill="white"/>
</svg>
