<svg width="20" height="20" viewBox="0 0 20 20" fill="none" xmlns="http://www.w3.org/2000/svg">
<rect width="20" height="20" rx="6.67" fill="black"/>
<path d="M14.9477 12.6139L13.2711 14.4078C13.2347 14.4468 13.1906 14.4779 13.1416 14.4991C13.0926 14.5203 13.0397 14.5313 12.9863 14.5312H5.03839C5.00047 14.5312 4.96337 14.5202 4.93166 14.4994C4.89994 14.4787 4.875 14.4492 4.85988 14.4145C4.84476 14.3798 4.84014 14.3414 4.84657 14.3041C4.853 14.2668 4.87021 14.2322 4.89608 14.2046L6.57394 12.4106C6.61029 12.3718 6.65425 12.3408 6.70309 12.3195C6.75194 12.2983 6.80463 12.2873 6.85792 12.2872H14.8054C14.8433 12.2872 14.8804 12.2983 14.9121 12.319C14.9438 12.3398 14.9687 12.3693 14.9839 12.404C14.999 12.4387 15.0036 12.477 14.9972 12.5143C14.9907 12.5516 14.9736 12.5862 14.9477 12.6139ZM13.2711 9.00139C13.2347 8.96243 13.1906 8.93136 13.1416 8.91012C13.0926 8.8889 13.0397 8.87795 12.9863 8.87798H5.03839C5.00047 8.87798 4.96337 8.88903 4.93166 8.90978C4.89994 8.93053 4.875 8.96007 4.85988 8.99476C4.84476 9.02947 4.84014 9.06782 4.84657 9.10511C4.853 9.14239 4.87021 9.17699 4.89608 9.20466L6.57394 10.9986C6.61029 11.0375 6.65425 11.0685 6.70309 11.0897C6.75194 11.1109 6.80463 11.1219 6.85792 11.122H14.8054C14.8433 11.122 14.8804 11.111 14.9121 11.0902C14.9438 11.0695 14.9687 11.0399 14.9839 11.0052C14.999 10.9705 15.0036 10.9322 14.9972 10.8949C14.9907 10.8576 14.9736 10.823 14.9477 10.7953L13.2711 9.00139ZM5.03839 7.7128H12.9863C13.0397 7.71282 13.0926 7.70188 13.1416 7.68065C13.1906 7.65941 13.2347 7.62834 13.2711 7.58937L14.9477 5.79543C14.9736 5.76777 14.9907 5.73317 14.9972 5.69588C15.0036 5.65859 14.999 5.62024 14.9839 5.58554C14.9687 5.55084 14.9438 5.5213 14.9121 5.50055C14.8804 5.47981 14.8433 5.46875 14.8054 5.46875H6.85792C6.80463 5.46884 6.75194 5.47984 6.70309 5.50107C6.65425 5.5223 6.61029 5.55331 6.57394 5.59217L4.89651 7.38612C4.87067 7.41375 4.85347 7.44832 4.84702 7.48556C4.84057 7.52281 4.84516 7.56113 4.86023 7.59581C4.87529 7.6305 4.90017 7.66003 4.93182 7.68081C4.96347 7.7016 5.0005 7.71271 5.03839 7.7128Z" fill="url(#paint0_linear_2376_18646)"/>
<defs>
<linearGradient id="paint0_linear_2376_18646" x1="5.70106" y1="14.7472" x2="14.0142" y2="5.35424" gradientUnits="userSpaceOnUse">
<stop offset="0.08" stop-color="#9945FF"/>
<stop offset="0.3" stop-color="#8752F3"/>
<stop offset="0.5" stop-color="#5497D5"/>
<stop offset="0.6" stop-color="#43B4CA"/>
<stop offset="0.72" stop-color="#28E0B9"/>
<stop offset="0.97" stop-color="#19FB9B"/>
</linearGradient>
</defs>
</svg>
