<svg width="303" height="304" viewBox="0 0 303 304" fill="none" xmlns="http://www.w3.org/2000/svg">
<path d="M141.747 0.256777C152.095 -0.737216 155.764 0.853921 160.335 10.3985C210.545 11.8914 253.723 33.6669 277.125 79.1858C287.602 99.5675 290.944 117.265 292.952 139.821C305.912 145.278 305.524 159.312 292.861 165.468C283.414 241.374 238.839 290.703 160.675 295.726C158.15 295.889 157.695 297.393 156.468 299.221C148.495 306.396 140.122 303.393 134.337 295.425C102.496 293.065 72.3314 280.228 48.5519 258.918C21.2437 234.82 2.17793 199.625 0.28793 163.134C-1.75957 123.603 6.87218 86.1152 33.9284 56.3307C60.8902 26.652 93.0922 12.5545 132.511 10.247C135.065 4.39254 136.143 3.09322 141.747 0.256777Z" fill="#113D28"/>
<path d="M34.1932 65.125C35.0182 65.6074 41.445 70.7559 42.8632 71.8481C50.217 77.5135 55.4977 80.6965 63.7732 84.7325C63.678 92.0678 64.2689 93.5794 69.9209 98.1421C62.8589 116.748 60.8715 134.044 59.5972 153.664L43.8419 153.321C31.0972 153.058 18.3615 152.473 5.64596 151.569C5.30996 120.45 14.1202 89.2869 34.1932 65.125Z" fill="#CAEA79"/>
<path d="M87.7769 93.8477C104.932 99.3045 125.599 101.812 143.504 102.311L143.414 143.584C136.624 145.822 135.004 147.838 132.383 154.366L124.094 154.297L65.3984 153.821C65.8597 133.36 68.8357 119.421 74.8417 100.006C81.6959 99.4538 83.1832 98.4193 87.7769 93.8477Z" fill="#CAEA79"/>
<path d="M207.036 95.582L208.248 95.6683C212.04 99.75 214.824 101.599 220.107 102.452C225.169 121.655 226.261 132.526 227.151 152.058L170.975 153.891L159.519 154.097C159.193 153.286 158.844 152.484 158.474 151.693C156.091 146.565 153.71 145.437 148.807 143.683C148.756 129.892 148.812 116.101 148.977 102.311C170.94 102.426 185.612 100.993 207.036 95.582Z" fill="#CAEA79"/>
<path d="M263.338 68.2422C263.65 68.42 264.002 68.5933 264.212 68.8754C278.936 88.6607 285.978 116.082 286.96 139.363L286.414 139.597C280.166 142.36 278.722 144.298 276.36 150.293L249.051 151.048L232.661 151.735C232.69 134.557 229.593 118.025 225.629 101.412C232.291 96.7094 232.66 95.113 232.88 87.1761C246.216 81.0441 252.185 77.6562 263.338 68.2422Z" fill="#CAEA79"/>
<path d="M211.19 158.104C216.277 157.717 221.952 157.649 227.094 157.477C226.502 178.769 224.069 192.29 218.543 212.593C201.175 207.692 189.924 206.44 172.091 205.05C163.937 204.559 156.925 204.432 148.746 204.434C148.713 193.146 148.785 181.857 148.962 170.57C149.378 170.404 149.792 170.232 150.203 170.053C156.263 167.383 157.272 165.195 159.536 159.502C176.762 159.367 193.982 158.901 211.19 158.104Z" fill="#CAEA79"/>
<path d="M65.4588 159.301C87.4878 159.249 110.016 159.685 132.096 159.854C132.39 160.618 132.711 161.372 133.058 162.115C135.607 167.483 138.312 168.511 143.403 170.434L143.467 204.593L136.093 204.74C115.26 205.339 94.5716 208.394 74.4543 213.84C68.9051 194.691 65.3658 179.459 65.4588 159.301Z" fill="#CAEA79"/>
<path d="M276.074 155.812C279.111 158.293 276.929 161.564 286.999 165.747C285.286 192.51 276.31 214.504 262.045 236.763C257.537 232.091 252.133 228.258 246.832 224.562C238.543 219.753 232.737 217.433 223.852 214.07C229.711 193.293 232.206 178.845 232.665 157.117C246.613 157.033 262.034 156.231 276.074 155.812Z" fill="#CAEA79"/>
<path d="M148.785 210.043C173.895 210.226 192.402 211.328 216.718 217.634C213.276 231.288 202.092 249.488 193.318 260.386C181.512 273.22 174.846 277.848 159.413 285.003C155.925 279.577 155.345 279.021 149.429 276.562C149.513 254.677 148.827 232.139 148.785 210.043Z" fill="#CAEA79"/>
<path d="M158.472 21.6719C158.972 21.7544 159.471 21.8152 159.936 22.0162C186.61 33.5615 201.458 54.3754 212.524 79.0871C208.51 83.0984 208.082 84.6302 207.121 90.0736L197.441 92.2499C179.531 95.838 167.212 96.793 148.984 97.0473L149.464 27.7213C154.177 25.7199 154.945 25.2052 158.472 21.6719Z" fill="#CAEA79"/>
<path d="M130.883 210.508C134.439 210.227 139.744 210.262 143.445 210.164C143.435 232.231 143.598 254.299 143.933 276.364C138.599 278.677 137.498 279.696 134.277 284.318C122.773 279.098 117.347 275.239 108.021 267.324C93.0129 252.819 84.0099 238.35 76.4102 218.961C94.3862 213.742 112.338 211.913 130.883 210.508Z" fill="#CAEA79"/>
<path d="M5.6875 157.098C23.6508 158.297 41.6432 159.014 59.6455 159.245C60.8957 181.052 62.4992 194.523 69.307 215.475C63.6647 217.152 60.415 218.442 55.0705 220.7C45.919 225.208 41.1873 227.965 33.373 234.442C14.9853 210.385 7.40875 186.788 5.6875 157.098Z" fill="#CAEA79"/>
<path d="M134.053 21.8633C138.326 23.9983 137.423 25.1273 143.904 27.6682L143.474 96.9919C127.802 96.0609 116.072 94.9806 100.799 91.6641L89.4755 88.7459C88.613 82.4488 88.508 81.1585 83.9375 76.7512C96.6462 51.5165 108.712 35.4176 134.053 21.8633Z" fill="#CAEA79"/>
<path d="M161.625 16.6011C165.314 16.3363 171.72 16.7271 175.52 17.2193C211.785 21.9199 237.866 35.3189 260.536 63.6158C257.411 66.2707 253.782 68.9474 250.509 71.4688C243.775 75.7621 238.292 78.657 231.179 82.2932C230.9 81.9848 230.616 81.6818 230.325 81.3847C225.81 76.8033 223.297 76.7283 217.394 76.7201C206.287 49.1463 188.569 29.2425 161.625 16.6011Z" fill="#CAEA79"/>
<path d="M221.936 219.316C236.192 223.268 248.07 231.295 258.786 241.242C241.778 263.211 221.856 275.957 195.497 284.101C184.889 287.434 172.638 288.929 161.645 290.005C164.339 288.84 166.992 287.583 169.601 286.237C195.721 272.669 213.11 246.816 221.936 219.316Z" fill="#CAEA79"/>
<path d="M130.345 16.2383L131.296 16.29C131.193 16.6119 131.09 16.9337 130.987 17.2555C113.574 25.7799 99.5758 39.833 89.1058 55.98C85.1818 62.0324 82.1008 67.9852 78.9298 74.445C72.302 74.5058 70.2553 75.8163 65.87 80.0804C60.3328 77.0721 55.481 74.0834 50.1298 70.7616C45.0395 67.0909 42.407 64.7151 37.832 60.4743C63.4378 33.3957 92.7178 18.215 130.345 16.2383Z" fill="#CAEA79"/>
<path d="M70.0877 220.703C71.5952 221.668 77.5029 234.93 78.8911 237.693C91.4274 262.644 108.125 277.055 132.371 289.833C121.824 288.385 114.014 286.863 103.847 283.827C75.8447 274.192 56.2232 261.482 36.8477 238.642C46.6022 229.684 57.9564 225.187 70.0877 220.703Z" fill="#CAEA79"/>
<path d="M143.419 5.73294C147.752 4.10205 152.591 6.24982 154.289 10.5574C155.987 14.8649 153.915 19.7381 149.636 21.5033C146.807 22.6698 143.57 22.2212 141.165 20.33C138.761 18.438 137.562 15.3968 138.029 12.3728C138.496 9.34883 140.556 6.81096 143.419 5.73294Z" fill="#CAEA79"/>
<path d="M144.521 149.038C148.795 148.251 152.936 150.955 153.936 155.185C154.937 159.416 152.444 163.689 148.27 164.899C145.377 165.739 142.257 164.915 140.155 162.757C138.053 160.599 137.311 157.458 138.224 154.588C139.138 151.717 141.559 149.583 144.521 149.038Z" fill="#CAEA79"/>
<path d="M143.26 282.587C147.164 280.729 151.836 282.363 153.732 286.251C155.627 290.138 154.038 294.827 150.17 296.76C146.249 298.72 141.483 297.104 139.561 293.163C137.64 289.222 139.302 284.471 143.26 282.587Z" fill="#CAEA79"/>
<path d="M286.901 145.404C290.735 144.049 294.956 145.961 296.468 149.737C297.98 153.513 296.245 157.81 292.536 159.478C289.996 160.62 287.034 160.278 284.821 158.587C282.608 156.896 281.499 154.127 281.932 151.375C282.367 148.623 284.274 146.331 286.901 145.404Z" fill="#CAEA79"/>
<path d="M218.662 82.2333C222.55 81.3901 226.415 83.7471 227.448 87.5903C228.48 91.4335 226.316 95.411 222.529 96.6308C219.908 97.4747 217.036 96.8063 215.057 94.8926C213.078 92.9796 212.313 90.1312 213.067 87.483C213.82 84.8349 215.971 82.8169 218.662 82.2333Z" fill="#CAEA79"/>
<path d="M75.4312 79.9783C79.3732 79.4247 83.0354 82.1208 83.6782 86.051C84.3209 89.9805 81.7087 93.7036 77.7952 94.4351C75.1844 94.9234 72.5137 93.9594 70.8157 91.9159C69.1184 89.8724 68.6602 87.069 69.6179 84.5912C70.5757 82.1125 72.8002 80.3474 75.4312 79.9783Z" fill="#CAEA79"/>
</svg>
