<svg width="263" height="297" viewBox="0 0 263 297" fill="none" xmlns="http://www.w3.org/2000/svg">
<path d="M206.291 24.0803L168.275 53.6484H258.391V244.441H131.195L51.3555 292.346V244.441H4V53.6484H94.1363L56.1203 24.0803L71.7384 4L131.205 50.2523L190.673 4L206.291 24.0803Z" fill="url(#paint0_linear_2375_11351)"/>
<g filter="url(#filter0_f_2375_11351)">
<path d="M203.484 23.7295L167.048 52.0693L162.446 55.6484H256.391V242.441H130.642L130.166 242.727L53.3555 288.812V242.441H6V55.6484H99.9658L95.3643 52.0693L58.9268 23.7295L72.0889 6.80664L129.978 51.8311L131.205 52.7861L132.434 51.8311L190.322 6.80664L203.484 23.7295Z" stroke="white" stroke-opacity="0.3" stroke-width="4"/>
</g>
<path d="M38.1719 86.6367H225.128V211.922H124.602L80.9957 239.772V211.922H38.1719V86.6367Z" fill="url(#paint1_linear_2375_11351)"/>
<g filter="url(#filter1_f_2375_11351)">
<path d="M222.628 89.1367V209.422H123.871L123.256 209.814L83.4961 235.208V209.422H40.6719V89.1367H222.628Z" stroke="white" stroke-width="5"/>
</g>
<defs>
<filter id="filter0_f_2375_11351" x="0" y="0" width="262.391" height="296.344" filterUnits="userSpaceOnUse" color-interpolation-filters="sRGB">
<feFlood flood-opacity="0" result="BackgroundImageFix"/>
<feBlend mode="normal" in="SourceGraphic" in2="BackgroundImageFix" result="shape"/>
<feGaussianBlur stdDeviation="2" result="effect1_foregroundBlur_2375_11351"/>
</filter>
<filter id="filter1_f_2375_11351" x="35.1719" y="83.6367" width="192.955" height="159.137" filterUnits="userSpaceOnUse" color-interpolation-filters="sRGB">
<feFlood flood-opacity="0" result="BackgroundImageFix"/>
<feBlend mode="normal" in="SourceGraphic" in2="BackgroundImageFix" result="shape"/>
<feGaussianBlur stdDeviation="1.5" result="effect1_foregroundBlur_2375_11351"/>
</filter>
<linearGradient id="paint0_linear_2375_11351" x1="131.195" y1="4" x2="131.195" y2="292.346" gradientUnits="userSpaceOnUse">
<stop/>
<stop offset="1" stop-opacity="0.7"/>
</linearGradient>
<linearGradient id="paint1_linear_2375_11351" x1="132.65" y1="85.6367" x2="132.65" y2="239.772" gradientUnits="userSpaceOnUse">
<stop stop-color="white"/>
<stop offset="1" stop-color="white" stop-opacity="0.7"/>
</linearGradient>
</defs>
</svg>
