<svg xmlns="http://www.w3.org/2000/svg" viewBox="0 0 24 24" width="24" height="24">
  <title>arrow.up</title>
  <path transform="matrix(0.8958880139982502, 0, 0, 0.8958880139982502, 1.0656167979002622, 19.5748031496063)" d="M4.38-9.01C4.80-9.01 5.16-9.19 5.43-9.45L8.06-12.07L10.84-15.23L10.75-12.67L10.75 1.22C10.75 2.11 11.33 2.71 12.20 2.71C13.07 2.71 13.66 2.11 13.66 1.22L13.66-12.67L13.56-15.22L16.34-12.07L18.98-9.45C19.25-9.19 19.61-9.01 20.03-9.01C20.82-9.01 21.42-9.60 21.42-10.42C21.42-10.80 21.27-11.17 20.96-11.47L13.29-19.16C13.01-19.45 12.60-19.62 12.20-19.62C11.80-19.62 11.40-19.45 11.12-19.16L3.45-11.47C3.14-11.17 2.99-10.80 2.99-10.42C2.99-9.60 3.59-9.01 4.38-9.01Z" fill="currentColor"/>
</svg>