<svg xmlns="http://www.w3.org/2000/svg" viewBox="0 0 24 24" width="24" height="24">
  <title>bell</title>
  <path transform="matrix(0.8260729267505647, 0, 0, 0.8260729267505647, 0.8141335914811245, 18.989351403678604)" d="M2.48-2.02C2.48-1.16 3.14-0.60 4.25-0.60L9.20-0.60C9.29 1.66 11.06 3.64 13.54 3.64C16.02 3.64 17.79 1.68 17.88-0.60L22.83-0.60C23.93-0.60 24.60-1.16 24.60-2.02C24.60-3.19 23.40-4.24 22.39-5.29C21.62-6.09 21.41-7.76 21.32-9.11C21.23-13.72 20.04-16.70 16.92-17.82C16.52-19.36 15.27-20.57 13.54-20.57C11.81-20.57 10.55-19.36 10.16-17.82C7.04-16.70 5.85-13.72 5.77-9.11C5.67-7.76 5.46-6.09 4.69-5.29C3.67-4.24 2.48-3.19 2.48-2.02ZM4.76-2.37L4.76-2.51C4.97-2.85 5.67-3.54 6.28-4.22C7.13-5.16 7.52-6.67 7.63-8.95C7.72-14.07 9.25-15.70 11.25-16.25C11.54-16.32 11.71-16.46 11.72-16.77C11.75-17.99 12.46-18.84 13.54-18.84C14.63-18.84 15.32-17.99 15.36-16.77C15.38-16.46 15.53-16.32 15.82-16.25C17.84-15.70 19.36-14.07 19.45-8.95C19.56-6.67 19.96-5.16 20.79-4.22C21.41-3.54 22.10-2.85 22.31-2.51L22.31-2.37ZM11.03-0.60L16.05-0.60C15.96 1.00 14.95 1.99 13.54 1.99C12.13 1.99 11.11 1.00 11.03-0.60Z" fill="currentColor"/>
</svg>