<svg xmlns="http://www.w3.org/2000/svg" viewBox="0 0 24 24" width="24" height="24">
  <title>creditcard.and.numbers</title>
  <path transform="matrix(0.6716515807424899, 0, 0, 0.6716515807424899, -0.007083825265643551, 17.30499803227076)" d="M6.83 1.70L15.83 1.70L15.83-0.60L6.97-0.60C5.88-0.60 5.29-1.17 5.29-2.31L5.29-10.99L28.42-10.99L28.42-7.29C28.80-7.39 29.20-7.44 29.61-7.44C30-7.44 30.38-7.41 30.71-7.32L30.71-14.78C30.71-17.29 29.41-18.59 26.87-18.59L6.83-18.59C4.31-18.59 2.99-17.29 2.99-14.78L2.99-2.11C2.99 0.40 4.31 1.70 6.83 1.70ZM5.29-14.58C5.29-15.71 5.88-16.29 6.97-16.29L26.74-16.29C27.82-16.29 28.42-15.71 28.42-14.58L28.42-13.72L5.29-13.72ZM21 2.67L25.41 2.67C25.85 2.67 26.19 2.36 26.19 1.91C26.19 1.44 25.85 1.11 25.41 1.11L22.78 1.11L22.78 1.05L24.21-0.34C25.51-1.63 25.93-2.34 25.93-3.26C25.93-4.68 24.70-5.74 23.07-5.74C21.79-5.74 20.68-5.02 20.33-3.94C20.26-3.77 20.23-3.59 20.23-3.39C20.23-2.93 20.54-2.61 20.99-2.61C21.38-2.61 21.61-2.81 21.74-3.23C21.76-3.34 21.79-3.42 21.82-3.49C22.05-3.95 22.50-4.21 23.07-4.21C23.72-4.21 24.27-3.74 24.27-3.19C24.27-2.68 24.05-2.34 23.07-1.38L20.59 1.09C20.31 1.36 20.19 1.59 20.19 1.89C20.19 2.36 20.52 2.67 21 2.67ZM29.63 2.79C31.44 2.79 32.77 1.70 32.77 0.21C32.77-0.67 32.30-1.39 31.57-1.72C32.12-2.11 32.44-2.71 32.44-3.42C32.44-4.76 31.25-5.74 29.61-5.74C28.39-5.74 27.36-5.19 26.94-4.30C26.84-4.07 26.77-3.80 26.77-3.55C26.77-3.11 27.08-2.79 27.53-2.79C27.93-2.79 28.15-2.98 28.27-3.34C28.46-3.89 28.92-4.21 29.57-4.21C30.33-4.21 30.77-3.86 30.77-3.28C30.77-2.70 30.29-2.32 29.53-2.32L28.96-2.32C28.51-2.32 28.21-2.00 28.21-1.58C28.21-1.15 28.51-0.83 28.96-0.83L29.54-0.83C30.52-0.83 31.05-0.47 31.05 0.21C31.05 0.83 30.49 1.24 29.64 1.24C28.86 1.24 28.34 0.93 28.14 0.36C28.02 0.01 27.77-0.16 27.40-0.16C26.93-0.16 26.59 0.16 26.59 0.62C26.59 0.86 26.66 1.11 26.78 1.34C27.30 2.26 28.31 2.79 29.63 2.79ZM18.35 2.79C18.86 2.79 19.20 2.45 19.20 1.96L19.20-4.82C19.20-5.33 18.83-5.68 18.29-5.68C18.02-5.68 17.81-5.61 17.50-5.41L15.75-4.27C15.45-4.08 15.30-3.83 15.30-3.54C15.30-3.12 15.62-2.82 16.04-2.82C16.22-2.82 16.37-2.87 16.54-2.99L17.47-3.59L17.54-3.59L17.54 1.96C17.54 2.45 17.88 2.79 18.35 2.79Z" fill="currentColor"/>
</svg>