<svg xmlns="http://www.w3.org/2000/svg" viewBox="0 0 24 24" width="24" height="24">
  <title>delete.left</title>
  <path transform="matrix(0.777879064114251, 0, 0, 0.777879064114251, 0.1403828623518686, 18.572470373746583)" d="M24.13 2.60C26.72 2.60 28.10 1.41 28.10-1.17L28.10-15.56C28.10-18.13 26.72-19.50 24.13-19.50L14.03-19.50C12.30-19.50 11.18-19.09 10.05-17.84L3.62-10.89C2.71-9.87 2.39-9.21 2.39-8.46C2.39-7.71 2.71-7.04 3.62-6.02L10.07 0.89C11.19 2.14 12.30 2.60 14.03 2.60ZM23.91 0L13.89 0C13.11 0 12.61-0.21 12.07-0.79L5.67-7.65C5.37-7.97 5.26-8.21 5.26-8.46C5.26-8.71 5.37-8.94 5.67-9.26L12.06-16.16C12.60-16.73 13.11-16.89 13.88-16.89L23.91-16.89C24.93-16.89 25.49-16.37 25.49-15.29L25.49-1.61C25.49-0.53 24.93 0 23.91 0ZM14.52-3.89L17.43-6.81L20.34-3.89C20.57-3.67 20.84-3.55 21.18-3.55C21.82-3.55 22.32-4.05 22.32-4.70C22.32-5.02 22.20-5.29 21.97-5.51L19.04-8.43L21.97-11.37C22.20-11.58 22.32-11.86 22.32-12.16C22.32-12.81 21.82-13.30 21.18-13.30C20.85-13.30 20.58-13.20 20.36-12.96L17.43-10.04L14.50-12.96C14.27-13.20 14.00-13.30 13.68-13.30C13.03-13.30 12.53-12.81 12.53-12.16C12.53-11.86 12.66-11.58 12.88-11.37L15.81-8.43L12.88-5.51C12.66-5.29 12.53-5.02 12.53-4.70C12.53-4.05 13.03-3.55 13.68-3.55C14.02-3.55 14.30-3.67 14.52-3.89Z" fill="currentColor"/>
</svg>