<svg xmlns="http://www.w3.org/2000/svg" viewBox="0 0 24 24" width="24" height="24">
  <title>dollarsign.circle.fill</title>
  <path transform="matrix(0.8366013071895425, 0, 0, 0.8366013071895425, 0.2450980392156863, 19.07843137254902)" d="M14.05 3.49C20.65 3.49 26.00-1.88 26.00-8.46C26.00-15.06 20.65-20.41 14.05-20.41C7.46-20.41 2.10-15.06 2.10-8.46C2.10-1.88 7.46 3.49 14.05 3.49ZM14.05-1.73C13.83-1.73 13.65-1.92 13.65-2.13L13.65-3.19C12.19-3.30 10.66-4.00 10.24-5.45C10.20-5.59 10.17-5.71 10.17-5.84C10.17-6.22 10.46-6.47 10.82-6.47C11.14-6.47 11.34-6.30 11.50-5.94C11.87-4.92 12.61-4.48 13.65-4.38L13.65-8.04L13.36-8.12C11.87-8.47 10.36-9.15 10.36-10.96C10.36-12.69 11.87-13.75 13.65-13.90L13.65-14.93C13.65-15.14 13.83-15.33 14.05-15.33C14.27-15.33 14.45-15.14 14.45-14.93L14.45-13.90C16.07-13.75 17.75-12.70 17.75-11.26C17.75-10.84 17.40-10.64 17.10-10.64C16.77-10.64 16.54-10.83 16.42-11.19C16.13-12.09 15.43-12.60 14.45-12.70L14.45-9.20L14.82-9.12C16.46-8.73 17.93-8.03 17.93-6.21C17.93-4.25 16.34-3.30 14.45-3.19L14.45-2.13C14.45-1.92 14.27-1.73 14.05-1.73ZM11.72-11.06C11.72-10.10 12.56-9.66 13.57-9.41L13.65-9.39L13.65-12.70C12.66-12.57 11.72-12.06 11.72-11.06ZM14.45-4.37C15.55-4.45 16.58-4.91 16.58-6.11C16.58-7.18 15.62-7.57 14.57-7.83L14.45-7.86Z" fill="currentColor"/>
</svg>