<svg xmlns="http://www.w3.org/2000/svg" viewBox="0 0 24 24" width="24" height="24">
  <title>message</title>
  <path transform="matrix(0.7337345944396675, 0, 0, 0.7337345944396675, 0.4608770421324162, 18.84006878761823)" d="M15.73 2.09C23.60 2.09 29.36-2.72 29.36-9.33C29.36-15.96 23.59-20.73 15.73-20.73C7.85-20.73 2.10-15.96 2.10-9.33C2.10-7.14 2.74-5.10 3.87-3.45C4.42-2.63 4.62-2.05 4.62-1.57C4.62-0.95 4.43-0.45 3.89 0.02C2.96 0.81 3.45 2.09 4.66 2.09C6.13 2.09 7.76 1.58 8.96 0.75C10.95 1.62 13.25 2.09 15.73 2.09ZM15.73 0.20C13.49 0.20 11.48-0.22 9.79-0.98C9.04-1.31 8.50-1.22 7.78-0.80C7.28-0.48 6.69-0.21 6.09-0.08C6.34-0.49 6.50-0.96 6.50-1.57C6.50-2.44 6.19-3.39 5.44-4.51C4.50-5.87 3.98-7.52 3.98-9.33C3.98-14.82 8.84-18.84 15.73-18.84C22.62-18.84 27.47-14.82 27.47-9.33C27.47-3.83 22.62 0.20 15.73 0.20Z" fill="currentColor"/>
</svg>