<svg xmlns="http://www.w3.org/2000/svg" viewBox="0 0 24 24" width="24" height="24">
  <title>person.crop.circle</title>
  <path transform="matrix(0.8366013071895425, 0, 0, 0.8366013071895425, 0.2450980392156863, 19.07843137254902)" d="M14.05 3.49C20.65 3.49 26.00-1.86 26.00-8.46C26.00-15.06 20.65-20.41 14.05-20.41C7.45-20.41 2.10-15.06 2.10-8.46C2.10-1.86 7.45 3.49 14.05 3.49ZM14.05-4.48C10.54-4.48 7.82-3.21 6.63-1.82C5.05-3.57 4.09-5.91 4.09-8.46C4.09-13.97 8.54-18.42 14.05-18.42C19.56-18.42 24.01-13.97 24.01-8.46C24.01-5.91 23.05-3.57 21.47-1.82C20.29-3.21 17.58-4.48 14.05-4.48ZM14.05-6.47C16.31-6.45 18.07-8.37 18.07-10.89C18.07-13.25 16.30-15.21 14.05-15.21C11.80-15.21 10.02-13.25 10.03-10.89C10.04-8.37 11.80-6.49 14.05-6.47Z" fill="currentColor"/>
</svg>