<svg xmlns="http://www.w3.org/2000/svg" viewBox="0 0 24 24" width="24" height="24">
  <title>viewfinder</title>
  <path transform="matrix(0.8537602134400534, 0, 0, 0.8537602134400534, -0.5512756378189096, 19.208604302151077)" d="M2.99-13.38C2.99-12.69 3.55-12.12 4.25-12.12C4.95-12.12 5.51-12.69 5.51-13.38L5.51-15.59C5.51-16.88 6.26-17.64 7.56-17.64L9.82-17.64C10.51-17.64 11.07-18.20 11.07-18.89C11.07-19.59 10.51-20.16 9.82-20.16L7.56-20.16C4.75-20.16 2.99-18.39 2.99-15.59ZM26.41-13.38L26.41-15.59C26.41-18.39 24.66-20.16 21.84-20.16L19.58-20.16C18.89-20.16 18.33-19.59 18.33-18.89C18.33-18.20 18.89-17.64 19.58-17.64L21.84-17.64C23.14-17.64 23.89-16.88 23.89-15.59L23.89-13.38C23.89-12.69 24.46-12.12 25.15-12.12C25.85-12.12 26.41-12.69 26.41-13.38ZM2.99-3.50L2.99-1.30C2.99 1.50 4.75 3.27 7.56 3.27L9.82 3.27C10.51 3.27 11.07 2.71 11.07 2.02C11.07 1.31 10.51 0.75 9.82 0.75L7.56 0.75C6.26 0.75 5.51-0.01 5.51-1.30L5.51-3.50C5.51-4.20 4.95-4.77 4.25-4.77C3.55-4.77 2.99-4.20 2.99-3.50ZM26.41-3.50C26.41-4.20 25.85-4.77 25.15-4.77C24.46-4.77 23.89-4.20 23.89-3.50L23.89-1.30C23.89-0.01 23.14 0.75 21.84 0.75L19.58 0.75C18.89 0.75 18.33 1.31 18.33 2.02C18.33 2.71 18.89 3.27 19.58 3.27L21.84 3.27C24.66 3.27 26.41 1.50 26.41-1.30Z" fill="currentColor"/>
</svg>