<svg width="117" height="90" viewBox="0 0 117 90" fill="none" xmlns="http://www.w3.org/2000/svg">
<g opacity="0.9">
<rect x="11.5996" y="12.8164" width="93.6816" height="64.5362" rx="3.27142" fill="url(#paint0_linear_2145_45254)"/>
<rect x="11.5996" y="26.4883" width="93.6816" height="50.8557" rx="3.27142" fill="url(#paint1_linear_2145_45254)"/>
<path d="M96.8428 0C103.856 1.32059e-10 107.362 0.00045076 110.041 1.36523C112.397 2.56583 114.313 4.48158 115.514 6.83789C116.878 9.51661 116.879 13.023 116.879 20.0361V69.0146C116.879 76.0278 116.879 79.5342 115.514 82.2129C114.313 84.5692 112.397 86.4849 110.041 87.6855C107.362 89.0503 103.856 89.0508 96.8428 89.0508H20.0361C13.0231 89.0508 9.51659 89.0503 6.83789 87.6855C4.48158 86.4849 2.56583 84.5692 1.36523 82.2129C0.000379882 79.5342 4.90521e-10 76.0277 0 69.0146V20.0361C2.60601e-10 13.023 0.000428419 9.5166 1.36523 6.83789C2.56583 4.48158 4.48158 2.56583 6.83789 1.36523C9.5166 0.000426535 13.023 2.11143e-10 20.0361 0H96.8428ZM15.8682 8.35352C12.7513 8.35352 11.1925 8.35344 10.002 8.95996C8.95471 9.49356 8.10294 10.3453 7.56934 11.3926C6.96281 12.5831 6.96289 14.1419 6.96289 17.2588V45.9219H28.54C42.9375 45.9219 46.75 61.2275 58.4453 61.2275C70.1406 61.2275 73.3583 45.9219 88.3506 45.9219H109.928V17.2588C109.928 14.1419 109.928 12.5831 109.321 11.3926C108.788 10.3453 107.936 9.49356 106.889 8.95996C105.698 8.35343 104.139 8.35352 101.022 8.35352H15.8682Z" fill="url(#paint2_linear_2145_45254)"/>
</g>
<defs>
<linearGradient id="paint0_linear_2145_45254" x1="58.4404" y1="12.8164" x2="58.4404" y2="77.3526" gradientUnits="userSpaceOnUse">
<stop stop-color="white"/>
<stop offset="0.604611" stop-color="white" stop-opacity="0.3"/>
</linearGradient>
<linearGradient id="paint1_linear_2145_45254" x1="58.4404" y1="26.4883" x2="58.4404" y2="77.344" gradientUnits="userSpaceOnUse">
<stop stop-color="white"/>
<stop offset="0.604611" stop-color="white" stop-opacity="0.3"/>
</linearGradient>
<linearGradient id="paint2_linear_2145_45254" x1="58.4395" y1="0" x2="58.4395" y2="89.0508" gradientUnits="userSpaceOnUse">
<stop offset="0.541388" stop-color="white"/>
<stop offset="1" stop-color="white" stop-opacity="0.7"/>
</linearGradient>
</defs>
</svg>
